<?xml version="1.0"?>
<svg width="640" height="480" xmlns="http://www.w3.org/2000/svg" xmlns:svg="http://www.w3.org/2000/svg">
 <!-- Created with SVG-edit - https://github.com/SVG-Edit/svgedit-->
 <g class="layer">
  <title>Layer 1</title>
  <path d="m182.5,123.5c1.052673,-1.757164 1.348923,-2.661018 1.610672,-3.21067c0.474487,-0.996368 0.855942,-1.788933 1.389328,-2.622665c0.451614,-0.70591 0.833328,-1.5 0.956329,-2.176498c0.141006,-0.775497 0.500473,-1.859802 1.110672,-2.542c0.44487,-0.49736 1.035126,-0.917084 1.766327,-1.781502c0.515106,-0.608963 0.9384,-1.323509 1.356003,-2.051994c0.417099,-0.727608 1.007706,-1.794418 1.401672,-2.448502c0.533447,-0.885651 0.873428,-1.378548 1.358337,-2.515503c0.414383,-0.971596 0.757767,-1.66217 1.071487,-2.171501c0.492233,-0.799149 1.05687,-1.814224 1.458344,-2.416664c0.570374,-0.855873 1.291183,-1.1791 1.720825,-1.914497c0.483963,-0.828362 0.762711,-1.695274 1.436005,-2.188004c0.808762,-0.591866 1.404968,-1.004395 1.965332,-1.648003c0.621628,-0.713966 1.196747,-1.538734 1.598663,-2.086662c0.398102,-0.542732 1.176208,-1.561638 1.800003,-2.18367c0.578751,-0.577126 1.404663,-1.153938 2.020828,-1.5625c0.668152,-0.443039 1.665329,-1.244759 2.204498,-1.729828c0.551559,-0.496223 1.049866,-1.035362 2.09201,-1.780006c0.678818,-0.485039 1.190399,-0.721649 2.325165,-1.290497c0.65712,-0.329414 1.330719,-0.670914 1.994995,-0.969002c1.089005,-0.488686 2.036667,-0.743935 2.695831,-1.209831c0.713287,-0.504158 1.134674,-1.038055 1.898666,-1.648003c0.917618,-0.732597 1.746033,-1.055779 2.475998,-1.462662c0.770859,-0.42968 1.657501,-0.694511 2.333679,-0.889336c0.713104,-0.205467 1.800278,-0.473106 2.801163,-0.808998c0.642334,-0.215561 1.295731,-0.438454 2.457169,-1.233665c0.625168,-0.42804 1.188278,-0.971909 1.800003,-1.452003c0.883575,-0.693443 1.476059,-1.085915 2.379166,-1.442833c0.817871,-0.323235 1.837875,-0.480995 2.541656,-0.5625c0.748199,-0.086655 1.948471,-0.274017 2.619171,-0.435997c0.676178,-0.163307 1.863052,-0.557686 2.67334,-0.953339c0.655838,-0.320236 1.456863,-0.531006 2.228333,-0.610664c0.860504,-0.088852 2.058411,-0.278214 2.647659,-0.425331c0.855637,-0.213623 1.886032,-0.490242 2.810669,-0.553833c0.682678,-0.046951 1.692474,0.032127 2.541672,-0.083336c0.955811,-0.129959 1.985184,-0.591919 2.720001,-0.995499c0.387787,-0.212982 1.167358,-0.702911 2.024979,-1.090004c0.863861,-0.389915 1.790588,-0.623505 2.717346,-0.754662c0.895447,-0.126724 1.748627,-0.130463 2.831665,-0.318672c0.6026,-0.104713 1.596466,-0.481827 2.585663,-0.657333c0.797272,-0.141457 1.638794,-0.108856 2.657166,-0.342667c0.697083,-0.160049 1.513702,-0.524239 2.526001,-0.730495c0.628021,-0.12796 1.577393,-0.351246 2.348175,-0.758003c0.839844,-0.443203 1.346161,-0.837307 2.362,-1.4035c0.653992,-0.364506 1.682739,-0.735641 2.485321,-0.861332c0.797729,-0.124931 1.80368,-0.411469 2.508026,-0.599998c1.178253,-0.31538 1.944977,-0.346336 2.778656,-0.400002c0.434021,-0.027939 1.316711,-0.03817 2.579987,-0.192001c0.765991,-0.093273 1.788879,-0.345943 2.424347,-0.480667c1.204315,-0.255329 1.813782,-0.296944 2.744995,-0.377998c0.649506,-0.056534 2.047577,-0.254032 2.778656,-0.400002c0.724945,-0.144741 1.409332,-0.336342 2.614685,-0.48933c0.726013,-0.092148 1.77066,-0.085335 2.581329,-0.085335c0.874664,0 1.877319,0 2.751831,0c0.656342,0 1.770844,0.003784 2.604156,-0.001335c0.873383,-0.005363 1.748718,-0.007576 2.580017,-0.084c1.093018,-0.100487 1.963531,-0.35162 2.493317,-0.48933c1.087402,-0.28265 2.069794,-0.373386 2.780853,-0.425335c0.730927,-0.053402 1.816498,-0.146122 2.826477,-0.352665c0.655548,-0.134056 1.297302,-0.348946 2.673859,-0.525837c0.723877,-0.093018 1.457855,-0.107567 2.168976,-0.116997c1.267242,-0.016804 2.069855,-0.004501 2.872345,-0.004501c0.9375,0 1.692169,0 2.534821,0c0.898682,0 1.82135,0 2.736023,0c0.881317,0 1.730652,0 2.556,0c0.809326,0 2.010498,0 2.806152,0c0.783661,0 1.547333,0 2.983185,0c0.66864,0 1.646667,0 2.305328,0c1.03717,0 1.76416,0 2.854645,0c0.692017,0 1.891998,0 2.640503,0c0.703522,0 1.706177,0 2.541687,0c0.880493,0 2.080475,0 2.689819,0c0.946503,0 1.955994,0 2.675995,0c0.76001,0 1.559998,0 2.399994,0c1.334351,0 2.257019,0 2.717346,0c0.898682,0 1.741333,0 3.140015,0c0.793488,0 1.451996,0 2.46048,0c0.852661,0 1.817383,-0.016365 2.6315,0.010666c0.869263,0.028862 2.067017,0.199265 2.673004,0.3465c0.967651,0.235115 1.658722,0.456097 2.834167,0.742832c0.427795,0.104355 1.338684,0.304058 2.314178,0.5c0.508392,0.102119 2.109192,0.400684 2.664001,0.5c0.562531,0.100697 1.703979,0.299915 2.278656,0.400002c1.147369,0.199829 1.716644,0.296528 2.833344,0.5c1.079254,0.196648 1.601715,0.293903 2.604156,0.5c0.944855,0.194263 2.231781,0.490311 2.990509,0.700001c0.691833,0.191196 1.322601,0.378979 2.405334,0.799999c0.72406,0.281551 1.413269,0.63139 2.5,0.833332c0.962708,0.178894 1.67392,0.142429 2.361328,0.276501c1.28183,0.250015 1.801361,0.605236 2.59198,1.0755c0.564453,0.335751 1.57251,0.808689 2.375854,1.062c0.853333,0.269077 1.740051,0.49461 2.170837,0.636669c1.234283,0.407021 1.963989,0.759872 2.645813,1.136833c1.014587,0.560936 2.04126,1.180824 2.404846,1.379166c0.739502,0.403397 1.494568,0.792854 2.231995,1.199997c1.068085,0.589706 1.730255,0.988007 2.342346,1.400002c0.866486,0.583237 1.615021,1.206161 2.316315,1.78933c0.672974,0.559616 1.383881,1.059723 2.182495,1.462502c0.845245,0.4263 1.470886,0.677658 2.343018,1.291c0.624725,0.439354 1.21106,0.989746 1.856995,1.509003c0.994995,0.799858 1.721161,1.269943 2.457489,1.712166c0.719849,0.432327 1.439484,0.79998 2.342194,1.435997c0.539124,0.379837 1.230103,0.963821 1.876495,1.800003c0.445831,0.576736 0.890778,1.421074 1.487976,2.200165c0.481628,0.628319 1.082336,1.222389 1.657166,2.221001c0.294128,0.510971 0.542938,1.351059 1.121674,2.436501c0.377808,0.708588 0.802094,1.272507 1.221497,2.127831c0.354401,0.722771 0.704071,1.54364 1.140015,2.361c0.217163,0.407127 0.942841,1.504349 1.486511,2.091003c0.515564,0.556343 1.356934,1.280464 1.908813,2.205498c0.382965,0.641914 0.616943,1.394104 0.834015,2.166c0.333069,1.184494 0.498505,1.991592 0.719666,2.769669c0.213928,0.752663 0.400574,1.490532 1.074646,2.654663c0.317078,0.547569 0.957092,1.306145 1.514679,2.26667c0.428497,0.738152 0.610809,1.160431 0.979156,2.041664c0.379608,0.90818 0.556335,1.370079 0.999329,2.736671c0.277435,0.855865 0.500397,1.680077 0.71701,2.459999c0.304138,1.0951 0.499817,1.780914 0.715179,2.446999c0.219208,0.678001 0.470123,1.385696 0.910645,2.557663c0.328003,0.872612 0.682159,1.797417 0.853333,2.278336c0.348419,0.978844 0.67215,1.974998 0.93869,2.977333c0.131653,0.49511 0.358032,1.478157 0.524994,2.444168c0.08136,0.470779 0.240814,1.83548 0.313507,2.695503c0.069305,0.819962 0.087799,1.616699 0.3815,2.694992c0.190033,0.697723 0.563446,1.333221 0.961334,2.376511c0.421722,1.105789 0.545166,1.958267 0.591003,2.399994c0.09433,0.909012 0.108002,1.841965 0.111664,2.307495c0.010681,1.36113 -0.003265,2.225784 0.023499,3.061844c0.026154,0.816711 0.13028,2.023285 0.264496,2.820831c0.135101,0.80278 0.321381,1.600937 0.515991,2.399994c0.292603,1.201447 0.503723,1.997864 0.677826,2.800003c0.173187,0.797989 0.369843,1.998566 0.435516,2.79866c0.064789,0.789566 0.078827,1.565292 0.083984,2.31601c0.007294,1.063629 0.001343,2.038666 0.001343,2.638657c0,1.080002 0,2.021347 0,2.699341c0,1.233994 0,1.794006 0,2.709c0,1.005005 0,2.095505 0,2.859161c0,0.783676 0,1.979172 0,2.779175c0,0.800003 0,1.599991 0,2.399994c0,1.199997 0,2 0,2.800003c0,0.800003 0.007996,2.000061 -0.002655,2.800003c-0.010681,0.800156 -0.029327,1.605942 -0.167999,2.399994c-0.211639,1.211823 -0.379059,1.60495 -0.690674,2.378662c-0.304993,0.757278 -0.964172,2.092041 -1.256012,2.652008c-0.393005,0.754074 -0.835114,1.465408 -1.425659,2.191498c-0.458496,0.563721 -1.013062,1.171021 -1.56601,1.910995c-0.301636,0.403671 -1.196838,1.849121 -1.489655,2.404175c-0.303101,0.57457 -0.59787,1.17131 -1.165344,2.397339c-0.28244,0.610184 -0.545166,1.217148 -1.069336,2.365326c-0.477661,1.046295 -0.701385,1.534882 -1.166656,2.4375c-0.440826,0.855209 -0.659821,1.273636 -1.421509,2.462494c-0.519379,0.810654 -0.810242,1.203064 -1.38916,2c-0.291687,0.401566 -1.188507,1.600616 -1.787994,2.397339c-0.296448,0.393967 -0.873627,1.166367 -1.444183,1.888336c-0.781158,0.988449 -1.282349,1.538864 -1.721161,2.074326c-0.647278,0.789841 -1.248718,1.733383 -1.634674,2.490677c-0.203583,0.39946 -0.575012,1.230988 -0.944153,2.034164c-0.483398,1.051788 -0.890778,1.813293 -1.318512,2.380493c-0.645172,0.855576 -1.107727,1.388214 -1.599976,2.021332c-0.523712,0.673569 -1.041321,1.358963 -1.817352,2.270508c-0.460083,0.540421 -1.14447,1.259659 -1.605316,1.725494c-0.99527,1.006042 -1.541321,1.542679 -2.090668,2.09201c-0.541351,0.541336 -1.299927,1.308289 -1.777161,1.772659c-0.703339,0.684387 -1.205231,1.151489 -2.091522,1.874161c-0.670868,0.547043 -1.436523,1.104324 -1.850006,1.389175c-0.872772,0.601273 -1.837128,1.194229 -2.348816,1.488998c-1.043945,0.601395 -1.57608,0.879807 -2.095337,1.158661c-0.984833,0.52887 -2.235229,1.198318 -2.841156,1.572342c-0.707794,0.436905 -1.343597,0.876968 -2.20752,1.290665c-0.73703,0.352936 -1.615631,0.685181 -2.092499,0.853333c-1.007233,0.355164 -2.084503,0.672882 -3.199982,0.93866c-0.554352,0.13208 -1.10199,0.250839 -2.152008,0.440002c-0.942291,0.169754 -2.067719,0.29245 -2.82135,0.432007c-0.804596,0.148987 -1.802368,0.593048 -2.477325,0.865326c-0.769958,0.310593 -1.636292,0.621872 -2.604004,0.81601c-1.026917,0.206024 -1.571045,0.235016 -2.666656,0.291656c-0.548981,0.028381 -1.631989,0.040329 -2.666656,0.041672c-0.958679,0.001236 -1.829346,0 -2.604004,0c-0.670685,0 -1.862335,0 -2.895996,0c-0.680023,0 -1.52002,0 -2.517334,0c-0.81601,0 -1.632019,0 -2.629333,0c-0.839996,0 -1.977661,-0.057159 -1.977661,0c0,0.890991 1.790985,0 2.722992,0c0.623993,0 1.626648,0 2.297333,0c0.774658,0 1.645325,0 3.113647,0c0.527679,0 1.628998,0 2.198669,0c0.579681,0 1.761017,0 2.958344,0c0.600159,0 1.804504,0 2.410675,0c0.610168,0 1.846497,0 2.47467,0c1.281311,0 1.935822,0 3.262817,0c0.666504,0 1.330994,0 1.990509,0c0.651489,0 2.527985,0 3.118164,0c1.124329,0 1.660492,0 2.685822,0c0.49118,0 1.890686,0 2.772003,0c0.849335,0 1.674683,0 2.484009,0c1.200836,0 1.987823,0 2.738831,0c0.69101,0 2.010498,-0.000061 2.738495,0c1.088165,0.000092 1.687378,-0.01622 2.68399,0.035995c0.674225,0.035324 1.871735,0.240128 2.598358,0.464005c1.045197,0.322037 1.652496,0.432541 2.556,0.552673c1.13092,0.15036 1.793274,0.29509 2.485657,0.468155c0.697083,0.17424 1.965363,0.558533 2.727997,0.879166c0.670837,0.282043 1.679443,0.796036 2.334503,1.141678c0.797791,0.420959 1.801453,1.001648 2.192169,1.226334c0.841827,0.484085 1.276855,0.75119 2.20166,1.226654c1.362701,0.700607 1.814514,0.88327 2.686493,1.19101c0.829529,0.29274 1.652405,0.506424 2.857178,0.814331c0.795807,0.203384 1.580902,0.386795 2.291992,0.671997c0.665619,0.266953 1.481476,0.841568 2.021332,1.578674c0.525574,0.717606 1.20871,1.637482 1.692017,1.934998c0.716522,0.441086 1.861572,0.899597 2.473816,1.314331c0.856262,0.580032 1.573975,0.984818 2.036835,1.470673c0.688293,0.722504 0.925964,1.562851 1.368011,2.261322c0.534637,0.844757 1.349213,1.351715 2.115997,1.934662c0.619202,0.470764 1.227417,1.056885 2,2c0.41507,0.506683 0.806183,1.065094 1.399994,1.937836c0.606354,0.891205 1.00705,1.493683 1.399994,2.116852c0.407379,0.646088 0.821869,1.338409 1.400024,2.521149c0.415863,0.850769 0.592133,1.301147 1,2.170837c0.392487,0.836914 0.989471,1.929443 1.395477,2.52417c0.374237,0.548218 0.96637,1.305756 1.383179,2.205505c0.303955,0.656128 0.515015,1.400757 0.773987,2.165985c0.404175,1.194366 0.733429,1.989594 1.062012,2.791016c0.327423,0.798584 0.676422,1.585175 0.942505,2.799835c0.172638,0.787994 0.215057,1.579987 0.290985,2.342987c0.108612,1.091553 0.217865,1.777985 0.472687,2.757172c0.170776,0.656158 0.478577,1.666809 0.680481,2.384003c0.20874,0.741516 0.517303,1.878662 0.965332,2.949341c0.291321,0.696198 0.670898,1.352539 0.972015,2.063995c0.316376,0.747467 0.629181,2.065002 0.691986,2.553314c0.130188,1.012085 0.138885,1.529205 0.217499,2.53418c0.105591,1.349579 0.209442,2.080902 0.451843,2.931824c0.194946,0.684357 0.44519,1.697083 0.52533,2.391357c0.137634,1.192413 0.256836,1.944305 0.399994,2.767975c0.147461,0.848358 0.317932,1.668274 0.453186,2.759674c0.107147,0.864594 0.112915,1.608032 0.121643,2.585663c0.007172,0.804047 -0.015808,1.640259 0.221191,2.657166c0.213989,0.918182 0.575836,1.505249 0.721497,2.526001c0.120697,0.845703 0.057159,1.817169 0.057159,2.642181c0,0.914978 0,1.919983 0,2.638672c0,0.750641 0,1.52533 0,2.315979c0,1.198517 0,1.994171 0,2.777832c0,0.763672 0,2.199341 0,2.863678c0,0.946503 0,1.555847 0,2.758484c0,0.919525 0,1.555847 0,2.565338c0,1.090515 0,1.854187 0,2.637848c0,1.195496 0,1.994171 0,2.784821c0,0.774689 0.021851,1.525574 -0.000671,2.589508c-0.021332,1.007141 -0.086609,1.700806 -0.340668,2.390503c-0.447113,1.213715 -0.789551,1.603271 -1.359985,2.492004c-0.296021,0.461212 -0.9086,1.378937 -1.162689,1.855988c-0.709015,1.331268 -0.938599,2.216187 -1.073486,3.041016c-0.126953,0.776276 -0.207794,1.879059 -0.347839,2.557648c-0.204498,0.990906 -0.42572,1.634796 -0.714661,2.650665c-0.203278,0.714691 -0.491119,1.809845 -0.642822,2.523499c-0.206879,0.973175 -0.270508,1.811096 -0.418518,2.560516c-0.216278,1.095154 -0.50058,1.721832 -0.799988,2.410675c-0.316193,0.727448 -0.678955,1.446381 -1.253326,2.85199c-0.259827,0.635803 -0.562805,1.532135 -0.885345,2.320007c-0.389099,0.950439 -0.74057,1.629181 -1.321655,2.588318c-0.330658,0.545776 -0.714966,1.123444 -1.140015,1.73999c-0.696777,1.010712 -1.217834,1.724335 -1.763672,2.453003c-0.544861,0.727356 -0.805573,1.088959 -1.608002,2.052002c-0.69986,0.839966 -1.171448,1.329102 -1.619324,1.838684c-0.721771,0.821228 -1.233093,1.463654 -1.783325,2.156006c-0.575104,0.723663 -0.851044,1.105164 -1.764008,2.171997c-0.59021,0.689667 -1.194977,1.336761 -1.835999,1.919983c-0.634247,0.577026 -1.320099,1.096161 -2.052002,1.563995c-0.758728,0.484985 -1.595825,0.941956 -2.030823,1.192505c-1.418335,0.816895 -1.925049,1.130219 -2.446503,1.456848c-1.067108,0.668396 -1.592987,1.012543 -2.112,1.346649c-0.983948,0.633423 -1.856812,1.185425 -2.581329,1.633331c-0.858917,0.531006 -1.366669,0.809021 -2.141846,1.596191c-0.671173,0.681549 -1.075623,1.277435 -1.655487,1.774475c-0.959106,0.822113 -1.803528,1.231354 -2.230682,1.446686c-0.867401,0.437256 -1.754089,0.819611 -2.579987,1.235992c-0.768494,0.387451 -1.474823,0.777191 -2.076019,1.235992c-1.139801,0.869812 -1.567535,1.454376 -2.053314,1.978668c-0.492889,0.531982 -1.012268,1.097809 -2.068024,1.642517c-0.765137,0.394745 -1.641174,0.606232 -2.477997,0.890991c-1.165649,0.396667 -1.822784,0.711426 -2.371338,1.098511c-0.816376,0.57608 -1.614288,1.327087 -2.253326,1.834656c-0.66745,0.530151 -1.331665,1.043579 -1.97998,1.463989c-0.982483,0.637115 -1.600433,0.840454 -2.276001,1.106689c-0.99292,0.391266 -1.852875,0.808899 -2.335999,1.023987c-1.019958,0.454132 -1.529999,0.723816 -3.108002,1.223999c-0.485321,0.153839 -1.426575,0.347015 -2.333344,0.479156c-0.449982,0.065582 -1.375641,0.149445 -2.84317,0.463837c-0.531952,0.113953 -1.078064,0.26297 -2.21933,0.598663c-0.59613,0.175323 -1.202179,0.372192 -3.104156,0.958344c-0.653839,0.201508 -1.314331,0.39978 -1.97702,0.59549c-0.660004,0.194916 -1.313873,0.386414 -2.589325,0.747345c-0.611969,0.173157 -1.766174,0.493591 -2.812317,0.77182c-0.487305,0.129608 -1.411591,0.370453 -2.29834,0.580841c-1.320923,0.313385 -1.777344,0.406097 -2.709015,0.604492c-0.946991,0.20163 -1.42276,0.296509 -2.363312,0.5c-1.363953,0.295105 -1.802979,0.394806 -2.669342,0.610687c-0.877686,0.218689 -1.785675,0.468994 -2.748016,0.755981c-1.039154,0.309906 -1.579742,0.485809 -2.138641,0.64801c-1.14682,0.332825 -1.733551,0.49115 -2.330688,0.615997c-1.787933,0.37381 -2.395508,0.406067 -2.992828,0.463989c-1.18277,0.114716 -1.771423,0.130096 -2.919159,0.273346c-1.122131,0.140076 -1.667786,0.259766 -2.732666,0.537323c-0.529327,0.13797 -1.575043,0.455231 -2.105347,0.589355c-1.605713,0.406128 -2.167419,0.474182 -2.732666,0.534668c-1.148346,0.122864 -1.73526,0.139038 -2.919159,0.161652c-0.596771,0.011414 -1.795532,0.003967 -2.995514,0.011658c-0.600006,0.003845 -1.200806,0.00174 -2.399994,0.069336c-0.600555,0.033844 -1.208527,0.04718 -3.000153,0.37085c-0.604553,0.109222 -1.205383,0.262878 -1.810516,0.418488c-1.227478,0.315643 -1.845215,0.495483 -2.47467,0.656006c-1.278778,0.326111 -1.933075,0.477356 -3.27182,0.721008c-0.677368,0.123291 -1.362976,0.225159 -2.053497,0.315002c-0.693207,0.090179 -1.388733,0.186523 -3.489166,0.325317c-0.698334,0.046143 -1.39563,0.069611 -2.089508,0.096008c-0.689789,0.026245 -1.375275,0.03772 -2.725342,0.109344c-1.319397,0.070007 -1.964142,0.132538 -2.598663,0.199982c-1.241028,0.131927 -1.844879,0.217072 -2.440002,0.29068c-1.15976,0.143433 -2.279541,0.264618 -2.824829,0.303833c-1.054901,0.075867 -2.059265,0.103271 -2.539154,0.110809c-0.910614,0.014313 -2.139954,0.00174 -2.872833,0.015167c-1.024811,0.018799 -1.695801,0.05777 -2.731659,0.216858c-0.747101,0.114746 -1.537933,0.295654 -2.397003,0.425995c-1.410553,0.21402 -1.923035,0.242554 -2.982025,0.295502c-0.53891,0.026947 -1.612457,0.048767 -2.136658,0.052673c-1.462463,0.010895 -2.306488,0.004486 -3.054504,0.004486c-0.994476,0 -1.90799,0 -2.821503,0c-0.648987,0 -1.358002,0 -2.586487,0c-0.951996,0 -1.976013,0 -2.5,0c-1.041992,0 -1.548004,0 -2.935486,0c-0.792999,0 -1.502014,0 -2.46051,0c-1.20401,0 -1.804016,0 -2.70401,0c-1.200165,0 -1.804504,0 -2.735992,0c-0.649323,0 -2.049347,0 -2.799988,0c-0.774689,0 -1.565338,0 -2.764008,0c-0.800018,0 -1.600006,0 -2.399994,0c-1.200012,0 -2.001343,0 -2.810669,0c-0.825348,0 -1.674683,0 -2.556,0c-0.917358,0 -1.858673,0 -2.333344,0c-0.947327,0 -2.333374,0.004089 -3.217346,-0.001343c-0.868011,-0.005341 -1.304291,-0.00354 -2.192474,-0.055817c-1.425262,-0.083893 -1.933502,-0.159119 -2.995514,-0.295502c-0.545654,-0.070068 -1.643494,-0.226013 -2.189331,-0.294678c-1.570587,-0.19754 -2.062164,-0.238373 -3,-0.299988c-0.904907,-0.059479 -1.811096,-0.099487 -2.273331,-0.136688c-1.476624,-0.118805 -2.003586,-0.194794 -3.104004,-0.35199c-0.57016,-0.081451 -1.149765,-0.172058 -2.330673,-0.365326c-1.197754,-0.196045 -1.797958,-0.29425 -2.992828,-0.503174c-0.594223,-0.103912 -1.186111,-0.20462 -2.347336,-0.452667c-0.57309,-0.122406 -2.237076,-0.561127 -2.775833,-0.726837c-0.538589,-0.165649 -1.622116,-0.518829 -2.178665,-0.690643c-0.568787,-0.175568 -2.40123,-0.665466 -3.067001,-0.803833c-0.688904,-0.143188 -1.402008,-0.268341 -2.132996,-0.385529c-0.743698,-0.119232 -1.498444,-0.226898 -2.259003,-0.331482c-0.762115,-0.104797 -2.277115,-0.30365 -3.022171,-0.40451c-1.464554,-0.198273 -2.185547,-0.299652 -2.900665,-0.399994c-0.710205,-0.09967 -1.416351,-0.199829 -2.119492,-0.299988c-1.401398,-0.199646 -2.100601,-0.302673 -3.49234,-0.495514c-0.687469,-0.095245 -1.36705,-0.185913 -2.037003,-0.268494c-0.657379,-0.081024 -2.538452,-0.272247 -3.128998,-0.31485c-0.572128,-0.04129 -1.671356,-0.10141 -2.201324,-0.141998c-1.033478,-0.079132 -1.550934,-0.089539 -3.042007,-0.421997c-1.018402,-0.227081 -1.520798,-0.419128 -2.571671,-0.742493c-0.542221,-0.16684 -1.090271,-0.36554 -2.870331,-0.793335c-0.6203,-0.149078 -1.253983,-0.268768 -1.886993,-0.395996c-1.247971,-0.250824 -1.854614,-0.362885 -2.432007,-0.509338c-1.564026,-0.396698 -2.425034,-0.765106 -2.82666,-0.941345c-0.78038,-0.342407 -1.548538,-0.73291 -2.876495,-1.153473c-0.486816,-0.154175 -1.543655,-0.405914 -2.098007,-0.542023c-0.569656,-0.139862 -1.749069,-0.4245 -2.9375,-0.8125c-0.603592,-0.197052 -1.787384,-0.665344 -2.367996,-0.906647c-0.570389,-0.237061 -1.655701,-0.709778 -2.17601,-0.906677c-1.379349,-0.521973 -2.180344,-0.689087 -2.872665,-0.832489c-0.89447,-0.185272 -1.923981,-0.556854 -2.5625,-1.0625c-0.435257,-0.344696 -1.212479,-1.167145 -1.831497,-1.758331c-0.637863,-0.609192 -1.354401,-1.202087 -2.141998,-1.804504c-0.546234,-0.417786 -1.142227,-0.804169 -2.125992,-1.816833c-0.493683,-0.508179 -0.904312,-1.093231 -1.374008,-1.626007c-0.935516,-1.061188 -1.49585,-1.495087 -2.026505,-1.931824c-0.751999,-0.618896 -1.57692,-1.404541 -2,-2.041687c-0.430038,-0.647614 -0.842087,-1.40097 -1.356827,-2.22583c-0.374496,-0.600128 -0.780121,-1.231567 -1.363831,-2.274658c-0.406052,-0.725616 -0.790085,-1.473541 -1.143005,-2.226013c-0.505997,-1.078857 -0.753922,-1.772858 -1.157166,-2.690155c-0.241272,-0.548828 -0.812531,-1.429901 -1.541672,-2.104156c-0.414871,-0.383636 -1.388123,-1.438446 -1.642334,-1.801025c-0.560242,-0.799042 -0.832016,-1.252625 -1.363327,-2.232483c-0.277084,-0.511017 -0.800964,-1.585175 -1.264664,-2.703491c-0.229279,-0.552979 -0.63031,-1.636353 -0.805344,-2.152008c-0.319443,-0.941071 -0.605606,-2.071228 -0.82132,-2.789337c-0.299789,-0.997986 -0.806244,-1.574402 -1.26268,-2.550659c-0.230103,-0.492157 -0.529099,-1.351135 -0.965332,-2.22934c-0.454071,-0.914124 -0.865845,-1.475159 -1.263992,-2.399994c-0.37851,-0.879242 -0.500946,-1.790314 -0.584,-2.364014c-0.190674,-1.317108 -0.417725,-2.012085 -0.689835,-2.68866c-0.390503,-0.970947 -0.693008,-1.788666 -0.931503,-2.358002c-0.503189,-1.201233 -0.850006,-1.78952 -1.189331,-2.399994c-0.525131,-0.944763 -1.024582,-1.949707 -1.289337,-2.671997c-0.266144,-0.726044 -0.464767,-1.459076 -0.68399,-2.14801c-0.384064,-1.20697 -0.71756,-1.963196 -1.001343,-2.737335c-0.318176,-0.867981 -0.596161,-1.87027 -0.763992,-2.545319c-0.157074,-0.631775 -0.404419,-1.822876 -0.434677,-2.653351c-0.037979,-1.04248 0.03009,-1.829285 -0.167999,-2.866669c-0.139206,-0.728973 -0.472748,-1.414398 -0.666656,-2.5c-0.172089,-0.963409 -0.146866,-1.668457 -0.219345,-2.361328c-0.132538,-1.26712 -0.390182,-2.060669 -0.521988,-2.59198c-0.298706,-1.204102 -0.352356,-1.964722 -0.389343,-2.789337c-0.038025,-0.847534 -0.035324,-1.671997 -0.035995,-2.759338c-0.000519,-0.846008 0.087265,-1.680939 -0.020828,-2.685516c-0.111404,-1.035339 -0.418472,-1.7258 -0.626511,-2.473816c-0.286682,-1.030823 -0.350403,-1.75351 -0.352661,-2.666992c-0.001968,-0.800018 0,-1.759674 0,-2.56369c0,-0.821991 0,-2.089325 0,-2.753815c0,-1.020844 0,-1.810181 0,-2.854187c0,-0.791992 0,-1.650665 0,-2.513977c0,-0.90451 0,-1.986023 0,-2.65802c0,-0.743988 0,-1.851654 0,-2.685669c0,-0.980988 -0.014801,-1.852356 0.010666,-2.580994c0.029282,-0.837799 0.193008,-2.032166 0.346497,-2.623505c0.22731,-0.875732 0.607468,-1.954315 0.951843,-2.647339c0.329941,-0.663971 1.013702,-1.469177 1.691833,-2.057159c0.4711,-0.408478 1.316025,-0.902435 1.832153,-2c0.265503,-0.564575 0.333023,-1.623474 0.687836,-2.37915c0.41626,-0.886536 1.020279,-1.49234 1.579178,-2.342163c0.432877,-0.658203 0.90416,-1.508911 1.399994,-2.17868c0.60527,-0.817566 0.972443,-1.537842 1.38533,-2.015991c0.688644,-0.797485 1.51593,-1.096344 2.093842,-1.984009c0.483795,-0.743103 0.904404,-1.304718 1.668991,-1.799988c0.779388,-0.504852 1.134811,-1.32901 1.713501,-1.995514c0.63472,-0.731049 1.672882,-0.581055 2.471664,-0.871155c0.736084,-0.267334 1.496521,-1.004852 2.172012,-1.486023c0.740219,-0.527313 1.210327,-0.885559 2.193832,-1.590149c0.652832,-0.467682 1.562012,-0.866302 2.16333,-1.057159c0.992828,-0.315155 1.683105,-0.464996 2.868164,-0.900024c0.756989,-0.277863 1.446838,-0.613129 2.453339,-1c0.538651,-0.207062 1.368271,-0.487457 2.394653,-0.899811c0.699493,-0.281006 1.595367,-0.673523 2.604004,-0.81485c0.791382,-0.110901 1.557007,0.036774 2.666672,-0.106659c0.63118,-0.081573 1.658569,-0.695801 2.192337,-0.978668c0.851166,-0.45105 1.752289,-0.794769 2.690323,-0.93866c0.672409,-0.103149 1.425644,-0.129395 2.731842,-0.282684c0.487503,-0.05722 1.501511,-0.203888 2.52417,-0.353333c0.496826,-0.072601 1.843948,-0.271973 2.570663,-0.339996c0.856674,-0.0802 1.942245,-0.056183 2.751999,-0.096008c0.876785,-0.043121 1.877731,-0.268341 2.436005,-0.425323c0.917969,-0.258118 1.918442,-0.569672 2.635986,-0.762665c0.730469,-0.196472 1.8022,-0.473785 2.784012,-0.634674c0.819809,-0.134338 1.547958,-0.161316 2.754669,-0.166656c0.80397,-0.003571 1.353333,0 2.657166,0c0.685501,0 1.520157,0 2.530487,0c0.66301,0 1.724335,0 2.700836,0c0.710999,0 1.442001,0 2.523499,0c1.014008,0 1.666672,0 2.650665,0c1.037674,0 1.777679,0 2.557678,0c0.819992,0 2.125,0 3.041,0c0.4655,0 1.3965,0 2.307495,0c1.276505,0 2.039169,0 2.737839,0c0.962997,0 1.871994,0 2.771988,0c0.900009,0 1.5,0 2.700012,0c0.899994,0 1.5,0 2.700165,0c0.910492,0 1.535828,-0.001251 2.866501,0c0.717331,0.000671 1.459183,-0.001556 2.207993,0.036011c0.742035,0.037201 2.147186,0.219818 2.778671,0.410645c0.899216,0.271729 1.692947,0.701447 2.389496,1.201508c0.659225,0.473267 1.447403,1.047821 2.257172,1.301178c0.791504,0.24765 1.62764,0.585632 2.363998,1.235992c0.698273,0.61673 1.295792,1.304962 2.035995,1.731995c0.781052,0.450592 1.255493,1.13266 1.800003,1.916016c0.482849,0.694641 1.174561,1.325623 1.652664,1.823822c0.706497,0.736176 1.335526,1.53714 1.732681,2.164154c0.434875,0.686554 0.941559,1.51651 1.38266,2.145355c0.475769,0.678253 0.974457,1.351929 1.463989,1.97998c0.785126,1.007294 1.420624,1.618439 1.68399,2.537354c0.192657,0.67218 0.376587,1.627167 0.885345,2.399994c0.50589,0.768463 0.903778,1.517975 1.298492,2.315826c0.384308,0.776886 0.790497,1.624725 0.895691,2.495667c0.101624,0.841309 0.445374,1.848358 0.709808,2.314331c0.44104,0.777191 1.024719,1.806976 1.180359,2.53302c0.180054,0.840057 0.059784,1.861542 0.15033,2.657166c0.11496,1.010315 0.54483,1.751862 0.797333,2.633331c0.241608,0.843353 0.166656,1.6875 0.166656,2.651978c0,0.725342 0,1.714691 0,2.514679c0,1 0,1.810669 0,2.685333c0,0.998657 0.000549,1.814667 0,2.630676c-0.000671,0.998657 0.039795,1.890228 -0.221497,2.884338c-0.167023,0.635406 -0.510254,1.30481 -0.878326,2.442139c-0.211456,0.653442 -0.47821,1.667664 -0.614838,2.304169c-0.254456,1.185516 -0.283081,1.854187 -0.285339,2.822693c-0.00174,0.751495 0,1.547974 0,2.773499c0,0.852661 0,1.855835 0,2.621155c0,0.953339 0,1.645844 0,2.605347c0,0.751495 0,1.547974 0,2.773499c0,0.852661 0,1.855835 0,2.621155c0,0.950653 -0.114075,1.860382 0.114319,2.65033c0.221954,0.767639 0.77182,1.428101 1.180359,2.237488c0.507355,1.005188 0.664978,1.710175 0.702667,2.546844c0.045044,1.000366 -0.02771,1.82547 0.287994,2.800018c0.256287,0.791107 0.788086,1.60257 1.314667,2.190643c0.66333,0.740784 1.213776,1.416626 1.452667,2.167847c0.285797,0.898712 0.617249,1.698334 1.59549,2.132996c0.73642,0.327209 1.283234,0.895813 1.798492,1.509827c0.602478,0.717926 1.364532,1.055389 2.154663,1.314667c0.979462,0.321381 1.878845,0.334778 2.820007,0.727997c0.546906,0.228485 1.319366,0.782928 2.412018,1.223999c0.687073,0.277344 1.600098,0.307526 2.281311,0.901337c0.701263,0.611298 1.283203,1.395996 2.18985,1.432007c0.861481,0.034241 1.716339,0 2.695496,0c0.799988,0 1.600006,0 2.600006,0c0.799988,0 1.802673,0 2.44165,0c1.291687,0 1.927673,0 2.61969,0c0.723999,0 2.171997,0 2.850647,0c0.925507,0 1.716003,0 2.678162,0c0.976501,0 1.810516,0.035889 2.788513,-0.000153c0.775543,-0.028595 1.663177,-0.394806 2.425842,-0.647186c0.978882,-0.323944 1.813721,-0.301056 2.795319,-0.574158c0.60437,-0.168152 1.361481,-0.51886 2.174835,-1.189178c0.84491,-0.69632 1.295044,-1.230927 1.799988,-1.799988c0.682343,-0.768982 1.088074,-1.648529 1.624023,-2.218658c0.621674,-0.661346 1.722107,-0.794189 2.375977,-1.217346c0.704529,-0.455963 1.17807,-1.204376 1.709351,-1.954651c0.576691,-0.814392 1.111298,-1.382416 1.631989,-1.913361c0.720367,-0.734528 1.561646,-1.42337 1.963165,-2.006165c0.50766,-0.736847 0.46637,-1.709076 0.742523,-2.679169c0.175446,-0.616272 0.638763,-1.420258 1.260986,-2.198669c0.476929,-0.596649 1.198639,-1.427765 1.517334,-2.122162c0.464539,-1.012207 0.675751,-1.512299 1.221344,-2.228485c0.729156,-0.957153 1.369415,-1.443298 1.942657,-1.829346c0.941681,-0.634155 1.589325,-1.147308 1.778839,-2.074005c0.139587,-0.682495 -0.041443,-1.785065 0.499817,-2.66864c0.338745,-0.552979 1.192383,-1.105988 1.485352,-2.053345c0.280548,-0.907196 0.010803,-1.661957 0.238647,-2.625336c0.191193,-0.80835 0.669098,-1.490265 0.8125,-2.5c0.13858,-0.975739 0.009033,-1.710724 0.020996,-2.7005c0.010406,-0.862183 0.069763,-1.657684 0.221191,-2.66333c0.119202,-0.791595 0.280792,-1.614929 0.425995,-2.42099c0.188782,-1.048035 0.334656,-1.981293 0.352661,-2.881836c0.017487,-0.874817 0,-1.52002 0,-2.516022c0,-0.796478 0,-1.983978 0,-2.817322c0,-0.833344 0,-1.761322 0,-2.551819c0,-1.02652 0,-1.701508 0,-2.781525c0,-0.862152 0,-1.6875 0,-2.651978c0,-0.725342 0,-1.714691 0,-2.514679c0,-1 0,-1.789337 0,-2.833344c0,-0.862152 0,-1.766663 0,-2.577332c0,-0.91098 0.002655,-1.835999 0,-2.755981c-0.002258,-0.777008 0.201996,-1.623322 -0.283997,-2.580017c-0.414703,-0.816406 -0.670654,-1.491516 -0.937347,-2.453156c-0.221191,-0.797546 -0.590546,-1.639038 -0.803986,-2.425507c-0.235199,-0.866699 -0.634216,-1.563141 -0.85318,-2.574493c-0.16629,-0.768005 0.033478,-1.818298 -0.235809,-2.552826c-0.296478,-0.808716 -1.068329,-1.424652 -1.719025,-2.080688c-0.66394,-0.669373 -1.341827,-1.325043 -1.814819,-1.819336c-0.653961,-0.683411 -1.015167,-1.581635 -1.685181,-2.347321c-0.436188,-0.498505 -1.523682,-0.970367 -2.03067,-1.399994c-0.775085,-0.65683 -1.279877,-1.252502 -2.178986,-1.700165c-0.70932,-0.35318 -1.577972,-0.631958 -2.457001,-1.066498c-0.607422,-0.300262 -1.478302,-0.834717 -2.042847,-1.180664c-1.034088,-0.633698 -1.717865,-1.023041 -2.352661,-1.348175c-1.002075,-0.513245 -1.63092,-0.837494 -2.375153,-1.019165c-1.180786,-0.288239 -1.890961,-0.256348 -2.614685,-0.310669c-0.732269,-0.054962 -2.133087,-0.239807 -2.767975,-0.410675c-0.893066,-0.240326 -1.921204,-0.673431 -2.610687,-0.953339c-0.830017,-0.336945 -1.845612,-0.552917 -2.507996,-0.635986c-1.062378,-0.133209 -1.696289,-0.257294 -2.727997,-0.47467c-0.694855,-0.146423 -1.665131,-0.344879 -2.490173,-0.447327c-0.956451,-0.118744 -1.931824,-0.272034 -2.745819,-0.477997c-0.869049,-0.21991 -1.761078,-0.435944 -2.668518,-0.517517c-0.614929,-0.055298 -1.580811,-0.056488 -2.616669,-0.057159c-0.72699,-0.000458 -1.457977,0 -2.509491,0c-1.199982,0 -1.948486,0.000458 -2.652008,0c-1.001312,-0.000671 -1.82254,0.027191 -2.633331,-0.085327c-1.012695,-0.140533 -1.719604,-0.453705 -2.538666,-0.716003c-1.002594,-0.321075 -1.807343,-0.500824 -2.666168,-0.698669c-0.877808,-0.202209 -1.318268,-0.277557 -2.905823,-0.698669c-0.682617,-0.181061 -1.273804,-0.388977 -2.430664,-0.680176c-0.789429,-0.1987 -1.693176,-0.551636 -2.414673,-0.993164c-0.555267,-0.339813 -1.125458,-0.738556 -2.32666,-1.52533c-0.588135,-0.385223 -1.126678,-0.81546 -2.23468,-1.269333c-0.689636,-0.282486 -1.623901,-0.323837 -2.567993,-0.905334c-0.672791,-0.414398 -1.059967,-0.889984 -2.019836,-1.849335c-0.529297,-0.529037 -1.069153,-1.068436 -1.569,-1.625992c-0.69223,-0.772156 -1.11908,-1.544327 -1.700836,-2.233841c-0.632965,-0.750214 -1.412277,-1.381454 -1.71965,-2.005493c-0.350067,-0.710754 -0.886871,-1.597519 -1.58934,-2.192505c-0.499832,-0.423355 -1.322922,-1.13855 -1.638336,-1.925323c-0.383972,-0.957764 -0.356323,-1.75946 -0.361664,-2.710175c-0.005524,-0.985321 0,-1.88533 0,-2.685333c0,-0.899994 0,-1.800003 0,-2.699997c0,-0.899994 0,-1.800003 0,-2.70134c0,-0.68399 0,-1.623993 0,-2.631989c0,-0.862167 -0.02713,-1.719162 0.221497,-2.709335c0.180176,-0.717514 0.418045,-1.484848 0.87851,-2.314499c0.44046,-0.79361 1.074707,-1.644302 1.420822,-2.142838c0.601257,-0.866058 1.345215,-1.323639 1.995163,-1.884003c0.641235,-0.552856 0.979431,-1.314102 1.435852,-2.358826c0.339447,-0.776932 1.047607,-1.290176 1.8815,-1.5905c0.775421,-0.279266 1.663025,-0.72226 2.166656,-1.1875c0.85495,-0.789749 1.291687,-1.452499 2.100006,-1.857834c0.844696,-0.423584 1.52243,-0.751953 2.384003,-1.322678c0.680328,-0.450653 1.364044,-0.953568 1.880005,-1.613327c0.654968,-0.837494 1.291565,-1.144958 2.119995,-1.470673c0.71048,-0.279343 1.57309,-1.000961 2.211487,-1.357498c0.845673,-0.47229 1.840546,-0.324905 2.626007,-0.578491c0.7164,-0.231293 1.678833,-0.610153 2.467834,-0.753342c1.044464,-0.18956 1.756805,-0.699051 2.519653,-0.972656c0.986053,-0.353668 1.693909,-0.413651 2.440338,-0.627335c1.104401,-0.316177 1.865265,-0.419998 2.73468,-0.425339c0.863281,-0.005295 1.908569,0.06221 2.682648,-0.166672c0.860687,-0.254501 1.655579,-0.745071 2.528839,-0.828827c0.842316,-0.080795 1.847748,0.011185 2.565826,-0.015167c0.791321,-0.029037 1.819061,-0.205063 2.738678,-0.489334c0.685303,-0.211838 1.683716,-0.396225 2.458344,-0.5c1.045563,-0.140076 1.587036,-0.854706 2.428314,-0.998672c0.925232,-0.15834 1.634888,0.085495 2.634186,-0.022156c1.035339,-0.111542 1.744049,-0.378601 2.473816,-0.68367c1.057892,-0.442245 1.696716,-0.9375 2.505341,-1.295502c0.804871,-0.356339 1.372192,-0.822159 2.152679,-1.300003c0.683624,-0.418549 1.495819,-1.162506 2.347321,-1.533325c0.748962,-0.326157 1.700958,-0.222122 2.5,-0.666672c0.800934,-0.445618 1.626038,-0.690842 2.200012,-1.204498c0.735321,-0.65802 1.333099,-1.486526 1.935974,-1.859497c0.782288,-0.483978 1.630615,-0.375778 2.564026,-0.878998c0.649231,-0.350021 1.1987,-0.967285 1.999817,-1.756668c0.588562,-0.579956 1.080048,-1.192535 2.052002,-1.695007c0.682037,-0.3526 1.540039,-0.643448 2.248169,-1.167831c0.513092,-0.379959 1.388489,-1.340393 1.828003,-2.141495c0.391724,-0.713989 0.906372,-1.481705 1.671997,-1.962677c0.63205,-0.397064 1.266571,-1.195099 1.970673,-1.633331c0.757843,-0.47168 1.565491,-0.655807 2.261322,-1.085327c0.84845,-0.523727 1.30304,-1.319382 1.868011,-2.09317c0.465485,-0.637543 1.207489,-1.314087 1.899994,-2.0215c0.484467,-0.494873 0.882172,-1.323761 1.166656,-2.166672c0.289551,-0.857925 0.875275,-1.637558 1.3125,-2.3125c0.520142,-0.802963 0.584686,-1.581131 0.806183,-2.571487c0.138123,-0.617599 0.261383,-1.6185 0.814484,-2.463669c0.490356,-0.749268 0.88974,-1.506332 0.900177,-2.46434c0.008423,-0.773956 -0.005371,-1.674011 0,-2.537338c0.005341,-0.858704 0.228302,-1.802521 0.5,-2.483994c0.388641,-0.974747 0.527771,-1.761322 0.852661,-2.657166c0.273895,-0.755203 0.595001,-1.738998 0.636658,-2.506836c0.051666,-0.951996 0.010681,-1.805328 0.010681,-2.604004c0,-0.981323 0,-1.898666 0,-2.810654c0,-0.842682 0,-1.754669 0,-2.672012c0,-0.743988 0.099762,-1.796112 -0.085327,-2.631989c-0.17746,-0.801422 -0.606049,-1.528488 -1.115997,-2.517334c-0.311554,-0.604172 -0.94104,-1.620865 -1.455841,-2.195511c-0.529419,-0.590973 -1.33432,-1.250458 -1.942841,-1.651825c-0.59198,-0.390457 -1.621246,-1.050232 -2.17865,-1.578003c-0.528412,-0.500336 -0.975189,-1.518982 -1.554688,-2.174667c-0.571167,-0.646271 -1.526703,-1.14534 -1.914001,-1.657166c-0.544373,-0.719376 -1.045959,-1.568115 -1.578003,-2.121506c-0.657623,-0.684021 -1.563416,-1.11573 -2.341309,-1.387993c-0.872772,-0.305481 -1.426178,-0.652184 -2.442352,-1.133339c-0.657715,-0.311424 -1.722046,-0.707428 -2.360321,-0.899994c-0.689636,-0.208061 -1.784424,-0.493187 -2.864014,-0.800003c-0.683899,-0.194359 -1.333282,-0.422676 -2.319336,-0.64283c-1.006927,-0.224808 -1.736725,-0.273727 -2.51532,-0.342506c-0.850739,-0.07515 -1.79245,-0.16539 -2.832001,-0.348c-0.565857,-0.099396 -1.758759,-0.373451 -2.376007,-0.528c-0.624756,-0.156425 -1.248474,-0.32225 -2.471985,-0.655998c-1.152466,-0.314362 -2.197449,-0.600876 -2.689514,-0.721001c-0.939423,-0.229332 -1.861664,-0.411255 -2.329163,-0.474998c-1.471893,-0.200706 -2.003601,-0.211327 -3.105316,-0.250664c-0.569519,-0.020332 -1.73703,-0.032753 -2.330688,-0.034668c-1.197327,-0.00386 -2.395996,-0.001335 -2.992828,-0.001335c-0.593842,0 -1.768494,0 -2.347321,0c-0.571838,0 -2.235687,0 -2.771851,0c-1.049316,0 -1.564484,0 -2.580841,0c-1.504486,0 -2.004333,0 -3,0c-0.493805,0 -1.468475,0 -2.419159,0c-1.363495,0 -1.797333,0 -2.627991,0c-1.138489,0 -2.123993,0 -2.942993,0c-0.905334,0 -1.917847,-0.017097 -2.556,0.020836c-0.73056,0.043427 -1.928497,0.255035 -2.609009,0.415161c-0.701019,0.164955 -2.021942,0.547974 -2.578674,0.764c-0.960388,0.372658 -1.781067,0.780357 -2.570648,1.21067c-0.608398,0.331558 -1.413544,0.895836 -2.010681,1.435997c-0.661713,0.598587 -1.355988,1.32 -1.873322,1.837334c-0.541351,0.541344 -1.363892,1.362778 -2.149353,2.14933c-0.480316,0.481003 -1.152039,1.122635 -1.679993,1.765335c-0.636444,0.77478 -0.938812,1.434952 -1.65332,2.401337c-0.460754,0.623154 -1.041809,1.202148 -1.434662,1.600006c-0.79425,0.804367 -1.398926,1.39975 -1.998688,2c-0.800323,0.800995 -1.410904,1.411072 -1.799988,1.857162c-0.823425,0.944092 -1.208008,1.487 -1.764008,2.317505c-0.35881,0.53595 -0.951996,1.541321 -1.335999,2.225327c-0.384003,0.684006 -0.983124,1.684555 -1.325333,2.225327c-0.520691,0.822845 -1.025589,1.598206 -1.421997,2.331009c-0.395798,0.731644 -0.638977,1.297333 -1.074341,2.307663c-0.341812,0.793228 -0.701859,1.645294 -1.139999,2.477997c-0.216141,0.410782 -0.937485,1.51384 -1.486496,2.091003c-0.761047,0.800079 -1.344788,1.199814 -1.908997,1.988342c-0.545334,0.762146 -0.84906,1.649811 -1.309509,2.411987c-0.446609,0.739273 -1.06192,1.356476 -1.666656,2.333344c-0.309967,0.500702 -0.642014,1.334839 -0.965332,2.149323c-0.396652,0.999222 -0.654144,1.671051 -1.20134,2.517334c-0.461578,0.713867 -1.006287,1.497208 -1.300003,2.167511c-0.408768,0.932861 -0.987701,1.641983 -1.699997,2.332489c-0.491028,0.476013 -0.937973,1.30246 -1.542664,1.866501c-0.673706,0.628418 -1.465851,1.124573 -2.124008,1.633499c-0.676086,0.522797 -1.340195,1.329224 -1.733322,1.992004c-0.407166,0.686478 -0.931595,1.684601 -1.766678,2.007996c-0.78891,0.305511 -1.836761,0.050232 -2.643158,0.281006c-0.772186,0.220993 -1.432632,0.771759 -2.242004,1.180328c-1.005035,0.507339 -1.699692,0.669312 -2.781494,0.705338c-0.791565,0.026352 -1.650665,0 -2.514008,0c-0.895493,0 -1.854004,0 -2.819336,0c-0.679993,0 -1.519989,0 -2.515991,0c-0.796509,0 -1.548004,0 -2.656006,0c-0.982666,0 -1.835999,0 -2.776001,0c-0.88533,0 -1.642502,0 -2.542496,0c-0.74733,0 -1.950516,0.087128 -2.685669,-0.057159c-0.929535,-0.182434 -1.66185,-0.76059 -2.414337,-0.995514c-0.901489,-0.281448 -1.658829,-0.431488 -2.596161,-0.921997c-0.691345,-0.361786 -0.763489,-1.408783 -1.188339,-2.004501c-0.639465,-0.896652 -1.635086,-0.696945 -2.348495,-1.377991c-0.673737,-0.643173 -0.865921,-1.351151 -1.762497,-1.947342c-0.69043,-0.459106 -1.319336,-1.022003 -1.847336,-1.695496c-0.658417,-0.839859 -1.364929,-1.34082 -1.847336,-1.80983c-0.693542,-0.674286 -1.025208,-1.447983 -1.34816,-2.242004c-0.415726,-1.022079 -0.624298,-1.766449 -1.189835,-2.461502c-0.666153,-0.818726 -1.663589,-1.015182 -2.042664,-1.886658c-0.360291,-0.828293 -0.26503,-1.724091 -0.776505,-2.300003c-0.660294,-0.743484 -1.326752,-1.449173 -1.68483,-2.125336c-0.3573,-0.674698 -0.759308,-1.604813 -1.258011,-2.227341c-0.493835,-0.616455 -0.352661,-1.604492 -0.352661,-2.351822c0,-0.994171 0,-1.938339 0,-2.847336c0,-0.717499 0,-1.757996 0,-2.533508c0,-1.047989 0,-1.967987 0,-2.727997c0,-0.965836 0,-1.886658 0,-2.786667c0,-0.901337 0,-1.866669 0,-2.52533c0,-1.007996 0,-1.870163 0,-2.774673c0,-0.899994 0,-1.799988 0,-2.699997c0,-0.901337 0,-1.866669 0,-2.535995c0,-0.765335 0,-1.759506 0,-2.678665c0,-0.964508 -0.095459,-1.929878 0.283997,-2.685333c0.435577,-0.867203 0.302689,-1.623444 0.773163,-2.442833c0.466263,-0.812057 0.942841,-1.35717 0.942841,-2.157173l0.057159,-0.899994" fill="#ff00ff" id="svg_2" stroke="#000000" stroke-dasharray="null" stroke-linecap="null" stroke-linejoin="null" stroke-width="5"/>
 </g>
</svg>