<?xml version="1.0"?>
<svg width="640" height="480" xmlns="http://www.w3.org/2000/svg" xmlns:svg="http://www.w3.org/2000/svg">
 <!-- Created with SVG-edit - https://github.com/SVG-Edit/svgedit-->
 <g class="layer">
  <title>Layer 1</title>
  <path d="m169.5,50.5c1,1 1,1.799999 1,2.700001c0,0.820831 0,1.784 0,2.647331c0,0.900002 0,1.819336 0,2.652668c0,0.978668 0,1.752666 0,2.652668c0,0.863331 0,1.8265 0,2.757999c0,0.910835 0,1.610168 0,2.589333c0,0.78933 0.010605,1.833405 0,2.695503c-0.010422,0.846352 -0.222366,1.847038 -0.425339,2.565826c-0.223129,0.790184 -0.492889,1.813362 -0.553833,2.697006c-0.060211,0.873177 -0.020828,1.702995 -0.020828,2.584496c0,0.718498 0,1.774506 0,2.7705c0,0.840004 0.000076,1.805336 0,2.553665c-0.000092,0.897667 -0.000854,1.852066 -0.035995,2.601006c-0.038574,0.821899 -0.118912,1.700249 -0.248001,2.612c-0.129562,0.915077 -0.295517,1.78582 -0.432007,2.580002c-0.206009,1.198761 -0.278656,1.933281 -0.283997,2.82666c-0.004532,0.759987 0,1.934502 0,2.728004c0,0.775497 0.024277,1.815048 0,2.582664c-0.028595,0.904022 -0.604202,1.708145 -0.833328,2.536003c-0.247162,0.893021 -0.164413,1.661324 -0.166672,2.697334c-0.001556,0.717499 0,1.626495 0,2.570663c0,0.998665 0,1.798668 0,2.797333c0,0.765335 0,1.718666 0,2.570663c0,0.798668 0,1.780006 0,2.697334c0,0.854172 0,1.833336 0,2.691338c0,0.641998 0,1.589996 0,2.589996c0,0.910004 0,1.81617 0,2.73867c0,0.673332 0,1.346664 0,2.541328c0,0.914673 0,1.890671 0,2.639c0,0.897011 0,1.808998 0,2.457008c0,1.175995 0,2.113495 0,2.985001c0,1.024323 0,1.700821 0,2.476334c0,1.047989 0,1.989334 0,2.667328c0,0.968674 0,1.772659 0,2.594666c0,1.266006 0,1.910995 0,2.931335c0,0.774002 0.002121,1.678497 0,2.622665c-0.002258,0.998672 0.003632,1.814423 -0.283997,2.79866c-0.178879,0.612106 -0.59697,1.593674 -0.680008,2.400009c-0.082016,0.796539 -0.035995,1.800003 -0.035995,2.599991c0,1 0,1.800003 0,2.799835c0,0.779343 0,1.778671 0,2.598831c0,0.958511 0,1.863007 0,2.66301c0,0.959671 0,1.763657 0,2.585663c0,1.031326 0,1.952667 0,2.636673c0,1 0,1.815994 0,2.631989c0,1 0,1.909332 0,2.850677c0,0.781494 0,1.571991 0,2.690491c0,0.891006 0,1.800003 0,2.547333c0,0.995499 0,1.795502 0,2.79567c0,0.820663 0,1.485168 0,2.483841c0,0.815994 0,1.631989 0,2.854324c0,0.800003 -0.063065,1.725815 0.166672,2.794998c0.147644,0.687119 0.420441,1.461075 0.833328,2.5c0.288208,0.725204 0.633881,1.429062 1.166672,2.5c0.316071,0.6353 0.658661,1.317337 1.007996,2.016006c0.341339,0.682663 0.940002,1.880005 1.189331,2.378662c0.434662,0.869339 0.835953,1.672012 1.236008,2.472c0.500259,1.000366 0.804489,1.631165 1.214325,2.314331c0.498795,0.831451 0.956039,1.451126 1.425674,2.136337c0.477097,0.696091 1.011887,1.334229 1.505325,2.577332c0.2733,0.688522 0.36879,1.636719 0.796341,2.292831c0.559647,0.858826 1.109604,1.485489 1.632996,2.2285c0.340439,0.483307 1.019684,1.496765 1.709335,2.048004c0.71936,0.574966 1.548676,0.879364 2.229324,1.686661c0.400101,0.474548 0.724335,1.505051 0.939346,2.268677c0.256348,0.910446 0.564316,1.653915 1.447327,2.226501c0.740784,0.480362 1.638077,0.798218 2.300003,1.104828c0.869095,0.402557 1.280106,1.305923 2.199997,1.749329c0.647263,0.311996 1.681152,0.163956 2.542999,0.388336c0.738327,0.19223 1.581772,0.506958 2.457001,0.945007c0.904068,0.452484 1.485275,0.77359 2.143997,1.349335c0.753937,0.658981 1.304932,1.334671 2.041336,1.509323c0.941132,0.223221 1.603973,0.711258 2.582672,0.889343c0.722961,0.131546 1.898666,0.085327 2.690323,0.085327c0.952332,0 1.872559,-0.079788 2.5625,0.041672c1.00621,0.177139 1.575333,0.672989 2.379166,1.310165c0.796387,0.631287 1.386154,1.065338 2.057175,1.286499c1.194366,0.393661 1.767746,0.339523 2.590164,0.357162c1.267059,0.027176 1.948456,-0.063202 2.952667,0.171173c0.808899,0.188797 1.49025,0.669128 2.5,0.8125c0.977081,0.138733 1.746674,0.020828 2.666672,0.020828c0.781494,0 1.571991,0 2.690491,0c0.891006,0 1.800003,0 2.547333,0c0.996841,0 1.831497,0 2.762177,0c0.794998,0 1.679993,0 2.319992,0c1.395996,0 2.128006,0 2.852005,0c0.692001,0 1.890671,0 2.839996,0c1.021667,0 1.64267,0 2.591995,0c0.872513,0 1.912003,0 2.686676,0c0.830658,0 1.709335,0 2.625336,0c0.931992,0 1.855988,0 2.307495,0c1.276505,0 2.039169,0 3.068161,0c0.632675,0 1.841675,0 2.741669,0c0.600006,0 1.800003,0 2.690994,0c0.837006,0 1.775665,0 2.567352,0c0.94165,0 1.841644,0 2.741669,0c0.900146,0 1.685333,0 2.646667,0c0.839996,0 1.838654,0 2.674164,0c0.583649,0 1.778809,0 2.657837,0c0.806976,0 1.850647,0 2.618652,0c0.959839,0 1.855347,0 2.549988,0c1.027344,0 1.973999,0 2.827332,0c0.941345,0 1.709351,0 2.650696,0c1.007996,0 1.799988,0 2.658661,0c0.863312,0 1.772339,0 2.570648,0c0.998688,0 1.632019,0 2.644501,0c0.967499,0 1.786499,0 2.691833,0c1.00769,0 1.77301,0 2.851837,0c0.857513,0 1.571503,0 2.52652,0c0.751495,0 1.547974,0 2.773499,0c0.852661,0 1.855835,0 2.621155,0c0.950653,0 1.835999,0 2.635986,0c0.900024,0 1.839874,-0.03624 2.610687,0.436005c0.80426,0.492722 1.434052,0.932251 2.105316,1.363998c0.8862,0.569992 1.368347,1.084976 2.136688,1.852661c0.522217,0.521774 1.325806,1.325836 1.826477,1.826508c0.720856,0.72084 1.259857,1.184418 1.920837,1.931488c0.639557,0.722855 0.847015,1.535645 1.600006,2.256012c0.51474,0.492447 1.319,1.037064 1.700012,1.742325c0.421326,0.779846 0.803009,1.589508 1.299988,2.591003c0.297302,0.599121 0.70578,1.384872 0.915985,2.398666c0.156952,0.757004 0.248596,1.844788 0.885345,2.314667c0.700989,0.517288 1.567871,0.975479 1.841492,1.752838c0.326721,0.928146 0.331238,1.76947 0.346497,2.344498c0.031525,1.188965 0.010681,2.084839 0.010681,2.953339c0,1.069336 -0.102539,1.800171 0.114319,2.6315c0.21936,0.840942 0.953247,1.585999 1.317688,2.289825c0.493652,0.953339 0.529236,1.527618 0.565338,2.545319c0.033997,0.958893 0.002655,1.936005 0.002655,2.790192c0,0.979156 0,1.779144 0,2.579163c0,1 0,1.799988 0,2.799988c0,0.800018 0,1.800018 0,2.600006c0,1 0,1.810669 0,2.457153c0,0.964355 0,1.778839 0,2.647339c0,1.195496 0,1.795502 0,2.695496c0,1.200012 0,1.798676 0,2.679169c0,0.83551 0,1.836853 0,2.746185c0,0.941315 0,1.722839 0,2.513336c0,1.118652 0,1.911987 0,3.031982c0,0.770996 0,1.338348 0,2.529327c0,0.900024 0,1.5 0,2.700012c0,0.895508 0,1.764008 0,2.314667c0,1.22818 0,2.080841 0,3.08667c0,0.619507 0,1.76532 0,2.551331c0,0.821991 0,1.880676 0,2.585663c0,0.975006 0,1.940826 0,2.766174c0,1.017151 -0.003204,1.737152 0,2.862152c0.002258,0.790497 -0.019348,1.358063 0.085327,2.23468c0.143768,1.203827 0.34729,1.77536 0.562012,2.58432c0.276733,1.042572 0.35199,1.897003 0.352661,2.850342c0.000549,0.76532 0,1.768494 0,2.621155c0,0.964172 0,1.768188 0,2.590179c0,1.031158 0,1.931824 0,2.952667c0,0.799988 0,1.600006 0,2.604492c0,0.6315 0,1.816833 0,2.62085c0,0.821991 0,1.853333 0,2.549316c0,0.909332 0,1.912018 0,2.766998c0,0.619995 0,1.625 0,2.706512c0,0.730988 0,1.441986 0,2.708679c0,0.760498 0.000671,1.555145 0,2.543152c-0.000671,0.986664 0.006439,1.753693 -0.166656,2.666656c-0.149628,0.789307 -0.471619,1.556671 -0.711853,2.690338c-0.151367,0.714264 -0.12149,1.643005 -0.12149,2.542999c0,0.899994 0.096375,1.823273 -0.166656,2.766663c-0.190063,0.681671 -0.738678,1.655853 -0.822662,2.458679c-0.089355,0.854095 0.040192,1.765198 -0.363342,2.617493c-0.383789,0.810608 -0.645081,1.514343 -0.647339,2.414337c-0.001862,0.747345 0,1.741516 0,2.685669c0,0.90451 0,1.823822 0,2.657166c0,0.978668 0,1.752655 0,2.657166c0,0.747345 0,1.742828 0,2.542847c0,0.999817 0,1.963989 0,2.914642c0,0.885345 0,1.685333 0,2.585358c0,0.820831 0,1.783997 0,2.647308c0,0.895508 0,1.852692 0,2.752838c0,0.785187 0,1.725189 0,2.733185c0,0.791992 0,1.650665 0,2.513977c0,0.895508 0,1.854004 0,2.819336c0,0.669342 0,1.434662 0,2.43335c0,0.799988 -0.000122,1.799988 0,2.600006c0.000183,0.999817 -0.079498,2.051727 0.442657,2.778656c0.445221,0.619843 1.349213,1.154266 1.515686,2.021332c0.184662,0.961823 0.054718,1.849091 0.5625,2.5c0.599365,0.76828 1.283173,1.276825 1.47467,2.200012c0.167664,0.808319 0.652527,1.497101 1.424164,1.948151c0.608276,0.35556 1.257874,0.719177 2.537811,1.109161c0.789337,0.240509 1.61319,0.31665 2.542511,0.576019c0.763611,0.213104 1.61026,0.543732 2.0625,0.729156c0.955902,0.391907 1.452606,0.603241 2.936829,1.358673c0.499176,0.254089 1.460205,0.789734 1.917328,1.057983c0.858826,0.503998 1.914856,1.190155 2.65918,1.701996c0.661713,0.455017 1.406952,0.77121 2.328674,0.814362c0.993103,0.046509 1.808807,-0.102448 2.710144,0.288483c0.742218,0.32193 1.277527,1.016388 2.052002,1.549347c0.608551,0.418793 1.678345,0.11319 2.434662,0.251984c1.018036,0.186829 1.595734,0.531433 2.598694,1.014496c0.797668,0.384186 1.385071,0.694763 2.399994,0.843018c0.793304,0.115875 1.799988,0.057159 2.600006,0.057159c0.999817,0 1.779144,0 2.778809,0c0.831024,0 1.790527,0 2.542023,0c0.796478,0 2.026489,0 2.704498,0c0.941315,0 1.727325,0 2.549316,0c1.058685,0 1.989349,0 2.824005,0c0.996826,0 1.744171,0 2.776001,0c0.946655,0 1.626648,0.050537 2.603821,-0.000153c0.823486,-0.042694 1.586639,-0.654755 2.43219,-0.974518c0.882355,-0.333679 1.69281,-0.414246 2.419983,-1.223999c0.567444,-0.631897 1.293396,-0.994385 1.869354,-1.505829c0.732269,-0.650208 1.522461,-0.986969 2.299988,-1.628845c0.504303,-0.416321 0.954468,-1.459229 1.700012,-1.657654c0.907867,-0.241608 1.779205,-0.582764 2.299988,-1.009003c0.825867,-0.675903 1.673126,-0.965729 2.200012,-1.569336c0.610657,-0.699585 1.089355,-1.485535 1.514648,-2.22934c0.449829,-0.786713 0.858582,-1.687225 1.326996,-2.263824c0.369385,-0.454681 1.169373,-1.573608 1.553833,-2.242828c0.395294,-0.68811 0.750244,-1.387878 1.237854,-2.361328c0.40741,-0.813324 0.847748,-1.437775 1.081329,-2.450684c0.192383,-0.834229 0.068939,-1.655304 0.106171,-2.44516c0.043701,-0.926727 0.195374,-1.959961 0.331818,-2.694672c0.141998,-0.764679 0.326447,-1.542816 0.480682,-2.742828c0.102509,-0.797546 0.138641,-1.599792 0.155975,-2.399994c0.017334,-0.799896 0.010681,-2 0.010681,-2.800018c0,-0.799988 0,-1.599976 0,-2.799988c0,-0.798676 0,-1.589325 0,-2.364014c0,-0.750641 -0.009613,-2.152222 0.010681,-2.810638c0.030182,-0.978668 0.146576,-1.993591 0.273315,-2.709351c0.131592,-0.743134 0.332123,-1.483917 0.549347,-2.949341c0.100616,-0.678741 0.144684,-1.330292 0.16217,-2.262146c0.022614,-1.204132 0.004486,-1.800018 0.004486,-2.668518c0,-1.069336 0,-2 0,-2.6315c0,-1.007172 0,-1.876495 0,-2.937836c0,-0.634644 0,-1.666656 0,-2.361328c0,-1.262482 0,-2.044006 0,-2.75351c0,-0.973663 0,-1.809143 0,-2.77066c0,-1.114502 0,-1.947815 0,-2.381989c0,-0.878326 0,-1.736664 0,-2.89917c0,-0.933014 0,-1.70401 0,-2.921661c0,-0.540009 0,-1.425018 0,-2.744995c0,-0.718689 0,-1.46933 0,-2.244019c0,-0.790649 0,-1.988983 0,-2.780334c0,-0.767334 0,-1.494659 0,-2.766144c0,-0.781525 0,-1.725525 0,-2.726837c0,-0.81601 0,-1.632019 0,-2.629333c0,-0.839996 0,-1.804016 0,-2.496521c0,-0.959503 0,-1.710999 0,-2.507477c0,-1.230011 0,-1.90802 0,-3.104187c0,-0.535645 0,-1.38916 0,-2.578491c0,-0.899994 0,-1.5 0,-2.399994c0,-1.198669 0,-1.789337 0,-2.642853c0,-1.03598 0,-1.977997 0,-2.726501c0,-1.198639 0,-1.881317 0,-2.579987c0,-1.317322 0,-1.880005 0,-2.829346c0,-1.021667 0,-1.862976 0,-2.59198c0,-1.197327 0,-1.880005 0,-2.578674c0,-1.317322 0.04837,-1.884338 -0.036011,-2.865326c-0.082336,-0.957397 -0.325043,-1.740356 -0.538666,-2.596008c-0.147125,-0.589264 -0.360382,-1.789459 -0.40448,-2.710175c-0.030457,-0.635803 -0.020844,-1.645813 -0.020844,-2.736328c0,-0.763672 0,-1.547333 0,-2.742828c0,-0.798676 0,-1.589325 0,-2.364014c0,-0.750641 0,-1.814667 0,-2.810638c0,-0.650696 0.003784,-1.992035 -0.001343,-2.710693c-0.005371,-0.750671 -0.014618,-1.526825 -0.083984,-2.315979c-0.105682,-1.202087 -0.266296,-2.008789 -0.435516,-2.840332c-0.177826,-0.873871 -0.290588,-1.326996 -0.578979,-2.800842c-0.102448,-0.523468 -0.292664,-1.596985 -0.379333,-2.136658c-0.16983,-1.057373 -0.261749,-1.564667 -0.399353,-2.956848c-0.079529,-0.804657 -0.107452,-1.563873 -0.117004,-2.321991c-0.015656,-1.241913 -0.004486,-2.200684 -0.004486,-2.722504c0,-1.123657 0,-1.723511 0,-2.347321c0,-0.646851 0,-2.714172 0,-3.434845c0,-0.72467 0,-1.445343 0,-2.153992c0,-0.68869 0,-1.973999 0,-3.083344c0,-0.893326 0,-1.626663 0,-2.601669c0,-1.065002 0.001526,-1.943741 -0.009003,-2.440491c-0.023376,-1.103897 -0.057404,-1.708908 -0.105316,-2.347336c-0.050446,-0.672318 -0.212769,-2.111435 -0.328339,-2.87384c-0.118896,-0.784332 -0.259827,-1.577179 -0.40802,-2.369995c-0.146515,-0.783875 -0.303345,-1.545731 -0.581329,-2.973343c-0.238708,-1.225876 -0.416504,-2.197784 -0.496002,-2.973328c-0.066803,-0.651886 -0.068542,-1.920013 -0.073334,-2.677338c-0.005432,-0.861359 -0.010864,-1.32634 -0.055817,-2.313324c-0.023621,-0.518906 -0.160095,-2.15065 -0.226837,-2.709335c-0.133148,-1.114334 -0.216034,-1.657501 -0.363342,-2.695831c-0.068695,-0.484177 -0.279572,-2.083298 -0.31665,-2.690842c-0.047089,-0.771698 -0.036011,-2.019989 -0.036011,-2.580002c0,-0.914993 0,-1.919998 0,-3.001495c0,-0.731003 0.008698,-1.442032 -0.000153,-2.708664c-0.00531,-0.760559 -0.069855,-1.561279 -0.425171,-2.428497c-0.391296,-0.955032 -0.537079,-1.628113 -0.563995,-2.436005c-0.039246,-1.178055 -0.010681,-1.778671 -0.010681,-2.678665c0,-0.899994 0,-1.799835 0,-2.689331c0,-0.8535 0,-1.889664 0,-2.606674c0,-0.770996 0,-2.068497 0,-2.875488c0,-0.436508 0,-1.360504 0,-2.332504c0,-0.996002 0,-1.992004 0,-2.964005c0,-0.469498 0,-1.360504 0,-2.531998c0,-0.932999 0,-1.703995 0,-2.921494c0,-0.814499 0,-1.389175 0,-2.578506c0,-0.904495 0,-1.520828 0,-2.485336c0,-1.035995 0,-1.767334 0,-2.514664c0,-0.74733 0,-2.178665 0,-2.847336c0,-0.977997 0,-1.636658 0,-2.674164c0,-0.735672 0,-1.499329 0,-2.283005c0,-1.195496 0,-2.38649 0,-3.153824c0,-0.727341 0,-1.708344 0,-2.527344c0,-0.905334 0,-1.915665 0,-2.75032c0,-0.930679 0,-1.721176 0,-2.574677c0,-1.189331 0,-1.787994 0,-2.668503c0,-0.835495 0,-1.836823 0,-2.746155c0,-0.941345 0,-1.731842 0,-2.585342c0,-1.189331 0,-1.787994 0,-2.668503c0,-0.835495 0,-1.838165 0,-2.782166c0,-1.071991 0,-1.707993 0,-2.399994c0,-1.0905 0,-2.171997 0,-2.852005c0,-0.944992 0,-1.800003 0,-2.802658c0,-0.684006 0,-1.850677 0,-2.636673c0,-0.822006 0,-1.880661 0,-2.585663c0,-0.800003 0,-1.847 0,-2.794998c0,-0.681 0,-1.488007 0,-2.666672c0,-0.895493 0,-1.479172 0,-2.314667c0,-1.228165 0,-2.080833 0,-3.085335c0,-0.799995 0,-1.800163 0,-2.410667c0,-0.874664 0,-1.873329 0,-2.689331c0,-0.816002 0,-1.816002 0,-2.725334c0,-0.94133 0,-1.722832 0,-2.513336c0,-1.1185 0,-2.009499 0,-2.913994c0,-0.694672 0,-1.732666 0,-2.680672c0,-0.676498 0,-1.451996 0,-2.745163c0,-0.685501 0,-1.520164 0,-2.526001c0,-0.852669 0,-1.817001 0,-2.6315c0,-0.8685 -0.013519,-1.764168 0.004486,-2.664001c0.018005,-0.900375 0.035248,-1.508453 0.27951,-2.698662c0.182251,-0.8881 0.43396,-1.431351 0.630676,-2.716003c0.101074,-0.659927 0.085327,-1.685333 0.085327,-2.485336c0,-0.799995 -0.058228,-1.80661 0.057159,-2.599998c0.147552,-1.014732 0.601746,-1.778183 0.82135,-2.799835c0.165131,-0.76825 0.12149,-1.633499 0.12149,-2.495667c0,-0.904495 0,-1.804497 0,-2.715164c0,-0.910667 0,-1.764 0,-2.704002c0,-0.88533 0,-1.685333 0,-2.521332c0,-1.016663 0,-1.711334 0,-2.727997c0,-0.936005 0,-1.835999 0,-2.736168c0,-0.785164 0,-1.725166 0,-2.73317c0,-0.792 0,-1.650665 0,-2.514c0,-0.899994 0,-1.819332 0,-2.652664c0,-0.9785 0,-1.798668 0,-2.636002c0,-1.016666 0.314545,-1.765293 -0.010681,-2.717331c-0.262146,-0.767391 -0.967163,-1.346748 -1.699158,-1.946667c-0.585022,-0.479473 -1.466675,-0.843185 -1.985657,-1.457169c-0.695068,-0.822292 -0.836609,-1.791893 -1.704498,-2.170834c-0.831909,-0.363228 -1.766663,-0.238667 -2.600006,-0.571999c-0.833344,-0.333332 -1.704224,-0.398495 -2.520844,-0.520832c-0.987457,-0.14793 -1.642059,-0.588081 -2.593811,-0.895168c-0.875702,-0.282551 -1.537964,-0.884174 -2.385345,-1.063168c-0.880798,-0.18605 -1.799988,-0.020832 -2.700012,-0.020832c-0.90033,0 -1.614319,0 -2.569336,0c-0.751495,0 -1.547974,0 -2.768982,0c-0.800018,0 -1.772156,0.13282 -2.628326,-0.333332c-0.742981,-0.404522 -1.17276,-1.106068 -2.233337,-1.496002c-0.576019,-0.211781 -1.600006,-0.170666 -2.399994,-0.170666c-0.800018,0 -1.795502,0 -2.714691,0c-0.985321,0 -1.96933,0 -2.659973,0c-0.941345,0 -1.992004,0 -2.661346,0c-0.76532,0 -1.764008,0 -2.563995,0c-0.998688,0 -1.942841,0 -2.847351,0c-0.919312,0 -1.798187,-0.010265 -2.439331,0.085335c-1.00708,0.150169 -1.827942,0.441772 -2.714661,0.630665c-0.893433,0.190323 -1.812897,0.244171 -2.434662,0.345333c-1.340546,0.218105 -2.052826,0.492977 -2.778656,0.799999c-0.73053,0.309013 -1.417633,0.652763 -2.342499,1.117336c-0.782898,0.393265 -1.498962,0.76062 -2.46402,1.342499c-0.800232,0.482498 -1.283051,0.883293 -2.245483,1.345501c-0.849701,0.408062 -1.415771,1.03297 -2.218842,1.433331c-0.786896,0.392303 -1.472656,0.437202 -2.614502,0.900002c-0.643646,0.260876 -1.5047,0.817745 -2.257172,1.052666c-0.90152,0.281445 -1.597748,0.571957 -2.606842,0.922001c-0.8414,0.291874 -1.290192,0.854424 -1.697327,1.661335c-0.445587,0.88316 -0.952576,1.395889 -1.541321,1.879997c-0.955261,0.785496 -1.621094,1.075813 -2.397339,1.650669c-0.615417,0.45575 -1.28186,1.22319 -2.114655,1.663998c-0.836945,0.443008 -1.513306,0.752876 -2.185333,1.473831c-0.522552,0.560623 -0.888062,1.427711 -1.5,2.126167c-0.603363,0.688675 -1.316498,1.225998 -1.700012,2.090172c-0.313599,0.706612 -0.659882,1.543945 -1.257172,2.227333c-0.680664,0.778763 -1.290344,1.225433 -1.673492,1.853165c-0.5737,0.939941 -0.588257,1.840897 -1.011993,2.598503c-0.467682,0.836205 -1.217041,1.223724 -1.515686,2.300163c-0.219879,0.792458 0.008911,1.676102 -0.042999,2.615997c-0.042603,0.771408 -0.464691,1.717461 -0.645996,2.345673c-0.346619,1.200897 -0.339294,2.017334 -0.351318,2.768997c-0.01535,0.959396 -0.169952,1.935249 -0.426666,2.605331c-0.292908,0.764488 -0.542053,1.762764 -0.57019,2.564003c-0.035095,0.999397 -0.004486,1.799995 -0.004486,2.799995c0,0.800003 0,1.800003 0,2.600006c0,0.799995 0,1.808998 0,2.472c0,1.061333 0,2.033333 0,2.727997c0,0.694664 0,1.957169 0,2.73867c0,0.943993 0,1.945328 0,2.76133c0,0.816002 0,1.814667 0,2.689331c0,1.010666 0,1.810669 0,2.810669c0,0.800003 0,1.599998 0,2.595497c0,0.747337 0,1.651833 0,2.571167c0,0.875 -0.010742,1.520073 0.001343,2.520004c0.010315,0.855156 0.056305,1.804016 0.220154,2.834496c0.11615,0.730385 0.281769,1.462776 0.483002,2.169006c0.36377,1.276588 0.730316,2.045418 0.938324,2.81517c0.302979,1.121109 0.31134,1.794983 0.336334,2.473831c0.035614,0.967041 -0.024384,2.164169 0.078003,2.821655c0.153259,0.984146 0.471588,1.734131 0.658844,2.601837c0.192413,0.891602 0.250854,1.808685 0.309326,2.433334c0.124695,1.332336 0.249481,2.050232 0.410675,2.789337c0.163971,0.75174 0.355469,1.493484 0.664001,2.553329c0.290741,0.998749 0.505707,1.644958 0.699982,2.305328c0.410797,1.3965 0.600037,2.138931 0.764008,2.890671c0.161194,0.739105 0.337799,1.802277 0.399994,2.800003c0.040527,0.649902 0.035339,1.309326 0.036011,2.706665c0.000336,0.722672 0,1.421341 0,2.618668c0,0.802673 0.041138,1.823944 -0.020844,2.520828c-0.087708,0.986084 -0.236572,1.900711 -0.979156,2.645844c-0.502838,0.504578 -1.221832,1.100098 -1.700012,1.627991c-0.717529,0.79213 -1.615936,0.939941 -2.47464,1.279999c-0.799011,0.316422 -1.642609,0.47998 -2.346191,0.946167c-0.823639,0.545731 -1.500549,0.945114 -2.3125,1.479172c-0.685913,0.451172 -1.482941,0.92894 -2.341309,0.989334c-0.939087,0.066071 -1.992981,-0.016525 -2.661346,0.021332c-0.767731,0.043488 -1.751495,0.378464 -2.563995,0.636673c-0.986816,0.313599 -1.816742,0.306442 -2.800171,0.574158c-0.624359,0.169968 -1.478363,0.597336 -2.482513,0.977173c-0.528564,0.199936 -1.297241,0.488129 -2.511993,0.748657c-0.767853,0.164673 -1.578186,0.330887 -2.346985,0.573502c-0.863586,0.272522 -1.754486,0.590561 -2.647675,0.8685c-0.850159,0.264557 -1.885773,0.520538 -2.563995,0.574677c-1.077179,0.085999 -1.872009,0.035995 -2.730682,0.035995c-0.863312,0 -1.762329,0.080536 -2.717316,-0.001328c-0.9758,-0.083649 -1.608154,-0.465027 -2.314667,-0.714676c-0.965668,-0.341232 -1.986298,-0.533035 -2.658661,-0.894669c-0.828918,-0.445847 -1.436157,-1.010635 -2.309357,-1.590668c-0.679749,-0.451523 -1.381134,-0.940826 -1.890656,-1.634659c-0.404083,-0.550262 -1.108063,-1.567596 -1.646179,-2.18483c-0.381836,-0.437958 -1.185699,-1.395859 -1.579163,-1.93634c-0.406799,-0.558777 -0.99884,-1.444946 -1.600006,-2.342667c-0.399231,-0.596176 -0.782227,-1.192383 -1.399994,-2.014832c-0.583496,-0.77684 -1.213898,-1.45932 -1.600006,-1.946671c-0.830627,-1.048431 -1.209839,-1.703796 -1.599991,-2.41066c-0.410461,-0.743668 -0.800537,-1.530411 -1.199997,-2.328003c-0.3992,-0.797073 -0.789337,-1.578659 -1.164001,-2.328003c-0.350662,-0.701324 -0.939255,-1.908157 -1.210663,-2.399994c-0.486801,-0.882156 -1.108063,-1.675613 -1.646164,-2.292831c-0.381821,-0.437958 -1.193909,-1.38974 -1.570175,-1.931839c-0.55986,-0.80661 -0.948654,-1.327499 -1.299164,-2.594666c-0.183777,-0.664383 -0.252472,-1.625549 -0.466995,-2.405334c-0.228165,-0.829391 -0.645615,-1.879517 -0.938339,-2.590164c-0.350662,-0.851303 -0.577316,-1.658081 -0.704498,-2.457169c-0.159348,-1.00119 -0.473846,-1.771744 -0.716003,-2.514664c-0.343658,-1.054291 -0.283997,-1.985336 -0.283997,-2.895996c0,-0.910675 0,-1.58934 0,-2.568008c0,-0.905334 0,-1.85733 0,-2.622665c0,-0.998665 -0.014633,-1.798798 0.001328,-2.801331c0.010178,-0.639214 0.157837,-1.932106 0.282669,-2.564003c0.133347,-0.674965 0.370895,-1.669266 0.594833,-2.768997c0.146957,-0.72168 0.559036,-1.5896 0.971832,-2.089668c0.574707,-0.696205 1.029388,-1.568855 1.370834,-2.496002c0.256332,-0.696045 0.782745,-1.508835 1.278503,-2.178665c0.605042,-0.817505 1.09227,-1.461166 1.378494,-2.478836c0.18721,-0.665611 0.089951,-1.565041 0.142334,-2.521164c0.040192,-0.733742 0.359879,-1.68161 0.780502,-2.468002c0.421295,-0.787643 0.704926,-1.523834 0.91333,-2.264c0.311584,-1.106621 0.611816,-2.105141 0.990677,-2.777832c0.289459,-0.513962 0.829956,-1.272278 1.123993,-2.303497c0.233948,-0.820473 -0.018326,-1.86422 0.391998,-2.786667c0.299072,-0.67234 0.851059,-1.41655 1.389328,-1.997337c0.650879,-0.702286 0.710419,-1.514366 1.389343,-2.402664c0.45929,-0.600952 0.805786,-1.240074 1.071991,-2.136002c0.221954,-0.747025 0.990601,-1.343132 1.360016,-1.965332c0.558868,-0.941246 0.438446,-1.82814 1.003998,-2.762665c0.440125,-0.727242 1.230469,-1.236412 1.47998,-2.120003c0.237549,-0.841187 0.58078,-1.684692 0.917358,-2.515999c0.30658,-0.757195 0.166656,-1.636002 0.166656,-2.484001c0,-0.863335 -0.070251,-1.883064 0.001343,-2.717331c0.08374,-0.9758 0.477692,-1.616371 0.714661,-2.400002c0.295166,-0.976059 0.281738,-1.741493 0.283997,-2.762665c0.002045,-0.936005 0,-1.836002 0,-2.736c0,-0.900002 0,-1.700001 0,-2.600002c0,-0.899998 0.032501,-1.821426 -0.001343,-2.782665c-0.028503,-0.808926 -0.398285,-1.594196 -1.051331,-2.164669c-0.578064,-0.504982 -1.452484,-0.868237 -2.148651,-1.553997c-0.560028,-0.551636 -1.282684,-1.282669 -1.798676,-1.798668c-0.515991,-0.515999 -1.208344,-1.290939 -1.884003,-1.798668c-0.734711,-0.552113 -1.504669,-0.910408 -2.515991,-1.117332c-0.791046,-0.161854 -1.807861,-0.28521 -2.620834,-0.604832c-0.671265,-0.263912 -1.668793,-0.666508 -2.479172,-1c-0.551315,-0.226883 -1.577393,-0.802128 -2.274673,-1.293835c-0.676773,-0.477242 -1.641953,-0.963634 -2.450653,-1.134666c-0.546524,-0.115585 -1.633194,-0.339668 -2.322006,-0.760502c-0.706665,-0.431744 -1.601959,-1.159153 -2.414337,-1.532997c-0.568954,-0.261822 -1.522766,-0.563591 -2.559494,-0.857166c-0.725494,-0.205441 -1.461243,-0.388836 -2.169006,-0.600002c-1.273132,-0.379845 -2.036118,-0.727089 -2.757996,-0.942833c-0.959717,-0.286823 -1.799118,-0.325111 -2.398499,-0.3825c-1.321503,-0.12653 -2.039566,-0.249451 -2.778671,-0.410667c-0.75174,-0.163971 -1.493332,-0.35598 -2.552826,-0.663834c-0.967026,-0.280983 -1.788681,-0.604843 -2.679169,-0.778667c-0.9375,-0.182999 -1.914673,-0.121498 -2.70517,-0.121498c-0.603668,0 -1.958664,0 -2.685669,0c-0.731003,0 -1.442001,0 -2.708832,0c-0.770996,0 -1.640335,0 -2.643005,0c-0.799988,0 -1.801331,0 -2.635986,0c-0.930679,0 -1.721176,0 -2.574677,0c-1.189331,0 -1.787994,0 -2.668503,0c-0.835495,0 -1.834167,0 -2.674164,0c-0.961334,0 -1.946838,0 -2.731995,0c-0.940002,0 -1.630676,0 -2.70401,0c-0.931488,0 -1.732162,0 -2.621323,0c-0.989334,0 -1.789337,0 -2.789337,0c-0.810669,0 -1.457169,0 -2.685333,0c-0.550659,0 -1.419174,0 -2.614502,0c-0.889496,0 -1.464172,0 -2.533493,0c-0.930679,0 -1.765335,0 -2.766678,0c-0.799988,0 -1.79866,-0.000538 -2.563995,0c-0.950668,0.000668 -1.871399,0.123497 -2.535995,0.704498c-0.636444,0.556385 -1.227127,1.384819 -1.900009,1.859501c-0.734802,0.51836 -1.804733,0.581688 -2.233322,1.436001c-0.366318,0.730171 -0.166672,1.636002 -0.166672,2.652668c0,0.694664 0.064453,1.741901 -0.221329,2.668831c-0.221802,0.719395 -0.612,1.678501 -0.742676,2.467834l-0.034668,0.725334l-0.037323,1.038666" fill="#ff7f00" id="svg_1" stroke="#000000" stroke-dasharray="null" stroke-linecap="null" stroke-linejoin="null" stroke-width="5"/>
 </g>
</svg>