<?xml version="1.0"?>
<svg width="640" height="480" xmlns="http://www.w3.org/2000/svg" xmlns:svg="http://www.w3.org/2000/svg">
 <!-- Created with SVG-edit - https://github.com/SVG-Edit/svgedit-->
 <g class="layer">
  <title>Layer 1</title>
  <path d="m420.5,86.5c0,-2.625336 0,-3.484001 0,-4.347336c0,-0.904495 0.052124,-1.623962 -0.013489,-2.671501c-0.052734,-0.842155 -0.178772,-1.496681 -0.650665,-2.502327c-0.352142,-0.750473 -0.854065,-1.45977 -1.335022,-2.169006c-0.663879,-0.978958 -1.030151,-1.537819 -1.459167,-2.24733c-0.541656,-0.895828 -1.081116,-1.568878 -1.708313,-2.395836c-0.50116,-0.660782 -0.817902,-1.177795 -1.349335,-1.898666c-0.711029,-0.964493 -1.226257,-1.432648 -2.141174,-1.724335c-0.739777,-0.235855 -1.564056,-0.688065 -2.142822,-1.33033c-0.623566,-0.691978 -1.16626,-1.421722 -1.804504,-1.9035c-0.813324,-0.61393 -1.570618,-0.963253 -2.352661,-1.4715c-0.570007,-0.370449 -1.170685,-0.771637 -2.342682,-1.759499c-0.608124,-0.512577 -1.172089,-1.066105 -1.743011,-1.569c-0.780762,-0.687721 -1.506042,-1.209084 -2.218475,-1.6605c-0.505981,-0.320599 -1.379272,-0.895115 -2.048523,-1.350166c-0.708649,-0.481823 -1.407776,-1.008038 -2.523499,-1.499168c-0.662476,-0.291607 -1.642273,-0.446564 -2.204987,-0.658001c-1.083221,-0.407017 -1.744751,-1.141495 -2.222992,-1.638c-0.505646,-0.524963 -1.36319,-1.310215 -2.048523,-1.737831c-0.693665,-0.4328 -1.423279,-0.804501 -2.523499,-1.132835c-0.673065,-0.200855 -1.671509,-0.306709 -2.319336,-0.438667c-1.381317,-0.281368 -2.105713,-0.596226 -2.847321,-0.936333c-0.377686,-0.17321 -1.121063,-0.552067 -2.178986,-1.158165c-0.680634,-0.38995 -1.347687,-0.810898 -2.088013,-1.143002c-1.210754,-0.543125 -2.183441,-0.778175 -2.69101,-0.899998c-1.03894,-0.249359 -1.567291,-0.340206 -2.589996,-0.555836c-1.389496,-0.292961 -1.806122,-0.373543 -2.910339,-0.722164c-0.691315,-0.218254 -1.712158,-0.637325 -2.425659,-0.9645c-0.745453,-0.341824 -1.496185,-0.715038 -2.231995,-1.116001c-1.07074,-0.583466 -1.720459,-1.000961 -2.363159,-1.356998c-0.610443,-0.338169 -1.814758,-0.831322 -2.420837,-0.927334c-0.893646,-0.141563 -2.100159,-0.102676 -2.700012,-0.117001c-0.900574,-0.021507 -1.821381,-0.10532 -2.699646,-0.439999c-0.905579,-0.345085 -1.375793,-0.816563 -2.557678,-1.314335c-0.620667,-0.261402 -1.685822,-0.243 -2.425323,-0.243c-0.883514,0 -1.884033,0.003895 -2.600006,-0.001335c-0.732025,-0.005348 -1.815552,0.001007 -2.783997,-0.165333c-0.828735,-0.142345 -1.5065,-0.455688 -2.533997,-0.933167c-0.638672,-0.296803 -1.420593,-0.589031 -2.466003,-0.733498c-0.866211,-0.119709 -1.845245,-0.134201 -2.354187,-0.145836c-1.025513,-0.023445 -1.528503,-0.020164 -2.914978,-0.020832c-0.801666,-0.000385 -1.543335,0 -2.630859,0c-1.176147,0 -2.043152,0 -2.494659,0c-0.923981,0 -1.855988,0 -3.217316,0c-0.437347,0 -1.296021,0 -2.146667,0c-0.858673,0 -2.19635,0 -2.661346,0c-0.959991,0 -1.959991,0 -2.475006,0c-1.60498,0 -2.159332,0 -3.281982,0c-0.560333,0 -1.114685,0 -2.189331,0c-1.46701,0 -1.903015,0 -3.091003,0c-0.752014,0 -1.528015,0 -2.839996,0c-0.488007,0 -1.512024,0 -2.036011,0c-1.041992,0 -1.548004,0 -2.935669,0c-0.797333,0 -1.868317,0 -2.545654,0c-1.039856,0 -1.766846,0 -2.85733,0c-0.692017,0 -1.894684,0 -2.68219,0c-0.832489,0 -1.843475,0 -2.646149,0c-0.874664,0 -1.32901,0 -2.251678,0c-1.35965,0 -2.219666,0 -3.039673,0c-0.779999,0 -1.875,0 -2.561646,0c-1.042511,0 -1.804169,0 -3.146667,0c-0.518829,0 -1.648499,0 -2.245331,0c-0.608856,0 -1.222687,0 -2.437347,0c-1.150665,0 -2.194672,0 -2.679169,0c-0.908997,0 -1.757996,0 -2.971497,0c-0.798676,0 -1.589325,0 -2.364014,0c-1.46933,0 -2.15094,-0.010193 -2.799988,0.010666c-0.932159,0.029957 -2.137756,0.20277 -2.735992,0.341999c-0.902832,0.210121 -1.491913,0.420738 -2.702667,0.562c-0.934875,0.109074 -1.611664,0.080418 -2.730667,0.085335c-0.840012,0.003689 -1.760757,0.021656 -2.25,0.0625c-1.042084,0.087002 -1.599442,0.152332 -2.75,0.4375c-1.242432,0.307938 -1.859894,0.554054 -2.485336,0.776001c-0.620239,0.220097 -1.801941,0.673008 -2.35733,0.871998c-1.410553,0.505386 -2.142303,0.712872 -2.761505,0.789501c-0.822296,0.101765 -2.030502,0.0625 -2.713165,0.0625c-1.044006,0 -2.016235,-0.015636 -2.839508,0.004501c-0.72496,0.017735 -1.933441,0.210041 -2.475998,0.352665c-0.919662,0.241749 -1.602478,0.45768 -2.776657,0.742832c-0.864639,0.20998 -1.318329,0.300819 -2.242508,0.5c-0.931808,0.200825 -2.292984,0.499882 -2.727997,0.598667c-0.839981,0.19075 -1.636337,0.385174 -2.399994,0.516003c-1.395584,0.239086 -2.058868,0.219933 -2.982178,0.395164c-0.915359,0.173725 -1.812851,0.589622 -2.404495,0.931835c-0.608994,0.352242 -1.798889,1.159603 -2.395493,1.553833c-0.582748,0.385075 -1.135391,0.767231 -2.183014,1.382999c-0.678009,0.398521 -1.529327,0.802452 -2.324158,1.225498c-0.64679,0.344257 -1.384399,0.832256 -2.240173,1.560001c-0.680389,0.578606 -1.010727,0.920788 -1.742493,1.560001c-0.724426,0.632793 -1.78035,1.433937 -2.457504,1.808998c-0.625183,0.346275 -1.273056,0.569973 -2.457169,1.188667c-0.611221,0.319363 -1.213715,0.701046 -1.800003,1.139999c-1.229706,0.920685 -1.795624,1.481609 -2.358322,2.017502c-0.531754,0.506413 -1.208344,1.187496 -1.880341,1.859497c-0.543991,0.543999 -1.302902,1.331047 -1.871994,1.836002c-0.768982,0.682323 -1.42485,1.037037 -1.989334,1.522667c-0.859085,0.739082 -1.213974,1.352348 -1.610672,2.021332c-0.439484,0.741119 -0.869492,1.573524 -1.356003,2.447998c-0.510574,0.917709 -0.780304,1.377686 -1.3125,2.291672c-0.258911,0.444664 -0.762207,1.280907 -1.377991,2.377495c-0.490082,0.872742 -0.760559,1.402634 -1.309509,2.497505c-0.319092,0.636444 -0.667816,1.334465 -1.007996,2.087997c-0.35083,0.777122 -0.807648,1.977104 -1.072662,2.769669c-0.256195,0.766167 -0.441483,1.524139 -0.919342,2.475662c-0.426376,0.848999 -1.0634,1.459976 -1.5,2.333336c-0.292664,0.585419 -0.41008,1.578987 -0.666656,2.5c-0.21254,0.762924 -0.52858,1.607796 -0.6875,2.0625c-0.33223,0.950569 -0.5224,1.433754 -0.95784,2.937164c-0.285736,0.986549 -0.385895,1.481728 -0.646667,2.428337c-0.249054,0.904037 -0.514618,1.750328 -0.85733,2.498665c-0.461136,1.006958 -0.934433,1.49437 -1.348007,2.610664c-0.270767,0.73082 -0.334396,1.962875 -0.390823,2.391167c-0.131927,1.001495 -0.210236,1.556152 -0.389175,2.727501c-0.091644,0.599838 -0.176804,1.198517 -0.489166,2.879501c-0.094635,0.509293 -0.29686,1.455063 -0.464157,2.332497c-0.157623,0.826706 -0.322617,2.031364 -0.383331,2.832001c-0.060623,0.799438 -0.074005,1.603401 -0.219345,2.800003c-0.097672,0.804161 -0.266815,1.611191 -0.354156,2.020836c-0.178543,0.83744 -0.483063,2.144997 -0.677841,3.061829c-0.098801,0.465088 -0.294006,1.394173 -0.444168,2.307503c-0.209381,1.273537 -0.270538,2.043549 -0.342499,2.769836c-0.072037,0.727066 -0.153748,1.500008 -0.457504,2.804497c-0.115097,0.494293 -0.418503,1.543495 -0.577988,2.098c-0.331039,1.150986 -0.509155,1.738235 -0.8125,2.9375c-0.151337,0.598267 -0.4095,1.794647 -0.520004,2.389328c-0.109451,0.589035 -0.293991,1.752411 -0.360001,2.325333c-0.191422,1.661209 -0.206467,2.201141 -0.261337,3.26001c-0.027222,0.525238 -0.071381,1.57843 -0.109329,2.109329c-0.117203,1.63942 -0.196793,2.204788 -0.277664,2.782166c-0.167831,1.198105 -0.281754,1.817093 -0.400009,2.452667c-0.121658,0.653793 -0.399826,2.015656 -0.722321,3.449173c-0.166016,0.737946 -0.341339,1.482666 -0.516006,2.231995c-0.174667,0.749329 -0.349991,1.494049 -0.516006,2.231995c-0.322495,1.433517 -0.465668,2.124344 -0.597321,2.797333c-0.128265,0.655716 -0.34935,1.928345 -0.440002,2.549332c-0.089294,0.611725 -0.284409,2.421021 -0.325165,3.021011c-0.040573,0.597366 -0.087921,1.778931 -0.100677,2.358658c-0.012527,0.569626 -0.018387,1.671005 -0.020996,3.199005c-0.000809,0.47467 -0.002197,1.392273 -0.035828,2.293335c-0.016983,0.454849 -0.123932,1.883438 -0.248001,2.919998c-0.065125,0.544113 -0.144882,1.100876 -0.290665,2.250671c-0.074478,0.587433 -0.263138,2.378342 -0.303833,2.978668c-0.040649,0.599701 -0.088013,1.799927 -0.100677,2.399994c-0.012665,0.59996 -0.020004,1.800003 -0.020828,3c-0.000412,0.600006 -0.002502,1.800034 -0.010666,2.399994c-0.008163,0.600037 -0.040268,1.800323 -0.074661,2.400009c-0.068878,1.200775 -0.196747,2.401733 -0.271835,3.004501c-0.075562,0.606567 -0.160294,1.216827 -0.347336,2.452667c-0.095108,0.628418 -0.297409,1.90921 -0.39534,2.564331c-0.19957,1.335083 -0.292267,2.014145 -0.379333,2.699326c-0.087616,0.689484 -0.169968,1.383041 -0.235489,2.080505c-0.131302,1.397537 -0.203552,2.799866 -0.22818,3.503174c-0.024719,0.706039 -0.038361,1.41629 -0.046494,2.131485c-0.008209,0.721161 -0.009995,1.449341 -0.010666,2.930679c-0.000336,0.754501 0,1.515991 0,2.281494c0,1.531006 0,2.290497 0,3.042007c0,0.740494 0,2.176498 0,2.866989c0,0.673508 0,1.333008 0,2.622009c0,0.635498 0,1.268997 0,1.903488c0,1.939178 0,2.605347 0,3.283508c0,0.691162 0,1.396332 0,2.116501c0,0.73616 0,3.050659 0,3.859833c0,0.824158 0,1.658325 0,2.497498c0,0.839172 0,1.67334 0,2.497498c0,0.809174 0,2.362503 0,3.098007c0,0.708496 0,1.39299 0,2.056503c0,0.645493 0,1.275986 0,2.503998c0,1.203995 0,1.804489 0,3.017502c0,0.6185 0,1.248993 0,1.894485c0,1.348007 0,2.792007 0,3.556015c0,0.787994 0,1.593994 0,2.411987c0,0.824005 0,1.64801 0,2.466003c0,0.806 0,2.358002 0,3.093842c0,0.710815 0,1.401672 0,2.077484c0,0.665833 0,1.987518 0,2.653351c0,1.366669 0,2.076172 0,2.802673c0,0.740479 0,1.491974 0,2.251495c0,0.764496 0,1.530975 0,3.8125c0,0.744995 0,1.47998 0,2.204987c0,0.714996 0,1.420013 0,2.11499c0,0.685028 0,2.680023 0,3.32486c0,0.63382 0,1.255646 0,2.45932c0,0.579834 0,1.690491 0,2.729156c0,0.965332 0,1.88269 0,2.333344c0,0.905334 0,2.333344 0,2.842834c0,1.066986 0,1.6185 0,2.742493c0,0.566498 0,2.248016 0,2.793182c0,1.064331 0,1.58548 0,2.610809c0,0.506195 0,2.010681 0,2.510529c0,0.995667 0,1.979309 0,2.464142c0,0.950684 0,2.315002 0,3.192352c0,0.439667 0,1.341003 0,2.29834c0,1.045319 0,2.199982 0,2.812317c0,0.630341 0,1.274658 0,2.589325c0,0.662354 -0.001022,1.97702 0.000168,2.622009c0.002335,1.26001 0.006271,1.875092 0.02066,2.480011c0.028076,1.180206 0.043976,1.756683 0.145844,2.875c0.098801,1.084625 0.182526,1.615265 0.354156,2.666656c0.085861,0.526001 0.2836,1.583466 0.479172,2.666656c0.201874,1.118103 0.299286,1.689911 0.389328,2.269348c0.182343,1.173492 0.262115,1.767517 0.325333,2.365326c0.18988,1.795593 0.204605,2.394531 0.26001,3.566681c0.026917,0.569427 0.028061,1.125488 0.109329,2.175995c0.10788,1.394653 0.254761,2.205627 0.4785,2.955994c0.228638,0.766815 0.768097,2.001251 0.980164,2.463989c0.456802,0.996735 0.708237,1.511902 0.957336,2.036011c0.495132,1.041779 0.75177,1.539276 1.356995,2.935333c0.339844,0.783905 0.598663,1.48233 0.834,2.093994c0.404434,1.051117 0.820663,1.965668 1.109009,2.654663c0.415604,0.993073 0.700821,1.809998 0.842834,2.363342c0.322906,1.25827 0.336411,1.976135 0.441162,2.722015c0.169266,1.205139 0.345596,1.896942 0.562668,2.615997c0.222626,0.737457 0.667633,1.79657 1.001495,2.457489c0.480667,0.951538 0.845215,1.535522 1.109177,2.457153c0.253387,0.884705 0.283127,1.819 0.575989,2.700012c0.305878,0.920197 0.707947,1.459076 1.098679,2.314667c0.448441,0.981934 0.529572,1.715851 0.735992,2.454681c0.34024,1.217834 0.688095,1.889496 1.053329,2.579987c0.365616,0.691223 0.977737,1.608582 1.568008,2.399994c0.374176,0.501709 1.066635,1.574463 1.325333,2.220001c0.273621,0.68277 0.475266,1.415833 0.68399,2.14801c0.302536,1.061249 0.607834,2.0737 0.873337,2.743988c0.28299,0.714417 0.867172,1.883057 1.096008,2.305328c0.475433,0.877319 0.981369,1.746643 1.226654,2.170837c0.67215,1.162415 1.053925,1.797943 1.463669,2.62085c0.355927,0.714813 0.715286,1.736023 1.0625,2.520813c0.337936,0.763824 0.958435,1.562714 1.520844,2.041687c0.636765,0.542297 1.395248,1.230072 1.906494,1.846161c0.548264,0.660706 1.080215,1.366272 1.718506,2.466339c0.38768,0.668152 0.668213,1.332336 0.947998,1.955994c0.544647,1.213989 0.855484,1.818604 1.221329,2.399994c0.546188,0.86795 1.156937,1.649994 1.755005,2.348999c0.530792,0.620361 1.162003,1.442383 1.459656,2.123016c0.386566,0.883972 0.810669,1.599976 1.134674,2.123993c0.647995,1.048004 1.058868,1.770935 1.475998,2.475983c0.302505,0.511322 1.105713,1.707336 1.344009,2.044006c0.492691,0.696075 1.005096,1.378632 1.661331,2.361328c0.541153,0.810364 0.924957,1.564911 1.666656,2.333344c0.625656,0.648193 1.190613,0.971924 1.898666,1.600006c0.648056,0.57486 1.119965,1.509338 1.934677,2.06665c0.599686,0.410217 1.485214,0.417084 2.433334,1.043182c0.63884,0.421875 1.391479,1.136139 2,1.537506c0.591965,0.390442 1.60582,1.067505 2.210663,1.588654c0.429398,0.369995 1.349258,1.172913 1.874664,1.563995c0.825134,0.614166 1.417084,1.003113 2.314667,1.600006c0.893433,0.594116 1.463699,0.986572 2.042831,1.285675c1.011597,0.52243 1.765747,0.631378 2.52417,0.876831c1.323273,0.428253 1.693176,0.679504 2.519669,1.134827c0.880844,0.48526 1.316925,0.751831 2.580002,1.536011c0.764023,0.474335 1.443253,0.921997 2.075989,1.283997c0.562958,0.322083 1.579788,0.689392 2.482666,0.933319c0.948853,0.256348 1.725006,0.650818 2.513336,1.098663c0.493378,0.280273 1.647659,0.79657 2.238174,1.013184c0.864273,0.317047 1.652405,0.690857 2.613831,1.145508c0.535034,0.253021 1.097855,0.525696 1.688995,0.805481c1.884445,0.891937 2.540054,1.18924 3.203003,1.482513c0.664063,0.293762 1.329727,0.577667 1.996506,0.841492c0.657303,0.260101 1.292252,0.55658 3.1875,1.0625c0.584763,0.156097 1.155563,0.268036 2.229324,0.402679c0.972305,0.121918 1.434448,0.064484 2.939514,0.318665c0.598877,0.101135 1.538025,0.477722 2.364319,0.657318c0.953003,0.207153 1.743561,0.408264 2.495667,0.768677c0.854767,0.409607 1.971161,0.349396 2.645844,0.354004c0.802704,0.005463 1.701691,0.02771 2.176666,0.055817c1.483429,0.087769 1.983948,0.150665 2.981995,0.300018c1.002136,0.149963 1.500732,0.249634 2.5,0.444153c1.000763,0.194824 1.998871,0.397583 2.989319,0.598663c0.48996,0.099457 1.453918,0.298218 1.925354,0.399994c1.364624,0.294617 2.218414,0.498749 3.022827,0.679169c0.742981,0.166656 2.017578,0.426208 2.82251,0.484833c0.800995,0.058319 1.73999,0.036011 2.493317,0.036011c0.833344,0 1.706665,0 2.580017,0c1.224335,0 1.970337,0 2.708313,0c0.778015,0 2.125,0 2.644684,0c1.151337,0 1.778992,0 2.43866,0c0.689667,0 1.407318,0 2.151001,0c1.557343,0 2.366333,0 3.189331,0c0.830994,0 1.664001,0 2.493011,0c0.819,0 1.621979,0 2.402985,0c1.472015,0 2.79599,0 3.405518,0c0.578491,0 1.65448,0 2.642487,0c0.924011,0 1.802673,0 2.633331,0c0.774658,0 2.124786,-0.028717 2.956512,0.009003c0.789185,0.035797 1.36203,0.133972 2.36499,0.433655c0.805267,0.240601 1.654144,0.564972 2.535004,0.85202c0.432953,0.141083 2.027405,0.55658 2.728821,0.633331c0.648773,0.070984 1.872009,0.071991 2.781006,0.071991c0.63266,0 1.305328,0 2.424347,0c0.834656,0 1.717316,0 2.615997,0c0.88266,0 2.107666,0 2.836334,0c0.672668,0 1.611664,0 2.815643,0c0.609344,0 1.555847,0 2.565338,0c0.717346,0 1.458679,0 2.580688,0c1.085999,0 1.768646,0 2.752655,0c0.652679,0 1.666656,0 2.748169,0c0.730988,0 1.441986,0 2.709503,0c0.812988,0 1.36499,0 2.708984,0c0.870667,0 1.348511,0 2.354187,0c0.513824,0 1.528503,0 2.914337,0c0.784332,0 1.460663,0 2.290161,0c1.123993,0 2.108154,0.010651 2.793488,-0.004486c0.838898,-0.018524 1.474487,-0.04657 2.863831,-0.27951c0.73526,-0.12326 1.453491,-0.303589 2.14801,-0.432007c1.194763,-0.220947 2.148132,-0.265167 3.169159,-0.284149c0.77948,-0.014496 1.684723,-0.087311 2.300171,-0.541504c0.911194,-0.672485 1.291779,-1.331543 1.90451,-1.748505c0.937042,-0.637604 1.835175,-0.666565 2.59549,-1.043182c0.845703,-0.418915 1.283997,-1.061615 2.242828,-1.556824c0.816681,-0.421814 1.395813,-0.753815 2.078491,-1.431152c0.681335,-0.675995 1.194672,-1.194672 1.926025,-1.926025c0.50531,-0.50531 1.239319,-1.239319 1.794312,-1.794312c0.64502,-0.64502 1.379669,-1.379669 1.911011,-1.911011c0.547333,-0.547333 1.094666,-1.094666 1.880676,-1.880676c0.704987,-0.704987 1.31662,-1.323364 2,-2c0.538666,-0.533356 1.352264,-1.138641 2.002655,-1.598663c0.58667,-0.414948 1.378479,-1.32251 1.759491,-1.925995c0.399261,-0.632416 0.694366,-1.316559 1.383179,-2.377655c0.485199,-0.747437 1.193756,-1.425354 1.678497,-1.925995c0.560211,-0.578583 1.355438,-1.495575 1.741516,-2.023682c0.600403,-0.821289 0.976654,-1.40213 1.434662,-2.314667c0.446228,-0.889069 0.663086,-1.522278 0.919312,-2.157166c0.408325,-1.01181 0.730011,-1.724182 1.226501,-2.801178c0.311005,-0.674652 0.655792,-1.553558 0.970184,-2.34433c0.349304,-0.878571 0.915405,-1.540253 1.459656,-2.101837c0.780548,-0.80542 1.380371,-1.384796 1.933838,-1.938324c0.635864,-0.635956 1.30014,-1.304688 1.823822,-1.990509c0.503326,-0.659149 0.989319,-1.429688 1.666687,-2.333313c0.398651,-0.531799 0.997894,-1.195862 1.466644,-1.990509c0.430695,-0.730103 0.812134,-1.537201 1.200012,-2.363678c0.309753,-0.660004 0.693207,-1.667633 1.020844,-2.5c0.230621,-0.585907 0.798798,-1.779999 1.127319,-2.37915c0.329468,-0.600861 0.845306,-1.479614 1.109161,-2.399994c0.253601,-0.884644 0.206299,-1.523895 0.576019,-2.700012c0.194,-0.617157 0.716095,-1.529327 1.132813,-2.157166c0.679504,-1.023743 1.217712,-1.725983 1.482025,-2.09549c0.533386,-0.745636 1.079285,-1.472351 1.718475,-2.580688c0.38562,-0.66861 0.681183,-1.323181 1.024353,-2.262146c0.328094,-0.897766 0.61441,-1.811798 0.80899,-2.446167c0.20578,-0.670929 0.502411,-1.791107 0.701324,-2.627686c0.211945,-0.891388 0.301147,-1.356354 0.555847,-2.282501c0.38208,-1.389343 0.55304,-1.830597 0.890991,-2.681976c0.320648,-0.807861 0.73111,-1.518188 1.108826,-2.823517c0.22522,-0.77832 0.231232,-1.548035 0.243347,-2.685333c0.00705,-0.662689 -0.041565,-1.371124 0.170319,-2.389343c0.196442,-0.943939 0.703827,-1.680664 1.124023,-2.358978c0.490906,-0.79245 0.675171,-1.652039 0.787994,-2.379669c0.186035,-1.199799 0.34848,-1.878784 0.492004,-2.578674c0.269653,-1.315125 0.323273,-1.883484 0.450653,-2.865326c0.12384,-0.954437 0.33728,-1.735382 0.549347,-2.559998c0.271454,-1.055481 0.391449,-1.767059 0.420837,-2.62085c0.034546,-1.003906 -0.037842,-1.854675 0.447144,-2.804657c0.333893,-0.653992 0.969513,-1.209015 1.314331,-2.221161c0.265076,-0.778076 0.223114,-1.62616 0.243347,-2.657349c0.013641,-0.696167 0.122467,-1.625641 0.567657,-2.606659c0.255798,-0.56366 0.796051,-1.393402 1.098663,-2.314667c0.286316,-0.871704 0.322662,-1.727814 0.333344,-2.666656c0.009216,-0.812439 0,-1.818665 0,-2.544006c0,-0.989166 0,-1.768494 0,-2.767822c0,-0.82019 0,-1.721527 0,-2.693512c0,-0.870667 0,-1.578674 0,-2.559998c0,-0.953674 0,-1.868164 0,-2.653351c0,-0.940002 0,-1.947998 0,-2.703979c0,-0.910675 0,-1.810669 0,-2.715179c0,-0.862152 0,-1.716339 0,-2.695496c0,-0.789337 -0.297943,-1.913635 0.057159,-2.638336c0.348633,-0.711517 0.905518,-1.423126 0.932159,-2.121674c0.04184,-1.096252 0.010681,-1.931 0.010681,-2.839996c0,-0.899994 -0.132721,-1.810486 0.004486,-2.699982c0.143677,-0.931396 0.847137,-1.468658 0.991028,-2.400024c0.125336,-0.811218 0.004486,-1.783997 0.004486,-2.647308c0,-0.895508 0,-1.852692 0,-2.752686c0,-0.899994 0,-1.608002 0,-2.664001c0,-0.593994 0,-1.559998 0,-2.735992c0,-0.791992 0,-1.702667 0,-2.470673c0,-0.799988 0,-1.570984 0,-2.432007c0,-1.195984 0,-2.076477 0,-2.640167c0,-1.270477 0,-2.110474 0,-3.073151c0,-0.768005 0,-1.709351 0,-2.399994c0,-0.984009 0,-1.970673 0,-2.730682c0,-0.919983 0,-1.701508 0,-2.7435c0,-0.867004 0,-1.757996 0,-2.662506c0,-0.863312 0,-1.847321 0,-2.66864c0,-0.853333 0,-1.794678 0,-2.562683c0,-0.962677 0,-1.802673 0,-2.798676c0,-0.796478 0.002533,-1.547974 0,-2.645325c-0.002258,-0.971985 -0.326141,-1.708649 -0.716003,-2.471985c-0.384521,-0.752899 -0.237549,-1.733398 -0.70932,-2.600006c-0.398773,-0.732483 -0.789246,-1.570099 -1.149353,-2.200012c-0.494049,-0.864197 -0.751251,-1.737625 -1.525146,-2.278824c-0.707153,-0.494522 -0.705078,-1.226028 -1.252838,-2.011337c-0.477478,-0.68454 -0.766113,-1.488358 -1.257996,-2.248505c-0.493317,-0.762405 -1.197388,-1.240051 -1.825348,-1.846664c-0.579834,-0.560135 -1.149384,-1.192154 -1.481323,-2.130661c-0.269531,-0.762039 -0.759644,-1.566315 -1.268005,-2.022675c-0.748383,-0.671829 -1.648041,-0.663712 -2.514679,-0.918488c-0.877258,-0.257904 -1.647034,-0.779236 -2.399994,-1.164169c-0.763184,-0.390167 -1.600037,-0.770508 -2.5,-0.778671c-0.810699,-0.007355 -1.7146,-0.239273 -2.420837,-0.5c-0.970337,-0.358215 -1.807983,-0.323517 -2.8125,-0.666672c-0.687744,-0.23494 -1.484497,-0.648682 -2.367981,-0.837326c-0.712891,-0.152222 -1.271423,-0.86116 -1.840332,-1.51683c-0.629883,-0.725922 -1.347839,-1.399048 -2.205017,-1.796509c-0.581451,-0.269608 -1.918579,-0.529129 -2.638672,-0.598663c-0.749451,-0.072372 -1.526672,-0.09343 -2.315979,-0.167999c-1.201385,-0.11351 -2.006958,-0.261292 -2.819519,-0.457672c-0.840576,-0.203156 -1.268677,-0.332306 -2.600983,-0.779495c-0.947418,-0.317993 -1.430664,-0.509277 -2.460846,-0.817505c-0.533783,-0.159698 -1.079437,-0.351227 -2.85965,-0.618332c-0.62027,-0.093063 -1.253204,-0.144226 -2.516022,-0.201324c-0.618683,-0.027969 -1.221954,-0.03688 -2.875,-0.041672c-0.480835,-0.001389 -1.342987,0.010864 -2.104156,-0.020828c-1.04361,-0.043457 -2.084961,-0.195374 -2.819672,-0.331833c-0.764679,-0.142014 -1.542786,-0.32663 -2.742828,-0.480667c-0.800232,-0.102722 -1.621124,-0.138916 -2.471985,-0.156006c-0.89856,-0.018051 -1.861359,-0.010666 -2.897339,-0.010666c-0.540497,0 -1.65152,0 -2.216003,0c-1.132019,0 -2.248016,0 -2.793182,0c-1.064331,0 -2.100647,0 -2.610809,0c-1.009338,0 -2.010681,0 -3.005341,0c-0.962677,0 -1.421997,0 -2.276672,0c-1.343506,0 -2.249512,0 -2.950012,0c-0.985504,0 -1.846497,0 -2.7995,0c-0.488495,0 -1.444489,0 -2.692993,0c-0.931488,0 -1.610992,0 -2.660828,0c-0.946655,0 -1.799988,0 -2.741333,0c-0.768005,0 -1.730682,-0.000336 -2.345673,0c-1.222321,0.000671 -2.043549,-0.027191 -2.85434,0.085327c-1.012695,0.140533 -1.719574,0.453735 -2.538666,0.716003c-1.002411,0.320984 -1.801758,0.501465 -2.645325,0.677841c-0.423248,0.088486 -1.242249,0.280838 -2.646667,0.435501c-0.829956,0.0914 -1.619995,0.080231 -2.496155,0.085495c-1.018555,0.006119 -1.744354,0.013718 -2.474518,0.085159c-1.064972,0.104187 -2.062653,0.344742 -2.708008,0.56134c-0.664581,0.223053 -1.695404,0.675781 -2.427307,1.001495c-0.746765,0.332321 -1.470612,0.723511 -2.926025,1.109177c-0.659821,0.174835 -1.329865,0.198654 -2.305328,0.41066c-1.048279,0.227829 -1.762726,0.529953 -2.474335,0.832001c-0.677673,0.287659 -1.757965,0.85556 -2.64566,0.978668c-0.874573,0.121292 -1.652161,0.004913 -2.817657,0.242828c-0.545532,0.111359 -1.424225,0.391846 -2.065002,0.579834c-1.033264,0.303146 -2.133118,0.59343 -2.85199,0.834671c-0.697357,0.234024 -1.638885,0.654633 -2.378693,1.178665c-0.635315,0.450027 -1.519806,1.128036 -2.382813,1.185333c-0.783447,0.052017 -1.726318,-0.047836 -2.733185,0c-0.758545,0.036041 -1.391846,0.763748 -1.866669,1.294662c-0.701874,0.78479 -1.588501,1.084244 -2.185333,1.506668c-0.743896,0.526489 -1.429169,1.103485 -2.129333,1.762665c-0.554657,0.522186 -1.705872,0.182816 -2.415985,0.521332c-0.789337,0.376297 -0.971405,1.372635 -1.735992,1.914673c-0.636108,0.450958 -1.439606,0.790298 -2.428833,1.300003c-0.571411,0.294418 -1.504456,0.921158 -2.157166,1.399994c-0.71582,0.525116 -1.481354,0.902847 -2.247345,1.466675c-0.624664,0.459793 -1.193512,1.072556 -2.166656,1.666656c-0.75647,0.461807 -1.334839,0.642014 -2.149353,0.965347c-0.999176,0.396637 -1.867004,0.75531 -2.662659,1.301331c-0.673981,0.462524 -1.36554,0.965302 -2.021332,1.420837c-0.865906,0.60144 -1.269684,1.37265 -1.798676,1.909821c-0.69577,0.706482 -1.593628,1.01355 -2.301331,1.669159c-0.593628,0.549957 -1.399841,0.887512 -2.299988,0.900177c-0.895416,0.012604 -1.503296,0.470032 -1.821686,1.32132c-0.262848,0.702789 -0.915222,1.551239 -1.603668,2.042694c-0.664185,0.474121 -1.401001,0.963928 -2.058655,1.435974c-0.741882,0.532501 -1.628021,0.943268 -2.095154,1.700012c-0.464752,0.752899 -1.020844,1.5 -1.62085,2.100006c-0.601318,0.601318 -1.163635,1.150787 -1.884003,1.885315c-0.520706,0.530945 -1.094131,1.0737 -1.754318,2.110168c-0.349167,0.548187 -0.628983,1.524414 -0.761841,2.504517c-0.122955,0.906982 -0.654755,1.465118 -0.974503,2.310669c-0.333725,0.882507 -0.48848,1.625854 -1.125336,2.567993c-0.367996,0.544403 -1.005356,1.339966 -1.420822,2.062988c-0.369125,0.642395 -0.963943,1.639709 -1.293839,2.173004c-0.478561,0.773621 -0.939148,1.643616 -1.233505,2.533508c-0.301056,0.910126 -0.66687,1.639709 -0.830322,2.45166c-0.191528,0.951447 0.054993,1.967468 -0.288177,2.800171c-0.276459,0.670837 -0.674576,1.877472 -1.444,1.953339c-0.866364,0.085419 -1.346619,-1.151855 -1.389328,-2.119995c-0.029022,-0.658051 0.171494,-1.695587 -0.057159,-2.528839c-0.215378,-0.784851 -0.812729,-1.632904 -0.885681,-2.309845c-0.106155,-0.985016 -0.020187,-2.031158 -0.093155,-2.681335c-0.121918,-1.086365 -0.301956,-1.676575 -0.574677,-2.637329c-0.178177,-0.627686 -0.748413,-1.776978 -1.032166,-2.419647c-0.391815,-0.887421 -0.354904,-1.775177 -0.357162,-2.899017c-0.001328,-0.662659 0.000092,-1.35733 0,-2.389343c-0.000092,-0.92514 0.044861,-1.712708 -0.085327,-2.650665c-0.140549,-1.012695 -0.431274,-1.839508 -0.619171,-2.421814c-0.386673,-1.198334 -0.610825,-1.789825 -0.859497,-2.695496c-0.163803,-0.596558 -0.370651,-1.798798 -0.415176,-2.700012c-0.029617,-0.599487 -0.020828,-1.800171 -0.020828,-2.710663c0,-0.625336 0,-1.955994 0,-2.671997c0,-0.731995 0,-1.455994 0,-2.783997c0,-0.828003 0,-1.584015 0,-2.666687c0,-0.638657 0,-1.349319 0,-2.123993c0,-0.830658 0,-2.163834 0,-3.090836c0,-0.931 0,-1.390488 0,-2.282501c0,-1.226486 0,-1.959488 0,-2.983994c0,-0.667999 0,-1.706833 0,-2.442505c0,-1.153488 0,-1.944168 0,-3.142654c0,-0.79567 0,-1.579346 0,-2.343002c0,-1.0905 0,-1.774506 0,-2.778c0,-0.689011 0,-1.8125 0,-2.644501c0,-0.863998 0,-1.712006 0,-2.496002c0,-1.20134 0,-2.003998 0,-2.838669c0,-0.867004 0,-1.541672 0,-2.618668c0,-1.059998 0,-1.728668 0,-2.706665c0,-0.658661 0,-1.695999 0,-2.800003c0,-0.749329 0,-1.490662 0,-2.553497c0,-1.0065 0,-1.682495 0,-2.390503c0,-1.173492 0,-2.040497 0,-2.951492c0,-0.464508 0,-1.3965 0,-2.757507c0,-0.860001 0,-1.679993 0,-2.459991c0,-1.095001 0,-1.776337 0,-2.740845c0,-0.616333 0,-1.820831 0,-2.720825c0,-0.600006 0,-1.800003 0,-2.699997c0,-0.600006 0,-1.5 0,-2.700012c0,-0.599991 0,-1.5 0,-2.699997c0,-0.599991 0,-1.5 0,-2.699997c0,-0.600006 0,-1.5 0,-2.399994c0,-0.900009 0,-1.800003 0,-2.700012c0,-0.899994 -0.016663,-1.80098 0.035995,-2.699997c0.035202,-0.600983 0.242538,-1.800018 0.464005,-2.679169c0.2108,-0.836823 0.409271,-1.837677 0.5,-2.520828c0.155167,-1.168259 0.349899,-1.959335 0.520828,-2.520828c0.269119,-0.884048 0.567322,-1.782974 0.879166,-2.657837c0.289078,-0.810989 0.743332,-1.652145 1.164001,-2.399994c0.447876,-0.796234 0.355804,-1.746185 0.602676,-2.588013c0.26564,-0.905807 0.648636,-1.514511 1.033325,-2.517334c0.311386,-0.811722 0.474625,-1.373535 0.900177,-2.394653c0.293182,-0.703476 0.776917,-1.610291 1.220993,-2.342514c0.484558,-0.798981 1.016586,-1.544998 1.436172,-2.435822c0.33194,-0.704742 1.017029,-1.369614 1.537323,-1.900177c0.632309,-0.644791 0.626816,-1.644577 1.067001,-2.494659c0.315704,-0.60968 1.127991,-1.513626 1.463669,-2.009506c0.531021,-0.78447 1.005585,-1.57341 1.421997,-2.281494c0.502441,-0.85437 1.059784,-1.669464 1.578003,-2.246506c0.508347,-0.566055 1.33342,-1.289078 1.870163,-1.963333c0.553802,-0.695694 0.858398,-1.499954 1.625671,-2.22583c0.600616,-0.568222 1.333405,-1.028214 1.72699,-1.721497c0.45874,-0.808075 1.065277,-1.621124 1.751831,-2.014664c0.733826,-0.420654 1.700012,-0.285339 2.632019,-0.285339c1.067993,0 1.623077,0.013992 2.60965,-0.020828c0.715179,-0.025238 1.799713,-0.107666 2.792175,-0.336334c0.609497,-0.140427 1.411743,-0.411316 2.365326,-0.942841c0.676605,-0.377121 1.556946,-0.828735 2.50885,-1.089325c0.718353,-0.196655 1.491913,-0.358551 2.691833,-0.489166c0.793579,-0.08638 1.579193,-0.107269 2.342987,-0.117004c1.090424,-0.013901 1.773163,-0.004501 2.757172,-0.004501c0.652679,0 2.021515,0 2.757172,0c0.763672,0 1.547333,0 2.742828,0c0.801331,0 1.610657,0 2.436005,0c0.849335,0 1.730652,0 2.645325,0c0.922668,0 1.82135,0 2.664001,0c1.090332,0 1.957336,0 2.698334,0c0.977997,0 1.803009,0 2.717987,0c1.005005,0 1.721008,0 2.453003,0c1.0755,0 2.052002,0 2.880005,0c0.756012,0 1.838684,0 2.828674,0c0.76001,0 1.600006,-0.000046 2.049988,0c1.46936,0.000168 1.994934,-0.008026 3.077332,0.021332c0.54953,0.014908 1.646393,0.073685 2.181335,0.149338c1.533844,0.216904 2.45517,0.530197 2.896027,0.679993c0.853638,0.290054 1.654663,0.641449 2.871979,0.906509c0.792419,0.172546 1.600464,0.217041 2.399994,0.291c1.200714,0.111069 2.000397,0.222153 2.778687,0.387833c0.752563,0.160202 1.463318,0.32901 2.651978,0.763992c0.757263,0.277115 1.450409,0.604034 2.453339,1.001343c0.814728,0.322754 1.398773,0.495422 2.394836,1.119995c0.73526,0.461044 1.140656,0.926834 2.254517,1.511993c0.615662,0.323425 1.324646,0.541962 2.418488,0.862167c1.078308,0.315659 1.76767,0.495071 2.422821,0.715164c0.983582,0.330429 1.995087,0.749161 2.708008,1.073334c0.735229,0.334305 1.456848,0.68898 2.14801,1.032013c0.927612,0.460388 1.715546,0.844833 2.417511,1.236664c0.9841,0.549316 1.486572,0.926819 2.326477,1.386002c1.038025,0.56752 1.780548,0.741348 2.486664,0.911987c1.077637,0.260422 1.711121,0.508453 2.389343,0.810669c0.703461,0.313461 2.013245,0.977554 2.578674,1.251999c0.725555,0.352173 1.781036,0.675446 2.570648,0.882675c0.813263,0.21344 1.614807,0.845734 2,1.301331c0.624664,0.738831 1.180054,1.553513 1.809021,2.25c0.419678,0.464722 1.149292,1.151535 2.033661,1.873672c0.653717,0.533798 1.353088,1.043488 1.706665,1.281662c0.674805,0.454575 1.87146,1.074509 2.609009,1.255661c1.031616,0.253372 1.865509,0.446548 2.44165,0.803345c1.048767,0.649506 1.582916,1.258896 2.200012,1.754333c0.780609,0.626724 1.424011,0.978561 2.085327,1.367996c1.004883,0.591766 1.539398,0.960541 2.419159,1.463333c0.884613,0.505554 1.791565,0.905762 2.395508,1.131836c0.894409,0.334793 1.8013,0.616547 2.689331,0.920822c0.575623,0.197235 1.649933,0.586365 2.353516,0.900009c0.860229,0.383469 1.670563,0.77565 2.457153,1.220825c0.610992,0.345779 1.392609,0.973846 2.020844,1.479172c0.655548,0.527298 1.648407,1.146118 2.458313,1.458328c0.740479,0.285446 1.708038,0.46376 2.621002,0.54184c0.786926,0.067307 1.541443,0.395508 2.304352,0.647171c0.981323,0.323715 1.867462,0.347321 2.928833,0.352661c0.635986,0.003189 1.6875,0 2.418488,0c1.081512,0 1.762848,0 2.727325,0c0.616333,0 1.820496,0 2.699524,0c0.806976,0 1.850647,0 2.82132,0c0.799988,0 1.671997,0 2.542999,0c0.729004,0 1.56601,0 2.756836,0c0.889496,0 1.464172,0 2.533508,0c0.930664,0 1.76532,0 2.775665,0c0.662994,0 1.724335,0 2.700836,0c0.710999,0 1.441986,0 2.523499,0c1.000488,0 1.604248,0.015747 2.833313,0c0.812714,-0.010422 1.673615,-0.181732 2.333344,-0.520828c1.011475,-0.519882 1.482635,-1.074799 2.542664,-1.358002c0.691711,-0.184799 1.572052,-0.023315 2.486664,-0.690506c0.666809,-0.48642 1.043121,-1.4328 1.570679,-2.020004c0.67514,-0.751495 1.214325,-1.224976 1.942841,-1.953491c0.46698,-0.466995 0.977997,-0.977997 1.774475,-1.774506c0.761169,-0.761169 1.225525,-1.225494 1.872009,-1.871994c0.810669,-0.810669 1.430481,-1.38028 1.93866,-1.97467c0.668732,-0.782181 1.138672,-1.367264 1.588013,-2.005325c0.547638,-0.777649 0.275818,-1.604034 0.285339,-2.798676c0.005432,-0.682709 -0.036621,-1.390366 0.165314,-2.698669c0.087921,-0.569611 0.458557,-1.54216 0.833344,-2.5c0.307526,-0.785904 0.515015,-1.345337 0.714661,-2.234665c0.200104,-0.891296 0.262848,-1.798294 0.280853,-2.698669c0.018005,-0.899826 0.004486,-1.795486 0.004486,-2.664001c0,-1.069321 -0.000153,-1.783325 0,-2.68866c0.000183,-0.968826 -0.036285,-1.791443 0.114319,-2.65184c0.158936,-0.908081 0.582062,-1.791229 0.885681,-2.353821c0.419739,-0.777756 0.940247,-1.735474 0.997345,-2.595001c0.066284,-0.997803 0.002655,-1.633331 0.002655,-2.645844c0,-0.967499 0,-1.791 0,-2.748993c0,-0.973167 0,-1.777168 0,-2.599167c0,-1.031166 0,-1.931831 0,-2.551331c0,-1.001335 0,-1.801338 0,-2.800003c0,-0.944168 0.1138,-1.851265 -0.002655,-2.802666c-0.085571,-0.699112 -0.716583,-1.447891 -1.182678,-2.009338c-0.810059,-0.9758 -1.163116,-1.617218 -1.624512,-2.189331c-0.680908,-0.84433 -1.440399,-1.376717 -1.903503,-1.764c-0.944092,-0.789528 -1.241425,-1.520401 -1.858643,-2.32c-0.435028,-0.563568 -1.086365,-1.084259 -2.110687,-1.630669c-0.518372,-0.27652 -1.323181,-0.549553 -2.350647,-1.084c-0.664093,-0.345428 -1.729675,-0.690849 -2.329163,-0.748665c-0.995911,-0.096054 -1.689789,-0.045639 -2.865509,-0.337997c-0.725464,-0.180397 -1.605347,-0.714668 -2.272003,-1.214668c-0.666656,-0.5 -1.480011,-1.030441 -2.333344,-1.333336c-0.776672,-0.275688 -1.643646,-0.745193 -2.1875,-1.166664c-0.57193,-0.443237 -1.582214,-0.875435 -2.37915,-1.048164c-1.002869,-0.217369 -1.798126,-0.443703 -2.713348,-0.869171c-0.754028,-0.35054 -0.794952,-1.303177 -1.311981,-2.021332c-0.477936,-0.663879 -1.109955,-1.267647 -1.453186,-2.161499c-0.284729,-0.741516 -0.109924,-1.725266 -0.12149,-2.415833c-0.018005,-1.073784 -0.582245,-1.804527 -0.87851,-2.584167c-0.282135,-0.7425 -0.12149,-1.746498 -0.12149,-2.586502c0,-0.995995 0,-1.792496 0,-2.543999c0,-1.108002 0.103729,-2.102066 -0.020844,-2.748497c-0.183472,-0.952034 -0.943146,-1.456833 -0.979156,-2.420837l0,-0.900002l0,-0.899994" fill="#3f7f00" id="svg_1" stroke="#000000" stroke-dasharray="null" stroke-linecap="null" stroke-linejoin="null" stroke-width="5"/>
  <path d="m353.5,312.5c-1.757172,-0.995514 -2.652679,-1 -3.515991,-1c-0.858673,0 -1.805328,0 -2.658661,0c-0.940002,0 -1.825348,0 -2.625336,0c-0.900024,0 -1.872009,0 -2.742859,0c-0.718475,0 -1.508972,0 -2.77182,0c-0.66449,0 -1.685333,0 -2.47467,0c-1.044006,0 -1.800018,-0.00528 -2.710663,0c-0.921387,0.005341 -1.83432,0.163116 -2.509827,0.352661c-0.776672,0.217957 -1.821228,0.496918 -2.764832,0.622009c-0.676575,0.089691 -1.654419,0.219482 -2.440002,0.461334c-0.784332,0.241486 -1.847778,0.722992 -2.476349,1.264008c-0.65036,0.559784 -1.18161,1.120392 -2.134338,1.699982c-0.681854,0.414795 -1.40036,0.928833 -2.058655,1.399994c-0.745667,0.533722 -1.542023,0.798096 -2.363342,1.513519c-0.567627,0.494446 -1.07782,1.448364 -1.405334,2.044495c-0.351471,0.63974 -0.836853,1.60614 -1.325989,2.377991c-0.495117,0.78125 -0.925385,1.30426 -1.505341,2.31601c-0.353699,0.617065 -0.651703,1.294678 -1.349335,2.447998c-0.388245,0.641846 -1.026581,1.241638 -1.556,1.899994c-0.600464,0.746704 -0.556946,1.770538 -0.631989,2.436005c-0.087372,0.774841 -0.667419,1.777802 -1.164001,2.328003c-0.761749,0.843964 -1.421936,1.275543 -1.693176,2.157501c-0.263397,0.856445 -0.121429,1.878326 -0.12149,2.657654c-0.000092,0.999664 -0.005127,1.68924 -0.221344,2.56369c-0.24408,0.987183 -0.476837,1.499207 -0.694641,2.770477c-0.109833,0.641113 -0.379028,1.62915 -0.731354,2.439331c-0.377777,0.868713 -0.350403,1.594666 -0.352661,2.622009c-0.002075,0.946838 0,1.646179 0,2.625336c0,0.810669 0,1.685333 0,2.686676c0,0.85498 0,1.474976 0,2.834503c0,0.72699 0,1.457977 0,2.168976c0,1.267181 0,2.059174 0,2.815186c0,1.137329 0,1.799988 0,2.843994c0,0.682678 -0.088928,1.889709 0.041656,2.588165c0.173157,0.926086 0.881989,1.384583 1.475677,2.03183c0.673615,0.734406 0.979156,1.518463 1.196014,2.262665c0.318115,1.091675 0.403992,1.957397 0.807495,2.768005c0.428345,0.860565 0.996246,1.503662 1.645813,2.166656c0.483246,0.493256 1.060089,1.003845 1.811829,2.033173c0.415436,0.568848 0.77182,1.350739 1.326019,2.047516c0.536469,0.674469 1.337097,1.422363 1.906158,1.927307c0.768982,0.682343 1.420624,1.023438 2.132172,1.578003c0.672729,0.524323 1.009155,1.421234 1.978821,2.004669c0.651031,0.391724 1.385406,0.363098 2.363678,0.810669c0.855316,0.391327 1.3862,0.823181 2.614838,1.188995c0.592194,0.176331 1.535645,0.230133 2.18515,0.240356c1.035553,0.016296 2.119324,-0.000763 2.817352,0.038666c0.643524,0.036346 1.798492,0.391266 2.578674,0.679993c0.915344,0.338745 1.951996,0.283997 2.743988,0.283997c0.858673,0 1.721985,0 2.617493,0c0.958496,0 1.923828,0 2.58252,0c1.007996,0 1.872009,0.007446 2.939148,-0.000336c0.607025,-0.004425 1.301819,-0.009064 2.049011,-0.113983c1.194824,-0.167755 1.989014,-0.446625 2.786499,-0.736359c0.802582,-0.291565 1.58548,-0.640594 2.799652,-0.906494c0.783875,-0.171661 1.560242,-0.207123 2.286011,-0.290985c1.274597,-0.147278 2.052368,-0.364258 2.705322,-0.656342c1.026123,-0.459015 1.609741,-0.794006 2.609009,-1.295502c0.60495,-0.303589 1.46582,-0.742615 2.421509,-1.321503c0.54068,-0.327515 1.100708,-0.697266 1.979828,-1.279816c0.899719,-0.596222 1.476624,-1.010529 2.32666,-1.526672c0.925049,-0.561707 1.66925,-0.671387 2.472015,-1.157349c0.676971,-0.40979 1.229462,-1.12027 1.685333,-1.685333c0.626556,-0.776642 1.102051,-1.557159 1.715973,-2.261322c0.568604,-0.652191 1.478363,-1.096771 2.065338,-1.768005c0.509491,-0.582611 0.77063,-1.545807 1.184021,-2.250671c0.438324,-0.747345 0.901794,-1.608063 1.197479,-2.497498c0.304199,-0.9151 0.580444,-1.491119 0.951843,-2.418488c0.310638,-0.775635 0.610657,-1.559937 0.878662,-2.690521c0.177948,-0.750732 0.420105,-1.625458 0.731995,-2.425476c0.406982,-1.043976 0.597168,-1.681488 0.778687,-2.357361c0.266968,-0.993958 0.447296,-1.859436 0.585327,-2.68399c0.196716,-1.175201 0.312103,-1.728729 0.52533,-2.696838c0.149292,-0.677887 0.37442,-1.936554 0.47467,-2.696503c0.104919,-0.795258 0.574646,-1.604889 0.858673,-2.44931c0.269714,-0.801849 0.166656,-1.811829 0.166656,-2.632019c0,-0.901337 0,-1.837311 0,-2.685333c0,-0.863312 0,-1.75882 0,-2.716003c0,-0.900146 0,-1.685333 0,-2.625336c0,-1.007996 0.168549,-1.78363 -0.020844,-2.674652c-0.181274,-0.852936 -0.8013,-1.372223 -1.279144,-2.152679c-0.418549,-0.683624 -0.895569,-1.736938 -1.700012,-2.180664c-0.73407,-0.404907 -1.465424,-0.837891 -1.97467,-1.556c-0.482025,-0.679718 -1.40387,-0.729431 -2.164001,-1.221313c-0.76239,-0.493317 -1.253021,-1.289764 -1.835999,-1.814667c-0.589172,-0.530487 -1.261414,-1.040619 -2.125336,-1.453339c-0.852661,-0.407318 -1.502655,-0.729309 -2.199982,-1.421326c-0.501923,-0.498077 -1.143158,-1.222321 -1.647339,-1.995514c-0.457001,-0.700867 -1.456116,-0.985016 -1.886017,-1.704498c-0.460358,-0.770477 -1.293091,-1.049164 -1.730652,-1.646667c-0.535919,-0.731812 -0.56958,-1.742188 -1.083344,-2.401489c-0.578644,-0.742554 -1.352661,-1.1185 -1.916656,-1.5625l-0.436005,-0.889343l-0.352661,-0.799988l-0.480682,-0.700012" fill="#ffffff" id="svg_3" stroke="#000000" stroke-dasharray="null" stroke-linecap="null" stroke-linejoin="null" stroke-width="5"/>
 </g>
</svg>