<?xml version="1.0"?>
<svg width="640" height="480" xmlns="http://www.w3.org/2000/svg" xmlns:svg="http://www.w3.org/2000/svg">
 <!-- Created with SVG-edit - https://github.com/SVG-Edit/svgedit-->
 <g class="layer">
  <title>Layer 1</title>
  <path d="m317.5,41.5c-1.700012,0 -2.635986,0 -3.484009,0c-0.863312,0 -1.890656,0 -2.837494,0c-0.699341,0 -1.678497,0 -2.478485,0c-0.800018,0 -1.800018,0 -2.600006,0c-0.998688,0 -1.942841,0 -2.847351,0c-0.919312,0 -1.794312,0 -2.439331,0c-0.998657,0 -1.834167,0 -2.714661,0c-0.898834,0 -1.809326,0 -2.755829,0c-1.009491,0 -1.726837,0 -2.46817,0c-0.749329,0 -2.208008,0 -2.888,0c-0.945007,0 -1.524994,0 -2.799988,0c-0.64502,0 -1.665344,0 -2.570679,0c-0.777649,0 -1.577667,0 -2.802673,0c-0.559998,0 -1.474976,0 -2.47998,0c-0.718689,0 -1.854187,0 -2.637848,0c-1.195496,0 -1.992828,0 -2.77417,0c-0.749329,0 -1.450653,0 -2.650665,0c-0.729004,0 -1.77066,0 -2.570648,0c-0.800018,0 -1.804504,-0.000072 -2.657166,0c-0.964844,0.000084 -1.811279,0.001633 -2.461517,0.035999c-0.739258,0.039074 -2.046051,0.182358 -3.04834,0.316666c-0.530548,0.071095 -1.073944,0.152859 -2.189331,0.29467c-0.561981,0.071449 -2.221649,0.236542 -2.756989,0.26733c-1.039459,0.05978 -1.544907,0.071087 -2.525009,0.080833c-1.394928,0.013874 -2.273819,-0.003075 -3.104324,0.015167c-0.774902,0.017021 -1.504517,-0.017879 -2.689331,0.276001c-0.785431,0.194817 -1.27298,0.475739 -2.410843,1.0345c-0.666779,0.327431 -1.36795,0.682747 -2.108994,0.968998c-1.068237,0.41264 -2.079819,0.616821 -2.685669,0.668167c-0.788635,0.066837 -1.91185,0.035168 -2.895828,0.041668c-0.681046,0.004501 -1.511719,-0.018257 -2.666672,0.333332c-0.616333,0.187626 -1.487518,0.693562 -2.100006,0.961334c-1.178146,0.515079 -1.792267,0.628738 -2.664001,0.684002c-1.067398,0.067669 -2.005219,-0.014961 -2.631485,0.078499c-1.021378,0.152428 -1.867218,0.579849 -2.937836,0.942833c-0.632233,0.214355 -1.335449,0.40379 -2.088013,0.563999c-0.778275,0.165684 -1.978134,0.315178 -2.765152,0.387833c-0.750977,0.069328 -1.834091,0.062607 -2.758835,0.616169c-0.575439,0.344467 -1.356461,1.273663 -2.054672,1.390331c-0.965836,0.161385 -1.701523,0.472462 -2.443161,0.920502c-0.543869,0.32856 -1.733414,0.434261 -2.509506,0.8265c-0.554779,0.280388 -1.333923,0.810017 -2.360672,1.125332c-0.822021,0.252445 -1.71315,0.326286 -2.382156,0.873833c-0.766098,0.627014 -1.219803,1.408752 -1.940506,1.859501c-0.780533,0.488163 -1.617416,0.42281 -2.53067,0.602669c-0.797806,0.157124 -1.644913,0.441193 -2.234665,0.634666c-1.197876,0.392975 -2.071472,0.663815 -2.828003,0.998665c-0.817337,0.361767 -1.595642,0.854176 -2.406662,1.261333c-0.882828,0.443199 -1.287903,1.046909 -2.197327,1.605335c-0.643555,0.395168 -1.713623,0.541466 -2.428009,0.769333c-0.795364,0.253704 -1.816895,0.66407 -2.491989,0.953331c-0.759903,0.325603 -1.796249,0.479786 -2.546677,0.967838c-0.796707,0.518158 -1.24234,1.167412 -1.866669,1.976166c-0.508392,0.658562 -0.81279,1.201469 -1.434662,1.898666c-0.751205,0.842194 -1.391525,1.239731 -2.398666,1.767998c-0.586945,0.307869 -1.400894,0.613121 -1.979172,1.5c-0.483276,0.741173 -1.021072,1.499763 -1.520828,2c-0.700333,0.700996 -1.223526,1.241798 -1.804504,2.157166c-0.345734,0.544724 -1.012924,1.54583 -1.510162,2.132164c-0.471954,0.556519 -1.015717,1.489632 -1.353333,2.094673c-0.463104,0.829926 -1.074615,1.345062 -1.832001,2.282661c-0.410416,0.508064 -0.988541,1.327225 -1.342834,1.880669c-0.652969,1.020027 -1.067596,1.681496 -1.370499,2.466003c-0.324219,0.839684 -0.49054,1.815971 -0.807495,2.5075c-0.454208,0.99099 -0.821609,1.554588 -1.122009,2.321999c-0.395081,1.0093 -0.562759,1.985687 -0.877991,2.678001c-0.267166,0.586754 -0.779205,1.579147 -1.179169,2.379166c-0.399872,0.79982 -0.846466,1.554276 -1.133331,2.433334c-0.252823,0.774734 -0.483994,1.637383 -0.814011,2.514c-0.334244,0.887848 -0.529678,1.815483 -0.778,2.499329c-0.303375,0.835495 -0.488174,1.836266 -0.574661,2.6325c-0.08165,0.751762 -0.451813,1.655609 -0.833328,2.520836c-0.313965,0.712013 -0.495544,1.668236 -0.734665,2.337334c-0.277512,0.776527 -0.598969,1.591431 -0.864014,2.412003c-0.348495,1.078911 -0.467484,1.949783 -0.650665,2.846664c-0.166122,0.813332 -0.551987,1.625374 -0.750656,2.570663c-0.164276,0.781609 -0.148361,1.650009 -0.333344,2.833336c-0.095032,0.607903 -0.352753,1.558739 -0.480667,2.2715c-0.219482,1.222961 -0.245972,1.69165 -0.295502,2.686501c-0.051849,1.041344 -0.050446,1.565971 -0.055832,2.590004c-0.005005,0.951981 -0.001328,1.79866 -0.001328,2.931168c0,0.721664 0,1.854156 0,2.691498c0,0.901337 0,1.371002 0,2.338333c0,0.493668 0,1.990662 0,2.981995c0,0.487671 0,1.436996 0,2.338333c0,1.227997 0,1.965332 0,2.67067c0,1.067993 -0.004333,2.243225 0.003998,2.671997c0.017715,0.910934 0.084137,1.888199 0.167496,2.394165c0.26561,1.612137 0.480728,2.159012 0.681839,2.715164c0.409225,1.131699 0.664185,1.678467 0.906662,2.221344c0.46698,1.045532 0.917648,1.992691 1.269333,2.841324c0.30835,0.744064 0.660294,1.742981 0.970673,2.656006c0.307648,0.904953 0.519562,1.530762 0.814331,2.157166c0.483322,1.027069 0.9505,1.726685 1.425674,2.457504c0.471512,0.725189 1.011719,1.369003 1.505325,2.613327c0.273148,0.688583 0.381699,1.628906 0.865341,2.397339c0.453339,0.720291 0.906235,1.408737 1.189331,2.061325c0.428543,0.987839 0.716187,1.846756 1.014328,2.417847c0.478989,0.917511 1.189178,1.805176 1.727341,2.395493c0.55632,0.610229 0.861923,0.899078 1.757996,1.799835c0.591949,0.595047 1.17366,1.165665 1.686005,1.742996c0.898422,1.012405 1.339325,1.730255 1.762497,2.352661c0.555481,0.816986 1.110001,1.389984 1.599167,2.061676c0.678391,0.931549 0.90741,1.49057 1.242004,2.317505c0.425919,1.052612 0.679382,1.795822 1.082657,2.450653c0.603271,0.979568 1.084549,1.469452 1.58934,1.989334c0.771423,0.794495 1.555252,1.475555 2.276993,1.971008c0.601715,0.413055 1.463776,0.88681 2.05101,1.414337c0.742065,0.666611 1.41066,1.399994 1.931488,1.920822c0.645844,0.645844 1.304504,1.304504 1.826508,1.826508c0.767334,0.767334 1.285919,1.418716 1.957169,1.948166c0.797852,0.629303 1.567459,0.512436 2.528824,0.87117c0.699692,0.261093 1.231995,1.177551 1.6875,1.833328c0.601456,0.865906 1.312866,1.350983 1.995178,1.79866c0.736115,0.482971 1.645935,0.783203 2.362656,1.422668c0.600632,0.535904 1.213226,1.011642 1.87851,1.48317c0.716782,0.508026 1.550629,0.979324 2.181488,1.68483c0.511993,0.572571 1.297729,1.072601 2.06134,1.444c0.753906,0.366684 1.592438,0.756607 2.41066,1.152008c0.749344,0.362122 1.421417,0.868912 1.936676,1.366501c0.778992,0.752274 1.386002,1.37291 2.136658,1.84816c0.674362,0.426941 1.57312,1.086304 2.211502,1.442841c0.845657,0.47229 1.804504,0.354919 2.704498,0.357162c0.900024,0.002258 1.720322,0.197296 2.300003,0.704498c0.759918,0.664902 1.341614,1.133453 2.353333,1.495499c0.62532,0.22377 1.317291,0.366837 2.613342,0.800003c0.821762,0.274643 1.464035,0.598984 2.447998,0.916c0.875793,0.282166 1.424301,0.839478 2.38533,1.063171c0.87709,0.204163 1.643585,0.413879 2.38533,0.736832c0.891342,0.388092 1.630966,0.258789 2.70401,0.283997c0.911362,0.021408 1.566177,0.601242 2.010666,1.149338c0.639923,0.789093 1.629105,0.760269 2.370667,1.021332c0.841415,0.296219 1.53833,0.85173 2.081161,1.123993c1.006332,0.504745 1.907303,0.647079 2.926834,0.705505c0.774826,0.044403 1.683151,0.347153 2.425827,0.70433c0.800491,0.384979 1.608734,0.741409 2.428833,1.295502c0.676773,0.45726 1.288055,1.307571 1.966675,1.714661c0.735947,0.441483 1.5923,0.729538 2.300003,1.385178c0.593628,0.549957 1.750412,0.820847 1.853333,1.546829c0.12204,0.860794 -0.488159,1.904465 -1.353333,2.281326c-0.831879,0.362366 -1.768097,0.038834 -2.641678,0.092834c-0.646973,0.039993 -1.647751,0.250473 -2.479156,0.5c-0.885101,0.26564 -1.776215,0.587723 -2.668503,0.8685c-0.572937,0.180283 -1.638809,0.488068 -2.563995,0.574677c-0.757492,0.070908 -1.778839,0.005875 -2.789337,0.257492c-0.717865,0.178757 -1.482147,0.422943 -2.314331,0.878342c-0.752716,0.411911 -1.591614,0.821091 -2.476334,1.23349c-0.701721,0.327103 -1.448929,0.856995 -1.984009,1.184006c-0.990387,0.60527 -1.613129,1.016266 -2.661163,1.361328c-0.80307,0.264404 -1.476456,0.714249 -2.335007,1.073166c-0.713821,0.298416 -1.745026,0.613434 -2.394485,0.920166c-0.726898,0.343307 -1.495804,0.731064 -2.691833,1.327835c-0.398773,0.198975 -1.187012,0.594742 -1.964172,0.964172c-0.748291,0.355713 -1.811981,0.82193 -2.487839,1.083328c-1.005371,0.388855 -1.719055,0.632523 -2.890656,1.073837c-0.424744,0.159988 -1.294586,0.50148 -2.170837,0.817505c-0.830643,0.299576 -1.927246,0.600159 -2.519669,0.764999c-1.020157,0.283859 -1.750275,0.745331 -2.255005,1.236328c-0.589432,0.57338 -1.17717,1.283981 -1.884003,1.979996c-0.743393,0.732025 -1.593048,1.399231 -2.037827,1.718353c-0.447281,0.320923 -1.371811,0.921112 -1.841995,1.199982c-1.370956,0.81308 -1.831787,1.031525 -2.69101,1.518005c-0.841446,0.47641 -1.274094,0.702881 -2.055832,1.29834c-1.248093,0.950684 -1.604996,1.392517 -1.996826,1.803314c-0.79393,0.832367 -1.158737,1.275024 -1.919174,2.089996c-0.709641,0.760529 -1.386414,1.412537 -2.049332,1.944c-0.613174,0.491577 -1.233932,0.90509 -2.136002,1.508026c-0.899277,0.601044 -1.500031,0.999969 -2.099991,1.399994c-0.90004,0.600098 -1.509888,0.990631 -2.400009,1.635986c-0.606873,0.440002 -1.503937,1.180939 -2.099991,1.716675c-0.604019,0.542908 -1.184906,1.112305 -2.100006,1.880676c-0.591797,0.496918 -1.219147,0.95224 -1.835999,1.463989c-0.658585,0.546387 -1.340973,1.192993 -2.049332,1.957336c-0.377396,0.407227 -1.135818,1.286713 -1.52533,1.741333c-0.394165,0.460052 -1.587112,1.839355 -1.989166,2.282318c-0.396652,0.437012 -1.187805,1.276672 -1.579346,1.680023c-0.76033,0.783234 -1.136047,1.154449 -2.19899,2.220001c-0.334,0.334808 -0.971893,0.967987 -1.539169,1.574982c-0.517487,0.553711 -1.313675,1.561096 -1.761841,2.22583c-0.688019,1.020477 -1.183762,1.625061 -1.541656,2.0625c-0.590118,0.721252 -1.184433,1.598114 -1.583679,2.268188c-0.421722,0.707794 -0.815369,1.467377 -1.562164,2.523499c-0.493301,0.697632 -1.05426,1.323975 -1.333328,1.625c-0.803528,0.866699 -1.583008,1.615906 -2.042831,2.088989c-0.652954,0.671783 -1.084717,1.114258 -1.855835,2.138c-0.406219,0.539307 -0.971664,1.404633 -1.434662,2.314667c-0.299393,0.58847 -0.613647,1.472473 -0.965332,2.22934c-0.460052,0.990082 -0.94458,1.615173 -1.301346,2.534821c-0.228165,0.588165 -0.488464,1.599365 -0.699997,2.269165c-0.380676,1.205383 -0.599091,1.721405 -0.957169,2.472015c-0.546631,1.145844 -0.895493,1.799988 -1.242828,2.494659c-0.347336,0.694672 -0.858398,1.654846 -1.238327,2.494659c-0.337585,0.746216 -0.609238,1.837006 -0.677673,2.47467c-0.074112,0.690521 -0.101669,1.786774 -0.250671,2.864014c-0.095093,0.687439 -0.349426,1.684265 -0.480667,2.376495c-0.212128,1.118866 -0.277435,1.960327 -0.316666,2.862152c-0.020432,0.469452 -0.032867,1.437012 -0.034668,1.930664c-0.005478,1.497009 -0.001328,2.488342 -0.001328,2.976013c0,0.949341 0,1.850677 0,3.078491c0,0.733002 0,1.421997 0,2.425507c0,1.038666 0,1.769989 0,2.517334c0,1.115997 0,2.178833 0,2.851837c0,1.009491 0,1.717499 0,2.890503c0,0.854004 0,1.716003 0,2.537994c0,1.053009 0,1.795502 0,2.59967c0,0.955994 0,1.721313 0,2.720001c0,0.799988 -0.000137,1.799988 0,2.600006c0.000168,1 -0.091827,1.84903 0.333328,2.799988c0.290665,0.650146 0.911774,1.197113 1.5,2.166656c0.46286,0.762909 0.648346,1.362396 1.050674,2.23468c0.418457,0.907257 0.92894,1.785431 1.290665,2.32666c0.637161,0.953369 1.220932,1.616913 1.578003,2.134491c0.605331,0.877441 0.893616,1.501801 1.268158,2.137512c0.56427,0.957733 1.153732,1.762848 1.757843,2.291992c0.854324,0.748291 1.186707,1.283539 1.554657,2.208008c0.348679,0.876068 0.690811,1.53064 1.075668,2.199158c0.565628,0.982544 0.988556,1.53476 1.591003,2.300842c0.398392,0.506622 1.20929,1.637329 1.600006,2.309845c0.409821,0.705383 0.79744,1.44339 1,1.807495c0.592575,1.065155 1.190369,2.042511 1.599991,2.635986c0.390915,0.566376 1.18988,1.574677 1.621338,2.021332c0.673584,0.697296 1.507111,1.398071 2.147995,1.909332c0.686829,0.547913 1.047623,0.821228 1.782501,1.363342c1.075882,0.793671 1.759781,1.273865 2.422836,1.716675c0.646439,0.431732 1.297867,0.854889 2.347336,1.435822c0.740845,0.410095 1.557358,0.78894 1.996658,0.964172c0.930725,0.371246 1.977386,0.685974 3.136002,0.951996c0.610382,0.140137 1.242538,0.259399 1.887009,0.384003c1.314377,0.25415 1.980453,0.368347 3.291656,0.666656c0.646805,0.147156 1.283737,0.305725 2.520004,0.669342c0.606903,0.178497 1.201752,0.369446 1.785004,0.568512c1.700241,0.580322 2.241913,0.790436 3.300003,1.195496c0.515945,0.19751 1.516525,0.596344 2,0.799988c1.399475,0.589447 1.839432,0.801819 2.709,1.195496c0.851776,0.38562 1.268845,0.591797 2.136658,0.919189c1.324677,0.499725 1.798752,0.615631 2.762665,0.849335c0.996201,0.241547 1.513748,0.338196 3.12001,0.635986c0.554565,0.102814 1.122559,0.191376 2.279999,0.432007c0.59639,0.123993 1.211044,0.2388 2.440002,0.623993c1.292801,0.405212 1.937469,0.703125 2.602661,0.996002c0.683563,0.300995 1.377014,0.627686 2.093994,0.947998c0.733658,0.327789 1.485397,0.661255 2.274002,0.947998c1.628632,0.592163 2.504364,0.80072 3.400009,0.997345c0.915817,0.20105 1.860321,0.363678 2.825989,0.513c0.983688,0.15213 1.987488,0.28421 3.006012,0.423004c2.077637,0.283081 3.131927,0.438019 4.191986,0.601318c1.062622,0.163696 2.122421,0.333679 3.177002,0.49649c1.044083,0.161194 2.073471,0.320007 3.087006,0.451508c1.952499,0.253326 2.889359,0.33252 3.796005,0.399994c0.877747,0.065338 1.729233,0.109924 2.554489,0.148499c0.800079,0.037384 1.576569,0.064331 2.329498,0.103516c1.441833,0.075043 2.131729,0.134644 2.801346,0.201324c0.650391,0.064758 1.280151,0.140076 1.889999,0.216003c0.590149,0.073456 1.159592,0.150604 1.709991,0.216003c1.039291,0.123505 1.530243,0.166046 2.003998,0.198669c0.459274,0.031616 0.907928,0.051758 1.348511,0.064484c0.43544,0.012573 0.868988,0.018585 2.1875,0.020844c0.916,0.001556 1.3815,0 2.3125,0c0.910995,0 2.187515,-0.004303 2.952835,0.001343c0.717346,0.00531 1.421967,0.001556 2.901337,0.165314c0.411133,0.045502 1.28949,0.189301 2.25,0.333344c0.509705,0.076447 1.588531,0.231567 2.75,0.333344c0.608643,0.053345 1.871887,0.112518 2.517334,0.130646c0.649231,0.018219 1.298615,0.029297 2.581329,0.034668c1.23465,0.005157 1.824646,0.001343 2.944672,0.001343c0.529999,0 1.529999,-0.000061 2.449982,0c1.231018,0.000092 1.977264,-0.004547 2.714996,0.020844c0.778412,0.026794 2.125275,0.143127 2.644012,0.2005c1.134674,0.125458 1.736938,0.204559 2.355988,0.278656c0.628937,0.075287 1.891968,0.227417 3.125,0.333344c0.589386,0.050629 1.705353,0.113251 2.22934,0.130646c0.974457,0.032318 1.845367,0.029419 2.941162,0.036163c0.961548,0.00592 1.691193,0.029755 2.612183,0.085175c1.217834,0.073273 1.964905,0.134979 2.797333,0.200012c0.902588,0.070526 1.860107,0.149292 2.857483,0.235504c1.022644,0.088409 2.055328,0.180542 3.08252,0.280487c1.98056,0.192688 2.905792,0.296082 3.783997,0.398682c0.834808,0.097534 1.628296,0.197601 2.383484,0.299988c0.720825,0.097748 1.409454,0.197052 2.068512,0.299988c1.244873,0.194427 1.834106,0.299103 2.403992,0.398682c0.55014,0.09613 1.079773,0.192078 1.589996,0.280487c0.959564,0.16629 2.248627,0.368439 3.01535,0.435516c0.716278,0.062653 1.773315,0.083069 2.901337,0.085327c0.838654,0.001678 1.285492,0 2.229156,0c1.003662,0 1.525513,0 3.158997,0c0.563843,0 1.135681,0 2.299347,0c0.589813,0 1.183655,0 2.979156,0c0.599823,0 1.198669,0 2.389343,0c0.589813,0 1.753479,0 2.325317,0c1.118683,0 2.197327,0 2.719177,0c1.003662,0 1.947327,0 3.232819,0c0.76535,0 1.482666,0 2.184021,0c0.717316,0 1.892334,0 2.763641,0c0.927338,0 1.894684,0 2.388336,0c1.497345,0 1.997345,0 2.997345,0c1,0 1.5,0 3,0c0.500336,0 1.509003,0 2.021332,0c1.050659,0 1.592987,0 3.312012,0c0.609314,0 1.23465,0 2.517334,0c0.649323,0 1.298645,0 1.944,0c1.871979,0 2.462494,0 3.03598,0c1.108002,0 1.648499,0 2.717499,0c0.534515,0 2.173523,0 2.738495,0c1.160004,0 1.755005,0 2.360016,0c0.61499,0 2.519989,0.000977 3.174347,-0.000336c0.660309,-0.001343 1.32312,0.00592 2.637329,-0.041321c0.644623,-0.023163 1.276917,-0.05191 1.886993,-0.128998c1.698425,-0.21463 2.207123,-0.372498 3.146667,-0.690674c0.884644,-0.299591 1.695526,-0.678772 2.90799,-1.117157c0.397369,-0.143677 1.197968,-0.392975 2,-0.61084c0.798035,-0.216766 2.002716,-0.501434 2.804504,-0.719666c0.819061,-0.222931 1.657104,-0.493713 2.080841,-0.661682c1.350922,-0.535492 2.265533,-1.034149 2.72934,-1.290649c0.929565,-0.514069 1.380646,-0.782135 2.651978,-1.572021c0.764496,-0.474976 1.112915,-0.707489 2.076019,-1.319977c0.56839,-0.361481 1.569794,-0.97171 2.278168,-1.34668c0.74353,-0.393555 1.62088,-0.823547 2.289001,-1.152679c0.709839,-0.349701 1.435181,-0.710052 2.523499,-1.180664c0.675903,-0.292297 1.636902,-0.64093 2.204987,-0.919312c1.064606,-0.521698 1.739166,-1.068726 2.357178,-1.651855c0.823242,-0.776794 1.213501,-1.204498 1.876495,-1.867493c0.498657,-0.498657 1.365509,-1.376129 2.042328,-2.028839c0.354797,-0.342163 1.095947,-1.026184 1.494659,-1.33667c1.160248,-0.903473 1.985596,-1.327789 2.812347,-1.675812c0.416443,-0.175323 1.301514,-0.465332 2.712006,-1.02002c0.512726,-0.20163 1.04071,-0.427124 2.127991,-0.93866c0.562012,-0.264404 1.128967,-0.539703 2.256012,-1.130676c1.121033,-0.587799 1.662048,-0.895264 2.195984,-1.195984c1.042114,-0.586945 1.544373,-0.881592 2.524994,-1.444183c0.474701,-0.272339 1.839264,-1.036987 2.275024,-1.27182c0.838593,-0.451935 1.644073,-0.867157 2.399994,-1.283997c1.071381,-0.59079 1.735931,-1.005646 2.407501,-1.401337c0.686401,-0.404419 1.810852,-1.003387 2.221832,-1.200165c0.859314,-0.411438 1.759979,-0.815216 2.206665,-1.035828c0.888062,-0.438568 1.734894,-0.90567 2.482666,-1.450684c0.735413,-0.536011 1.418915,-1.159729 1.773315,-1.474976c1.128815,-1.00412 1.53363,-1.364319 2.40451,-2.091003c0.449524,-0.375092 0.908569,-0.750397 1.84201,-1.49469c0.464264,-0.370178 1.826965,-1.431274 2.26416,-1.769989c0.431488,-0.33429 1.286469,-1.000458 1.70932,-1.343994c0.86377,-0.701782 1.743805,-1.469299 2.196167,-1.881348c0.940857,-0.857025 1.413361,-1.309235 1.899353,-1.757324c0.488678,-0.450592 1.466858,-1.348602 2.479156,-2.166656c0.493164,-0.398529 0.991913,-0.770355 1.978668,-1.461334c0.477081,-0.334076 1.411621,-0.956451 1.850677,-1.269348c1.240967,-0.88443 1.614899,-1.187286 2.298645,-1.813324c0.665588,-0.609436 1.279572,-1.265747 1.872009,-1.955994c0.607971,-0.708344 1.183716,-1.454987 1.458344,-1.833344c0.537262,-0.740234 1.229736,-1.822357 1.572327,-2.515991c0.478882,-0.969574 0.703949,-1.642395 1.135986,-2.650665c0.310333,-0.724213 0.674286,-1.48291 1.080017,-2.279999c0.212006,-0.416534 0.920074,-1.71994 1.174316,-2.174835c0.522888,-0.935547 0.800842,-1.405609 1.281677,-2.389191c0.239288,-0.489532 0.813202,-1.985291 0.933319,-2.489471c0.23761,-0.997314 0.278259,-1.512024 0.440002,-2.535858c0.166016,-1.050934 0.409973,-2.13501 0.588165,-2.685333c0.369476,-1.141083 0.620361,-1.704865 0.856689,-2.278656c0.23703,-0.575562 0.738708,-1.706177 1.145813,-2.833344c0.386444,-1.069916 0.531738,-1.596252 0.770844,-2.604156c0.113373,-0.477966 0.299622,-1.38736 0.441162,-2.619507c0.083527,-0.727112 0.125366,-1.72403 0.205353,-2.340332c0.158081,-1.21817 0.357452,-1.87439 0.490662,-2.654663c0.160889,-0.9422 0.264557,-2.114288 0.303833,-2.797485c0.042542,-0.739502 0.067474,-1.523621 0.08548,-2.338501c0.018402,-0.832794 0.026825,-1.670685 0.031525,-2.500519c0.004578,-0.808838 0.004486,-2.311493 0.004486,-2.982666c0,-1.190338 0,-1.72348 0,-2.700836c0,-0.905334 0,-2.249817 0,-2.716003c0,-0.96933 0,-1.994659 0,-2.530823c0,-0.553162 0,-2.323822 0,-2.949158c0,-0.637329 0,-1.282684 0,-2.581329c0,-0.645355 0,-1.282684 0,-3.107666c0,-0.572357 0,-1.128693 0,-2.201355c0,-1.032654 0,-1.539001 0,-3.041168c0,-0.49649 0,-1.468475 0,-2.392487c0,-0.85199 0,-1.943848 0,-2.82135c0,-0.787476 0,-1.929474 0,-2.596497c0,-0.710999 0.013611,-1.442047 -0.000488,-2.868835c-0.006622,-0.668732 0.02597,-1.342804 -0.255524,-2.305328c-0.312897,-1.069916 -0.799774,-1.772797 -1.264832,-2.515991c-0.235779,-0.376801 -0.746643,-1.09668 -1.336487,-2.17868c-0.358459,-0.657562 -0.774658,-1.656006 -1.110657,-2.305328c-0.544983,-1.053162 -1.037262,-1.767334 -1.293335,-2.130646c-0.514893,-0.730499 -1.036194,-1.432648 -1.818024,-2.342834c-0.474213,-0.552032 -1.284393,-1.335602 -1.60199,-1.605011c-1.132629,-0.960846 -1.624298,-1.303253 -2.139984,-1.690826c-1.113434,-0.836792 -1.700256,-1.266541 -2.288025,-1.706665c-0.585236,-0.438202 -1.167053,-0.859344 -2.223999,-1.706665c-0.939331,-0.753021 -1.35376,-1.125488 -1.754669,-1.482666c-0.781708,-0.696442 -1.558411,-1.423401 -2.411987,-2.184021c-0.461884,-0.411591 -0.944855,-0.842224 -1.986664,-1.695984c-0.529907,-0.434265 -1.068878,-0.854034 -1.612488,-1.251007c-0.529907,-0.386963 -2.052216,-1.344727 -2.528839,-1.580994c-0.8797,-0.436066 -1.729553,-0.73587 -2.484009,-1.104004c-1.09024,-0.531982 -1.741943,-1.041763 -2.408844,-1.555496c-0.341553,-0.263123 -1.022675,-0.837875 -2.221985,-1.557678c-0.41803,-0.250885 -1.315277,-0.692581 -2.242493,-1.110825c-0.464935,-0.209717 -1.849731,-0.806946 -2.292999,-1.010834c-0.863373,-0.39711 -1.69458,-0.795593 -2.460022,-1.257004c-1.117432,-0.673615 -1.446075,-0.956268 -2.100006,-1.486496c-0.625885,-0.507492 -1.427124,-1.285904 -2.240326,-1.692169c-0.879547,-0.439423 -1.623657,-0.487747 -2.608002,-0.932159c-0.571716,-0.258118 -1.452911,-0.792816 -2.47998,-1.098679c-0.706512,-0.210388 -1.468903,-0.276627 -2.244019,-0.347992c-0.790222,-0.072754 -1.99173,-0.193329 -2.789337,-0.342499c-0.802643,-0.150116 -1.600555,-0.344971 -2.799988,-0.642838c-0.804382,-0.199753 -1.632446,-0.408936 -2.507996,-0.636002c-0.463745,-0.120255 -1.992249,-0.5298 -2.555664,-0.685333c-0.585907,-0.161743 -1.791412,-0.50264 -2.394684,-0.678665c-0.594055,-0.17334 -1.722992,-0.50383 -2.708313,-0.833328c-0.811432,-0.271347 -1.747223,-0.652573 -2.512024,-0.965332c-1.003082,-0.410202 -1.555908,-0.605392 -2.425812,-0.901337c-0.894104,-0.304184 -1.79184,-0.60788 -2.395508,-0.779175c-0.894958,-0.253952 -2.099701,-0.44014 -2.700012,-0.495499c-0.899536,-0.082962 -2.103729,-0.231216 -2.699982,-0.382492c-0.906311,-0.229935 -1.496826,-0.453903 -2.701324,-0.841507c-0.607788,-0.195587 -1.5495,-0.481537 -2.565338,-0.634659c-0.71521,-0.107803 -1.469116,-0.138763 -2.244019,-0.156006c-0.790497,-0.017593 -1.989258,-0.002274 -2.784821,-0.015167c-1.168793,-0.018936 -1.9245,-0.044083 -2.982849,-0.216827c-0.664154,-0.108398 -1.565094,-0.398804 -2.654999,-0.612c-0.713257,-0.139511 -1.676483,-0.164413 -2.5,-0.166672c-0.971985,-0.002655 -1.666656,0 -2.361328,0c-1.262329,0 -2.033325,0.001938 -2.902649,0c-1.007172,-0.002258 -1.866852,-0.020248 -2.824188,-0.221329c-0.821716,-0.172592 -1.378845,-0.406372 -2.578491,-0.612c-0.89856,-0.154022 -1.52298,-0.145035 -2.485321,-0.250671c-1.038818,-0.114029 -1.767334,-0.268661 -2.514679,-0.416c-0.747345,-0.147339 -2.177521,-0.391983 -2.847321,-0.442841c-0.651825,-0.049484 -1.636688,-0.053513 -2.674011,-0.057327c-0.731323,-0.002701 -1.481598,0.018219 -2.594666,-0.085159c-1.066437,-0.099045 -1.732605,-0.237396 -2.637329,-0.525345c-1.093964,-0.348175 -1.777863,-0.714828 -2.436005,-0.953323c-0.995148,-0.360626 -1.810516,-0.425583 -2.810669,-0.436005c-0.799957,-0.008331 -1.600006,0 -2.59549,0c-0.747345,0 -1.777039,0.121445 -2.704498,-0.004501c-0.821259,-0.111511 -1.502106,-0.719391 -1.638336,-1.648163c-0.125366,-0.854553 0.451019,-1.665863 0.854309,-2.547333c0.395447,-0.864334 0.834564,-1.516373 1.568024,-2.001343c0.680695,-0.450089 1.517578,-1.103134 1.880005,-1.623993c0.680756,-0.978317 1.008972,-1.565353 1.735992,-2.274506c0.579285,-0.565048 1.487427,-0.824615 2.101318,-1.469498c0.519806,-0.546066 1.105804,-1.429169 1.819519,-1.930664c0.569458,-0.400146 1.37915,-0.983994 1.979156,-1.5c0.600006,-0.516006 1.619232,-1.213852 2.164001,-1.625336c0.855194,-0.64595 1.171265,-1.251617 1.805328,-1.975998c0.743317,-0.849182 1.280182,-1.18959 2.02533,-1.741501c0.861176,-0.637833 1.50415,-1.161072 1.888,-1.626495c0.637817,-0.773315 1.142029,-1.565369 1.57901,-2.082504c0.679321,-0.803909 1.486053,-1.497253 2.03833,-1.927338c0.542572,-0.422531 1.586456,-1.212158 2.047333,-1.625336c0.68988,-0.618484 1.136993,-1.080475 2.135345,-2.078156c0.532166,-0.531815 1.056,-1.056 1.547974,-1.548004c0.959503,-0.959518 1.517517,-1.517517 2.091003,-2.091003c0.525024,-0.525009 1.140015,-1.139999 1.845001,-1.845001c0.786011,-0.786011 1.333344,-1.333328 1.880676,-1.880661c0.786011,-0.785995 1.267334,-1.267349 1.931824,-1.931839c0.619507,-0.619492 1.220856,-1.22084 1.820831,-1.820831c0.600006,-0.600006 1.409363,-1.390793 1.989349,-2c0.562866,-0.591217 1.200806,-1.392365 1.574677,-1.989334c0.448822,-0.716644 1.062805,-1.602112 1.606659,-2.265335c0.577881,-0.704712 1.039398,-1.304306 1.529327,-1.966156c0.499512,-0.674789 1.176117,-1.639862 1.53067,-2.209839c0.460907,-0.740921 0.851471,-1.452301 1.453339,-2.457336c0.341034,-0.569504 0.719666,-1.18103 1.031982,-1.884003c0.511047,-1.150192 0.728638,-2.029602 0.984009,-2.907166c0.25,-0.8591 0.286438,-1.313522 0.985321,-2.668823c0.309082,-0.59935 0.777374,-1.095978 1.514679,-2.352005c0.431183,-0.734558 0.600006,-1.158005 1,-2c0.399994,-0.841995 0.985718,-2.009003 1.398682,-2.647995c0.377777,-0.584534 0.853119,-1.083923 1.434662,-2.352005c0.334869,-0.73024 0.414001,-1.158005 0.666656,-2c0.252655,-0.841995 0.642944,-2.012115 0.982666,-2.647995c0.464691,-0.869766 0.926208,-1.373459 1.274506,-2.716339c0.204254,-0.787552 0.186371,-1.232605 0.257507,-2.131668c0.072998,-0.922287 0.19928,-2.283173 0.27066,-2.714661c0.136292,-0.823837 0.370972,-1.931091 0.714661,-2.789337c0.342407,-0.855011 0.758484,-1.63002 0.87851,-2.485504c0.101776,-0.725388 0.107208,-1.535217 0.117004,-2.360992c0.013672,-1.153427 0.004486,-2.091003 0.004486,-2.893509c0,-1.093323 -0.015869,-1.72847 0.020844,-2.759995c0.024719,-0.695175 0.189514,-1.960373 0.40448,-2.759995c0.14212,-0.528671 0.4263,-1.738251 0.489349,-2.493332c0.069489,-0.831909 0.078613,-1.706642 0.083984,-2.580009c0.005127,-0.833313 0.001343,-1.952332 0.001343,-2.625c0,-0.938995 0,-1.841667 0,-2.741661c0,-0.900002 0,-1.800003 0,-2.700005c0,-0.900002 0,-1.5 0,-2.702667c0,-0.938995 0,-1.611664 0,-2.730667c0,-0.834663 0,-1.717331 0,-2.166664c0,-0.894669 0.012878,-2.166817 -0.002655,-2.930664c-0.021332,-1.049011 -0.058868,-1.730309 -0.330688,-2.736c-0.19693,-0.7286 -0.522949,-1.456459 -0.815979,-2.208c-0.288208,-0.739197 -0.674561,-2.140617 -0.810669,-2.778671c-0.189392,-0.887894 -0.682343,-1.944794 -1.102509,-2.393997c-0.66449,-0.710396 -1.258301,-1.072952 -1.96817,-2.139336c-0.354156,-0.532005 -0.706146,-1.479797 -1.135986,-2.479996c-0.309235,-0.719551 -0.655548,-1.449539 -1.007996,-2.172005c-0.338318,-0.693481 -0.804016,-1.618668 -1.200012,-2.410667c-0.377991,-0.755997 -0.784485,-1.587837 -1.286987,-2.560493c-0.182312,-0.352913 -0.561615,-1.090088 -1.025024,-1.807503c-0.700195,-1.084007 -1.249786,-1.736504 -1.834167,-2.320168c-0.564362,-0.563667 -1.464569,-1.254372 -2.079163,-1.59317c-0.880615,-0.485443 -1.519775,-0.677795 -2.700165,-1.290993c-0.615326,-0.319664 -1.226227,-0.711693 -1.856995,-1.140007c-1.018646,-0.691704 -1.726837,-1.224182 -2.478821,-1.763664c-0.384186,-0.275612 -1.156311,-0.840889 -2.364014,-1.608002c-0.396088,-0.251587 -1.200012,-0.713997 -2,-1.166664c-0.799988,-0.452667 -1.215057,-0.660042 -2.399658,-1.421333c-0.80188,-0.515327 -1.185883,-0.794769 -1.928345,-1.353333c-0.707977,-0.532616 -1.627289,-1.30584 -2.16217,-1.763664c-0.721985,-0.61795 -1.666138,-1.314896 -2.196503,-1.577667c-0.839813,-0.4161 -1.480347,-0.623863 -2.47998,-1.050667c-0.718658,-0.306847 -1.431915,-0.659966 -2.466339,-1.123505c-0.862579,-0.386528 -1.737946,-0.572784 -2.700348,-1.209831c-0.467102,-0.309189 -1.170044,-1.017368 -1.661316,-1.499168c-0.86853,-0.851749 -1.299469,-1.38773 -2.171997,-2.000832c-0.649994,-0.456734 -1.303131,-0.743568 -2.254669,-1.321335c-0.811096,-0.492504 -1.344604,-0.867554 -2.412018,-1.511997c-0.478851,-0.289101 -1.17218,-0.656975 -1.850647,-1.050667c-1.007111,-0.584396 -1.785034,-1.11248 -2.306183,-1.406166c-1.020447,-0.575043 -1.983948,-0.917435 -2.609833,-1.2845c-0.771515,-0.452477 -1.687042,-0.80629 -2.285339,-1.226669c-0.746765,-0.524715 -1.468536,-0.822041 -2.478668,-1.173332c-0.843109,-0.293201 -1.507141,-0.800617 -2.471985,-1c-0.75708,-0.156452 -1.751434,-0.399338 -2.506836,-0.672668c-0.900116,-0.325687 -1.63678,-0.400276 -2.662506,-0.709831c-0.752472,-0.227089 -1.667786,-0.632065 -2.322662,-1.032166c-0.779907,-0.476475 -1.684998,-0.51693 -2.429169,-0.667835c-0.921387,-0.18684 -1.581787,-0.833256 -2.242828,-1.422001c-0.634979,-0.56554 -1.529358,-0.576069 -2.374664,-0.946167c-0.961426,-0.420933 -1.633514,-0.446842 -2.603668,-0.574833c-0.919128,-0.121258 -1.352783,-0.814102 -2.121674,-1.221165c-0.757507,-0.401035 -1.500671,-0.802631 -2.310669,-1.204002c-0.911407,-0.451626 -1.597504,-0.446865 -2.567657,-0.574833c-0.919312,-0.121262 -1.496063,-0.769497 -2.17099,-1.025166c-0.894012,-0.338661 -1.461273,-0.969334 -2.350677,-0.974667c-0.899963,-0.005398 -1.799988,0 -2.700012,0l-0.899994,0" fill="#aaffff" id="svg_1" stroke="#000000" stroke-dasharray="null" stroke-linecap="null" stroke-linejoin="null" stroke-width="5"/>
  <path d="m299.5,98.5c-1.700012,-0.995499 -2.600006,-1 -3.5,-1c-0.899994,0 -1.823303,0.074921 -2.666656,-0.166664c-0.88147,-0.25251 -1.419891,-0.628662 -2.43335,-0.776169c-0.793365,-0.115479 -1.798676,-0.057167 -2.742828,-0.057167c-0.90451,0 -1.823822,0 -2.657166,0c-0.979004,0 -1.697327,0 -2.764008,0c-0.911987,0 -1.559998,0 -2.735992,0c-0.791992,0 -1.701324,0 -2.666656,0c-0.658691,0 -1.66687,-0.017151 -2.528839,0c-0.90506,0.018005 -1.718842,0.455536 -2.275177,0.886665c-0.788971,0.611412 -1.556671,1.125336 -2.081146,1.517838c-1.039856,0.778191 -1.500305,1.185661 -2.137512,1.795494c-0.822845,0.787483 -1.406158,1.3955 -1.97467,1.964005c-0.669342,0.669334 -1.239685,1.168175 -1.751984,2.034668c-0.411224,0.695557 -1.170898,1.253647 -1.584015,1.801331c-0.581696,0.771187 -1.326202,1.239273 -1.666656,2.166664c-0.243286,0.662666 -0.671997,1.363731 -1.64801,1.772003c-0.907806,0.379745 -1.348663,1.063675 -1.79599,1.697334c-0.485748,0.688065 -0.898773,1.380081 -1.389343,2.363998c-0.396988,0.796227 -0.727844,1.380669 -0.914673,2.398666c-0.138809,0.75634 0.043594,1.909691 -0.418655,2.767998c-0.291901,0.542007 -1.076843,1.181114 -1.423676,2.033333c-0.310974,0.764091 -0.213821,1.800911 -0.253662,2.610672c-0.043137,0.876785 -0.267334,1.873642 -0.489334,2.668495c-0.210342,0.753105 -0.471405,1.705162 -0.5,2.62101c-0.024506,0.784775 0.149338,1.763351 -0.166672,2.733154c-0.225174,0.691025 -0.804733,1.469971 -0.833328,2.488342c-0.020203,0.719711 0,1.845001 0,2.626495c0,0.790497 0,1.718506 0,2.572662c0,0.979172 0,1.837173 0,2.479172c0,0.947998 0,1.947998 0,2.858002c0,0.906158 0,1.828659 0,2.501999c0,0.67334 0,1.869339 0,2.818665c0,1.0215 -0.000443,1.842163 0,2.506668c0.000671,0.998672 -0.027603,1.819946 0.085327,2.630661c0.140335,1.007477 0.4897,1.859528 1.014511,2.662674c0.435425,0.666351 0.739883,1.520905 0.952835,2.368668c0.232178,0.924316 0.747116,1.430786 1.715332,2.13533c0.473679,0.344696 1.176544,0.917114 2.264008,1.348007c0.746826,0.295914 1.746124,0.431458 2.488831,0.710999c0.537903,0.202454 1.572235,0.760406 2.243164,1.283661c0.646057,0.50386 1.416199,1.187698 2.057312,1.538666c0.673859,0.368896 1.820099,0.74025 2.484009,0.936005c0.69339,0.204437 1.733795,0.478928 2.651672,0.799835c0.777405,0.27179 1.630951,0.659439 2.638489,0.847488c0.741913,0.138474 1.610657,0.489609 2.288513,0.768677c0.921753,0.379486 1.809235,0.337738 2.799988,0.567993c0.822205,0.191071 1.350464,0.434143 2.630676,0.630676c0.659882,0.101303 1.685333,0.085327 2.47467,0.085327c1.044006,0 1.794006,0 2.436005,0c1.398651,0 1.851501,0 2.837158,0c0.518829,0 1.573486,0 2.604156,0c0.960022,0 1.839996,0 2.640015,0c0.720001,0 1.922668,0 2.872009,0c1.021149,0 1.800476,0 2.799805,0c0.82019,0 1.672974,0.011856 2.505524,-0.283997c0.706055,-0.2509 1.865875,-0.505066 2.515991,-1.049332c0.638977,-0.534943 1.179749,-1.325836 1.700012,-1.829178c0.614227,-0.594238 0.78125,-1.398987 1.185333,-2.156158c0.5466,-1.024216 1.105133,-1.648666 1.630646,-2.194672c0.714111,-0.741959 1.5065,-1.465897 2.004852,-2.028336c0.677521,-0.764679 1.137512,-1.46434 1.479156,-1.979156c0.52478,-0.790756 1.158905,-1.77594 1.458344,-2.5c0.302216,-0.730728 0.421539,-1.62207 0.526978,-2.651169c0.076782,-0.749268 0.124084,-1.545959 0.45752,-2.727676c0.226807,-0.803772 0.402557,-1.186081 0.742493,-1.928329c0.619263,-1.352203 0.948181,-1.895309 1.293823,-2.671997c0.338196,-0.759964 0.638214,-1.637787 0.910187,-2.650665c0.186768,-0.695526 0.361298,-1.375854 0.526642,-2.582672c0.107513,-0.784622 0.153046,-1.622147 0.305359,-2.630493c0.119568,-0.791534 0.280792,-1.61496 0.425995,-2.421005c0.188782,-1.047989 0.334656,-1.970642 0.352661,-2.915161c0.017151,-0.900162 0,-1.614334 0,-2.569336c0,-0.751495 0,-1.548004 0,-2.778c0,-0.677994 0,-1.87384 0,-2.667336c0,-0.775497 0,-1.816002 0,-2.533501c0,-0.908997 0,-1.656334 0,-2.651833c0,-0.799995 0.000671,-1.799835 0,-2.764c-0.000671,-0.953331 -0.020233,-1.655388 -0.285339,-2.603996c-0.20697,-0.740578 -0.410614,-1.527 -1.014648,-2.417671c-0.602722,-0.888756 -1.17215,-1.411407 -2.021179,-1.693001c-0.78833,-0.261467 -1.606384,-0.669075 -2.031494,-1.421333c-0.470978,-0.83342 -0.920776,-1.465271 -1.647339,-1.866661c-0.772705,-0.42688 -1.211853,-1.274612 -2.100006,-1.712006c-0.654419,-0.322289 -1.482391,-0.73336 -2.299988,-1.096001c-0.786072,-0.348656 -1.478394,-0.919067 -2.084015,-1.507996c-0.682892,-0.664063 -1.366669,-1.147018 -2.211487,-1.565498c-0.720642,-0.356964 -1.40451,-1.051834 -2.004517,-1.651833l-0.599976,-0.600006l-0.700012,-0.699997l-0.563995,-0.636002" fill="#ffffff" id="svg_2" stroke="#000000" stroke-dasharray="null" stroke-linecap="null" stroke-linejoin="null" stroke-width="5"/>
  <path d="m324.5,296.5c-1.757172,0 -2.661652,0 -3.46167,0c-0.959656,0 -1.763672,0 -2.585663,0c-1.031006,0 -1.911011,0 -2.931824,0c-0.754181,0 -1.687561,-0.006592 -2.36084,0.002655c-0.793488,0.010895 -1.672028,0.02832 -2.580017,0.167999c-1.369171,0.210602 -1.798065,0.383667 -2.633331,0.680023c-0.804749,0.285553 -1.543182,0.642639 -2.625153,0.906494c-0.973541,0.237427 -1.618469,0.20575 -2.821503,0.409485c-0.898346,0.15213 -1.477844,0.305481 -2.22934,0.634674c-0.995239,0.435944 -1.728699,1.019165 -2.541321,1.401337c-0.762146,0.358429 -1.380768,0.546448 -2.529175,1.339996c-0.620514,0.428772 -1.175446,0.961792 -1.743011,1.451996c-0.785187,0.678192 -1.486633,1.213867 -2.146484,1.584015c-0.991821,0.556366 -1.810944,0.920776 -2.410675,1.221313c-1.004944,0.503601 -1.646698,0.817627 -2.56665,1.366669c-0.795593,0.474823 -1.342255,0.841766 -1.880676,1.237854c-1.04895,0.771698 -1.725525,1.376862 -2.105988,1.795502c-0.872101,0.959656 -1.220123,1.611359 -1.599335,2.257141c-0.566711,0.965088 -0.910645,1.481842 -1.386017,2.281525c-0.545563,0.917755 -0.792908,1.755646 -1.082825,2.582977c-0.257874,0.73587 -0.60733,1.354523 -0.977173,2.363678c-0.303253,0.827515 -0.550537,1.710388 -0.679993,2.61499c-0.131195,0.916656 -0.135193,1.572754 -0.205353,2.270355c-0.118073,1.174255 -0.270203,2.03891 -0.415985,2.950165c-0.148926,0.930756 -0.246338,1.393219 -0.37851,2.75766c-0.083557,0.862671 -0.1073,1.700562 -0.117004,2.516998c-0.014313,1.204407 -0.004486,2.001831 -0.004486,2.783173c0,0.749329 0,1.450653 0,2.651978c0,0.748505 0,1.936005 0,2.717529c0,0.790497 0,1.909149 0,2.702484c0,0.891998 0,1.600006 0,2.581329c0,0.962677 -0.018921,1.736237 0.004486,2.777832c0.017426,0.77597 0.094879,1.845673 0.357178,2.528503c0.32074,0.834961 0.94989,1.454163 1.679993,1.982513c0.636444,0.460571 1.37442,1.028351 2.205017,1.729828c0.596039,0.503387 1.204224,1.0448 2.274994,1.606506c0.718597,0.376953 1.121826,0.490845 1.924988,0.757477c0.836792,0.277802 2.175507,0.703857 2.636017,0.869354c0.934052,0.335663 1.855865,0.690979 2.307495,0.863312c1.276123,0.486969 2.037323,0.784393 2.769836,1.006012c0.721375,0.218262 1.48941,0.394745 2.804321,0.525513c1.000397,0.099487 1.533722,0.097015 2.631683,0.182495c0.56073,0.043671 1.132751,0.052551 2.78299,0.3815c0.54361,0.108368 1.617279,0.417572 2.162659,0.578003c0.555939,0.163544 1.707947,0.517212 2.958344,0.8125c0.661987,0.156342 1.355316,0.286377 2.071503,0.414001c0.73584,0.131134 1.490997,0.252655 2.260498,0.377991c0.781494,0.127319 1.574219,0.246368 3.167999,0.541321c0.801483,0.148346 1.602631,0.316132 2.408997,0.481506c0.812317,0.166626 1.631744,0.335907 2.463013,0.490509c0.8414,0.156464 1.694916,0.322083 3.461334,0.527985c0.907806,0.105835 1.835602,0.169922 2.776489,0.219025c0.951141,0.049652 1.91095,0.07666 2.875488,0.092987c0.966461,0.016357 1.932007,0.019989 3.848022,0.021332c0.944672,0.000641 1.877319,0 2.79599,0c0.902679,0 1.787323,0 2.652008,0c0.842651,0 1.661316,0 3.218658,0c0.735168,0 1.441345,0 2.119507,0c0.651154,0 1.276337,0 1.876495,0c0.576172,0 1.129333,0 2.170654,0c0.490356,0 0.962677,0 1.861359,0c0.850647,0 1.669312,0 2.871979,0c0.800018,0 1.600006,0 2.399994,0c1.200012,0 1.997345,0 2.778687,0c0.749329,0 2.088776,0.028717 2.920502,-0.009003c0.789185,-0.035797 2.004761,-0.312164 2.75415,-0.561676c0.411469,-0.136993 1.271881,-0.460693 2.145844,-0.838318c0.436401,-0.188568 1.668884,-0.7724 2.390991,-1.200012c0.700043,-0.414551 1.37793,-0.881134 2.376495,-1.724335c0.731018,-0.617279 1.085388,-0.967926 1.8125,-1.666656c0.36145,-0.347321 1.055603,-1.027954 1.977509,-1.957001c0.522308,-0.526367 1.262482,-1.155365 1.709991,-2.042999c0.386505,-0.766632 0.373016,-1.482727 0.776184,-2.421509c0.361328,-0.8414 0.779297,-1.369843 1.390503,-2.578491c0.298248,-0.589783 0.651398,-1.471405 0.804993,-2.042847c0.339417,-1.262756 0.378265,-2.025848 0.528656,-2.581329c0.28595,-1.056366 0.680969,-1.913605 1.109009,-2.877167c0.221924,-0.499573 0.468414,-0.988586 0.872009,-1.962646c0.513702,-1.239807 0.737579,-1.908936 0.819977,-2.76535c0.105774,-1.099396 0.032013,-2.080505 0.032013,-2.791504c0,-0.730988 0,-1.8125 0,-2.821991c0,-0.636322 0,-1.555847 0,-2.457336c0,-0.910492 0,-1.856995 0,-2.866486c0,-0.717346 0,-1.458679 0,-2.208008c0,-1.458679 0.017273,-2.140564 -0.020844,-3.104492c-0.024414,-0.616913 -0.173035,-1.828369 -0.345337,-2.425354c-0.272827,-0.94519 -0.571289,-1.600586 -1.176666,-2.616669c-0.442261,-0.742279 -0.974213,-1.460785 -1.242493,-1.817474c-0.524658,-0.697571 -1.289551,-1.621674 -1.978668,-2.400024c-0.423126,-0.477936 -1.242279,-1.423187 -1.635986,-1.945313c-0.609802,-0.808716 -0.980774,-1.378387 -1.600006,-2.149353c-0.577881,-0.719482 -1.145874,-1.338318 -1.833344,-2c-0.690613,-0.664703 -1.210388,-0.993469 -2.221313,-1.369324c-0.636292,-0.236572 -1.357697,-0.432495 -2.063995,-0.768005c-1.087921,-0.516785 -1.733093,-1.028259 -2.360504,-1.550171c-0.625397,-0.520264 -1.504333,-1.334045 -2.411835,-2.013c-0.557526,-0.417114 -1.042969,-0.85968 -2.141022,-1.296814c-0.746338,-0.297119 -1.741547,-0.441589 -2.488831,-0.690186c-0.801239,-0.266541 -1.798615,-0.668793 -2.458313,-0.979156c-1.028564,-0.483917 -1.620819,-0.800049 -2.420837,-1.200012c-0.80014,-0.400055 -1.614319,-0.814911 -2.285339,-1.099976c-0.990845,-0.420929 -1.829529,-0.702209 -2.419159,-0.842834c-1.184814,-0.282593 -2.079987,-0.2341 -2.824005,-0.409851c-1.02478,-0.242065 -1.653168,-0.805511 -2.42334,-1c-0.9198,-0.232269 -1.6091,-0.703735 -2.653503,-0.89917c-0.739166,-0.138306 -1.705505,-0.328674 -2.333313,-0.898834c-0.589386,-0.535278 -1.31366,-1.089478 -2.262665,-1.146667c-1.001373,-0.060333 -1.634674,-0.002655 -2.82019,-0.002655c-0.814484,0 -1.38916,0 -2.578491,0c-0.890991,0 -1.727997,0 -2.666656,0c-0.791687,0 -1.744019,0 -2.654663,0c-0.853333,0 -1.793335,0 -2.67868,0l-0.799988,0l-0.900024,0l-0.971985,0.036011" fill="#ffffff" id="svg_3" stroke="#000000" stroke-dasharray="null" stroke-linecap="null" stroke-linejoin="null" stroke-width="5"/>
 </g>
</svg>