<?xml version="1.0"?>
<svg width="640" height="480" xmlns="http://www.w3.org/2000/svg" xmlns:svg="http://www.w3.org/2000/svg">
 <!-- Created with SVG-edit - https://github.com/SVG-Edit/svgedit-->
 <g class="layer">
  <title>Layer 1</title>
  <path d="m402.5,49.5c-1.041656,-0.979168 -2,-1 -2.799988,-1c-0.800018,0 -1.800018,0 -2.600006,0c-1.002686,0 -1.872009,0 -2.93335,0c-0.641327,0 -1.370667,0 -2.195984,0c-0.929352,0 -1.970673,0 -3.125336,0c-0.612335,0 -1.242676,0 -1.886993,0c-1.314667,0 -1.97702,0 -3.291687,0c-0.645142,0 -1.909485,0 -2.53067,0c-0.615143,0 -1.225311,0 -2.434662,0c-1.201324,0 -1.801331,0 -3.001312,0c-0.600006,0 -1.200012,0 -2.400024,0c-0.599976,0 -1.799988,0 -3.002655,0c-0.606323,0 -1.218658,0 -2.46933,0c-0.642334,0 -1.298676,-0.00016 -2.661346,0c-0.70932,0.000084 -1.434692,-0.004055 -2.917328,0.010666c-0.749359,0.007442 -1.498779,0.021687 -2.243988,0.046501c-0.737457,0.024559 -2.172394,0.104744 -2.862518,0.164165c-0.67392,0.058025 -1.981506,0.203712 -2.621979,0.278667c-0.635529,0.074379 -1.266632,0.17374 -3.1875,0.333332c-0.653992,0.054333 -1.317261,0.084747 -1.986023,0.114002c-0.672577,0.029423 -2.022064,0.075909 -2.694641,0.105331c-0.668762,0.029255 -1.986572,0.10778 -2.631012,0.168667c-1.26123,0.119164 -1.875061,0.203571 -2.480011,0.278667c-1.180084,0.146492 -1.753479,0.231628 -2.875,0.333332c-1.077393,0.097702 -2.109375,0.140198 -2.604156,0.166668c-0.943787,0.050495 -2.233093,0.143665 -2.990509,0.285332c-0.693573,0.129726 -1.614655,0.396629 -2.65033,0.814503c-0.681091,0.274807 -1.410675,0.733116 -2.421661,0.879333c-0.813446,0.117649 -1.746674,0.020832 -2.666656,0.020832c-0.795013,0 -1.680023,-0.000053 -2.320007,0c-1.034515,0.000084 -2.128571,-0.002434 -2.85199,0.035999c-0.69281,0.036804 -1.893066,0.240124 -2.61969,0.464001c-1.045197,0.322037 -1.830383,0.480846 -2.556335,0.498665c-1.005859,0.024689 -2.028168,0.001335 -2.746643,0.001335c-0.790497,0 -1.817169,0 -2.717834,0c-1.020844,0 -1.831512,0 -2.477997,0c-1.226837,0 -1.768188,0 -2.590179,0c-1.265991,0 -1.911011,0 -2.931335,0c-0.905334,0 -1.84668,0 -2.537323,0c-0.984009,0 -1.96933,0 -2.694672,0c-0.989685,0 -1.830994,0 -2.559998,0c-1.198669,0 -1.890686,0 -2.614685,0c-0.731995,0 -2.127991,0 -2.767975,0c-0.88501,0 -1.925018,0 -2.805023,0c-1.02066,0 -1.738983,0 -2.806,0c-0.602661,0 -1.631653,0 -2.354309,0c-1.059692,0 -2.034668,0 -2.634674,0c-1.080017,0 -2.010681,0 -2.845337,0c-1.001343,0 -1.801331,0 -2.801331,0c-0.800018,0 -1.800018,0 -2.600006,0c-1,0 -1.799988,0 -2.600006,0c-0.995483,0 -1.742828,0 -2.764008,0c-0.837311,0 -1.802643,0 -2.65683,0c-0.979156,0 -1.768494,0 -2.493835,0c-0.985321,0 -1.971985,0 -2.731995,0c-0.919998,0 -1.719498,0 -2.635986,0c-0.689346,0 -1.860168,0 -2.727173,0c-0.910995,0 -1.375504,0 -2.307495,0c-1.360672,0 -2.212006,0 -2.999344,0c-0.707321,0 -1.819,0 -2.687332,0c-0.87999,0 -1.743332,0 -2.759995,0c-0.837341,0 -1.802673,0 -2.636002,0c-0.9785,0 -1.79866,0 -2.699997,0c-0.900009,0 -1.800003,0 -2.699997,0c-0.801346,0 -1.766678,0 -2.620834,0c-0.979172,0 -1.779175,0 -2.579178,0c-0.995499,0 -1.742828,0 -2.774658,0c-0.946838,0 -1.646164,0 -2.625336,0c-0.800003,0 -1.600006,0 -2.595505,0c-0.919159,0 -1.883667,0 -2.804489,0c-0.900009,0 -1.857285,-0.173477 -2.600006,0.166668c-0.802597,0.367565 -1.384827,1.075298 -1.878662,1.933167c-0.424545,0.737484 -1.156738,1.023663 -1.821335,1.604664c-0.636444,0.556385 -1.300003,1.295498 -1.900009,1.8955c-0.601334,0.60133 -1.163605,1.150795 -1.883987,1.885334c-0.520706,0.530933 -1.068024,1.090191 -1.630676,1.913334c-0.508209,0.743492 -1.070282,1.522705 -1.528168,2.296837c-0.471817,0.797661 -0.676315,1.64592 -1.067001,2.314331c-0.459045,0.785347 -0.835983,1.291 -1.403488,2.303497c-0.463638,0.827187 -0.820206,1.799721 -0.886673,2.686668c-0.050293,0.671082 -0.257523,1.776474 -0.520828,2.479164c-0.254059,0.678009 -1.149277,1.409889 -1.422012,2.235168c-0.218597,0.661476 -0.002563,1.690056 -0.093155,2.485664c-0.115051,1.010376 -0.43779,1.80732 -0.964005,2.633339c-0.441116,0.692436 -0.836914,1.496239 -1.02533,2.341331c-0.212158,0.951576 -0.820847,1.590858 -0.964005,2.425331c-0.16275,0.9487 -0.002014,1.900093 -0.015167,2.758003c-0.009842,0.642128 0.018173,1.614906 -0.279495,2.588661c-0.219772,0.718956 -0.631973,1.592796 -0.695175,2.553337c-0.04808,0.730682 0.048065,1.857704 -0.1875,2.666664c-0.250931,0.861732 -0.739243,1.656242 -0.822662,2.494667c-0.087265,0.877068 -0.010666,1.838669 -0.010666,2.570671c0,0.958168 0,1.934662 0,2.788834c0,0.979164 0,1.779167 0,2.579163c0,1 0,1.800003 0,2.798668c0,0.765335 0,1.716003 0,2.701332c0,0.900002 0,1.700005 0,2.536003c0,1.016663 0,1.711334 0,2.727997c0,0.936005 0,1.835999 0,2.736c0,0.900002 0,1.700005 0,2.599998c0,0.900002 0,1.800003 0,2.700005c0,0.900002 0,1.799995 0,2.700005c0,0.899994 0,1.699997 0,2.535995c0,1.016663 0,1.711334 0,2.727997c0,0.936005 0,1.837341 0,2.521332c0,0.940002 0,1.947998 0,2.810165c0,0.90451 0,1.715164 0,2.626007c0,0.88916 0.000061,1.878326 0,2.657669c-0.000092,0.999329 -0.11438,1.803574 -0.5,2.541656c-0.410034,0.784821 -0.494659,1.653793 -0.5,2.593842c-0.005585,0.985321 0,1.88533 0,2.685333c0,0.899994 0,1.800003 0,2.699997c0,0.899994 0.073044,1.850174 -0.425339,2.47467c-0.485184,0.607956 -0.574661,1.425323 -0.574661,2.325333c0,0.899994 0,1.800003 0,2.699997c0,0.800003 0,1.699997 0,2.636002c0,0.847992 0,1.711334 0,2.615829c0,1.081497 0,1.75351 0,2.497498c0,1.107666 0,1.941666 0,2.850677c0,0.899994 0,1.810654 0,2.721329c0,0.853333 0,1.793335 0,2.678665c0,0.757172 0,1.652664 0,2.516006c0,0.963165 0,1.894653 0,2.805328c0,0.853333 0,1.794662 0,2.562668c0,0.94133 0,1.949326 0,2.741333c0,0.858658 0,1.722 0,2.617493c0,0.957169 0,1.857178 0,2.757172c0,0.757172 0,1.652664 0,2.516006c0,0.963165 0,1.883987 0,2.783997c0,0.899994 0,1.800003 0,2.699997c0,0.800003 0,1.699997 0,2.636002c0,0.847992 0,1.711334 0,2.606827c0,0.957169 0,1.857178 0,2.757172c0,0.800003 0.161514,1.612534 0.801331,2.169327c0.685013,0.596115 0.637009,1.475571 1.223999,2.384003c0.420639,0.65097 1.2677,1.160904 1.674667,1.798508c0.490326,0.768219 0.743484,1.611023 1.384003,2.362823c0.56752,0.666122 0.593628,1.439133 1.137329,2.164001c0.482315,0.643021 0.589783,1.39064 1.000168,2.221344c0.341156,0.690567 1.238571,1.255508 1.657166,1.999832c0.41716,0.741776 0.9711,1.349304 1.146667,2.085495c0.223557,0.937439 0.772507,1.53801 1.731842,1.86734c0.901306,0.309418 1.472733,0.59639 2.664322,0.825989c0.530304,0.102173 1.396866,0.092529 2.578506,0.28801c0.903259,0.149429 1.486893,0.332138 2.314667,0.634659c1.01416,0.370636 1.714249,0.727448 2.539993,0.91333c0.997742,0.224594 1.80748,0.238358 2.666168,0.264511c0.878082,0.026749 2.145844,0.020828 2.907166,0.020828c0.689346,0 1.605835,0 2.650345,0c0.674988,0 1.75499,0 2.511002,0c0.931488,0 1.895996,0 2.621323,0c0.989334,0 1.789337,0 2.789337,0c0.821335,0 1.514328,0 2.64267,0c0.662659,0 1.706665,0 2.389328,0c1.195999,0 1.905502,0 2.946671,0c0.905334,0 1.846664,0 2.537338,0c1.004822,0 2.026825,0 2.745331,0c0.790497,0 1.817169,0 2.717834,0c1.020828,0 1.810165,0 2.535492,0c0.964508,0 1.88533,0 2.785339,0c0.899994,0 1.931747,0.243713 2.615997,-0.283997c0.632813,-0.488037 1.413315,-0.919876 2.104828,-1.236832c0.990997,-0.454208 1.591568,-0.7491 2.322006,-1.179169c0.792816,-0.466797 1.520325,-1.114105 2.482513,-1.264008c0.683258,-0.106445 1.726898,0.015213 2.495972,-0.478668c0.738953,-0.474533 1.102417,-1.21431 2.157837,-1.515656c0.897125,-0.256149 1.859039,-0.227493 2.520844,-0.5625c0.857666,-0.434158 1.44455,-1.02504 2.299988,-1.426498c0.870331,-0.408447 1.425568,-0.942703 2.110687,-1.442001c0.83548,-0.608871 1.635895,-0.460571 2.56781,-0.832001c0.77475,-0.308792 1.538605,-0.611984 2.421509,-0.789337c0.948059,-0.190445 1.463654,-0.811111 2.425354,-0.953339c0.997772,-0.147568 1.815979,-0.022125 2.658661,-0.319992c0.706482,-0.249725 1.802704,-0.552094 2.61615,-0.937332c0.707703,-0.335159 1.551086,-0.746277 2.247162,-0.77417c1.0159,-0.040695 1.97702,0.073975 2.819336,-0.171173c0.861786,-0.250809 1.655212,-0.739761 2.422668,-0.822662c0.905457,-0.097809 1.82135,-0.010666 2.732178,-0.010666c0.88916,0 1.881775,0.055298 2.657654,-0.020828c0.862396,-0.084625 1.607819,-0.674438 2.506165,-0.893845c0.708344,-0.173004 1.714508,-0.085327 2.493835,-0.085327c1.135498,0 2.033386,-0.091492 2.778015,0.057159c0.924744,0.184616 1.559875,0.707092 2.490173,0.885681c0.904572,0.17366 1.788818,-0.002136 2.752655,0.223831c0.818573,0.19191 1.590881,0.590149 2.398682,0.749329c0.936005,0.184448 1.865662,0.415482 2.399994,0.88533c0.732452,0.644073 1.509338,1.1633 2.534668,1.198669c0.680664,0.023483 1.512146,-0.019821 2.666656,0.333328c0.615356,0.188232 1.481354,0.683792 2.042847,1.018509c1.039764,0.619827 1.718292,1.01767 2.352661,1.343658c0.998749,0.513229 1.617859,0.75087 2.582977,1.404343c0.635254,0.43013 1.485565,0.744003 2.221527,1.185501c0.678589,0.407089 1.31842,1.196747 2,1.916c0.514252,0.542679 0.985413,1.291321 1.399994,1.973328c0.579865,0.953873 1.135315,1.555115 1.600006,2.310669c0.433929,0.705536 0.786255,1.521774 1.199982,2.304001c0.387268,0.732208 1.077515,1.570038 1.314667,2.265335c0.329315,0.965454 0.251068,1.643356 0.310669,2.341324c0.122894,1.439026 0.230621,2.125153 0.495514,3.062332c0.165466,0.585449 0.567413,1.625443 0.87915,2.305679c0.38559,0.841415 0.800079,1.635956 1.200012,2.435989c0.499878,0.999969 0.851563,1.577438 1.114655,2.400009c0.31308,0.978897 0.311554,1.840164 0.727997,2.599991c0.468628,0.855011 1.136292,1.346085 1.443024,2.408997c0.185638,0.64325 0.114319,1.72435 0.114319,2.357681c0,1.012482 0,1.670837 0,2.981323c0,0.727997 -0.007141,1.816254 0.004486,2.41449c0.019379,0.997803 0.011475,1.684448 0.27951,2.868164c0.172058,0.759827 0.490906,1.442108 0.630676,2.453339c0.112091,0.810852 0.084656,1.632019 0.085327,2.629333c0.00058,0.839996 0,1.938507 0,2.656006c0,1.054016 0,1.614014 0,2.604004c0,1.169006 0,2.02301 0,2.455994c0,0.847992 0,2.304016 0,3.046509c0,0.804169 0,1.770844 0,2.61084c0,0.998657 0.000092,1.834167 0,2.417816c-0.000183,1.19516 0.076843,2.091675 -0.114319,2.881165c-0.219238,0.905365 -0.949158,1.47287 -1.403015,1.98233c-0.664856,0.746307 -0.961853,1.552856 -1.281342,2.349335c-0.400024,0.997314 -0.823181,1.855011 -1.034668,2.682678c-0.195923,0.766754 -0.477997,1.652435 -1.166656,2.333344c-0.471039,0.465729 -0.996765,1.502411 -1.399994,2.041321c-0.595245,0.795563 -1.006104,1.45816 -1.399994,2.226654c-0.407684,0.795441 -0.795105,1.62738 -1.366669,2.398682c-0.463104,0.624939 -1.057861,1.226257 -2,2c-0.504547,0.414368 -1.329102,0.979645 -1.823517,1.399994c-0.898499,0.763916 -1.263,1.439819 -1.807159,2.029327c-0.662811,0.718079 -1.54599,1.396759 -1.973328,1.993347c-0.513458,0.716827 -0.751648,1.132904 -1.338348,1.928345c-0.863037,1.170135 -1.168884,1.507721 -1.790985,2.077484c-0.580231,0.531433 -1.501038,1.165955 -2.399658,1.771515c-0.592041,0.398956 -1.196838,0.753967 -1.929688,1.399994c-0.850098,0.74939 -1.234192,1.430298 -1.738647,2c-0.750061,0.847046 -1.279663,1.209412 -2.083832,1.742828c-0.768921,0.51004 -1.530365,0.853058 -2.343689,1.46701c-0.638245,0.481781 -1.219452,1.186066 -1.768494,1.975494c-0.3638,0.523102 -0.913544,1.549835 -1.315155,2.152161c-0.570404,0.855499 -1.407562,1.020325 -2.356842,1.073181c-0.767761,0.042755 -1.751007,0.364471 -2.506836,0.636658c-0.895264,0.322418 -1.824249,0.33609 -2.535828,0.363342c-0.755402,0.028931 -1.788452,0.152588 -2.661346,0.273315c-0.993866,0.137451 -1.521698,0.222137 -2.620819,0.363342c-0.558777,0.071777 -1.671478,0.201019 -2.752502,0.267334c-1.039215,0.063751 -1.544952,0.069427 -2.524994,0.080841c-0.474976,0.005524 -1.839996,0.004486 -2.700012,0.004486c-0.820007,0 -1.600006,0 -2.695007,0c-1.009491,0 -1.645813,0 -2.565338,0c-1.199982,0 -1.790649,0 -2.644165,0c-1.270477,0 -1.915497,0 -2.935638,0c-0.82019,0 -1.721527,0 -2.621521,0c-0.920837,0 -1.885315,0 -2.610657,0c-0.989166,0 -1.768494,0 -2.768005,0c-0.773987,0 -1.687988,0.070679 -2.62265,-0.085327c-0.812103,-0.135559 -1.59906,-0.524567 -2.598511,-1.014496c-0.589722,-0.289063 -1.658478,-0.653534 -2.389496,-0.925507c-0.860657,-0.32019 -1.566193,-0.993927 -2.246674,-1.374664c-0.753601,-0.421661 -1.576935,-0.773865 -2.328003,-1.200012c-0.831421,-0.471741 -1.46051,-1.036835 -2.157501,-1.721313c-0.513885,-0.504669 -1.052505,-1.066437 -1.878326,-1.657166c-0.753403,-0.53891 -1.662491,-0.986176 -2.279343,-1.521515c-0.758865,-0.6586 -1.184418,-1.239014 -1.931488,-1.899994c-0.722855,-0.639557 -1.461014,-0.949463 -2.105347,-1.485352c-0.65094,-0.541382 -1.01149,-1.33252 -1.68399,-2.229309c-0.459793,-0.613159 -1.14328,-1.367981 -1.900177,-1.764191c-0.741699,-0.388245 -1.53566,-0.847076 -2.074493,-1.270477c-0.912857,-0.717316 -1.603363,-0.968658 -2.425339,-1.425354c-0.781845,-0.434387 -1.615479,-0.693176 -2.199997,-1.226654c-0.719696,-0.65686 -1.542725,-1.048431 -2.401337,-1.482666c-0.59259,-0.299683 -1.478104,-0.58548 -2.203156,-0.825836c-1.039063,-0.344421 -1.487991,-1.019379 -2.428833,-1.556824c-0.739151,-0.422241 -1.650665,-0.333344 -2.514008,-0.333344c-0.895493,0 -1.854004,0 -2.819336,0c-0.669327,0 -1.434662,0 -2.428833,0c-0.919159,0 -1.904495,0 -2.889832,0c-0.725327,0 -1.714661,0 -2.514664,0c-1,0 -1.800003,0 -2.600006,0c-1,0 -1.800262,-0.021942 -2.79866,0.001343c-0.765915,0.017853 -1.674255,0.37027 -2.485336,0.714661c-0.742828,0.31543 -1.73526,0.307037 -2.514664,0.569336c-0.788177,0.265259 -1.662262,0.994232 -2.296829,1.357483c-0.773468,0.442749 -1.828827,0.187805 -2.65184,0.471497c-0.843399,0.29071 -1.184799,1.110931 -1.752838,1.864166c-0.489243,0.648743 -1.396713,1.204132 -2.110489,1.657501c-0.802872,0.509979 -1.407227,1.007874 -1.989334,1.610687c-0.413071,0.427765 -1.196198,1.441254 -1.610672,1.978668c-0.638641,0.828125 -1.342255,1.62323 -1.871994,2.087982c-0.518967,0.455292 -1.334,0.990631 -2.1745,1.665497c-0.643326,0.516541 -1.314209,1.351135 -1.795502,2.02652c-0.350784,0.492218 -0.857605,1.231018 -1.585663,2.180328c-0.471298,0.614532 -0.727203,1.471008 -1.047012,2.29834c-0.275269,0.712067 -0.987457,1.580841 -1.357498,2.211487c-0.455124,0.775635 -0.644073,1.790497 -0.967834,2.551178c-0.39122,0.919189 -0.679199,1.705444 -0.889328,2.232483c-0.477173,1.196869 -0.920761,1.844818 -1.300003,2.403503c-0.624405,0.91983 -0.872879,1.646698 -1.199997,2.596497c-0.254639,0.739319 -0.788925,1.494202 -1.166672,2.354187c-0.340927,0.776184 -0.651291,1.6922 -0.8125,2.166656c-0.317505,0.934479 -0.695984,2.164429 -0.851501,2.773346c-0.230103,0.901031 -0.743011,1.711823 -1.269165,2.548157c-0.42366,0.673401 -0.664001,1.269623 -0.847488,2.278503c-0.144394,0.793884 -0.344482,1.795746 -0.627335,2.563995c-0.349701,0.949829 -0.424667,1.805328 -0.425339,2.604004c-0.000809,0.981323 0,1.898651 0,2.711151c0,1.006165 0,1.731506 0,2.720673c0,0.779327 0,1.778839 0,2.552826c0,0.90451 0,1.848663 0,2.842834c0,0.747345 0,1.779175 0,2.571167c0,0.854187 0,1.833344 0,2.633331c0,0.800018 0,1.795502 0,2.714691c0,0.849335 -0.015869,1.789948 0.000168,2.806488c0.010391,0.658234 0.464813,1.462769 0.985168,2.125488c0.609604,0.776367 0.867477,1.386871 1.531998,2.069336c0.720871,0.740356 1.228653,1.243408 1.96666,1.966675c0.511429,0.501221 1.33931,1.205505 2.036835,1.517334c0.801758,0.358429 1.500046,0.697815 2.264511,1.221344c0.540039,0.369843 1.517593,1.195251 2.235489,1.757813c0.479675,0.375885 1.614426,1.019897 2.293503,1.263672c0.719803,0.258392 1.493866,0.455841 2.685669,0.757172c0.799469,0.202148 1.600006,0.400024 2.399994,0.600006c0.800003,0.200012 1.600494,0.398071 2.397339,0.600006c0.781799,0.19812 1.895996,0.476013 2.869339,0.799988c0.8396,0.279449 1.615112,0.61441 2.186661,0.799988c1.002914,0.325653 1.810928,0.497681 2.667496,0.720856c0.880203,0.229309 1.332016,0.313171 2.536179,0.800476c0.742004,0.300262 1.716492,0.862885 2.340332,1.194672c0.895615,0.476318 1.809586,0.858673 2.43866,1.073334c0.645691,0.220337 2.046951,0.60965 2.778671,0.810669c0.724289,0.198975 1.420471,0.386749 2.618668,0.798676c0.790543,0.27179 1.319092,0.508942 2.630997,0.67984c0.798508,0.104034 1.232803,0.093597 2.131668,0.110809c0.922546,0.01767 2.282059,0.00415 3.133331,0.015167c0.787445,0.010193 1.51828,-0.064056 2.606506,0.216858c0.768646,0.198425 1.597031,0.614838 2.525497,0.763977c0.790115,0.126923 1.821747,0.450226 2.534668,0.865356c0.504272,0.29364 1.697479,0.84964 2.461334,0.97998c0.855713,0.145996 1.325882,0.150146 2.313324,0.217499c0.518616,0.03537 2.151199,0.169922 2.714676,0.23584c1.151459,0.134674 1.735199,0.218292 2.325333,0.29068c1.190094,0.145966 2.38887,0.265198 2.989502,0.303833c1.203552,0.077423 1.810425,0.088013 2.420654,0.100647c0.615128,0.012726 1.864502,0.020172 3.145844,0.020844c0.654495,0.000336 1.315994,0 2.647995,0c0.664505,0 1.324005,0 1.975494,0c1.876495,0 2.466675,0 3.037842,0c1.089325,0 1.609497,0 2.605835,0c1.399506,0 2.27951,0 2.704498,0c0.820007,0 1.975006,0 3.039825,0c0.65567,0 1.539185,0 2.679016,0c0.757477,0 1.630829,0 2.425476,0c1.05069,0 2.031677,0 2.759003,0c0.767334,0 1.958344,0 2.757019,0c0.790649,0 1.565338,0 2.315979,0c1.064178,0 2.070679,0 2.746674,0c0.708008,0 1.881348,0 2.744019,0c0.894653,0 1.789307,0 3.06131,0c0.762665,0 1.461334,0 2.424347,0c0.908997,0 1.80899,0 2.708984,0c0.600006,0 1.800018,0 2.700012,0c0.600006,0 1.799652,0 2.67868,0c0.806976,0 1.67865,0 2.626648,0c0.965332,0 1.736328,0 2.597351,0c0.897308,0 1.797333,0 2.697327,0c0.899994,0 1.799988,0 2.699982,0c0.600006,0 1.801331,0 2.410675,0c0.946503,0 1.955994,0 2.671997,0c1.096497,0 1.807495,0 3.074493,0c0.781525,0 1.491028,0 2.464172,0c0.804016,0 1.626007,0 2.657166,0c0.900665,0 1.921509,0 2.732178,0c0.646484,0 1.874664,0 2.425323,0c0.8685,0 2.063843,0 2.953339,0c0.574677,0 1.644012,0 2.596008,0c0.724487,0 1.85733,0 2.519989,0c0.694672,0 1.726685,0 2.925323,0c0.748505,0 1.452026,0 2.456024,0c0.85498,0 1.799988,0 2.834656,0c0.731323,0 1.478668,0 2.226013,0c1.431488,0 2.104492,0 2.773499,0c1.048492,0 2.221497,0 2.644501,0c0.863983,0 1.711975,0 2.496002,0c1.409973,0 2.375092,0.168152 3.138641,-0.085327c0.772186,-0.256348 1.517792,-0.863251 2.341339,-0.998688c0.843964,-0.138794 1.575409,-0.265747 2.379517,-0.436829c0.827301,-0.176025 1.985291,-0.460571 2.907654,-0.774658c0.744751,-0.253601 1.773804,-0.568298 2.550659,-0.704498c0.857208,-0.150299 1.642151,-0.623596 2.121002,-1.32132c0.451843,-0.658356 1.028961,-1.56369 1.757172,-2.053345c0.632263,-0.42511 1.475281,-0.793457 2.112,-1.109344c0.691223,-0.342926 1.41098,-0.701691 2.14801,-1.031982c1.385468,-0.620911 2.056519,-0.79599 2.863831,-1.236664c0.916718,-0.500397 1.309235,-1.113617 1.901489,-1.763336c0.715424,-0.784851 1.370117,-1.028229 2.096161,-1.805664c0.615112,-0.658661 0.967957,-1.383179 1.564026,-2.099518c0.450378,-0.54126 0.953033,-1.085358 1.774475,-1.809479c0.739532,-0.651917 1.45932,-1.089142 2.078186,-1.517517c1.026398,-0.71051 1.450653,-1.08316 2.004486,-1.82782c0.657471,-0.884033 1.002533,-1.673462 1.399994,-2.489349c0.201294,-0.413208 0.521484,-1.268494 1.200012,-2.268005c0.53656,-0.790375 1.242584,-1.228851 1.833344,-2c0.478577,-0.624695 0.67569,-1.456665 1.266815,-2.523987c0.372162,-0.671936 1.068207,-1.474762 1.386505,-1.91333c0.557983,-0.768829 0.956512,-1.353302 1.679993,-2.22934c0.502075,-0.607971 1.053802,-1.164124 1.766357,-1.985657c0.580627,-0.669403 0.977234,-1.510071 1.288666,-2.335999c0.277985,-0.737244 0.657074,-1.369781 1.262329,-2.363678c0.336975,-0.553345 0.894196,-1.403076 1.349335,-2.314667c0.43985,-0.880981 0.638519,-1.481995 0.965332,-2.314667c0.39386,-1.003479 0.684235,-1.688446 1.08667,-2.283997c0.707855,-1.047546 1.131042,-1.40567 1.715973,-2.001343c0.794006,-0.808594 1.427032,-1.434845 1.855835,-1.914337c0.722321,-0.807709 1.235718,-1.444977 1.746857,-2.136322c0.510315,-0.690216 1.018463,-1.344391 1.431824,-2.306488c0.425598,-0.99057 0.47879,-1.748047 0.934845,-2.730835c0.271149,-0.58432 0.662262,-1.188385 1.031982,-1.884003c0.616852,-1.160522 0.998077,-2.03302 1.197327,-2.478668c0.40152,-0.89801 0.785858,-1.788269 1.200012,-2.615997c0.38562,-0.770691 0.805115,-1.463501 1.164001,-2.14801c0.700531,-1.33609 0.956787,-2.067688 1.210663,-2.810669c0.255493,-0.747711 0.471283,-1.507141 0.946838,-2.553497c0.311157,-0.684662 0.706482,-1.338074 1.083008,-2.031006c0.607086,-1.117279 0.999786,-1.958374 1.190979,-2.40448c0.395325,-0.922424 0.585205,-1.401215 0.919189,-2.388336c0.335541,-0.991791 0.610626,-1.991852 0.838654,-2.976013c0.11084,-0.478363 0.311798,-1.403229 0.480011,-2.687988c0.099945,-0.763428 0.126282,-1.485931 0.227997,-2.184021c0.217377,-1.491669 0.368103,-1.895844 0.643982,-2.745667c0.281281,-0.866455 0.619812,-1.673706 0.961334,-2.737c0.240692,-0.749359 0.325714,-1.577332 0.333496,-2.652161c0.00528,-0.729675 -0.000214,-1.53653 0.057007,-2.360992c0.080231,-1.155914 0.294922,-2.091156 0.442841,-2.63266c0.215179,-0.78772 0.4216,-1.991058 0.47467,-2.692841c0.056641,-0.748901 0.079834,-1.534424 0.246674,-2.727844c0.111633,-0.798645 0.286926,-1.577759 0.425995,-2.342987c0.197815,-1.08844 0.30719,-2.103943 0.331818,-2.757172c0.037109,-0.98349 0.020844,-2.020996 0.020844,-2.743652c0,-0.714691 0,-1.701691 0,-2.898346c0,-0.716003 -0.011475,-1.622559 0.010681,-2.555328c0.016602,-0.698944 0.027649,-1.428802 0.273315,-2.820007c0.118744,-0.672394 0.311768,-1.340118 0.432007,-2.052002c0.197235,-1.167664 0.23642,-2.026672 0.263153,-2.889008c0.025482,-0.821747 0.020844,-1.875 0.020844,-2.819c0,-1.056 0,-1.746002 0,-2.615997c0,-0.679993 0,-1.849152 0,-2.707489c0,-0.878326 0,-1.736664 0,-2.89917c0,-0.644012 0,-1.4375 0,-2.5c0,-0.832001 0,-1.571503 0,-2.864502c0,-0.807007 0,-1.2435 0,-2.167511c0,-0.971985 0,-1.967987 0,-2.963989c0,-0.972 0,-1.441498 0,-2.332504c0,-1.171494 0,-2.104492 0,-2.875488c0,-0.962677 0,-1.753174 0,-2.606674c0,-1.189331 0,-1.787994 0,-2.668503c0,-0.835495 0,-1.838165 0,-2.782166c0,-1.071991 0,-1.706665 0,-2.738663c0,-0.694672 0,-1.666672 0,-2.727997c0,-0.66301 0,-1.67067 0,-2.436005c0,-1.08783 0,-1.805328 0,-2.845825c0,-0.775513 0,-1.823502 0,-2.533005c0,-0.852661 0,-1.858505 0,-2.693161c0,-0.930679 0.000061,-1.712173 0,-2.50267c-0.000092,-1.118668 0.004822,-1.921478 -0.221497,-2.804169c-0.254028,-0.990738 -0.461578,-1.517517 -0.87851,-2.535828c-0.380585,-0.92952 -0.713348,-1.600113 -1.100006,-2.605347c-0.207184,-0.538605 -0.47171,-1.374756 -0.900146,-2.394501c-0.291504,-0.693802 -0.751312,-1.546692 -1.385162,-2.321487c-0.509247,-0.622467 -1.120087,-1.195969 -1.913361,-2c-0.3927,-0.39801 -0.993622,-0.963654 -1.715973,-1.998672c-0.392303,-0.562103 -0.889587,-1.431503 -1.385345,-2.101334c-0.605194,-0.817688 -1.002136,-1.51973 -1.299988,-2.101334c-0.508179,-0.99231 -0.903717,-1.793274 -1.521179,-2.377335c-0.609863,-0.576889 -1.333862,-1.193069 -1.72049,-2.063004c-0.288391,-0.64888 -0.827484,-1.396469 -1.373505,-1.906494c-0.588623,-0.549835 -1.244537,-1.025711 -2.320343,-1.908829c-0.563507,-0.462585 -1.227936,-1.184296 -1.900482,-1.743011c-0.652466,-0.542038 -1.342407,-0.936829 -2.342834,-1.278824c-0.816162,-0.278992 -1.571686,-0.551636 -2.293182,-0.993164c-0.555267,-0.339798 -1.726135,-1.130798 -2.328003,-1.526672c-0.598175,-0.393463 -1.177734,-0.806885 -2.399994,-1.434662c-0.587311,-0.301666 -1.472137,-0.614365 -2.22934,-0.965332c-0.994141,-0.4608 -1.472717,-0.853958 -2.437317,-1.20134c-0.661224,-0.238129 -1.468262,-0.404572 -2.339996,-0.636002c-0.91507,-0.24295 -1.831787,-0.516785 -2.706696,-0.846664c-0.845154,-0.318665 -1.630341,-0.682495 -2.399994,-0.947998c-1.053375,-0.363373 -1.735443,-0.455139 -2.712006,-0.619995c-0.659698,-0.111359 -1.699554,-0.382721 -2.431824,-0.654678c-0.767334,-0.284973 -1.530365,-0.649033 -2.742828,-0.961334c-0.789581,-0.203384 -1.58905,-0.274872 -2.364014,-0.347992c-0.750397,-0.070801 -2.152985,-0.264664 -2.810638,-0.410675c-0.651733,-0.144699 -1.99054,-0.421982 -2.714691,-0.490662c-0.777374,-0.07373 -1.629547,-0.105911 -2.08667,-0.136673c-1.524811,-0.1026 -2.08847,-0.164169 -3.281982,-0.299988c-0.618286,-0.070358 -1.241852,-0.148621 -1.865997,-0.222c-1.223694,-0.14386 -2.375244,-0.269104 -3.421326,-0.340012c-0.487366,-0.033035 -1.412933,-0.071152 -2.29834,-0.080826c-1.322937,-0.01445 -2.243011,-0.004501 -2.718018,-0.004501c-0.97998,0 -1.484985,0 -2.524994,0c-1.079987,0 -2.194672,0 -2.756989,0c-1.114685,0 -1.658997,0 -2.70166,0c-1.39035,0 -2.187683,0 -2.913025,0c-0.685333,0 -1.708313,0 -2.803314,0c-0.779999,0 -1.600006,0 -2.024994,0c-1.334503,0 -2.261505,0 -3.192505,0c-0.459503,0 -1.351501,0 -2.57785,0c-1.070984,0 -1.721649,0 -2.942993,0c-0.598663,0 -1.479156,0 -2.314667,0c-1.002655,0 -1.946655,0 -3.018677,0c-0.634644,0 -1.317322,0 -2.361328,0c-0.971985,0 -1.799988,0 -2.556,0c-1.082672,0 -2.059174,0 -2.770172,0c-0.730988,0 -1.8125,0 -2.817505,0c-0.619995,0 -1.474976,0 -2.699982,0c-0.800018,0 -1.709015,0 -2.628326,0c-0.854187,0 -1.833344,0 -2.633331,0c-0.800018,0 -1.795502,0 -2.542847,0c-1.03183,0 -1.978485,0 -2.831818,0c-0.941345,0 -1.709351,0 -2.682678,0c-0.661499,0 -1.785339,0 -2.447998,0c-1.044006,0 -1.726685,0 -2.922668,0c-0.709503,0 -1.750671,0 -2.524658,0c-0.900024,0 -1.763367,0.005508 -2.726501,0c-0.93158,-0.005341 -1.835449,-0.239273 -2.541687,-0.5c-0.970337,-0.358215 -1.787659,-0.424271 -2.579163,-0.584c-1.014984,-0.204849 -1.581116,-0.561707 -2.599823,-0.794662c-0.76886,-0.175827 -1.749695,-0.395691 -2.495667,-0.768677c-0.778381,-0.389191 -1.715179,-0.352661 -2.625824,-0.352661c-0.853333,0 -1.794678,0.004395 -2.562683,0c-0.930725,-0.005341 -1.63913,-0.491913 -2.401337,-0.914673c-0.803345,-0.445587 -1.814667,-0.085327 -2.714661,-0.085327c-0.799988,0 -1.657715,0.02861 -2.484009,-0.285339c-0.713654,-0.271149 -1.761444,-0.806793 -2.22934,-1.514664c-0.501007,-0.75795 -0.980499,-1.190689 -1.77066,-1.769333c-0.553162,-0.40509 -1.37674,-1.238434 -1.880005,-1.805328c-0.674347,-0.759613 -0.893707,-1.560608 -1.635986,-2.292007c-0.554321,-0.546219 -0.834686,-1.233154 -1.166656,-2.166656c-0.25296,-0.711273 -0.97525,-1.466141 -1.3125,-2.166672c-0.458435,-0.952316 -0.479706,-1.757965 -1.041672,-2.5c-0.588272,-0.776779 -1.324448,-1.266525 -1.468506,-2.100006c-0.156845,-0.907425 -0.010666,-1.88533 -0.010666,-2.610657c0,-0.989334 0,-1.789337 0,-2.789337c0,-0.810669 0,-1.685333 0,-2.682663c0,-0.796509 0,-1.548004 0,-2.677338c0,-0.693329 0,-1.693329 0,-2.32666c0,-1.012512 0,-1.980011 0,-2.79451c0,-1.030823 0,-1.893494 0,-2.840332c0,-0.88916 0,-1.878326 0,-2.657669c0,-0.854156 0,-1.716324 0,-2.620834c0,-0.899994 0,-1.810654 0,-2.721329c0,-0.853333 -0.004395,-1.794678 0,-2.562668c0.005341,-0.93071 0.308014,-1.771843 1,-2.449333c0.46727,-0.457481 0.947449,-1.487839 1.700012,-1.657661c0.87796,-0.19812 1.820831,0.016785 2.604492,-0.361671c0.888855,-0.429268 1.695953,-0.611328 2.674316,-0.647499c0.683014,-0.025253 1.56308,-0.224548 2.542023,-0.499832c0.530457,-0.149162 1.7966,-0.388908 2.4375,-0.5c1.028748,-0.178322 1.629791,-0.669174 2.526978,-1.198669c0.699432,-0.412781 1.710327,-0.720505 2.493835,-0.780495c0.851959,-0.065231 1.774139,0.00872 2.678009,-0.025337c0.748657,-0.028214 1.738647,-0.287148 2.506836,-0.570168c0.948547,-0.34948 1.720001,-0.42466 2.661346,-0.425331c1.007996,-0.000717 1.763977,0 2.595978,0c0.912018,0 1.850677,0 2.687683,0c0.890991,0 1.786499,0 2.654999,0c1.069336,0 1.774323,0 2.574341,0c1.068329,0 1.801666,0 2.647156,0c1.126495,0 1.535339,0 2.360992,0c1.488831,0 2.077515,0 2.982849,0c1.045319,0 1.992157,0 2.691498,0c0.979156,0 1.800476,0 2.749817,0c0.872009,0 1.880005,0 2.578674,0c0.682678,0 1.880005,0 2.829346,0c0.82132,0 1.631989,0 2.506653,0c0.997345,0 1.793823,0 2.545319,0c1.118683,0 2.102692,0 2.783691,0c0.806976,0 1.985657,0 2.881165,0c0.583649,0 1.419159,0 2.647339,0c0.646484,0 1.657166,0 2.457153,0c1,0 1.799988,0 2.600006,0c1,0 1.799988,0 2.798676,0c0.944153,0 1.848724,-0.01149 2.767975,0c0.833527,0.010422 1.781219,0.277687 2.528839,0.647331c0.797424,0.394264 1.626007,0.352669 2.515167,0.352669c0.989166,0 1.768494,0 2.768005,0c0.773987,0 1.694092,-0.116722 2.537323,0.085335c0.898102,0.21521 1.642242,0.81147 2.504852,0.893829c0.974945,0.093079 1.779144,0.020836 2.579163,0.020836c1.004486,0 1.857178,-0.00621 2.82132,0.000168c0.804077,0.005318 1.639496,-0.012466 2.657013,0.221169c0.687256,0.157799 1.74472,0.67672 2.463318,0.757828c0.952515,0.107506 1.821259,0.012566 2.479187,0.041672c1.01355,0.044838 1.94577,0.167084 2.696503,0.404495c1.132935,0.358276 1.933105,0.570145 2.483978,1.14267c0.634338,0.659264 1.280243,1.278107 2.009338,1.446663c0.984558,0.227623 1.735565,0.587524 2.768158,0.863838c0.667969,0.178741 1.56485,0.100075 2.562836,0.142334c0.567993,0.024055 1.7612,0.187714 2.647675,0.404495c0.576782,0.141045 1.641357,0.427139 2.596008,0.549339c0.722778,0.092522 1.859406,0.237091 2.519989,0.3825c0.696991,0.153419 1.73468,0.420448 2.65152,0.742668c0.7677,0.269806 1.552643,0.623596 2.543152,0.900162c0.819336,0.228775 1.52652,0.478195 2.478668,1.099838c0.666534,0.435165 1.516174,0.779617 2.268005,0.961502c0.932434,0.225586 1.704956,0.645905 2.253326,0.93866c0.814514,0.434845 1.804443,0.893127 2.65332,0.978668c0.95813,0.096558 1.759979,0.152344 2.508331,0.735672c0.610565,0.475922 1.497467,1.295624 2.022339,1.684326c0.804779,0.595993 1.355804,0.956573 2.394684,1.58017c0.691071,0.41481 1.394043,0.804703 2.087982,1.354492c0.810547,0.642197 1.326599,1.174255 1.880676,1.661331c0.776703,0.68277 1.501831,1.18605 2.141998,1.62001c1.020966,0.692078 1.624847,1.218307 2.010681,1.632004c0.831543,0.891571 1.191711,1.444717 1.820831,2.253326c0.42981,0.552444 1.129669,1.351303 1.661835,1.813339c0.773895,0.671906 1.337555,0.986328 2.347992,1.802658c0.602753,0.486969 1.290833,1.205505 1.805328,1.720001c0.568512,0.568497 1.363831,1.363831 1.953339,1.953339c0.553497,0.553497 1.428497,1.245728 1.848999,1.906158c0.485229,0.7621 0.361664,0.137833 0.361664,-0.520828c0,-1.007996 0,-1.870163 0,-2.716339c0,-1.00116 0,-1.719666 0,-2.510162c0,-1.026825 0,-1.948166 0,-2.632172c0,-1 0,-1.815994 0,-2.631989c0,-1.23584 0,-1.945343 0,-3.017334c0,-0.634674 0,-1.666672 0,-2.361343c0,-1.262665 0,-2.054657 0,-2.810669c0,-1.137497 0,-1.804489 0,-2.515488c0,-0.731003 0,-2.157837 0,-2.826508c0,-0.977997 0,-1.636658 0,-2.673828c0,-0.727005 0,-1.817505 0,-2.509506c0,-1.20266 0,-1.990166 0,-2.822662c0,-1.010498 0,-1.800171 0,-2.625832c0,-0.805672 0,-1.854172 0,-2.808838c0,-0.762665 0,-1.764 0,-2.388c0,-0.965996 0.000092,-2.05983 0,-2.963997c-0.000092,-0.903 0.023376,-1.63459 -0.057159,-2.469002c-0.115509,-1.196701 -0.300232,-1.789841 -0.517517,-2.691002c-0.14447,-0.599243 -0.343781,-1.799767 -0.425323,-2.699997c-0.054321,-0.599854 -0.204926,-1.803642 -0.425323,-2.678665c-0.139038,-0.552032 -0.503662,-1.673241 -0.563995,-2.472c-0.067169,-0.889526 -0.010681,-1.849335 -0.010681,-2.581337c0,-1.127998 0,-1.821335 0,-2.821335c0,-0.633331 0,-1.645828 0,-2.613327c0,-0.832504 0,-1.620003 0,-2.833336c0,-0.750664 0,-1.565331 0,-2.388c0,-0.774666 0,-1.972 0,-2.851166c0,-0.922501 0,-1.722504 0,-2.682335c0,-0.814499 0,-1.682999 0,-2.578499c0,-0.8955 0,-1.764 0,-2.833336c0,-0.704994 0,-1.504997 0,-2.551994c0,-0.948006 0,-1.624504 0,-2.400002c0,-1.292999 0,-1.968002 0,-3.048004c0,-0.755997 0,-1.6875 0,-2.652c0,-0.72533 0,-1.714497 0,-2.493832c0,-0.999332 0.196289,-1.853981 -0.057159,-2.720833c-0.256592,-0.877644 -0.727325,-1.676006 -1.164337,-2.399834c-0.436798,-0.723484 -1.435181,-0.865692 -2.262512,-1.185497c-0.712097,-0.275261 -1.58548,-0.979622 -2.211487,-1.357502c-0.853241,-0.515049 -1.423553,-0.988113 -2.004517,-1.651833c-0.621735,-0.7103 -1.606506,-0.598377 -2.5,-0.706669c-0.919769,-0.111477 -1.480469,-0.695461 -2.320831,-0.998665c-0.94455,-0.340801 -1.653809,-0.574665 -2.593811,-0.914665l-0.885345,-0.085335l-0.799988,0" fill="#007fff" id="svg_2" stroke="#000000" stroke-dasharray="null" stroke-linecap="null" stroke-linejoin="null" stroke-width="5"/>
 </g>
</svg>