<?xml version="1.0"?>
<svg width="640" height="480" xmlns="http://www.w3.org/2000/svg" xmlns:svg="http://www.w3.org/2000/svg">
 <!-- Created with SVG-edit - https://github.com/SVG-Edit/svgedit-->
 <g class="layer">
  <title>Layer 1</title>
  <path d="m172.5,42.5c2.023331,0 2.893326,0.00005 3.573334,0c1.169495,-0.000084 2.036636,0.002201 2.947495,-0.020832c0.4646,-0.011749 1.40004,-0.032806 2.758331,-0.200836c0.44223,-0.054707 1.329315,-0.216866 2.254181,-0.424999c0.491821,-0.11068 2.133057,-0.521099 2.752991,-0.6745c0.657379,-0.162666 1.350372,-0.331257 2.078995,-0.4935c0.758698,-0.168941 1.548004,-0.33144 2.367004,-0.475498c0.842361,-0.148167 2.600098,-0.386093 3.510498,-0.466835c0.92569,-0.082096 1.866745,-0.134785 2.818512,-0.171001c0.959274,-0.036499 1.923965,-0.053665 2.890488,-0.063c0.965469,-0.009327 2.8815,-0.008495 3.826843,-0.009167c0.937332,-0.000668 1.868683,-0.002323 2.79599,-0.010498c0.925354,-0.00816 1.850769,-0.021896 2.778,-0.046501c0.931427,-0.024715 2.814255,-0.105282 3.768677,-0.164333c0.962936,-0.059578 1.93158,-0.132774 2.903992,-0.2145c0.974915,-0.081936 1.949509,-0.172981 2.921997,-0.268497c0.968842,-0.095158 2.886002,-0.295528 3.831177,-0.395336c0.936157,-0.098858 1.864166,-0.197353 2.785492,-0.289497c0.915009,-0.091511 1.825043,-0.178024 2.731506,-0.253502c0.902893,-0.07518 2.704285,-0.194912 3.603836,-0.235668c0.895142,-0.040558 1.782608,-0.067188 2.65799,-0.085499c0.859283,-0.017975 1.698654,-0.026775 2.514008,-0.031498c0.787338,-0.004559 2.261993,-0.003967 2.942673,-0.004669c0.644653,-0.000664 1.257355,-0.002117 1.841995,-0.010498c0.560699,-0.008038 1.101501,-0.021515 1.625992,-0.046501c0.512863,-0.024433 1.518463,-0.105495 2.017838,-0.164165c0.499329,-0.058666 0.99585,-0.130058 1.489502,-0.204002c0.490036,-0.073402 0.974457,-0.150791 1.453506,-0.222c0.471619,-0.070103 1.390091,-0.190094 1.835663,-0.231167c0.435806,-0.040173 1.285294,-0.093407 2.110825,-0.110832c0.809219,-0.017082 2.010666,-0.010666 2.810669,-0.010666c0.800003,0 1.599991,0 2.800003,0c0.798676,0 1.589325,0 2.364014,0c1.46933,0 2.151978,0 2.810638,0c0.978027,0 1.992004,0 2.710693,0c0.750641,0 1.919159,0 3.114655,0c0.798676,0 1.589325,0 2.364014,0c0.750641,0 1.814819,0 2.487823,0c1.009491,0 1.717499,0 2.890839,0c0.862671,0 1.757324,0 2.206665,0c0.88266,0 2.107666,0 3.17865,0c0.650665,0 1.872009,0 2.473328,0c0.919525,0 1.555847,0 2.919861,0c0.72699,0 1.457977,0 2.168976,0c1.267334,0 2.069855,0 2.872345,0c0.9375,0 1.689514,0 2.513489,0c0.848022,0 1.671997,0 3.072021,0c0.85199,0 1.410004,0 2.716309,0c0.802673,0 1.677338,0 2.131683,0c0.922668,0 2.282654,0 3.151337,0c0.852661,0 1.277985,0 2.136658,0c1.337158,0 2.26416,0 2.730682,0c0.923981,0 1.815979,0 3.042664,0c0.737335,0 1.793335,0 2.510651,0c1.174683,0 2.037354,0 2.482666,0c0.898682,0 1.781342,0 3.007019,0c0.746002,0 1.483978,0 2.261993,0c1.346985,0 2.419006,0 3,0c0.602997,0 1.221985,0 2.484009,0c0.630981,0 1.862976,0 3.024323,0c0.553162,0 1.609497,0 2.114655,0c0.96933,0 2.335846,0 3.200165,0c0.836334,0 1.652679,0 2.857178,0c0.797333,0 1.578674,0 2.328003,0c0.701324,0 1.902649,0 2.651154,0c0.703522,0 1.70752,0 2.5625,0c0.945007,0 1.980011,0 2.720001,0c0.779999,0 1.600006,0 2.904999,0c0.917358,0 1.386017,0 2.333344,0c0.947327,0 1.415985,0 2.778839,0c0.872986,0 1.742004,0 2.630981,0c0.459503,0 1.933167,0 2.460846,0c1.101318,0 1.67099,0 2.838348,0c0.593658,0 1.790985,0 2.99231,0c0.60318,0 1.209351,0 2.434662,0c0.621185,0 1.249359,0 2.53067,0c1.317352,0 1.986023,0 2.658691,0c0.674652,0 1.349304,0 2.690643,0c1.317352,0 1.962341,0 2.597351,0c1.23999,0 1.845001,0 2.440002,0c1.160004,0 2.279999,0 3.35733,0c0.518646,0 1.505981,0 2.41333,0c1.175995,0 1.822327,-0.042984 2.613495,0.020832c1.069,0.086224 1.863312,0.435627 2.519653,0.626503c0.952362,0.276962 1.789154,0.330364 2.704498,0.348164c1.004822,0.019543 1.723694,0.004501 2.474335,0.004501c0.774689,0 1.565369,-0.00626 2.764343,0.000332c0.808716,0.004444 1.644409,0.010822 2.514008,0.114002c1.425812,0.169174 1.930664,0.319656 2.995483,0.591c0.552673,0.140839 1.108612,0.304089 2.242004,0.589333c0.564362,0.142033 2.22522,0.471165 2.760162,0.535999c1.028778,0.124691 1.526215,0.139572 2.469177,0.217503c1.28656,0.106327 2.056152,0.206886 2.746826,0.398499c0.976349,0.27087 1.875122,0.714222 2.772003,1.2015c0.602112,0.327137 1.170349,0.726776 2.399994,1.109333c0.588684,0.183144 1.518768,0.272346 2.100006,0.495834c1.25061,0.480854 1.781708,1.032616 2.364014,1.470665c1.055817,0.794277 1.782379,1.080456 2.574341,1.319668c0.914978,0.276375 1.677765,0.749947 2.369659,1.053665c0.813538,0.357117 1.662079,0.96413 2.312836,1.465168c0.343231,0.264271 1.048279,0.806015 1.936157,1.737499c0.551758,0.578842 1.010834,1.193264 1.43399,1.799999c0.82782,1.186954 1.204254,1.798794 1.609009,2.379169c0.395355,0.566921 1.1763,1.621025 1.799988,2.274166c0.578735,0.606052 1.404175,1.219444 2,1.632c0.604279,0.418404 1.408295,1.150681 2.010681,1.875999c0.431183,0.519184 0.843933,1.086948 1.610504,1.817333c0.76416,0.728085 1.352386,1.111897 1.809479,1.605331c0.86972,0.938873 1.234375,1.81321 1.460358,2.363335c0.421692,1.026604 0.723053,1.747147 1.066162,2.519669c0.413574,0.93119 0.72525,1.687553 1.078827,2.519669c0.371643,0.874626 0.541779,1.325401 1.164001,2.579994c0.383698,0.773636 0.803375,1.480736 1.200012,2.184006c0.403473,0.715385 1.004211,1.889969 1.198669,2.317329c0.39975,0.878586 0.768402,1.780113 0.944153,2.226669c0.499268,1.268578 0.776733,2.037407 1.03183,2.765335c0.254242,0.725426 0.509949,1.493126 0.946655,2.804161c0.162903,0.48909 0.505219,1.522118 0.67868,2.056671c0.349701,1.07756 0.526489,1.609352 0.978668,3.136665c0.140594,0.474876 0.39679,1.402283 0.521332,1.863335c0.254272,0.941231 0.666138,2.479309 0.82132,3.043327c0.16214,0.589325 0.332977,1.197891 0.67868,2.456673c0.175476,0.638939 0.350983,1.277367 0.515991,1.912498c0.473022,1.820801 0.600769,2.394188 0.726837,2.94783c0.240326,1.055428 0.45163,2.052887 0.555847,2.530838c0.298187,1.367477 0.504669,2.238213 0.680481,3.108833c0.088806,0.43972 0.266693,1.34536 0.399353,2.822166c0.047302,0.526779 0.088074,1.628937 0.100647,2.198662c0.012787,0.579613 0.020172,1.761002 0.020844,2.958336c0.000336,0.599831 0,1.795502 0,2.389336c0,0.589828 0,1.753494 0,2.325333c0,1.664001 0,2.201332 0,3.260002c0,0.52533 0,1.577995 0,2.109329c0,1.637665 0,2.202667 0,2.777664c0,1.180008 0,1.785004 0,2.400009c0,1.904999 0,2.560165 0,3.226334c0,0.678162 0,1.369324 0,2.074493c0,1.456329 0.000336,2.209503 0,3.770828c-0.000183,0.809677 0.000244,1.637375 -0.009003,2.481003c-0.009399,0.857697 -0.026855,1.727554 -0.062988,2.60701c-0.036469,0.887924 -0.070557,1.784088 -0.261353,3.578659c-0.095886,0.901779 -0.23056,1.802948 -0.389984,2.704498c-0.160553,0.907898 -0.351257,1.818375 -0.570007,2.731506c-0.221191,0.923325 -0.457153,1.856293 -1.040009,3.730667c-0.298004,0.958359 -0.631775,1.919312 -0.980988,2.886002c-0.352081,0.974686 -0.723511,1.948822 -1.106995,2.921997c-0.38385,0.974167 -0.775726,1.94368 -1.578674,3.858658c-0.396729,0.946182 -0.798035,1.879135 -1.186493,2.805008c-0.383545,0.914139 -0.757172,1.817581 -1.105499,2.714996c-0.34259,0.88266 -0.686981,1.749084 -1.208008,3.479996c-0.25293,0.84021 -0.453125,1.679871 -0.637512,2.509506c-0.18222,0.819778 -0.341278,1.636414 -0.502502,2.446503c-0.160461,0.806244 -0.302002,1.615173 -0.693329,3.210663c-0.19696,0.802963 -0.430573,1.599884 -0.671997,2.395493c-0.241272,0.79509 -0.495605,1.583374 -0.743988,2.368515c-0.246277,0.778519 -0.504364,1.544617 -0.917328,3.069321c-0.201111,0.742538 -0.368896,1.481613 -0.523499,2.214005c-0.153351,0.726334 -0.290131,1.452454 -0.4245,2.177994c-0.134644,0.727127 -0.257813,1.460663 -0.552002,2.941345c-0.15033,0.756546 -0.317322,1.525604 -0.508514,2.308502c-0.196625,0.805206 -0.420258,1.631622 -0.679504,2.479492c-0.26947,0.881302 -0.559021,1.799149 -1.311981,3.712006c-0.403412,1.024872 -0.865814,2.071487 -1.348511,3.143997c-0.491882,1.092911 -1.004944,2.189667 -1.519501,3.287994c-0.511108,1.091003 -1.027557,2.159485 -1.965332,4.234665c-0.441559,0.977127 -0.845123,1.918182 -1.228485,2.815506c-0.364594,0.853378 -0.705505,1.665192 -1.03952,2.428497c-0.315186,0.720291 -0.59787,1.406342 -1.231995,2.58934c-0.28656,0.534576 -0.597443,1.018982 -0.899994,1.48349c-0.297516,0.456802 -0.60611,0.908524 -0.899994,1.384506c-0.306427,0.496277 -0.637177,1.024261 -1.200012,2.29866c-0.322052,0.729202 -0.607727,1.545364 -0.913513,2.415009c-0.322418,0.916962 -0.644196,1.878357 -0.994476,2.86499c-0.358612,1.010101 -0.704102,2.045532 -1.59201,4.053345c-0.442169,0.999863 -0.942932,1.964127 -1.453491,2.909988c-0.504242,0.934143 -1.025879,1.83989 -1.534515,2.730011c-0.49704,0.869873 -1.006683,1.7034 -1.845337,3.360001c-0.396118,0.78244 -0.733948,1.556961 -1.04248,2.309998c-0.297913,0.727142 -0.562836,1.439575 -0.817505,2.130005c-0.246979,0.669571 -0.466003,1.328293 -0.973328,2.559982c-0.245087,0.595032 -0.514984,1.169159 -0.795013,1.732513c-0.279999,0.563324 -0.578247,1.12262 -0.88501,1.6875c-0.313202,0.576782 -0.645477,1.163666 -1.319977,2.41333c-0.357452,0.662262 -0.717438,1.349915 -1.081512,2.053497c-0.36795,0.71106 -0.73175,1.425262 -1.090485,2.134491c-0.352264,0.696442 -0.692139,1.374603 -1.328003,2.645355c-0.290558,0.580627 -0.562653,1.126007 -0.823517,1.638c-0.247253,0.485291 -0.486359,0.946716 -0.724487,1.385986c-0.230988,0.426056 -0.457672,0.843658 -0.951996,1.64267c-0.250336,0.404602 -0.523071,0.81131 -0.808502,1.235992c-0.30249,0.450012 -0.630371,0.929749 -0.979523,1.451996c-0.379974,0.568329 -0.797089,1.188904 -1.711975,2.645355c-0.524231,0.834564 -1.073029,1.742035 -1.653015,2.701477c-0.604034,0.999207 -1.220947,2.02829 -1.850983,3.070526c-0.631989,1.045471 -1.252502,2.085846 -2.496002,4.06131c-0.58493,0.92926 -1.159393,1.808868 -1.719025,2.647522c-0.539154,0.807953 -1.070648,1.583069 -1.592987,2.332489c-0.510345,0.732208 -1.017914,1.447205 -2.021332,2.853333c-0.500793,0.701782 -1.008789,1.412384 -1.531494,2.140503c-0.542633,0.75589 -1.113464,1.547638 -1.72052,2.383484c-0.647217,0.891174 -1.342377,1.846191 -2.914642,3.976013c-0.881195,1.193726 -1.823395,2.459442 -2.806519,3.787506c-1.015594,1.371948 -2.050262,2.773102 -3.08548,4.192505c-1.03244,1.415588 -2.056183,2.807709 -3.941345,5.519989c-0.87854,1.263977 -1.686523,2.474792 -2.438995,3.621002c-0.705933,1.075317 -1.353424,2.086853 -1.953003,3.027008c-0.55304,0.867188 -1.045715,1.66983 -1.941345,3.018646c-0.37558,0.565643 -0.724396,1.058655 -1.046997,1.494019c-0.293732,0.396423 -0.577271,0.756561 -0.848999,1.097992c-0.266296,0.334595 -0.543823,0.666016 -1.104004,1.40799c-0.31424,0.416229 -0.640198,0.874908 -0.985504,1.366516c-0.365479,0.520325 -0.744019,1.07074 -1.138489,1.645508c-0.40921,0.596252 -0.828217,1.213654 -1.70932,2.487976c-0.453247,0.655518 -0.916595,1.316956 -1.3815,1.986023c-0.467102,0.672272 -0.933289,1.345764 -1.390503,2.021973c-0.453796,0.671143 -0.906128,1.332489 -1.727997,2.658691c-0.396881,0.640442 -0.764313,1.274902 -1.110016,1.895996c-0.334167,0.600342 -0.643616,1.185486 -0.929993,1.751984c-0.273468,0.540924 -0.5289,1.057281 -0.959991,2.018677c-0.19455,0.433868 -0.365631,0.844666 -0.523499,1.233002c-0.150024,0.369049 -0.288849,0.725403 -0.4245,1.070984c-0.133362,0.339752 -0.261322,0.680145 -0.552002,1.362671c-0.151703,0.356171 -0.316986,0.719482 -0.499512,1.085999c-0.186707,0.374939 -0.390076,0.751099 -0.616486,1.122009c-0.229889,0.376587 -0.46582,0.760376 -1.05069,1.458679c-0.297668,0.355408 -0.631714,0.685669 -0.971985,1.013977c-0.342407,0.330383 -0.696106,0.651154 -1.044006,0.978027c-0.346771,0.325806 -0.704498,0.639008 -1.317322,1.341309c-0.301361,0.345367 -0.56842,0.713409 -0.819,1.085999c-0.248077,0.368866 -0.475281,0.74585 -0.693024,1.122009c-0.214874,0.371216 -0.413879,0.744019 -0.82132,1.458679c-0.19754,0.346466 -0.398224,0.68161 -0.59549,1.009491c-0.19339,0.321442 -0.38504,0.635529 -0.568512,0.946503c-0.180176,0.305359 -0.361633,0.603668 -0.669342,1.210663c-0.150879,0.297638 -0.285492,0.60202 -0.418488,0.908997c-0.13504,0.311707 -0.395569,0.96933 -0.717499,1.661682c-0.550201,1.183258 -0.788391,1.605743 -1.313324,2.47998c-0.272491,0.453827 -0.869202,1.354889 -1.205353,1.781342c-0.991852,1.25824 -1.750427,1.95047 -2.115997,2.274658c-0.689026,0.611053 -1.366577,1.0896 -2.341339,1.925354c-0.527161,0.451996 -1.226593,1.297546 -1.716309,1.986816c-0.384186,0.540741 -0.794556,1.151215 -1.505005,2.147827c-0.513397,0.720184 -1.058777,1.458618 -1.333344,1.833344c-0.547516,0.747223 -1.332611,1.833862 -1.814667,2.511993c-0.448669,0.631165 -0.809204,1.265411 -1.685333,2.154663c-0.560944,0.569336 -1.24884,0.930634 -2,1.666687c-0.659485,0.64621 -1.059113,1.252716 -1.571503,1.889984c-0.282623,0.351501 -1.289246,1.522156 -1.680511,1.943329c-0.81723,0.879669 -1.246643,1.313812 -1.671997,1.746674c-0.821381,0.835876 -1.575989,1.58667 -2.221313,2.231995c-0.557343,0.557343 -1.058685,1.058685 -2.021332,2.021332c-0.521332,0.521332 -1.090668,1.090668 -1.716003,1.716003c-0.336182,0.336182 -1.450684,1.450684 -1.85968,1.85968c-0.423004,0.423004 -1.286987,1.286987 -1.716003,1.716003c-0.418976,0.418976 -1.20517,1.200836 -2.155975,2.156158c-0.467072,0.469269 -1.188568,1.233612 -1.719025,1.885498c-0.445557,0.547546 -0.934143,1.200928 -1.559998,1.824005c-0.654053,0.651123 -1.84137,1.428131 -2.273315,1.619995c-0.859192,0.381653 -1.747314,0.621674 -2.580017,0.85199c-1.090027,0.301483 -1.717468,0.467407 -2.493317,0.912018c-0.547699,0.313873 -1.409943,1.048187 -2.065338,1.65448c-0.702576,0.649933 -1.046051,0.995422 -1.726685,1.670837c-0.927795,0.920715 -1.433167,1.469971 -2.146667,2.109344c-0.799194,0.716156 -1.411469,1.127716 -2.057312,1.446655c-0.912079,0.450409 -1.726074,0.70282 -2.574677,1.046661c-0.594238,0.240753 -1.793182,0.847229 -2.410675,1.200012c-0.651947,0.372467 -1.339386,0.785217 -2.521149,1.363831c-0.420746,0.205994 -1.296234,0.592529 -2.170837,0.964172c-0.832123,0.353577 -1.926453,0.804779 -2.510681,1.078827c-0.713623,0.334747 -1.643005,1.026276 -2.271484,1.399994c-0.79657,0.473694 -1.849792,0.796021 -2.318848,1.067017c-0.811005,0.468597 -1.368469,0.84906 -2.585663,1.404816c-0.591064,0.269867 -1.499329,0.582886 -2.399994,0.885345c-0.899323,0.302002 -1.5,0.5 -2.399994,0.799988c-0.899994,0.300018 -1.800018,0.600006 -2.399994,0.800018c-1.200012,0.400024 -1.793793,0.619507 -2.700012,0.87915c-0.894318,0.256226 -1.799255,0.412506 -2.731995,0.495514c-0.675232,0.060089 -1.425598,0.095001 -2.732666,0.246674c-0.493347,0.057251 -1.553711,0.206238 -2.118683,0.278656c-1.186707,0.1521 -1.804779,0.230225 -3.083313,0.333344c-0.654449,0.052795 -1.320038,0.083221 -2.680023,0.151978c-0.695007,0.035126 -1.40036,0.070953 -2.11499,0.124512c-0.725403,0.054382 -2.206146,0.215698 -2.959335,0.333008c-0.761597,0.118622 -1.52356,0.262543 -2.28299,0.418488c-0.755249,0.15509 -1.499176,0.321838 -2.941345,0.656006c-1.355133,0.313995 -1.989517,0.465485 -2.601334,0.596008c-1.164871,0.248535 -1.731277,0.352509 -2.29332,0.440002c-1.124435,0.175049 -2.292969,0.285156 -2.902847,0.3255c-1.266327,0.08374 -1.91861,0.104156 -2.577988,0.141998c-0.664642,0.038147 -1.337982,0.034027 -3.3125,0.3125c-0.647797,0.09137 -1.281448,0.22818 -1.904999,0.371979c-1.222992,0.282043 -1.813065,0.452057 -2.400009,0.589355c-1.689713,0.395264 -2.237686,0.48291 -3.300003,0.591003c-0.514084,0.052307 -1.514877,0.100952 -2.474991,0.111664c-0.919937,0.010284 -1.801331,0.002655 -2.650665,0.002655c-0.825333,0 -1.634674,0 -2.836334,0c-0.80867,0 -1.641342,0 -2.514008,0c-0.456329,0 -1.928329,0 -2.453659,0c-1.082672,0 -1.632004,0 -2.726669,0c-0.537338,0 -2.062225,0.013214 -2.981995,-0.009003c-0.840408,-0.020294 -1.629318,-0.000092 -2.590012,-0.324341c-0.859711,-0.290161 -1.545883,-0.890594 -2.015991,-1.269318c-0.998245,-0.804199 -1.556152,-1.204224 -2.128006,-1.633331c-0.593613,-0.445435 -1.496506,-1.177917 -2.093826,-1.725677c-0.623749,-0.571991 -1.253906,-1.19873 -2.262177,-2.204987c-0.355438,-0.354736 -1.096497,-1.098053 -1.479996,-1.490662c-0.803162,-0.822266 -1.217743,-1.258942 -1.639999,-1.714691c-0.885788,-0.956024 -1.337601,-1.468109 -2.266006,-2.533325c-0.474152,-0.544006 -0.946899,-1.095032 -1.421997,-1.644012c-0.472244,-0.545685 -0.933487,-1.089661 -1.858658,-2.11731c-0.872665,-0.96933 -1.304733,-1.41925 -1.720001,-1.861359c-0.799484,-0.851135 -1.18924,-1.259094 -1.559998,-1.669312c-1.077271,-1.191895 -1.730637,-2.004272 -2.029343,-2.424011c-0.595215,-0.836395 -0.904495,-1.26297 -1.524002,-2.712006c-0.213699,-0.499847 -0.527237,-1.566498 -0.671997,-2.106659c-0.144226,-0.538177 -0.364227,-1.611237 -0.828003,-3.059998c-0.140884,-0.440094 -0.48027,-1.229065 -0.8125,-1.9375c-0.449844,-0.959259 -0.814178,-1.856415 -0.959488,-2.783844c-0.10141,-0.647186 -0.122162,-1.352142 -0.282837,-2.521484c-0.119461,-0.869385 -0.296844,-1.778503 -0.389175,-2.242493c-0.185669,-0.933014 -0.491516,-2.292816 -0.68483,-3.162018c-0.094986,-0.427094 -0.290787,-1.274384 -0.419159,-2.136658c-0.19841,-1.332642 -0.232452,-2.268494 -0.249344,-2.741333c-0.033905,-0.949066 -0.035324,-1.890656 -0.035995,-2.808014c-0.000641,-0.881317 0,-1.730652 0,-2.556c0,-0.809326 0,-2.010651 0,-2.810669c0,-0.799988 0,-1.599976 0,-2.799988c0,-0.802673 0,-1.621338 0,-2.471985c0,-0.898682 0,-1.861359 0,-2.894684c0,-0.53418 0,-1.612488 0,-2.146667c0,-1.033325 -0.006485,-2.422546 0.004501,-3.224152c0.010162,-0.741791 0.027939,-1.466003 0.16217,-2.595856c0.099121,-0.834351 0.256943,-1.696289 0.40799,-2.543976c0.139755,-0.784302 0.308258,-1.995728 0.46701,-2.643524c0.174271,-0.711121 0.616013,-1.689301 1.02533,-2.551483c0.226654,-0.477448 0.724777,-1.475189 0.989334,-1.978668c0.764816,-1.455475 1.014328,-1.890289 1.5,-2.700012c0.477203,-0.795593 0.740585,-1.197266 1.298325,-2.071655c0.644867,-1.010986 1.009109,-1.584534 1.400009,-2.198669c0.411743,-0.646881 0.840317,-1.317535 1.287003,-1.999512c0.451965,-0.690033 0.907318,-1.378082 1.376999,-2.044495c0.900696,-1.277954 1.3526,-1.854675 1.79599,-2.394653c0.835846,-1.017914 1.262878,-1.478973 1.674667,-1.93335c0.806168,-0.889557 1.613525,-1.770813 2.010345,-2.227661c0.797104,-0.917694 1.179535,-1.382538 1.558655,-1.837341c0.728394,-0.873779 1.061783,-1.294891 1.999008,-2.377838c0.53212,-0.614868 1.053925,-1.175262 1.548004,-1.778992c0.84761,-1.035736 1.140579,-1.46814 1.804489,-2.399994c0.353134,-0.495667 0.706223,-1.009094 1.442001,-2.031342c0.363159,-0.504547 1.072693,-1.460663 1.762833,-2.300171c0.324066,-0.394226 0.969879,-1.12793 1.580841,-1.854156c0.305862,-0.363586 1.212708,-1.536377 1.804489,-2.408997c0.30426,-0.448639 0.600006,-0.911011 1.200012,-1.84201c0.299988,-0.465485 1.196915,-1.829376 1.502655,-2.265503c0.611862,-0.872803 0.933762,-1.307495 1.611679,-2.192474c0.353592,-0.461609 1.116104,-1.425873 1.950989,-2.454193c0.42952,-0.529053 0.863266,-1.055267 1.292999,-1.573486c0.418289,-0.504425 1.19899,-1.441925 1.875,-2.229156c0.74263,-0.864807 1.13472,-1.283478 1.632004,-1.88269c0.824341,-0.993317 1.324448,-1.661591 1.617996,-2.013153c0.632416,-0.757416 0.964417,-1.167084 2.1595,-2.337494c0.417755,-0.409119 0.863129,-0.804443 1.778,-1.600006c0.46257,-0.402252 0.941223,-0.7883 2.3125,-2c0.44838,-0.39621 0.887299,-0.792389 1.720001,-1.600006c0.408615,-0.396301 1.19046,-1.194916 1.559998,-1.600006c1.081375,-1.185394 1.407135,-1.595306 2.050674,-2.399994c0.318054,-0.397705 0.932343,-1.199341 1.234665,-1.600006c0.904175,-1.198273 1.507889,-2.006378 1.822662,-2.410645c0.645676,-0.829254 0.975922,-1.261322 2.112,-2.556c0.403503,-0.459839 0.832123,-0.919708 1.276505,-1.3815c0.903183,-0.938568 1.372971,-1.393127 1.841995,-1.84201c0.463013,-0.443115 1.824493,-1.669006 2.260178,-2.039154c0.827179,-0.702789 1.238327,-1.014221 1.969162,-1.661682c1.00354,-0.889038 1.555939,-1.509521 1.822495,-1.817993c0.543015,-0.628357 1.091263,-1.32901 2.16301,-2.424347c0.409576,-0.418579 0.867584,-0.838043 1.348495,-1.272003c0.999313,-0.901733 1.51947,-1.344025 2.031326,-1.789307c0.502808,-0.437378 1.892899,-1.659363 2.301514,-2.040009c0.782547,-0.729004 1.158905,-1.100311 1.909988,-1.88501c0.397705,-0.415497 1.24292,-1.346161 1.706329,-1.865814c0.491333,-0.550964 1.001801,-1.130463 1.53302,-1.726501c0.543396,-0.60968 1.095886,-1.22525 1.658997,-1.834503c0.55957,-0.605408 1.672607,-1.758026 2.222321,-2.289337c0.533081,-0.515259 1.064117,-1.006775 2.121338,-1.943329c0.523102,-0.463379 1.05481,-0.919281 1.584015,-1.387512c1.087036,-0.961761 1.638794,-1.473541 2.195984,-1.998657c0.561188,-0.52887 1.114502,-1.062805 1.657501,-1.593018c0.530304,-0.517822 1.522034,-1.503448 2.395844,-2.375c0.726257,-0.724396 1.015747,-1.063507 1.859985,-1.787994c0.472321,-0.405334 1.489258,-0.997665 2.306671,-1.378662c0.546387,-0.254684 1.602081,-0.791489 2.264008,-1.335999c0.656189,-0.53981 1.440094,-1.360153 1.835999,-1.768509c0.606323,-0.625412 1.405029,-1.558304 1.801331,-2.080826c0.414642,-0.546677 1.036194,-1.435074 1.76532,-2.314667c0.507904,-0.612717 1.087036,-1.214279 1.395844,-1.520828c0.648804,-0.644028 1.768402,-1.648697 2.179993,-2.000168c0.853302,-0.728622 1.295258,-1.085815 1.736664,-1.437332c0.854034,-0.68013 2.021667,-1.540497 2.664856,-1.991013c0.548676,-0.384323 1.299286,-0.922836 1.855988,-1.717331c0.44812,-0.639511 0.800201,-1.445221 1.200012,-2.26799c0.200104,-0.411774 0.756226,-1.595184 1.40448,-2.498337c0.390869,-0.544556 0.849304,-1.014008 1.817017,-1.988495c0.533783,-0.537521 1.099335,-1.09935 1.682983,-1.683014c0.895477,-0.895508 1.195343,-1.195313 1.791016,-1.790985c0.583649,-0.583664 1.149689,-1.144989 2.183167,-2.183334c0.469727,-0.471939 1.155182,-1.174957 1.605316,-1.690506c0.75174,-0.860962 1.269043,-1.535721 1.81601,-2.230667c0.274841,-0.349197 0.798492,-1.046722 1.578674,-1.957169c0.680939,-0.794632 1.143372,-1.260773 2.087982,-2.209503c0.516876,-0.519135 1.063599,-1.064728 1.644012,-1.608002c0.58493,-0.547501 1.484528,-1.30986 2.084839,-1.768158c0.579224,-0.4422 1.437439,-1.03334 2.182831,-1.657166c0.692566,-0.57962 1.293976,-1.17395 1.90033,-1.999832c0.420288,-0.572449 0.855591,-1.369095 1.506653,-1.916168c0.678558,-0.570175 1.535553,-1.026398 2.110168,-1.541168c0.590973,-0.529434 1.382568,-1.542786 1.768524,-2.121506c0.434174,-0.651001 1.311279,-1.210144 1.957306,-1.664169c0.72934,-0.512589 1.195007,-1.074158 1.930511,-1.80899c0.558258,-0.557755 1.291321,-1.291336 1.766998,-1.766998c0.543671,-0.543671 1.14743,-1.147247 2.147827,-2.147842c0.354553,-0.35463 1.085114,-1.082504 1.8125,-1.833328c0.361298,-0.37294 1.063843,-1.105255 1.6875,-1.833328c0.574188,-0.670319 1.05957,-1.32135 1.512024,-1.919998c0.818115,-1.082428 1.228241,-1.560593 1.842163,-2.288345c0.440338,-0.521957 1.15387,-1.45285 1.663147,-2.210327c0.55011,-0.818192 0.812561,-1.250244 1.363342,-2.089996c0.266998,-0.407104 1.016296,-1.50563 1.716675,-2.360672c0.416595,-0.508591 1.246765,-1.455917 1.633331,-1.981339c0.392395,-0.53334 0.970062,-1.329742 1.359985,-2.394501c0.244812,-0.668472 0.345459,-1.556229 0.812012,-2.32283c0.398529,-0.654831 1.003967,-1.252548 1.545319,-2.281326c0.407898,-0.775177 0.617889,-1.585556 1.185333,-2.507507c0.359863,-0.584702 1.018799,-1.462234 1.300018,-2.056503c0.429108,-0.906784 0.6987,-1.717194 1.03598,-2.599991c0.245148,-0.641632 0.684265,-1.674911 1.012177,-2.401505c0.330078,-0.731415 0.693909,-1.423538 1.018494,-2.418503c0.261597,-0.801849 0.22052,-1.674332 0.344025,-2.707993c0.115082,-0.963135 0.570679,-1.622131 0.822662,-2.625336c0.194885,-0.77597 0.165985,-1.514664 0.166656,-2.625336c0.000519,-0.860001 0,-1.585327 0,-2.574829c0,-0.820663 0.025543,-1.967209 -0.009003,-2.752502c-0.036224,-0.823624 -0.254791,-1.923889 -0.714325,-2.585663c-0.315521,-0.454376 -1.024292,-1.026672 -1.920166,-1.440338c-0.66745,-0.308197 -1.458832,-0.527786 -2.337006,-0.774002c-1.516418,-0.425171 -2.084137,-0.566772 -2.671509,-0.733994c-0.606659,-0.172699 -1.849792,-0.549591 -2.471985,-0.76001c-0.619843,-0.209625 -1.247162,-0.388916 -2.911835,-1.174332c-0.518524,-0.244644 -1.474457,-0.788635 -1.943329,-1.037323c-0.915894,-0.485779 -1.361694,-0.772903 -2.863678,-1.177338c-0.519287,-0.139832 -1.618011,-0.272156 -2.178009,-0.322662c-0.564026,-0.050873 -1.697968,-0.105728 -2.8125,-0.208344c-1.091003,-0.100449 -1.636078,-0.189163 -2.770813,-0.333328c-0.600952,-0.07634 -1.233582,-0.155136 -1.906525,-0.216003c-1.487854,-0.134583 -2.31781,-0.16716 -3.198639,-0.198669c-0.92453,-0.033066 -1.885315,-0.051941 -2.874023,-0.064499c-1.008636,-0.012817 -2.029327,-0.017578 -3.053986,-0.019501c-2.029327,-0.003799 -3.020508,-0.001328 -3.998657,-0.001328c-0.972168,0 -1.945343,0 -2.926514,0c-0.996155,0 -2.014343,0 -3.061493,0c-2.209351,0 -3.382843,0 -4.597351,0c-1.24649,0 -2.515991,0 -3.7995,0c-1.288483,0 -2.572998,0 -3.844482,0c-2.468018,0 -3.648163,0 -4.789337,0c-1.10318,0 -2.169342,0 -3.199493,0c-0.995178,0 -1.956329,0 -2.884521,0c-1.761322,0 -2.596832,0 -3.405334,0c-0.784485,0 -1.547974,0 -2.293488,0c-0.730499,0 -1.449005,0 -2.158508,0c-1.403992,0 -2.103821,0 -2.802673,0c-0.696808,0 -1.390656,0 -2.080475,0c-0.684845,0 -1.363678,0 -2.035522,0c-1.318665,0 -1.963501,0 -2.597321,0c-0.621826,0 -1.230682,0 -1.8255,0c-0.579834,0 -1.143677,0 -1.690491,0c-1.038666,0 -1.529022,0 -2.001343,0c-0.456329,0 -0.898682,0 -1.32901,0c-0.420319,0 -0.832642,0 -1.238983,0c-0.802673,0 -1.202881,-0.001648 -1.604004,0.00267c-0.403198,0.004333 -0.809601,0.01387 -1.219513,0.039001c-0.415497,0.025482 -1.270844,0.097672 -2.145813,0.291656c-0.927933,0.205719 -1.881805,0.544449 -2.375015,0.729172c-0.506882,0.18985 -1.548828,0.616943 -2.625,1.104172c-1.120056,0.507111 -1.68129,0.781921 -2.248001,1.047989c-0.564301,0.264938 -1.672028,0.783447 -2.215988,1.016006c-1.517502,0.648773 -1.998901,0.811584 -2.929337,1.108002c-0.459045,0.14624 -1.402878,0.408112 -2.940002,0.828003c-0.564301,0.154144 -1.153275,0.317566 -1.762497,0.485992c-1.258194,0.347839 -1.897171,0.523254 -2.536667,0.694672c-0.633835,0.169907 -2.457245,0.63298 -3.028839,0.767334c-0.55275,0.129913 -1.60936,0.365158 -2.605835,0.580826c-0.478104,0.10347 -1.845108,0.404068 -2.718002,0.604507c-0.869095,0.199554 -1.307938,0.307205 -2.217499,0.5c-1.471237,0.311844 -2.001434,0.400772 -2.544998,0.504501c-1.127563,0.215164 -1.708328,0.325211 -2.294662,0.452667c-1.795288,0.390274 -2.392975,0.55806 -2.99234,0.729492c-1.21312,0.347 -1.820679,0.551468 -2.434662,0.76001c-0.622406,0.211411 -1.254227,0.4272 -3.185333,1.1745c-0.664368,0.257095 -1.330856,0.528198 -2.003998,0.793488c-0.674194,0.265717 -1.347763,0.528229 -2.022003,0.775513c-0.667145,0.24469 -2.629074,0.873962 -3.265991,1.037827c-0.623199,0.160339 -1.236664,0.307968 -2.440002,0.514664c-0.583527,0.100235 -1.1577,0.19429 -2.824844,0.335999c-0.533203,0.045319 -1.564682,0.092621 -2.539154,0.146667c-0.463928,0.025726 -1.75444,0.112915 -2.868332,0.327332c-0.676208,0.130173 -1.295624,0.353149 -2.514679,0.525833c-0.915802,0.12973 -1.571609,0.115112 -2.270325,0.120178c-1.171646,0.008499 -2.025665,0.001328 -2.887665,0.001328c-0.822006,0 -1.875,0 -2.808334,0c-0.900009,0 -1.733337,0 -2.712006,0c-0.774002,0 -1.732559,0.181213 -2.537338,-0.17067c-0.834946,-0.365067 -1.20343,-1.263321 -1.805496,-2.029327c-0.488419,-0.621414 -1.085983,-1.197037 -1.87883,-2.000671c-0.410217,-0.415802 -1.082458,-1.134491 -1.570328,-1.740662c-0.575577,-0.715149 -1.199081,-1.594788 -1.534668,-2.073837c-0.347153,-0.49556 -1.044693,-1.519043 -1.389343,-2.031326c-0.337997,-0.502396 -1.263824,-1.887741 -1.786499,-2.677505c-0.457779,-0.691711 -0.870468,-1.294601 -1.497498,-2.35466c-0.407684,-0.68924 -0.761932,-1.381149 -1.188004,-2.088013c-0.481491,-0.798798 -0.859833,-1.365372 -1.294998,-1.937836c-0.927979,-1.220764 -1.231506,-1.491714 -1.763657,-2.127487c-0.559097,-0.667969 -1.126328,-1.403168 -1.608002,-2.268005c-0.519363,-0.93248 -0.721313,-1.456161 -1.125,-2.520828c-0.203278,-0.536102 -0.563766,-1.609833 -0.875,-2.645836c-0.290878,-0.968246 -0.420929,-1.444221 -0.666672,-2.416672c-0.128983,-0.510422 -0.388016,-1.62513 -0.666672,-2.916664c-0.156921,-0.727348 -0.317505,-1.502632 -0.485992,-2.311501c-0.172852,-0.829796 -0.346466,-1.667847 -0.522003,-2.500496c-0.171814,-0.815018 -0.333084,-1.60054 -0.658661,-3.021339c-0.141418,-0.617165 -0.405853,-1.670784 -0.520004,-2.125328c-0.201492,-0.802292 -0.497421,-2.206245 -0.56134,-2.929337c-0.067886,-0.767921 -0.07872,-1.594635 -0.084,-2.484001c-0.005707,-0.961319 -0.001328,-1.99733 -0.001328,-2.537834c0,-1.111 0,-1.675499 0,-2.241997c0,-1.681503 0,-2.226166 0,-3.277504c0,-0.987328 0,-1.451996 0,-2.313332c0,-1.409332 0,-2.013329 0,-2.986832c0,-1.2705 0,-1.798668 0,-2.375832c0,-1.257332 0,-1.915504 0,-2.578667c0,-0.657166 0,-2.482666 0,-3.008171c0,-0.912994 0,-1.661995 0,-2.974495c0,-0.714668 0,-1.557335 0,-2.540169c0,-0.861 0,-1.330498 0,-2.302498c0,-0.956001 0,-2.205002 0,-2.871002c0,-0.848999 0,-1.953003 0,-2.925003c0,-0.694664 0,-1.389328 0,-2.651833c0,-0.781502 0,-1.490997 0,-2.464165c0,-0.804001 0,-1.625999 0,-2.893333c0,-0.664501 0,-1.685333 0,-2.485332c0,-0.799999 -0.128845,-1.817154 0.085327,-2.714668c0.212357,-0.889874 0.662186,-1.638424 1.081345,-2.485332c0.344055,-0.695168 0.995209,-1.510471 1.46933,-2.174667c0.491425,-0.688438 1.21228,-1.216282 1.882828,-1.577999c0.804138,-0.433784 1.813507,-0.913506 2.195831,-1.104668c0.850677,-0.425339 1.3228,-0.661934 2.952011,-1.475998c0.619415,-0.309498 1.274658,-0.63744 1.966492,-0.972c0.720108,-0.348228 1.468475,-0.700344 2.245499,-1.044003c0.793961,-0.351151 1.601425,-0.711338 3.28801,-1.317333c0.848907,-0.305016 1.7108,-0.567978 2.567993,-0.823498c0.846848,-0.252434 1.68277,-0.486378 2.496002,-0.724503c0.788742,-0.230953 1.557022,-0.432056 2.936005,-0.952c0.631729,-0.238194 1.202667,-0.515999 1.733994,-0.781498l0.487335,-0.266502l0.850662,-0.523998l0.698669,-0.492001" fill="#ffaaff" id="svg_1" stroke="#000000" stroke-dasharray="null" stroke-linecap="null" stroke-linejoin="null" stroke-width="5"/>
 </g>
</svg>