<?xml version="1.0"?>
<svg width="640" height="480" xmlns="http://www.w3.org/2000/svg" xmlns:svg="http://www.w3.org/2000/svg">
 <!-- Created with SVG-edit - https://github.com/SVG-Edit/svgedit-->
 <g class="layer">
  <title>Layer 1</title>
  <path d="m280.5,224.5c0.995499,1.757172 1,2.661667 1,3.46167c0,0.959991 0,1.785004 0,2.699997c0,1.005005 -0.006271,1.723801 0.010666,2.474335c0.017487,0.774872 0.043884,1.569229 0.210663,2.763672c0.110931,0.794434 0.292404,1.555969 0.494675,2.629654c0.174362,0.925522 0.262833,1.698212 0.282669,2.568008c0.023071,1.011414 0.035553,1.920395 0.167999,2.735992c0.15863,0.976837 0.343033,1.664688 0.480667,2.361343c0.248749,1.259155 0.331116,2.043503 0.34816,2.753494c0.029663,1.235489 0.004501,2.051834 0.004501,2.867828c0,0.998672 0,1.663162 0,2.684006c0,0.799988 -0.030609,1.600616 0.004501,2.600006c0.028152,0.801239 0.270615,1.805389 0.606171,2.635986c0.377884,0.935364 0.703094,1.710938 0.953323,2.538666c0.162613,0.537872 0.399048,1.771576 0.425339,2.450684c0.046265,1.195129 0.010666,2 0.010666,2.549316c0,1.303833 -0.001862,1.989349 0,2.824005c0.002258,1.005829 0.018814,1.865814 0.221329,2.822662c0.171753,0.811523 0.476929,1.615906 0.657166,2.657349c0.119583,0.690948 0.109283,1.605408 0.122833,2.604004c0.010803,0.796631 -0.015778,1.581543 0.351334,2.507477c0.288223,0.72699 0.629333,1.634705 0.647339,2.643188c0.01413,0.79187 0,1.650665 0,2.513977c0,1.048676 0,1.707336 0,2.706024c0,0.967499 0,1.645813 0,2.613312c0,1.05069 0,1.845337 0,2.833344c0,0.821503 0,1.710663 0,2.700012c0,0.799988 0,1.799988 0,2.610657c0,0.646484 0,1.876007 0,2.436005c0,0.914978 0,1.919983 0,2.634674c0,1.076996 0,1.751648 0,2.854156c0,0.950989 0,1.826996 0,2.764496c0,0.862488 0,1.520844 0,2.533325c0,0.923676 0,1.694672 0,2.563995c0,1.002686 0,1.802673 0,2.804016c0,0.834656 0,1.76532 0,2.551331c0,0.821991 0,1.880676 0,2.81134c0,0.834656 0,1.835999 0,2.635986c0,1 0,1.800018 0,2.800018c0,0.799988 0,1.799988 0,2.610657c0,0.646484 0,1.872009 0,2.668488c0,0.751495 0,1.710999 0,2.6875c0,0.854187 0,1.833344 0,2.622681c0,0.725342 0,1.799988 0,2.64267c0,1.067993 0,1.621338 0,2.588837c0,0.678314 0,1.936005 0,2.696503c0,0.794647 0,1.871979 0,2.693329c0,0.910828 0.012375,1.800079 -0.000168,2.78949c-0.010406,0.820862 -0.054108,1.491852 -0.283829,2.483826c-0.190445,0.822357 -0.486115,1.622742 -0.630676,2.629333c-0.119888,0.834747 -0.085327,1.801331 -0.085327,2.786835c0,0.785187 0,1.73584 0,2.50116c0,1.003174 0,1.634674 0,2.819855c0,0.793488 0,1.569 0,2.61084c0,0.773315 0,1.737335 0,2.488831c0,0.796478 0,2.022003 0,2.668488c0,1.010498 0,1.789825 0,2.78949c0,0.831024 0,1.790527 0,2.542023c0,0.796478 0,2.017487 0,2.817505c0,0.913483 0,1.630981 0,2.671478c0,0.775513 0,1.823517 0,2.53302c0,0.852661 0,1.857147 0,2.657166c0,0.999817 -0.05159,1.780487 0.000168,2.778473c0.042709,0.823486 0.657013,1.668945 0.878662,2.564178c0.172073,0.694977 0.036041,1.562622 0.689163,2.486664c0.461655,0.653168 1.164398,1.220093 1.653503,2.070831c0.406433,0.70694 0.916183,1.424835 1.37851,2.038513c0.618118,0.820465 1.25415,1.444031 1.452667,2.213165c0.236755,0.917267 0.706726,1.403046 1.431335,2.132172c0.514404,0.517578 1.349243,1.349426 1.880005,1.880005c0.736359,0.736115 1.319458,1.288818 2.135986,1.635986c0.836456,0.355652 1.512085,0.464142 2.447998,0.799988c1.011902,0.363098 1.660339,0.831482 2.373505,1.521332c0.51767,0.500763 1.060852,1.054962 1.878662,1.657684c0.595154,0.438629 1.293762,0.850006 2.221497,1.784821c0.563232,0.567505 1.11087,1.224609 1.425018,1.52417c0.622467,0.593597 1.659058,1.275696 2.410492,1.487854c0.751221,0.212097 1.550171,0.239105 2.742828,0.390808c0.804901,0.102386 1.621918,0.266541 2.471985,0.444c0.899292,0.187714 1.860321,0.394836 2.894684,0.588013c0.533661,0.09967 1.611969,0.283875 2.146667,0.365326c1.032349,0.157227 2.421753,0.327332 3.228668,0.378845c0.757324,0.04834 1.515991,0.054718 2.757996,0.057159c0.464325,0.000916 1.467041,0.001465 1.997345,0.010681c1.098785,0.019073 1.661163,0.017395 3.335999,0.155975c0.546356,0.045197 1.618591,0.185333 2.151978,0.258667c1.076202,0.14798 1.623535,0.230621 2.184021,0.29068c1.770111,0.189697 2.39444,0.203583 3.022491,0.226837c1.245331,0.046082 1.849457,0.048737 2.431335,0.052673c1.543457,0.010468 2.354156,0.004486 3.335175,0.004486c0.590668,0 1.905823,0 2.704163,0c0.424164,0 1.297485,0 2.170837,0c1.223328,0 2.273315,0 2.873322,0c1.150513,0 1.90863,0.032166 2.954987,-0.004486c0.80127,-0.028076 1.76886,-0.186676 2.56369,-0.442169c0.556549,-0.178894 1.634247,-0.684082 2.317505,-1.21051c0.674164,-0.51944 1.460144,-1.339874 1.855835,-1.742828c0.58493,-0.595673 1.155701,-1.17215 1.853149,-2.209015c0.434937,-0.646606 0.703583,-1.170959 1.291016,-2.033661c0.456268,-0.670074 0.969513,-1.363922 1.508972,-2.052002c0.769531,-0.981506 1.262848,-1.53598 1.927338,-2.284485c0.416351,-0.469025 1.226105,-1.437988 1.616333,-1.969025c0.576599,-0.784637 0.899384,-1.297852 1.651855,-2.24649c0.492554,-0.620972 1.076416,-1.346252 1.578003,-2.056c0.524536,-0.742188 1.05481,-1.381165 1.632996,-2.207672c0.501251,-0.716553 0.684784,-1.526001 1.110992,-2.312317c0.425781,-0.785492 0.825745,-1.316589 1.409149,-2.52951c0.285919,-0.594452 0.518555,-1.214935 0.82019,-2.18515c0.320251,-1.030121 0.50412,-1.761047 0.680481,-2.493835c0.170746,-0.70932 0.390869,-1.979553 0.506165,-2.780853c0.115662,-0.803802 0.340698,-1.74231 0.582672,-2.496002c0.274414,-0.854706 0.592926,-1.772644 0.726685,-2.257477c0.407532,-1.477173 0.483704,-1.983765 0.59549,-2.982025c0.109894,-0.981537 0.110291,-1.469604 0.192505,-2.419159c0.118256,-1.365906 0.196747,-1.802094 0.342651,-2.660004c0.144806,-0.85144 0.31955,-1.706116 0.453186,-3.046814c0.046143,-0.462952 0.092041,-1.414368 0.110809,-2.389191c0.009521,-0.493744 0.010681,-1.989319 0.010681,-2.990662c0,-0.503143 0,-1.519501 0,-2.034668c0,-1.049316 0,-2.130646 0,-3.249329c0,-0.571838 0,-1.150665 0,-2.325317c0,-0.593842 0,-1.190674 0,-2.989685c0,-0.602325 0,-1.208649 0,-2.441315c0,-0.630341 0,-1.272675 0,-1.929016c0,-2.071838 0,-2.79599 0,-3.530151c0,-0.739166 0,-1.478333 0,-2.212524c0,-0.724152 0,-1.433319 0,-3.42215c0,-0.60849 0,-1.192993 0,-2.302002c0,-0.530487 0.000671,-1.558502 0,-2.5625c-0.000671,-1.002655 -0.006958,-2.021423 -0.020844,-2.541656c-0.028625,-1.072906 -0.050018,-1.630096 -0.145813,-2.791687c-0.101959,-1.236023 -0.185242,-1.87207 -0.258667,-2.517334c-0.073914,-0.649414 -0.226013,-1.943573 -0.29068,-2.581329c-0.125092,-1.233887 -0.172638,-1.824463 -0.226837,-2.953674c-0.026031,-0.542114 -0.048828,-1.592957 -0.052673,-2.105316c-0.011353,-1.508972 -0.00238,-2.513092 -0.013489,-3.022491c-0.022858,-1.049255 -0.037567,-1.596985 -0.161652,-2.742523c-0.135101,-1.247284 -0.266602,-1.908569 -0.398682,-2.59198c-0.134827,-0.697632 -0.280212,-1.398834 -0.615997,-2.768005c-0.160858,-0.655914 -0.311554,-1.282104 -0.792999,-2.855682c-0.129547,-0.42337 -0.509705,-1.479095 -0.660004,-2.129974c-0.243622,-1.054932 -0.282227,-1.943359 -0.304504,-2.440521c-0.049408,-1.103149 -0.048096,-1.708496 -0.052673,-2.347321c-0.004822,-0.671844 -0.004486,-2.873993 -0.004486,-3.658508c0,-0.796509 0,-1.596008 0,-2.389496c0,-0.778503 0,-1.53299 0,-2.254486c0,-1.308014 0,-2.397339 0,-2.869507c0,-0.834351 0,-1.915833 0,-2.960846c0,-0.757324 0,-1.602661 0,-2.068329c0,-1.037323 0,-2.242676 0,-2.915985c0,-0.713348 0,-1.456696 0,-2.220001c0,-0.773346 0,-2.309998 0,-3.053345c0,-1.386658 0,-2.013 0,-3.147675c0,-0.524323 0,-1.527008 0,-2.021332c0,-1.550995 0,-2.115814 0,-3.331482c0,-0.648834 0,-1.323669 0,-2.023499c0,-0.723846 0,-1.470673 0,-3.029358c0,-0.808838 0,-1.630646 0,-2.458496c0,-0.826813 0,-1.64566 0,-2.449493c0,-0.78183 0,-1.534668 0,-2.925323c0,-1.205353 0,-1.743011 0,-2.708344c0,-0.845337 0,-1.958328 0,-2.990326c0,-0.718002 0,-1.516006 0,-1.960007c0,-1.582001 0,-2.199997 0,-2.856003c0,-0.688004 0,-2.136002 0,-2.884003c0,-0.755997 0,-2.26799 0,-3.012161c0,-0.729172 0,-1.438339 0,-2.122498c0,-1.273331 0,-1.852509 0,-3.300003c0,-0.694672 0,-1.479172 0,-2.218674c0,-0.988495 0,-1.858154 0,-2.843826c0,-0.518829 0,-1.573502 0,-2.604172c0,-0.959991 0,-1.839996 0,-2.639999c0,-0.720001 0,-1.926666 0,-2.714157c0,-0.832504 0,-1.843338 0,-2.641678c0,-0.858322 0,-1.736664 0,-3.004166c0,-0.762665 0,-1.461334 0,-2.424332c0,-0.908997 0,-1.813492 0,-2.429825c0,-0.964508 0,-2.000504 0,-2.731842c0,-0.74733 0,-1.863327 0,-2.925995c0,-0.668671 0,-1.646667 0,-2.305328c0,-1.037338 0,-2.141342 0,-2.890671c0,-0.741333 0.012939,-1.80455 -0.010681,-2.821335c-0.016296,-0.701614 -0.057159,-1.460602 -0.210815,-2.767838c-0.057312,-0.48764 -0.210144,-1.502228 -0.299347,-2.015335c-0.17511,-1.007187 -0.468231,-2.357224 -0.677826,-3.083496c-0.181274,-0.628128 -0.487701,-1.483093 -0.634674,-2.437332c-0.115936,-0.752823 -0.137451,-1.618515 -0.155975,-2.567993c-0.009796,-0.502609 -0.010681,-2.098679 -0.010681,-2.652847c0,-1.118332 0,-1.672485 0,-2.745819c0,-0.509171 0.007233,-1.866714 -0.001343,-2.594681c-0.01059,-0.897141 -0.061188,-1.707977 -0.282654,-2.90799c-0.128174,-0.69455 -0.308533,-1.412781 -0.432007,-2.14801c-0.233978,-1.393387 -0.249786,-2.058075 -0.309326,-2.707993c-0.123016,-1.34314 -0.257019,-2.060303 -0.399994,-2.810669c-0.147644,-0.774979 -0.322906,-1.561417 -0.453186,-2.763672c-0.085541,-0.789307 -0.107544,-1.558533 -0.117004,-2.285995c-0.016541,-1.271561 -0.004425,-2.06366 -0.004486,-2.819672c-0.000092,-1.137833 0.00412,-1.813736 -0.020844,-2.557159c-0.027008,-0.804031 -0.13324,-2.105881 -0.264496,-3.02417c-0.137512,-0.96196 -0.233337,-1.455399 -0.419159,-2.474991c-0.095703,-0.525208 -0.397125,-2.159698 -0.494171,-2.725006c-0.098663,-0.574692 -0.284058,-1.754517 -0.365326,-2.360001c-0.082458,-0.614532 -0.179504,-1.237778 -0.314514,-3.174332c-0.04599,-0.659729 -0.068451,-1.32254 -0.08548,-1.983002c-0.033447,-1.298477 -0.032867,-1.929001 -0.034668,-2.541336c-0.005005,-1.690002 -0.001343,-2.197327 -0.001343,-3.136002c0,-0.850662 0,-1.629333 0,-2.697327c0,-0.996002 0.001251,-1.646667 0,-2.988007c-0.000671,-0.715988 0.012146,-1.449158 -0.036011,-2.171997c-0.088684,-1.331451 -0.253754,-1.891708 -0.538666,-2.911995c-0.144257,-0.516525 -0.352783,-1.719223 -0.389313,-2.421333c-0.038971,-0.748749 -0.035339,-1.53067 -0.036011,-2.728172c-0.000458,-0.804329 0,-1.620667 0,-2.457001c0,-1.309494 0,-2.225494 0,-2.690994c0,-0.931 0.001129,-1.842003 0,-3.1185c-0.000671,-0.765335 0.007477,-1.483559 -0.036011,-2.184006c-0.092224,-1.48555 -0.173706,-1.893776 -0.321167,-2.75016c-0.151611,-0.880501 -0.319183,-1.744186 -0.642822,-2.89917c-0.182892,-0.652634 -0.52597,-1.488426 -0.714661,-2.351997c-0.218781,-1.001389 -0.237946,-1.801132 -0.264496,-2.627167c-0.025879,-0.80542 0.016724,-1.855316 -0.031525,-2.819504c-0.041992,-0.839607 -0.209625,-1.687012 -0.34198,-2.416496c-0.14621,-0.805878 -0.316803,-1.627983 -0.480682,-2.784836c-0.131836,-0.930641 -0.149841,-1.711143 -0.333313,-2.666664c-0.151489,-0.788918 -0.449677,-1.561508 -0.712006,-2.690506c-0.174622,-0.751549 -0.408234,-1.62883 -0.731995,-2.389496c-0.391235,-0.919197 -0.702667,-1.695671 -0.953339,-2.492004c-0.290131,-0.921707 -0.303223,-1.853592 -0.457336,-2.682663c-0.176178,-0.947662 -0.685455,-1.590385 -1.164001,-2.363998c-0.329895,-0.53331 -0.912689,-1.540047 -1.314667,-2.193832c-0.63858,-1.038628 -1.149475,-1.632759 -1.541656,-2.020836c-0.62619,-0.619629 -1.630951,-1.414017 -2.183685,-1.778664c-0.806152,-0.531837 -1.592529,-0.949593 -2.559998,-1.160004c-0.715973,-0.155716 -1.859406,-0.273094 -2.519989,-0.418503c-0.696991,-0.153427 -1.407959,-0.292259 -2.652161,-0.743332c-0.816315,-0.295937 -1.348663,-0.578407 -2.542511,-1.399498c-0.370941,-0.255112 -1.172211,-0.863342 -1.618652,-1.176003c-0.941498,-0.659355 -1.439697,-0.987923 -1.970673,-1.271996c-1.598053,-0.854977 -2.192535,-1.0117 -2.772339,-1.180504c-1.171143,-0.340961 -1.784027,-0.444702 -2.399994,-0.557999c-0.624054,-0.11478 -2.559479,-0.413792 -3.221008,-0.5135c-0.665466,-0.100296 -1.332092,-0.199329 -1.99649,-0.299999c-1.311218,-0.198677 -1.95224,-0.295551 -3.1875,-0.5c-0.590363,-0.09771 -1.7099,-0.296112 -2.240021,-0.389332c-0.999786,-0.175816 -1.916534,-0.35387 -3.151001,-0.48917c-0.744324,-0.081577 -1.483856,-0.107533 -2.261993,-0.116997c-1.346893,-0.016384 -1.86615,-0.004501 -3.004486,-0.004501c-0.609161,0 -1.238342,0 -1.882507,0c-1.313324,0 -2.626678,0 -3.272003,0c-0.637329,0 -1.895996,0 -2.521332,0c-0.625336,0 -1.884003,0 -3.166656,0c-0.654663,0 -1.317352,0 -1.986023,0c-1.347321,0 -2.021973,0 -2.694641,0c-0.668671,0 -1.986053,-0.0051 -3.268677,0.002666c-0.631378,0.003822 -1.258972,0.010715 -1.884003,0.039001c-1.253479,0.056728 -1.887512,0.103462 -3.166656,0.291664c-0.656555,0.0966 -1.982941,0.375107 -2.64801,0.53867c-0.665955,0.16378 -1.325256,0.345051 -1.975494,0.536999c-0.641754,0.189445 -2.467468,0.789528 -3.040512,0.989666c-0.559937,0.19556 -1.64711,0.584557 -2.18399,0.765335c-1.065323,0.358727 -2.150818,0.674019 -3.269333,0.956001c-0.568069,0.143211 -1.148941,0.26104 -2.290665,0.613327c-0.576797,0.177979 -1.173401,0.343437 -2.258667,0.933334c-1.122177,0.609962 -1.626648,1.052734 -2.162674,1.466667c-0.549454,0.424309 -1.099121,0.876129 -1.671005,1.327499c-0.585403,0.462036 -1.826981,1.381599 -2.497162,1.817505c-0.683167,0.444351 -1.394974,0.865906 -2.122498,1.275002c-0.730835,0.410957 -1.471802,0.80294 -2.212494,1.184998c-0.732681,0.377922 -2.167618,1.094795 -2.857346,1.440002c-0.66893,0.334793 -1.317261,0.656837 -2.539322,1.279999c-0.575607,0.29351 -1.131592,0.56543 -2.604172,1.375c-0.4384,0.24102 -1.242004,0.713997 -2,1.166664c-0.757996,0.452667 -1.147522,0.691994 -2.464172,1.421997c-0.487534,0.270309 -1.526169,0.839851 -2.056656,1.161339c-0.543015,0.329079 -1.138138,0.61972 -2.645844,1.916664c-0.511948,0.440384 -0.970749,0.947311 -1.423492,1.462502c-0.455383,0.518196 -0.886551,1.060326 -1.757996,2.136665c-0.433289,0.535156 -1.312088,1.573532 -1.773514,2.058334c-0.458679,0.481918 -1.423935,1.403633 -1.919998,1.863335c-0.503922,0.46698 -1.024414,0.936974 -1.544998,1.432495c-1.089355,1.036926 -1.637543,1.607933 -2.197327,2.198669c-0.571609,0.603218 -1.141342,1.223999 -1.716003,1.848c-0.574661,0.624001 -1.142365,1.246704 -1.716003,1.848c-1.107788,1.161179 -1.659531,1.691299 -2.199997,2.199997c-0.52829,0.497246 -1.05867,0.976006 -1.584,1.452003c-0.52533,0.475998 -1.59729,1.438438 -2.666672,2.5c-0.561234,0.557137 -1.118393,1.14872 -1.672501,1.762497c-0.559311,0.619553 -1.10437,1.25338 -1.627487,1.897507c-0.515167,0.634338 -1.02002,1.254868 -1.866669,2.50666c-0.393417,0.581688 -0.732025,1.156967 -1.042511,1.709999c-0.295959,0.527161 -0.810104,1.533943 -1.063324,2c-0.707047,1.301323 -1.234406,2.062103 -1.786163,2.762001c-0.539276,0.684067 -0.856171,0.984032 -1.608002,2.028c-0.504837,0.701004 -0.935089,1.456184 -1.356003,2.208c-0.413681,0.738914 -1.001434,1.809357 -1.410675,2.463669c-0.391251,0.625557 -0.772964,1.221344 -1.600327,2.240669c-0.395996,0.487885 -1.076553,1.214005 -1.570328,1.775665c-0.880783,1.001854 -1.201004,1.395668 -1.880005,2.232002c-0.351242,0.432617 -0.704178,0.869064 -1.381332,1.746658c-0.639908,0.82933 -1.214294,1.588654 -1.695999,2.326675c-0.467361,0.716049 -0.889206,1.484161 -1.272003,2.339996c-0.422119,0.943741 -0.603256,1.461273 -1,2.520828c-0.20166,0.538559 -0.58815,1.617172 -1,2.645844c-0.38884,0.971191 -0.601822,1.431717 -1,2.354156c-0.200912,0.465439 -0.61264,1.427765 -1,2.479172c-0.20694,0.561707 -0.604202,1.762604 -0.810669,2.386673c-0.209839,0.634262 -0.415787,1.276718 -0.6465,1.912491c-0.681473,1.877914 -0.957031,2.461334 -1.226837,3.031509c-0.527451,1.114655 -0.816391,1.6483 -1.090668,2.18399c-0.273056,0.53331 -1.064377,2.149521 -1.303497,2.706329c-0.239578,0.557892 -0.672409,1.680298 -0.859329,2.237335c-0.358948,1.069672 -0.533142,1.577591 -0.819839,2.977173c-0.161499,0.788437 -0.184677,1.513992 -0.41066,2.460495c-0.21962,0.919891 -0.714127,1.857605 -0.894501,2.208176c-0.402481,0.782272 -1.108749,2.227158 -1.358673,2.802826c-0.266373,0.613556 -0.530838,1.263824 -0.793488,1.94101c-0.268448,0.692154 -0.532303,1.394424 -0.775513,2.102997c-0.700516,2.040909 -0.871933,2.682556 -1.039154,3.289001c-0.308121,1.117432 -0.423157,1.636459 -0.661667,2.574997c-0.30162,1.186905 -0.486053,1.844742 -0.850677,2.705826c-0.254974,0.602142 -0.791656,1.645844 -1.226334,2.515167c-0.237335,0.47467 -0.731995,1.464005 -0.981323,1.962677c-0.482666,0.965332 -0.920319,1.833176 -1.279999,2.561325c-0.432587,0.875748 -0.786285,1.612869 -1.17067,2.625336c-0.315079,0.829926 -0.503189,1.418106 -0.900009,2.615005c-0.201614,0.608124 -0.417007,1.236526 -0.699997,2.270325c-0.319458,1.167053 -0.397446,1.599579 -0.610657,2.490677c-0.221313,0.924973 -0.307022,1.402817 -0.756012,2.771988c-0.291885,0.890076 -0.657822,1.731018 -0.833328,2.145844c-0.345688,0.817032 -0.845291,2.016708 -1.115997,2.822159c-0.270691,0.805405 -0.506683,1.635483 -0.636673,2.055832c-0.405746,1.312088 -0.729996,2.22551 -0.895493,2.69101c-0.331009,0.931 -0.690125,1.828781 -1.018509,3.1185c-0.19249,0.755981 -0.269531,1.461624 -0.347992,2.112c-0.1474,1.221893 -0.334732,2.133942 -0.527008,2.763c-0.206879,0.676819 -0.626083,1.791245 -0.942322,2.631668c-0.16925,0.449783 -0.522095,1.407944 -0.690674,1.919998c-0.354187,1.075851 -0.667603,2.23793 -0.803665,2.848999c-0.278351,1.250046 -0.37912,1.886322 -0.479996,2.515991c-0.09906,0.618362 -0.267075,1.801727 -0.375,2.875c-0.093094,0.925674 -0.121033,1.735001 -0.219345,2.805832c-0.094513,1.02948 -0.228241,1.745438 -0.372665,2.486176c-0.14621,0.749939 -0.337112,1.484848 -0.489334,2.890671c-0.071106,0.656662 -0.083069,1.636658 -0.085327,2.650665c-0.001602,0.718658 0,1.46933 0,2.243988c0,0.79068 0,1.989838 0,2.802841c0,0.848999 0,1.757996 0,2.242493c0,1.607834 0,2.194672 0,3.409332c0,0.613846 0,1.222687 0,2.397339c0,1.070679 0,1.998657 0,2.814667c0,0.752014 0,1.488007 0,2.66568c0,0.871307 0,1.798645 0,2.27832c0,0.981323 -0.004074,1.978668 0.001328,2.976013c0.005325,0.981354 -0.001877,1.462097 0.055832,2.388336c0.079941,1.283173 0.195908,2.055481 0.400177,2.763641c0.309341,1.072449 0.872055,2.186066 1.085495,2.593689c0.458572,0.875763 0.72052,1.327881 1.242508,2.27832c0.267517,0.487122 1.052475,1.976501 1.29332,2.478668c0.477585,0.995758 0.695602,1.500183 0.921341,2c0.451828,1.000366 0.662582,1.510712 1.421341,2.999664c0.255508,0.501404 0.800842,1.480835 1.078659,1.958679c0.541229,0.930908 0.804779,1.378052 1.578659,2.59848c0.462006,0.728607 0.897949,1.39917 1.374008,1.97702c0.681595,0.827301 1.216858,1.296051 2.026505,1.9245c0.503052,0.390472 1.588989,1.121338 2.135498,1.703003c0.59549,0.633789 1.042145,1.356537 1.427002,1.88031c0.637009,0.866943 1.35791,1.779297 1.9245,2.344849c0.574631,0.573578 1.237488,1.069092 1.605835,1.257507c1.130936,0.578461 2.045776,0.704376 2.990494,0.855988c0.494308,0.079315 1.536377,0.20874 2.604172,0.5c1.129333,0.308044 1.683975,0.556335 2.248001,0.786652c1.129089,0.46106 1.673065,0.718201 2.215988,0.946686c1.519547,0.639465 1.990662,0.816101 2.886673,1.083984c0.819687,0.245087 1.589722,0.430237 2.660828,0.561188c0.961136,0.117523 1.803009,0.119232 2.851166,0.12149c0.768005,0.001648 1.670731,0.010193 2.570679,0c0.921005,-0.010437 1.890198,-0.28775 2.504166,-0.541656c0.837875,-0.346497 1.98111,-0.781403 2.435822,-0.943665c0.992142,-0.354065 1.522675,-0.535034 2.066681,-0.725342c1.113693,-0.389618 2.229706,-0.781219 3.305328,-1.190674c0.523346,-0.199219 1.040909,-0.386597 2.005325,-0.834656c0.920959,-0.427856 1.767609,-0.904755 2.510666,-1.447998c0.707581,-0.517303 1.320786,-1.08432 1.884003,-1.632019c0.775024,-0.753662 1.438309,-1.452423 1.877335,-1.837311c0.981064,-0.860107 1.647079,-1.160156 2.325333,-1.730682c0.650055,-0.546814 1.077682,-1.325104 1.58551,-2.316162c0.312347,-0.609558 0.640717,-1.266693 1.221329,-2.221344c0.50061,-0.82309 0.888138,-1.389832 1.279831,-1.979828c0.59729,-0.899689 1.201538,-1.804291 1.634659,-2.398651c0.441467,-0.605835 1.189865,-1.496307 1.712173,-2.109009c0.535843,-0.628571 1.103485,-1.270386 1.718506,-2.424347c0.212524,-0.398773 0.534378,-1.2789 0.833328,-2.208313c0.153961,-0.478638 0.438065,-1.472473 0.833328,-2.458344c0.404419,-1.008667 0.66153,-1.492035 1.166672,-2.4375c0.244293,-0.457214 0.742889,-1.300323 1.356995,-2.398346c0.334641,-0.598358 0.757111,-1.391144 1.143005,-2.497498c0.219009,-0.627899 0.41272,-1.31192 0.642838,-2.361328c0.212158,-0.967499 0.323105,-1.789948 0.352661,-2.69632c0.032928,-1.009827 -0.061539,-1.662811 0.33783,-2.775665c0.295105,-0.822296 0.695709,-1.340424 0.961334,-1.937836c0.520706,-1.171173 0.636948,-2.085815 0.720001,-2.659515c0.190674,-1.317108 0.417755,-2.0121 0.689835,-2.68866c0.390381,-0.970749 0.689468,-1.774887 0.995499,-2.594666c0.29422,-0.788177 0.694382,-1.719376 1,-2.34816c0.489716,-1.007568 0.913361,-1.751114 1.178833,-2.583511c0.225189,-0.7061 0.561691,-1.786102 0.826508,-2.383499c0.292297,-0.659378 0.666336,-1.310974 1.051834,-2.594498c0.227844,-0.758591 0.243347,-1.666656 0.599991,-2.638504c0.283905,-0.773651 0.86412,-1.504333 1.342834,-2.157166c0.523865,-0.714417 0.868668,-1.442688 1.5,-2.36467c0.3815,-0.557129 0.906204,-1.422729 1.199997,-2.133331c0.306488,-0.741333 0.858353,-1.742279 1.242844,-2.440323c0.426666,-0.774597 0.699585,-1.622833 1.357162,-2.309006c0.587112,-0.612625 1.296249,-1.303787 1.800003,-1.800003c0.694855,-0.684433 1.547058,-1.036407 2.300003,-1.421326c0.763199,-0.390167 1.517776,-0.770264 2.299988,-1.20401c0.820145,-0.454788 1.701279,-0.622452 2.600006,-0.574661c0.803406,0.042725 1.563995,0.610672 1.97467,1.399994l0.310669,0.800003l0.515991,0.600006l0.698669,0.699997" fill="#ff0000" id="svg_2" stroke="#000000" stroke-width="5"/>
 </g>
</svg>