<?xml version="1.0"?>
<svg width="640" height="480" xmlns="http://www.w3.org/2000/svg" xmlns:svg="http://www.w3.org/2000/svg">
 <!-- Created with SVG-edit - https://github.com/SVG-Edit/svgedit-->
 <g class="layer">
  <title>Layer 1</title>
  <path d="m186.5,147.5c0.057159,-1.699997 0.572983,-2.51236 1,-3.333328c0.343384,-0.660187 0.602509,-1.487152 0.800003,-2.069336c0.405136,-1.194275 0.692261,-2.079315 0.899994,-2.640167c0.385544,-1.040909 0.84877,-1.890457 1.133331,-2.790497c0.256241,-0.810425 0.354065,-1.72171 0.624008,-2.438675c0.321243,-0.853241 0.86145,-1.7388 1.309326,-2.32666c0.458725,-0.602097 1.056137,-1.092865 1.733337,-2.234665c0.401886,-0.677628 0.458923,-1.401077 0.721664,-2.588173c0.119644,-0.540581 0.380646,-1.409561 0.945007,-2.578499c0.294586,-0.610168 0.657669,-1.189934 1.180664,-2.042831c0.485077,-0.791069 0.871475,-1.509575 1.34816,-2.295502c0.480728,-0.792587 1.045349,-1.388535 1.604507,-2.318832c0.324341,-0.539604 0.823364,-1.531654 1.179169,-2.321999c0.379593,-0.843178 0.565903,-1.680664 1.375488,-2.226166c0.650299,-0.438171 1.27478,-0.653313 1.978668,-1.461334c0.541031,-0.621056 0.93013,-1.429672 1.320007,-2.232002c0.369659,-0.760719 0.79509,-1.734558 1.325836,-2.538834c0.493546,-0.747902 0.862534,-1.440689 1.406158,-2.078499c0.683487,-0.80191 1.401413,-1.182716 2.053329,-1.873337c0.579147,-0.613533 1.382248,-0.96389 1.875671,-1.429497c0.747009,-0.704887 1.447006,-1.442497 1.971008,-1.966499c0.531998,-0.532005 1.292999,-1.293007 1.967987,-1.968002c0.585007,-0.585007 1.225342,-1.225334 1.872009,-1.872002c0.696167,-0.696167 1.210632,-1.210693 1.77916,-1.779167c0.795792,-0.795708 1.411957,-1.411392 1.867508,-1.831497c0.493439,-0.455055 1.36763,-1.188759 2.028824,-1.712166c0.675446,-0.534691 1.344299,-1.032379 2.199173,-1.718498c0.643326,-0.516335 1.287842,-1.098724 2.042831,-1.654671c0.706726,-0.520393 1.50177,-1.037834 2.290497,-1.512001c0.698746,-0.420074 1.542572,-0.80864 2.282669,-1.367996c0.674255,-0.509598 1.361465,-1.293709 1.925674,-1.819504c0.634827,-0.591599 1.367416,-1.19577 2.172989,-1.757828c0.516479,-0.360359 1.468735,-0.849854 2.264511,-1.221336c0.862381,-0.402573 1.363617,-0.864906 1.925323,-1.408997c0.806213,-0.780937 1.430328,-1.416626 1.97551,-1.791c0.626816,-0.430435 1.923721,-1.007607 2.440002,-1.198669c1.100632,-0.407318 1.679535,-0.581932 2.253326,-0.765335c1.105774,-0.353432 2.096725,-0.65976 2.899994,-0.949333c0.926544,-0.334007 1.61702,-0.612869 2.635666,-0.843002c0.661179,-0.149376 1.733231,-0.528091 2.359009,-0.89566c0.692917,-0.407005 1.362442,-0.904045 2.064011,-1.296005c1.169647,-0.653481 1.959778,-0.788902 2.650665,-1.018661c1.022461,-0.340042 1.789795,-0.845261 2.307495,-1.128006c1.027771,-0.56131 1.793488,-0.758659 2.497833,-1.277328c0.608276,-0.447914 1.271301,-1.131363 2.154816,-1.848999c0.657776,-0.534264 1.372437,-1.045898 1.742523,-1.28167c0.721466,-0.45961 1.779877,-0.98666 2.767975,-1.200001c0.875977,-0.189137 1.937927,-0.281696 2.610687,-0.533333c0.853363,-0.319183 1.631592,-0.779598 2.277649,-1.063999c0.721497,-0.317608 1.923798,-0.708027 2.609009,-0.889332c0.696228,-0.184212 2.016083,-0.44334 2.578674,-0.528c0.949524,-0.142887 1.978912,-0.513454 2.570648,-0.933334c0.608734,-0.431953 1.590515,-1.044312 2.400024,-1.128002c0.994934,-0.102859 1.814362,0.035206 2.799988,-0.188c0.612671,-0.138744 1.38446,-0.547234 2.401337,-0.749332c0.825623,-0.164093 1.771545,-0.226643 2.551331,-0.441166c0.829376,-0.228165 1.880524,-0.643188 2.590179,-0.938335c0.646362,-0.268822 1.661224,-0.558525 2.43631,-0.704498c1.006348,-0.189529 1.69809,-0.64827 2.520844,-0.833332c0.853149,-0.191895 1.544159,-0.13913 2.618652,-0.250668c1.062866,-0.110332 1.72995,-0.23872 2.634674,-0.526669c1.093964,-0.348179 1.777863,-0.714813 2.436005,-0.953331c0.995483,-0.360779 1.854218,-0.420853 2.581329,-0.52c0.875031,-0.11932 1.902252,-0.348129 2.650665,-0.526669c0.782318,-0.186626 1.9776,-0.492119 2.769684,-0.684834c0.766632,-0.186527 1.489929,-0.373634 2.475647,-0.53783c0.815643,-0.135864 1.740479,-0.1577 2.733337,-0.450668c0.816376,-0.240898 1.596832,-0.568928 2.410675,-0.690666c0.871765,-0.130402 1.873322,-0.309334 2.689331,-0.525333c0.81601,-0.216 1.814056,-0.440758 2.5,-0.479168c1.165009,-0.065239 1.957153,-0.020832 2.810669,-0.020832c0.590668,0 1.786652,0 2.647675,0c0.770996,0 1.731812,0 2.708313,0c0.854187,0 1.833344,0 2.633331,0c0.800018,0 1.800018,0 2.600006,0c1.001343,0 1.835999,0 2.766663,0c0.790497,0 1.644012,0 2.833344,0c0.600006,0 1.5,0 2.399994,0c0.90033,0 1.82135,0 2.472015,0c0.698669,0 1.870483,0 2.728821,0c0.878326,0 1.736664,0 2.89917,0c0.9375,0 1.73999,0 2.833344,0c0.634644,0 1.317322,0 2.361328,0c0.971985,0 1.799988,0 2.556,0c1.082672,0 2.059174,0 2.770172,0c0.730988,0 1.8125,0 2.817505,0c0.619995,0 1.474976,0 2.704498,0c0.646484,0 1.657318,0 2.477997,0c1.145813,0 1.93631,0 2.789825,0c0.590668,0 1.789337,0 2.689331,0c0.600006,0 1.799988,0 2.700012,0c0.599976,0 1.799988,0 2.704498,0c0.616333,0 1.580841,-0.008904 2.617004,0.0005c0.735748,0.00668 1.508057,0.011345 2.28299,0.171001c1.214294,0.250179 2.002899,0.666279 2.784821,1.115166c0.394379,0.22641 1.133453,0.746429 2.244019,1.380001c0.669861,0.38216 1.636139,0.804314 2.262146,0.967167c1.18988,0.30954 1.815887,0.298691 2.77652,0.427498c0.700684,0.093956 1.874664,0.368401 2.728821,0.648502c0.441437,0.14476 1.316101,0.466576 2.145844,0.807499c1.093872,0.449455 1.951355,0.857201 2.696991,1.178165c0.972168,0.418488 1.520203,0.60321 2.403015,0.940502c0.641602,0.245132 1.679443,0.674961 2.401489,1.021164c0.736206,0.352997 1.464966,0.711208 2.418488,1.342834c0.845062,0.559769 1.267883,1.032997 2.016022,1.429333c0.958282,0.507664 1.8974,0.5854 2.536163,0.8475c1.152466,0.472885 1.535492,0.815166 2.390991,1.491001c0.457794,0.361668 1.372467,1.145184 1.84201,1.526001c0.462555,0.375149 1.819122,1.333515 2.260162,1.566166c0.818024,0.431511 1.617889,0.703964 2.31601,1.019997c1.225494,0.554756 1.719666,0.933815 2.362976,1.524506c0.835907,0.767548 1.414703,1.413834 1.881012,1.795494c1.028503,0.841789 1.690674,1.208099 2.378662,1.589333c0.693451,0.384254 1.383148,0.721764 2.579987,1.326668c0.508789,0.257149 1.230164,0.615616 2.190857,1.205666c0.825714,0.507141 1.3992,0.911827 1.979828,1.365005c0.915131,0.714264 1.498871,1.270889 2.119507,1.813332c0.631989,0.552345 1.637512,1.345932 2.364502,1.816002c0.367737,0.237778 1.138824,0.678299 1.919159,1.136665c1.200653,0.705261 1.601929,0.959351 2.395508,1.504501c0.806641,0.554108 1.201904,0.850922 2,1.444168c0.80191,0.596077 1.597992,1.198235 2.389313,1.787994c0.389496,0.290283 1.148865,0.859947 2.244019,1.644005c0.679779,0.486687 1.341888,0.940506 1.992004,1.391998c0.659241,0.457825 1.696533,1.194595 2.056,1.457329c0.724487,0.529526 1.426605,1.049171 2.063995,1.548004c1.008484,0.789276 1.664856,1.377762 2.37616,2.090996c0.519073,0.520485 1.099609,1.12632 1.678497,1.845001c0.618073,0.767303 0.966797,1.340263 1.600006,2.064003c0.571198,0.65287 1.411011,1.232559 2,1.652c0.815857,0.581009 1.404816,1.133232 2,1.718666c0.805237,0.792046 1.405426,1.376198 1.914673,1.998665c0.633881,0.774803 0.986237,1.410812 1.283997,2.085335c0.434875,0.985062 0.682129,1.833763 1.08667,2.630669c0.397583,0.783195 0.948059,1.441422 1.461975,2.079498c0.641327,0.796265 1.097595,1.605515 1.652679,2.437836c0.47168,0.707237 1.016418,1.492958 1.299988,2.176498c0.318634,0.768036 0.700378,1.823349 0.995514,2.532997c0.268829,0.646362 0.577332,1.658073 0.704498,2.457169c0.159332,1.00119 0.424286,1.805389 0.704498,2.400002c0.475769,1.009537 0.897614,1.798943 1.295502,2.599998c0.40213,0.809608 0.726898,1.446457 1.099823,2.421669c0.312286,0.81665 0.521423,1.414597 0.733521,2.744995c0.113464,0.711754 0.128235,1.449043 0.191986,2.172005c0.117279,1.330338 0.300262,2.159393 0.585327,2.839996c0.351166,0.838364 0.841858,1.598465 1.104004,2.421341c0.30899,0.96991 0.399261,1.647263 0.860016,2.450653c0.452179,0.788467 0.424652,1.552002 0.425323,2.553848c0.00058,0.852661 -0.034424,1.818497 0.021332,2.620819c0.057343,0.825256 0.392334,1.871735 0.839996,2.549347c0.461273,0.698212 1.011139,1.372925 1.377014,2.173492c0.353699,0.773956 0.590088,1.719498 0.761658,2.551834c0.215179,1.043945 0.439301,1.746643 0.647339,2.494659c0.286682,1.030823 0.311005,1.889359 0.363342,2.841339c0.042206,0.767807 0.363892,1.751236 0.636658,2.506836c0.321625,0.890991 0.352661,1.757492 0.352661,2.627838c0,0.797333 0,1.778656 0,2.695999c0,0.791656 0,1.733322 0,2.637833c0,1.01683 0,1.695496 0,2.673996c0,0.82016 0,1.778671 0,2.678665c0,0.74733 0,1.741501 0,2.506836c0,1.083328 0,2.00267 0,2.856827c0,0.979172 0,1.768509 0,2.493835c0,0.964508 0,1.895996 0,2.806839c0,0.88916 0,1.878326 0,2.657669c0,0.854156 0,1.773499 0,2.677994c0,0.74733 0.054565,1.747223 -0.036011,2.542831c-0.115051,1.010361 -0.42746,1.814011 -0.963989,2.633331c-0.472534,0.721558 -1.172668,1.495682 -1.484009,1.936005c-0.526276,0.744324 -1.042999,1.541412 -1.494476,2.309006c-0.513306,0.872681 -0.803558,1.446838 -1.421509,2.296326c-0.584503,0.803513 -0.987305,1.476257 -1.357178,2.029831c-0.684753,1.024887 -1.263062,1.57869 -1.75882,2.195511c-0.627655,0.780899 -0.978149,1.439651 -1.453339,2.085327c-0.757355,1.029053 -1.277374,1.533127 -1.779999,2.053329c-0.478912,0.495651 -1.473785,1.419769 -1.941681,2.009506c-0.557251,0.702347 -0.908997,1.4879 -1.475647,2.251831c-0.457947,0.617371 -1.179535,1.343948 -1.812012,1.978668c-0.645508,0.647812 -1.350555,1.335556 -1.85733,1.867996c-0.577423,0.606644 -1.167603,1.317261 -1.764008,2.101501c-0.402435,0.52916 -0.955872,1.327972 -1.600006,1.908997c-0.752441,0.678741 -1.415497,1.005371 -2.201324,1.626831c-0.632385,0.500122 -1.260101,1.073624 -2.282654,1.633347c-0.529877,0.290039 -1.409851,0.628632 -2.149353,1.215988c-0.762817,0.605881 -1.088409,1.204132 -1.76532,1.813339c-0.745483,0.670929 -1.684357,0.83847 -2.567993,1.353333c-0.834259,0.486084 -1.32962,1.025223 -1.823517,1.556335c-0.701569,0.754425 -1.098602,1.565201 -1.757996,2.224838c-0.650574,0.650818 -1.514435,0.657776 -2.451843,1.161667c-0.644318,0.346344 -1.161682,0.961243 -2.000336,1.53566c-0.807709,0.553238 -1.564758,0.836716 -2.442139,1.121506c-0.654449,0.212433 -1.680664,0.471207 -2.304169,0.699997c-1.212494,0.444931 -1.834412,0.939087 -2.596344,1.300003c-0.712433,0.337463 -1.565125,0.602661 -2.457001,0.899994c-0.908081,0.302734 -1.536865,0.516998 -2.570679,0.800003c-1.166901,0.319443 -1.598694,0.395676 -2.47998,0.610657c-0.900116,0.219574 -1.791718,0.445618 -2.615997,0.756012c-0.774689,0.291718 -1.476654,0.661163 -2.481506,1.237823c-1.023285,0.587234 -1.734131,0.998795 -2.109009,1.186508c-0.757721,0.37944 -1.529144,0.757355 -2.742828,1.075668c-0.787659,0.206573 -1.582916,0.255127 -2.328003,0.383987c-1.348145,0.233154 -1.913757,0.502487 -2.671997,0.970169c-0.778381,0.480103 -1.636078,0.974854 -2.305328,1.222c-0.688354,0.254196 -1.73407,0.534058 -2.652008,0.857178c-0.798859,0.281204 -1.540039,0.623413 -2.685486,1.000168c-0.662689,0.217972 -1.384064,0.402725 -2.109009,0.656998c-1.091278,0.382751 -1.767487,0.718155 -2.41217,1.068161c-0.938416,0.509476 -1.825714,1.031433 -2.735992,1.417496c-0.593689,0.251801 -1.497772,0.562607 -2.400177,0.85701c-0.908295,0.296326 -1.529968,0.492111 -2.18515,0.614822c-1.386169,0.259628 -2.118408,0.258896 -2.817352,0.274673c-1.197083,0.027023 -2.058838,-0.098236 -2.863983,0.343994c-0.741486,0.407257 -1.175903,1.09761 -2.236023,1.497345c-0.613831,0.231445 -1.373383,0.222412 -2.565308,0.454666c-0.686188,0.133713 -1.391937,0.291183 -2.698669,0.714661c-0.567657,0.18396 -1.494995,0.622955 -2.333344,0.833344c-0.787933,0.197723 -1.62207,0.179962 -2.600006,0.523834c-0.822754,0.289307 -1.581635,0.784088 -2.399994,1.121979c-0.98056,0.404877 -1.808502,0.445129 -2.600006,0.604858c-1.014984,0.204834 -1.57785,0.576569 -2.600006,0.794495c-0.788574,0.168121 -1.80188,0.082581 -2.64267,0.142822c-0.789429,0.05658 -1.825958,0.304779 -2.694641,0.546661c-0.478973,0.133362 -1.482697,0.434875 -1.997345,0.581329c-1.013092,0.28833 -2.398376,0.625916 -3.20282,0.740845c-0.739471,0.105652 -1.465698,0.137451 -2.595856,0.276489c-0.840668,0.103424 -1.749573,0.267914 -2.229156,0.354187c-1.004211,0.180664 -1.524597,0.285522 -3.158508,0.578979c-0.560028,0.100586 -1.121857,0.2005 -2.237335,0.379333c-0.543945,0.087189 -1.584229,0.260803 -2.977142,0.399353c-0.791687,0.078735 -1.501862,0.10968 -2.46051,0.120148c-0.904266,0.009857 -1.825348,0.001343 -2.476013,0.001343c-0.698669,0 -1.870392,-0.005768 -2.724335,0.004486c-0.862091,0.010376 -1.704865,-0.069916 -3.01767,0.216858c-0.658112,0.143768 -1.479675,0.712128 -2.271332,0.777313c-0.95816,0.078918 -1.806732,0.061188 -2.801331,0.285339c-0.563416,0.126984 -1.469086,0.398682 -2.47998,0.549347c-0.71405,0.106415 -1.833221,0.152435 -2.580688,0.16217c-1.085907,0.01413 -1.770447,-0.010834 -2.773499,0.02533c-0.689514,0.024872 -1.814606,0.131866 -2.649811,0.265808c-0.90387,0.144958 -1.373749,0.243225 -2.338348,0.475006c-0.495148,0.118988 -1.992645,0.553101 -2.977509,0.886505c-0.482544,0.163361 -1.399872,0.507446 -2.257477,0.782501c-1.085175,0.348053 -1.692566,0.465851 -2.496002,0.584015c-1.092133,0.160614 -2.063843,0.330566 -2.739166,0.506165c-0.661499,0.171997 -1.74231,0.608551 -2.5,0.958313c-0.839569,0.387573 -1.771057,0.498962 -2.515503,0.516357c-1.034393,0.024139 -2.018341,-0.089264 -2.762512,0.061646c-0.921387,0.186859 -1.441803,0.742035 -2.242828,1.421997c-0.646393,0.548706 -1.529846,0.393524 -2.385345,0.542175c-0.983276,0.170837 -1.614594,0.693146 -2.363983,1.127991c-0.910919,0.528564 -1.780151,0.700317 -2.550659,1.207855c-0.793671,0.522827 -1.218445,1.124878 -1.900024,1.844147c-0.514252,0.542694 -1.020508,1.503784 -1.5,2.088837c-0.599915,0.731995 -1.240204,1.26062 -1.652649,2.009827c-0.461761,0.838806 -0.605804,1.586731 -0.65802,2.536011c-0.042236,0.767792 -0.36557,1.75061 -0.636658,2.506836c-0.324005,0.903809 -0.35199,1.711823 -0.352661,2.709167c-0.000427,0.623993 0,1.589996 0,2.68399c0,0.764008 0,1.764008 0,2.622009c0,0.641998 0,1.589996 0,2.587341c0,0.798309 0,1.716309 0,2.516327c0,0.959656 0,1.763672 0,2.585663c0,1.031006 -0.074371,1.913757 0.000336,2.931335c0.057281,0.780243 0.552307,1.520599 1.184998,2.195984c0.631714,0.674347 1.323212,1.303406 1.814667,1.992004c0.449005,0.62915 0.92514,1.384796 2.018829,1.727997c0.528381,0.165802 1.481201,0.231537 2.502838,0.548004c0.750061,0.232361 1.510529,0.585114 2.339996,0.85202c1.291748,0.41568 1.756836,0.485504 2.695496,0.59549c0.961212,0.11261 1.454071,0.116913 2.444183,0.192505c0.999268,0.076294 1.998016,0.196594 2.987976,0.342651c0.490204,0.072327 1.450745,0.244202 2.844025,0.40802c0.444397,0.052246 1.309113,0.119263 2.145813,0.145813c0.816101,0.025879 2.020844,0.020844 2.826172,0.020844c0.837341,0 1.738678,0 2.223328,0c1.638,0 2.257019,0 2.910004,0c0.681,0 2.102997,0 2.832001,0c0.733002,0 1.46402,0 2.895996,0c0.690338,0 1.362671,0 2.661346,0c0.630341,0 1.250671,0 1.863007,0c1.80899,0 2.408478,0 3.005005,0c1.171997,0 1.741486,0 2.832489,0c0.515503,0 1.906677,0 2.69101,0c0.976501,0 1.947144,0 2.895142,0c0.869354,0 1.732666,0 2.646179,0c0.879181,0 1.725006,0 2.463318,0c0.838348,0 1.736694,0 3.109192,0c0.445496,0 1.318481,0 2.1875,0c0.888977,0 2.3125,0 2.821838,0c1.062653,0 1.607971,0 2.706665,0c0.545319,0 2.11731,0 2.607483,0c0.924347,0 1.78067,0 2.576996,0c1.099518,0 2.104523,0 2.724518,0c0.85498,0 1.856323,0 2.730988,0c1.010681,0 1.810669,0 2.810669,0c0.799988,0 1.600342,0.021729 2.609009,-0.004486c0.663513,-0.017242 1.726868,-0.149536 2.709839,-0.352692c0.745697,-0.154114 1.547058,-0.34845 1.969147,-0.444153c1.33252,-0.302094 2.264038,-0.497498 2.737335,-0.588013c0.94809,-0.181305 1.887848,-0.350525 3.253174,-0.489166c0.435425,-0.04422 1.285278,-0.093384 2.11084,-0.110809c0.809204,-0.01709 2.010315,-0.010681 2.801666,-0.010681c0.767334,0 1.83844,0.015808 3.036987,-0.001343c0.709686,-0.010162 1.586182,-0.204895 2.397339,-0.573334c0.840851,-0.381927 1.721985,-0.423065 2.622009,-0.425323c0.919312,-0.002289 1.622437,0.010986 2.328644,-0.057159c1.292267,-0.124664 2.07782,-0.293732 2.903168,-0.442841c0.805969,-0.145599 1.853394,-0.338715 2.605682,-0.447327c0.767883,-0.11084 1.970062,-0.331604 2.601837,-0.488678c0.675049,-0.167816 1.984039,-0.552856 2.541321,-0.762665c0.921753,-0.347046 1.745422,-0.735809 2.639008,-0.796844c0.895081,-0.061127 1.821869,-0.002167 2.492981,-0.076477c0.676392,-0.074921 1.882538,-0.474487 2.598358,-0.928009c0.65155,-0.412811 1.63678,-0.934052 2.44165,-0.990997c0.997559,-0.070557 1.816681,0.029297 2.799835,-0.230347c0.603119,-0.159271 1.62262,-0.684631 2.425507,-0.767975c0.855469,-0.088806 1.585419,0.001709 2.574829,-0.010834c0.820862,-0.010406 1.970367,-0.150848 2.748016,-0.352509c0.7948,-0.206116 1.709961,-0.542786 2.551819,-0.626495c0.829498,-0.082489 1.750671,-0.020844 2.494659,-0.020844c1.034668,0 2.005341,0 2.805328,0c0.835999,0 1.861664,0 2.661682,0c0.959839,0 1.774323,0 2.642822,0c0.895508,0 1.786499,0 2.623505,0c0.93866,0 1.850677,0 2.772003,0c0.910675,0 1.821655,0 2.541656,0c1.125,0 1.920013,0 2.5,0c0.945007,0 1.979523,0 2.706512,0c1.090485,0 1.782501,0 2.979828,0c0.709503,0 1.751007,0 2.46933,0c1.067017,0 1.669678,0 2.698669,0c0.722656,0 1.782837,0 2.789337,0c0.675995,0 1.384003,0 2.557343,0c0.862671,0 1.757324,0 2.651978,0c0.437347,0 2.033356,0 2.722687,0c0.625336,0 1.961151,0 2.646667,0c0.834656,0 1.831482,0 2.578827,0c1.03183,0 1.978668,0 2.678009,0c0.979156,0 1.800476,0 2.749817,0c0.872009,0 1.880005,0 2.578674,0c0.682678,0 1.885498,-0.080872 2.793335,0.036011c0.849121,0.109314 1.571533,0.569336 2.457336,0.989319c0.830017,0.393524 1.297668,0.937531 1.884003,1.742676c0.527191,0.723969 0.854218,1.233429 1.630646,2.264008c0.469208,0.622803 0.997162,1.506012 1.285339,2.229309c0.312927,0.785461 0.548889,1.596252 1,2.481354c0.360321,0.707001 1.222565,1.230957 1.625336,1.867981c0.485657,0.768097 0.997681,1.713043 1.270172,2.394684c0.29361,0.734436 0.442932,1.68924 0.725342,2.473816c0.319061,0.886383 1.043427,1.498993 1.411163,2.122162c0.557434,0.944702 0.541565,1.799011 0.569336,2.797363c0.021301,0.765808 0.357788,1.684174 0.645996,2.411163c0.367126,0.925934 0.340515,1.710846 0.351318,2.507477c0.01355,0.997253 -0.039795,1.889252 0.222656,2.88269c0.21637,0.819031 0.573975,1.385254 0.721497,2.399994c0.115356,0.793365 0.05719,1.801331 0.05719,2.635986c0,0.930664 0,1.721161 0,2.574677c0,1.189331 0,2.084839 0,2.668488c0,0.83551 0,2.068176 0,2.746185c0,0.941315 0,1.989319 0,2.764832c0,0.867157 0,1.815155 0,2.780487c0,0.770996 0.005249,1.63205 -0.000183,2.528992c-0.00531,0.879089 0.074036,1.723328 -0.283813,2.731018c-0.269165,0.757874 -0.644043,1.640198 -0.777344,2.251984c-0.231079,1.060425 -0.636353,2.023895 -0.959473,2.696503c-0.319092,0.664215 -0.81427,1.519684 -1.33252,2.312836c-0.527161,0.806824 -0.885956,1.668976 -1.221344,2.380005c-0.393524,0.834229 -0.374512,1.592255 -0.477997,2.379822c-0.13559,1.031769 -0.471771,1.946716 -0.748657,2.632172c-0.402588,0.996582 -0.701843,1.788055 -0.91333,2.546661c-0.262787,0.942627 -0.819763,1.550873 -1.26001,2.216003c-0.501709,0.757996 -0.543457,1.575531 -1.02533,2.553345c-0.293854,0.596313 -0.594971,1.359985 -0.985321,2.374664c-0.310608,0.807404 -0.90567,1.449493 -1.366516,2.087006c-0.671356,0.928772 -0.889587,1.487122 -1.237488,2.277008c-0.409027,0.928711 -0.887695,1.778564 -1.731995,2.361328c-0.648346,0.44751 -1.547852,0.857635 -2.053345,1.32132c-0.552063,0.506409 -1.100433,1.354279 -1.646179,2.078674c-0.376678,0.5 -1.158234,1.385071 -1.979156,1.979156c-0.585754,0.42392 -1.411377,0.99649 -2.020844,1.5625c-0.443756,0.41214 -1.392059,1.388275 -1.93631,1.902008c-0.555084,0.523956 -1.093872,1.084259 -2.042847,1.556335c-0.860596,0.428101 -1.80835,0.505432 -2.399994,0.666656c-1.220001,0.332489 -1.794495,0.685669 -2.364014,1.018677c-1.079376,0.631134 -1.7883,1.03363 -2.574341,1.510162c-0.791077,0.479584 -1.466522,1.003937 -2.333649,1.365845c-0.87738,0.366211 -1.589325,0.799988 -2.113342,1.123993c-1.048004,0.64801 -1.751862,1.089203 -2.475983,1.403992c-1.052826,0.457672 -1.706055,0.612793 -2.389343,0.810669c-0.698059,0.202148 -2.016357,0.598969 -2.58667,0.800018c-0.846558,0.298431 -1.490112,0.529144 -2.762665,0.799988c-0.525879,0.111938 -1.724548,0.298798 -2.373322,0.389343c-0.667877,0.093201 -1.346008,0.180603 -2.025024,0.253479c-1.933258,0.207489 -2.515472,0.245148 -3.582001,0.300018c-0.496765,0.025543 -1.448944,0.050507 -2.384979,0.055817c-0.968018,0.005493 -2.002686,0.001343 -2.540009,0.001343c-1.094666,0 -1.644012,0 -2.726654,0c-1.034668,0 -1.997345,0 -2.896027,0c-0.850647,0 -1.669312,0 -2.871979,0c-0.800018,0 -1.600006,0 -2.399994,0c-1.200012,0 -1.998688,0 -2.789337,0c-0.774689,0 -1.52533,0 -2.588837,0c-0.964508,0 -1.803009,0 -2.679016,0c-0.890991,0 -1.80899,0 -2.661652,0c-0.814514,0 -1.804504,0 -2.564514,0c-0.839996,0 -1.289978,0 -2.759827,0c-0.528839,0 -1.639496,0 -2.21933,0c-1.203674,0 -1.8255,0 -3.104156,0c-0.65451,0 -1.981506,0 -2.64801,0c-0.66449,0 -1.324005,0 -1.975494,0c-1.876495,0 -2.466492,0 -3.036499,0c-1.080017,0 -2.080017,0 -2.550018,0c-1.289978,0 -2.399994,0 -3.039978,0c-0.809998,0 -1.943329,0 -2.636688,0c-1,0 -1.967499,0 -2.645813,0c-0.967499,0 -1.795502,0 -2.806183,0c-0.828003,0 -1.80899,0 -2.536316,0c-0.767334,0 -1.958344,0 -2.755676,0c-0.781342,0 -1.53067,0 -2.869324,0c-0.841522,0 -1.395844,0 -2.35733,0c-1.283356,0 -1.801361,0 -2.357361,0c-1.201996,0 -1.835999,0 -2.483978,0c-0.656006,0 -2.612518,0 -3.244019,0c-0.615479,0 -1.786499,0 -2.335999,0c-1.011993,0 -2.269653,0 -2.953003,0c-0.974976,0 -1.708313,0 -2.601654,0c-1.106659,0 -1.725006,0 -2.373322,0c-0.668335,0 -2.025024,0 -2.693359,0c-1.266663,0 -2.391998,0 -2.904663,0c-0.945313,0 -1.810669,0.001007 -3.028656,0c-0.799988,-0.000671 -1.600464,0.001282 -2.399994,-0.036011c-0.800659,-0.037354 -2.001373,-0.175354 -2.791016,-0.31665c-0.769135,-0.137634 -1.487,-0.341675 -2.766479,-0.525848c-0.798828,-0.11499 -1.605011,-0.119232 -2.542511,-0.12149c-0.757324,-0.001801 -1.618652,0 -2.567993,0c-0.502686,0 -2.098663,0 -2.653015,0c-1.12265,0 -1.682983,0 -2.237335,0c-1.074646,0 -2.541656,0 -2.977478,0c-1.177521,0 -1.904175,0.000061 -2.630859,0c-1.175812,-0.000092 -2.034302,0.002686 -2.912476,-0.020844c-0.434296,-0.011627 -1.281738,0.018036 -2.666168,-0.263153c-0.824402,-0.16745 -1.526123,-0.490845 -2.538666,-0.630676c-0.810852,-0.111969 -1.632019,-0.084656 -2.632019,-0.085327c-0.909332,-0.00061 -1.850647,0 -2.632172,0c-0.790497,0 -1.908997,0 -2.666473,0c-1.038025,0 -1.732666,0 -2.781342,0c-0.658661,0 -1.658661,0 -2.64566,0c-0.714691,0 -1.791687,0 -2.474335,0c-0.984009,0 -1.636688,0 -3.005524,0c-0.735657,0 -1.499329,0 -2.28299,0c-1.195496,0 -1.992828,0 -2.77417,0c-0.749329,0 -2.087982,0 -2.651978,0c-0.984009,0 -1.936005,0 -2.731018,0c-0.88501,0 -1.524994,0 -2.559509,0c-1.093475,0 -1.817474,0 -2.509491,0c-1.199982,0 -1.948486,0 -3.135986,0c-0.795013,0 -1.375,0 -2.320007,0c-1.034332,0 -1.756989,0 -2.81601,0c-0.64267,0 -1.830322,0 -2.863983,0c-0.669342,0 -1.434662,0 -2.43335,0c-0.799988,0 -1.798676,0 -2.742828,0c-0.90451,0 -1.823822,0 -2.678009,0c-0.979156,0 -1.789825,0 -2.43631,0c-1.22818,0 -2.06369,0 -2.647339,0c-1.195679,0 -2.106171,0 -2.731506,0c-1.330658,0 -2.049347,0 -2.799988,0c-0.774689,0 -1.565338,0 -2.763672,0c-0.791351,0 -1.558685,0 -2.286011,0c-1.271484,0 -2.053009,0 -2.762512,0c-1.237152,0 -2.072662,0 -2.656311,0c-1.195343,0 -2.084839,0 -2.659515,0c-1.069321,0 -2,0 -2.834656,0c-1.001343,0 -1.801331,0 -2.802673,0c-0.834656,0 -1.765518,-0.012817 -2.551331,0.004486c-0.822418,0.018127 -1.890289,0.128906 -2.585663,0.348175c-0.813095,0.256378 -1.835815,0.629333 -2.783173,0.647339c-0.699203,0.013306 -1.678497,0 -2.4785,0c-0.800003,0 -1.800003,0 -2.599991,0c-1,0 -1.800003,0 -2.799835,0c-0.779343,0 -1.778839,0 -2.684174,0c-0.94133,0 -1.632004,0 -2.636826,0c-1.021835,0 -1.729843,0 -2.473831,0c-1.195511,0 -1.888,0 -2.841339,0c-0.765335,0 -1.764008,0.000549 -2.563995,0c-1,-0.000671 -1.819992,0.050507 -2.800003,-0.221497c-0.823059,-0.228424 -1.393738,-0.592682 -2.395508,-1.074005c-0.742798,-0.356903 -1.670609,-0.58429 -2.571167,-0.871155c-0.687454,-0.218994 -1.434799,-0.634399 -2.433334,-1.133331c-0.600082,-0.299835 -1.611206,-0.778595 -2.379166,-1.200012c-0.867676,-0.476135 -1.397507,-0.93869 -2.0755,-1.385345c-0.971375,-0.639923 -1.622406,-0.938019 -2.269333,-1.289307c-0.625046,-0.339417 -1.762299,-0.803894 -2.305328,-1.520844c-0.576324,-0.760895 -1.132034,-1.367828 -1.42334,-2.066162c-0.362518,-0.869019 -0.588226,-1.631378 -1.24733,-2.481171c-0.458206,-0.590759 -1.248978,-1.24292 -1.699997,-1.923828c-0.540848,-0.816528 -0.749084,-1.427185 -0.947327,-2.424347c-0.165634,-0.833069 -0.824066,-1.528076 -1.254013,-2.263672c-0.382324,-0.654114 -0.632141,-1.497009 -1.282654,-2.461334c-0.479156,-0.710297 -0.925232,-1.09903 -1.494507,-2.105164c-0.434433,-0.767792 -0.654465,-1.601013 -1.121506,-2.436005c-0.443069,-0.792114 -1.016693,-1.455048 -1.399994,-2.163666c-0.523071,-0.967041 -0.853241,-1.556488 -1.142838,-2.37915c-0.343369,-0.975403 -0.26384,-1.797974 -0.793167,-2.559998c-0.552231,-0.795013 -0.997467,-1.335449 -1.206833,-2.153503c-0.299942,-1.171936 -0.290649,-1.787811 -0.382492,-2.686493c-0.122849,-1.202057 -0.23259,-1.806458 -0.495499,-2.679169c-0.254227,-0.843872 -0.697662,-1.829071 -0.958344,-2.520844c-0.255096,-0.67691 -0.45845,-1.683868 -0.5,-2.520844c-0.043655,-0.879639 -0.020828,-1.779144 -0.020828,-2.679169c0,-0.899994 0.013489,-1.800171 -0.004501,-2.699982c-0.018005,-0.90036 -0.038071,-1.507874 -0.279495,-2.700012c-0.183701,-0.907135 -0.413147,-1.491455 -0.594498,-2.699829c-0.088928,-0.592499 -0.116165,-1.464142 -0.121506,-2.533508c-0.0047,-0.941315 0,-1.619324 0,-2.587982c0,-0.804016 0,-1.626007 0,-2.895996c0,-0.703522 0,-1.452026 0,-2.650665c0,-0.682678 0,-1.381348 0,-2.698669c0,-0.828003 0,-1.584015 0,-2.666687c0,-0.635986 0,-1.328003 0,-2.418488c0,-1.081512 0,-1.762848 0,-2.727325c0,-0.616333 0,-1.820679 0,-2.710175c0,-0.853516 0,-1.88916 0,-2.574677c0,-0.834656 0,-1.840485 0,-2.693146c0,-0.96402 0,-1.757507 0,-2.53302c0,-1.044495 0,-1.929504 0,-2.995148c0,-0.725342 0,-1.514679 0,-2.304016c0,-1.044006 0,-1.998657 0,-2.761322c0,-1.002686 0,-1.636017 0,-2.648499c0,-0.967499 0,-1.795502 0,-2.806183c0,-0.828003 0,-1.799988 0,-2.494659c0,-0.694672 0,-1.956848 0,-2.717346c0,-1.115997 0,-1.944 0,-2.8255c0,-0.718475 0,-1.508972 0,-2.77182c0,-0.66449 -0.029175,-1.686249 0.010666,-2.496002c0.043137,-0.87677 0.257263,-1.87854 0.510162,-2.689331c0.171906,-0.551147 0.537109,-1.599457 1,-2.479156c0.334717,-0.636108 0.973846,-1.413452 1.479172,-2.041687c0.527298,-0.655548 1.131454,-1.657196 1.363998,-2.215149c0.357635,-0.858063 0.632935,-1.765045 0.936005,-2.659515c0.197998,-0.58432 0.482849,-1.426178 0.899994,-2.420502c0.384323,-0.916077 0.797333,-1.851685 1.104507,-2.636658c0.214462,-0.548065 0.523834,-1.39978 1.178162,-2.360657c0.458145,-0.672791 1.080017,-1.135498 1.455994,-2.072021c0.363251,-0.904846 0.3862,-1.631805 0.672012,-2.363983c0.440399,-1.128204 0.936203,-1.698334 1.489166,-2.571991c0.415817,-0.656952 0.625885,-1.546814 0.952835,-2.374176c0.300079,-0.759399 1.122498,-1.462891 1.59549,-1.957184c0.653946,-0.683411 1.055252,-1.54715 1.635834,-2.264648c0.49942,-0.617188 0.692001,-1.385193 1.380173,-2.282684c0.343491,-0.447968 1.150116,-0.942368 2.002502,-1.799988c0.556854,-0.560272 0.861191,-1.198853 1.433334,-1.9785c0.553131,-0.753738 1.284805,-1.263474 1.778656,-2.121338c0.424728,-0.737793 1.056656,-1.110138 1.604004,-1.754822c0.548615,-0.646164 1.027756,-1.435501 1.348007,-2.457336c0.247055,-0.788284 0.66214,-1.521927 1.369324,-1.973343c0.667053,-0.425797 1.285294,-1.229752 1.900009,-1.814499c0.586319,-0.557739 1.58754,-0.873505 2.099991,-1.470825c0.49733,-0.579681 0.841019,-1.663162 1.300003,-2.387665c0.534668,-0.843979 1.350052,-1.053055 2,-1.5625c0.769119,-0.602859 1.26387,-1.229721 1.982666,-1.963165c0.501221,-0.511429 1.091034,-1.409836 1.538162,-1.995178c0.542648,-0.710373 1.521912,-0.941925 2.127167,-1.320831c0.90979,-0.569565 1.638702,-0.923035 2.284012,-1.283997c0.84523,-0.472778 1.058319,-1.447006 1.76799,-2.11467c0.576385,-0.542252 1.511475,-0.833206 2.199997,-1.226669c0.818375,-0.467682 1.482559,-0.656235 2.364014,-1.017334c0.924515,-0.378738 1.552536,-0.72374 2.18399,-0.989334c1.176483,-0.494843 2.034775,-0.705261 2.821335,-1.137329c0.768387,-0.422104 1.267639,-0.807526 2.309494,-1.409164c0.696976,-0.402481 1.420181,-0.748703 2.563843,-1.121338c0.656952,-0.21405 1.353699,-0.395584 2.052002,-0.542999c1.256317,-0.265213 2.064972,-0.163956 3.138657,-0.523834c0.689102,-0.230972 1.479248,-0.764389 2.137344,-0.917328c1.045456,-0.242966 1.805435,-0.531464 2.862656,-0.749329c0.708878,-0.146072 1.642639,-0.215164 2.588013,-0.609344c0.547058,-0.228104 1.316422,-0.790268 2.412003,-1.223999c0.690399,-0.273315 1.562531,-0.30574 2.563995,-0.334656c0.731171,-0.021103 1.397034,-0.619614 2.081329,-0.973343c1.069031,-0.552597 1.858612,-0.309677 2.633331,-0.450668c0.822601,-0.149704 1.633667,-0.317322 2.723511,-0.453156c0.854126,-0.106461 1.55127,-0.097977 2.564484,-0.122833c0.800537,-0.019638 1.80246,-0.212753 2.579163,-0.498672c1.002808,-0.369156 1.716339,-0.497742 2.62085,-0.5c0.920837,-0.002289 1.889404,0.048386 2.610657,-0.035995c0.999725,-0.116974 1.766205,-0.543793 2.789337,-0.797333c0.776581,-0.192444 1.514679,-0.166 2.479156,-0.166672c0.95285,-0.000656 2.020844,0 2.574188,0c0.967499,0 1.645813,0 2.903503,0c0.760498,0 1.555145,0.001343 2.543152,0c0.984009,-0.001343 1.780762,0.091187 2.615997,-0.567993c0.60672,-0.478836 1.186157,-1.27597 1.904846,-1.390335c1.165253,-0.185425 1.979156,-0.041672 2.979156,-0.041672c0.604492,0 1.457153,0 2.421509,0c0.814484,0 1.682983,0 2.878326,0c0.595673,0 1.464172,0 2.533508,0c0.930664,0 1.766052,0.031921 2.567993,-0.00267c0.836761,-0.036087 1.77832,-0.304504 2.546844,-0.702667c0.805023,-0.417068 1.683441,-1.084579 2.510162,-1.252991c0.834534,-0.169998 1.875153,-0.031433 2.565002,-0.046173c0.870361,-0.018585 1.552948,-0.057434 2.71933,-0.216995c0.865204,-0.118362 1.758026,-0.295883 2.206665,-0.389175c0.884094,-0.183853 2.107849,-0.488525 2.836334,-0.68483c0.993225,-0.267624 1.606628,-0.451752 2.814331,-0.621826c0.597961,-0.084213 1.527191,-0.106644 2.699829,-0.525345c0.613098,-0.218918 1.451294,-0.733292 2.014832,-0.989334c0.978546,-0.44458 1.83847,-0.557327 2.801331,-0.567993c1.050598,-0.011642 1.7099,0.033356 2.717346,0c0.863586,-0.028595 1.615753,-0.607346 2.471161,-0.947327c0.826721,-0.328568 1.488068,-0.570831 2.528839,-0.886002c0.73877,-0.223724 1.705933,-0.124603 2.488159,-0.388168c0.720886,-0.242905 1.671509,-0.793015 2.467834,-1.167831c0.719269,-0.338547 1.700836,-0.478775 2.510651,-0.615173c0.928467,-0.156387 1.27948,-1.185104 1.869354,-1.710159c0.670807,-0.597076 1.65567,-0.46785 2.419983,-0.860001c0.812836,-0.417038 1.729187,-0.653595 2.410675,-0.925339c0.974579,-0.388611 1.794281,-0.591476 2.5,-1c0.795135,-0.460297 1.587982,-0.951889 2.020844,-1.520828c0.628448,-0.826019 1.305725,-1.359879 1.883667,-1.674667c0.979034,-0.533264 1.795166,-0.850571 2.573975,-1.40451c0.64325,-0.457535 1.360443,-1.173126 1.821503,-1.785324c0.548706,-0.728592 0.999664,-1.545746 1.700012,-2.11467c0.699677,-0.568405 0.960663,-1.311951 1.799988,-1.890167c0.713257,-0.491364 1.458313,-0.870361 2.184021,-1.593826c0.516785,-0.515198 1.031982,-1.031998 1.880005,-1.880005c0.635986,-0.635986 1.182739,-1.12384 1.736145,-1.957672c0.461151,-0.694794 0.770691,-1.373856 1.38385,-2.360992c0.333527,-0.536926 0.83551,-1.328461 1.494476,-2.174332c0.480896,-0.617279 1.240295,-1.153778 1.664337,-1.843002c0.505341,-0.821396 0.214661,-1.813065 0.367859,-2.699997c0.144165,-0.834747 0.843597,-1.453888 1.284821,-2.257172c0.396729,-0.722305 0.65213,-1.738998 0.693817,-2.506836c0.051544,-0.949326 0.010681,-1.936005 0.010681,-2.835999c0,-0.757172 0,-1.657166 0,-2.404495c0,-0.994171 0,-1.938339 0,-2.838333c0,-0.957169 0,-1.857178 0,-2.757172c0,-0.800003 0,-1.699997 0,-2.600006c0,-0.810654 0,-1.721329 0,-2.574661c0,-0.940002 0,-1.925507 0,-2.710663c0,-0.940002 0.22821,-1.663086 -0.036011,-2.70401c-0.220062,-0.866913 -1.269409,-1.018707 -1.879974,-1.695999c-0.582672,-0.646362 -0.804901,-1.460907 -1.284027,-2.197327c-0.517975,-0.796097 -1.168243,-1.27887 -2,-1.802673c-0.669617,-0.421692 -1.172668,-1.165909 -1.966644,-1.714661c-0.641449,-0.443344 -1.444977,-0.780121 -2.232025,-1.20134c-0.776001,-0.415314 -1.54776,-1.146698 -2.101318,-1.777832c-0.63147,-0.719955 -1.325165,-0.951401 -2.333344,-1.020828c-0.862,-0.059357 -1.551666,-0.499481 -2.5,-1c-0.654449,-0.345413 -1.45813,-0.58432 -2.5,-1c-0.713867,-0.284821 -1.338684,-0.626083 -2.366486,-0.87883c-0.769226,-0.189163 -1.661621,-0.42836 -2.279327,-1.12117c-0.651611,-0.73085 -1.310303,-1.101501 -2.083344,-1.520836c-0.925476,-0.502014 -1.491638,-0.690056 -2.156158,-0.879166c-0.745941,-0.21228 -1.569336,-0.406036 -2.902496,-0.699997c-0.926086,-0.204201 -1.394257,-0.296577 -2.317505,-0.5c-0.892731,-0.196701 -2.118225,-0.501549 -2.856018,-0.695503c-0.704895,-0.185303 -1.404633,-0.387192 -2.538666,-0.537834c-0.833923,-0.110779 -1.738495,-0.137329 -2.687988,-0.155998c-0.48761,-0.00959 -1.978668,-0.010666 -2.478821,-0.010666c-1.004333,0 -2.020691,0 -2.535858,0c-1.049316,0 -2.130676,0.004913 -3.246643,-0.00267c-0.565552,-0.003845 -1.132965,-0.000931 -2.256012,-0.069328c-0.552124,-0.033623 -2.1315,-0.246613 -2.618347,-0.370834c-0.936279,-0.238899 -1.802734,-0.574501 -2.633972,-0.908997c-0.407043,-0.163795 -1.603851,-0.641678 -2.400024,-0.886505c-0.763,-0.234627 -1.833191,-0.50692 -2.766327,-0.640167c-0.788605,-0.11261 -1.548004,-0.119247 -2.685333,-0.121498c-1.007996,-0.001991 -1.706665,0 -2.389343,0c-1.199982,0 -1.967987,0 -2.735992,0c-1.201324,0 -1.893341,0 -2.61734,0c-0.731995,0 -2.13089,0.009644 -2.789307,-0.010666c-0.978668,-0.03019 -1.993622,-0.146591 -2.709351,-0.273331c-0.743134,-0.131592 -1.483917,-0.332123 -2.949341,-0.549339c-0.678741,-0.100609 -1.330292,-0.144669 -2.262146,-0.162163c-1.204285,-0.022606 -1.804504,-0.004501 -2.704498,-0.004501c-1.200012,0 -1.798676,0 -2.679169,0c-0.83551,0 -1.834167,0 -2.674164,0c-1.089508,0 -1.946838,0 -2.732025,0c-0.940002,0 -1.947998,-0.001228 -2.73999,0c-0.859985,0.001335 -1.638489,-0.046974 -2.574493,0.442665c-0.635254,0.332314 -1.279999,1.05294 -2.164185,1.496002c-0.809753,0.405762 -1.507141,0.836624 -2.471985,1.036003c-0.75708,0.156448 -1.78125,0.360237 -2.399994,0.671997c-0.952057,0.479706 -1.716125,1.000069 -2.243164,1.353333c-0.757233,0.507545 -1.528992,1.143654 -2.269012,1.695503c-0.71521,0.533348 -1.463501,0.849388 -2.230316,1.404503c-0.757294,0.548248 -1.294983,1.23851 -1.90686,1.699997c-0.733185,0.552963 -1.542542,0.880615 -2.229309,1.68399c-0.544556,0.637024 -0.935547,1.542725 -1.557343,2.141342c-0.615692,0.592743 -1.336212,1.023285 -2.077332,1.549332c-0.920898,0.653656 -1.457214,1.064438 -2.056,1.635162c-0.752441,0.717163 -1.207581,1.184128 -1.90802,1.939499c-0.44104,0.475616 -1.000671,1.496628 -1.508331,2.350845c-0.349396,0.587921 -1.133041,1.191208 -1.757492,1.920654c-0.478256,0.55867 -0.866165,1.585587 -1.069,2.322006c-0.253815,0.921509 -0.773727,1.528214 -1.251831,2.30983c-0.418274,0.683823 -1.103638,1.535416 -1.414658,2.231339c-0.415268,0.929199 -0.32312,1.693954 -0.452011,2.615997c-0.105194,0.752472 -0.258286,1.565399 -0.40799,2.388c-0.140991,0.774734 -0.184235,2.013016 -0.509338,2.906662c-0.286118,0.786453 -0.864029,1.688019 -0.905334,2.416c-0.05603,0.98764 -0.010666,1.768509 -0.010666,2.768005c0,0.774002 0,1.678497 0,2.425827c0,0.994171 -0.048706,1.93988 0.004501,2.847336c0.042267,0.720795 0.337296,1.763184 0.606171,2.533508c0.368423,1.055527 0.658401,1.769058 0.989334,2.367996c0.548798,0.99324 1.1353,1.634995 1.314667,2.615997c0.135666,0.741959 0.084656,1.548004 0.085327,2.545334c0.00058,0.874664 0,1.88533 0,2.685333c0,1 0,1.789337 0,2.514664c0,0.964508 0,1.88533 0,2.785339c0,0.899994 0,1.800003 0,2.699997c0,0.800003 0.377823,1.804382 -0.057159,2.642838c-0.388382,0.748611 -0.799026,1.462372 -1.276169,2.190491c-0.406189,0.619843 -1.505707,0.977829 -2.292007,1.192001c-0.865631,0.235779 -1.59494,0.518219 -2.490662,1.17601c-0.539703,0.396332 -1.195297,1.13063 -1.720001,1.623993c-0.751038,0.706192 -1.552338,1.30925 -2.164001,1.653839c-0.982346,0.553406 -1.614929,0.786484 -2.342834,1.220825c-0.926727,0.552979 -1.662552,1.115524 -2.414337,1.352676c-0.91153,0.287552 -1.499481,0.576736 -2.4095,1.113998c-0.790436,0.46666 -1.291656,0.849152 -2.063995,1.263992c-0.940796,0.505325 -1.749161,0.610947 -2.783661,0.931c-0.817627,0.252945 -1.399628,0.502426 -2.285675,0.959503c-0.912201,0.470566 -1.465088,0.905289 -2.699997,1.345505c-0.587769,0.209534 -1.529007,0.321411 -2.157166,0.495834c-1.02562,0.28479 -1.73175,0.678894 -2.457504,1.113495c-0.730438,0.437408 -1.369919,0.975128 -2.617325,1.470673c-0.745743,0.296249 -1.546463,0.388809 -2.410675,0.695999c-0.671646,0.238739 -1.345093,0.587784 -2.389328,0.989334c-0.915405,0.352005 -1.7155,0.524353 -2.473343,0.55899c-1.13652,0.051941 -1.810028,0 -2.536331,0.050674c-0.76889,0.053635 -1.965408,0.268768 -2.756989,0.526321c-0.798492,0.259796 -1.556732,0.605331 -2.31601,0.864014c-1.052628,0.358627 -2.026367,0.52388 -2.866501,0.55899c-1.052612,0.043991 -1.741501,0.009003 -3.004501,0.009003c-0.733994,0 -1.556,0 -1.985001,0c-0.863998,0 -2.086334,0 -3.157333,0c-0.650665,0 -1.871994,0 -2.763,0c-0.567322,0 -1.775665,0.000244 -2.588165,0c-0.842331,-0.000259 -1.799881,0.006897 -2.520828,-0.5c-0.669983,-0.471069 -1.171204,-1.273376 -1.429337,-1.818665c-0.557846,-1.178452 -0.515793,-2.061279 -0.927826,-2.933167c-0.280838,-0.594254 -0.861633,-1.508774 -1.122009,-2.248169c-0.255417,-0.725281 -0.490433,-1.697845 -0.519501,-2.553329c-0.033997,-1.000763 0.018402,-1.645767 -0.058487,-2.703003c-0.078522,-1.079697 -0.204071,-1.764542 -0.463669,-2.722839c-0.168152,-0.620743 -0.581711,-1.819611 -0.774673,-2.411835c-0.272308,-0.835754 -0.609711,-1.766251 -0.693832,-2.687653c-0.076614,-0.839264 -0.010666,-1.754669 -0.010666,-2.682678c0,-0.790497 0,-1.817169 0,-2.50267c0,-0.834656 0,-1.8405 0,-2.693161c0,-0.964325 0,-1.778824 0,-2.647339c0,-1.195328 0,-1.790985 0,-2.6595c0,-1.069321 0,-1.989319 0,-2.749329c0,-0.986664 0,-1.807999 0,-2.661331c0,-0.942673 0,-1.794662 0,-2.593338c0,-0.981323 -0.000534,-1.898666 0,-2.711166c0.000671,-1.006165 -0.04863,-1.751175 0.221497,-2.720825c0.229233,-0.82283 0.786133,-1.79628 1.074005,-2.395508c0.356857,-0.742828 0.672256,-1.655304 0.704498,-2.737823c0.019867,-0.667236 -0.114929,-1.680359 0.352661,-2.504166c0.39592,-0.69754 0.594986,-1.402664 0.868835,-2.362503c0.23436,-0.821396 0.560638,-1.409897 1.083008,-2.400009c0.31987,-0.606277 1.012909,-1.602982 1.510162,-2.189331c0.471954,-0.556519 1.080002,-1.457993 1.518661,-2.377335l0.376511,-0.490494l0.641998,-0.74733" fill="#7fff00" id="svg_1" stroke="#000000" stroke-dasharray="null" stroke-linecap="null" stroke-linejoin="null" stroke-width="5"/>
 </g>
</svg>