<?xml version="1.0"?>
<svg width="640" height="480" xmlns="http://www.w3.org/2000/svg" xmlns:svg="http://www.w3.org/2000/svg">
 <!-- Created with SVG-edit - https://github.com/SVG-Edit/svgedit-->
 <g class="layer">
  <title>Layer 1</title>
  <path d="m245.5,35.5c0,1.825333 0,2.833332 0,3.695499c0,0.825333 0,1.788502 0,2.651833c0,0.8955 0,1.852669 0,2.752666c0,0.900002 0,1.657169 0,2.55267c0,0.863331 0,1.8265 0,2.747334c0,0.904499 0,1.766666 0,2.599998c0,0.9785 0,1.798668 0,2.700001c0,0.820831 0,1.784 0,2.647331c0,0.8955 0,1.852669 0,2.752666c0,0.900002 0,1.657169 0,2.55267c0,0.863331 0,1.826496 0,2.747334c0,0.904495 0,1.766663 0,2.599998c0,0.9785 0,1.798668 0,2.636002c0,1.016663 0,1.711334 0,2.738663c0,0.946671 0,1.625336 0,2.741333c0,0.768005 0,1.720001 0,2.485336c0,0.994164 0,1.741501 0,2.783997c0,0.948006 0,1.624504 0,2.400002c0,1.048004 0,1.968002 0,2.728004c0,0.986664 0,1.972 0,2.697334c0,0.989166 0,1.953331 0,2.903999c0,0.88533 0,1.642494 0,2.537994c0,0.863335 0,1.8265 0,2.747337c0,0.900002 0,1.799995 0,2.699997c0,0.900002 0,1.700005 0,2.599998c0,0.900002 0,1.800003 0,2.700005c0,0.900002 0,1.799995 0,2.699997c0,0.900002 0,1.657166 0,2.557167c0,0.747337 0,1.741501 0,2.685669c0,0.904495 -0.073624,1.828934 0.020828,2.657166c0.113174,0.992401 0.563766,1.584763 0.979172,2.5c0.361343,0.79612 0.914963,1.487389 0.998672,2.300003c0.092209,0.895256 -0.000519,1.819542 0.426666,2.599998c0.451691,0.825226 0.640121,1.575653 0.927322,2.605331c0.208603,0.747871 0.544418,1.652214 0.626511,2.452995c0.096054,0.936981 0.020828,1.846176 0.020828,2.708344c0,0.833328 0,1.811829 0,2.631989c0,0.901337 0,1.801346 0,2.70134c0,0.91066 0,1.821503 0,2.520828c0,0.979172 -0.056702,1.788345 0.085327,2.579178c0.182205,1.014542 0.698257,1.71019 0.878677,2.763992c0.158081,0.923264 0.035995,1.835999 0.035995,2.736008c0,0.899994 0,1.699997 0,2.599991c0,0.841675 0,1.842667 0,2.550674c0,0.743988 -0.074417,1.953339 0.085327,2.631989c0.229614,0.975464 0.750443,1.608902 0.893845,2.61734c0.13855,0.974411 0.020721,1.674667 0.020828,2.742828c0.000092,0.85701 0.549149,1.427673 0.942841,2.118835c0.47583,0.835358 0.057159,1.638336 0.057159,2.617004c0,0.905334 0,1.85733 0,2.622665c0,0.994171 0,1.741501 0,2.773331c0,0.947006 0,1.667007 0,2.792007c0,0.781494 0,1.571991 0,2.5c0,0.911987 0,1.754669 0,2.666656c0,0.928009 0,1.718506 0,2.74501c0,0.674988 0,1.75499 0,2.582993c0,0.881332 0,1.838669 0,2.570663c0,0.953674 0,1.968002 0,2.868332c0,0.714005 0,1.667679 0,2.399673c0,1.166672 0,1.979172 0,2.821335c0,0.853333 0,1.793335 0,2.778671c0,0.899994 0,1.657166 0,2.557159c0,0.74733 0,1.741501 0,2.685669c0,0.899994 0,1.857162 0,2.757172c0,0.899994 -0.01799,1.70018 0,2.599991c0.018005,0.900543 0.589142,1.617935 0.878494,2.400009c0.315125,0.85173 0.121506,1.699997 0.121506,2.599991c0,0.900009 -0.157104,1.81572 0.010666,2.699997c0.179459,0.945923 0.904297,1.587402 0.988007,2.400009c0.092209,0.895264 0.001328,1.835999 0.001328,2.685333c0,0.725327 0,1.91333 0,2.678665c0,0.950668 0,1.835999 0,2.636002c0,0.835999 0,1.852661 0,2.547333c0,1.016663 0,1.957169 0,2.819336c0,0.833328 0,1.811829 0,2.631989c0,0.901337 0,1.801346 0,2.722168c0,0.963165 0,1.653839 0,2.726501c0,0.919342 0,1.75267 0,2.585999c0,0.919342 0,1.819336 0,2.514008c0,1.016663 0,1.952667 0,2.852661c0,0.900009 0,1.800003 0,2.600006c0,0.899994 0.001648,1.819443 -0.425339,2.599991c-0.450623,0.82373 -0.574661,1.766678 -0.574661,2.425339c0,1.008011 0,1.870163 0,2.774673c0,0.920837 -0.201645,1.755646 0.035995,2.538666c0.271362,0.894165 1.170319,0.32605 2.064178,-0.017181c0.741531,-0.284729 1.744888,-0.026764 2.415817,-0.206818c1.039307,-0.2789 1.785889,-1.051605 2.484009,-1.393829c0.813049,-0.39856 1.652893,-0.468384 2.482666,-0.806183c0.842651,-0.343048 1.286713,-1.212341 1.803986,-1.91333c0.469879,-0.636765 1.538269,-0.77504 2.22934,-0.800003c1.004456,-0.03627 2.032501,-0.204437 2.73468,-0.437332c0.750732,-0.249008 1.566132,-0.741348 2.399994,-1.127991c0.858063,-0.397858 1.599548,-0.416656 2.581329,-0.434677c0.958008,-0.017578 1.934662,-0.001328 2.593353,-0.001328c1.007996,0 1.99411,0.41481 2.817474,-0.057159c0.687927,-0.394333 1.15625,-1.000305 2.014343,-1.652679c0.580872,-0.44162 1.331238,-1.140869 1.938324,-1.53299c0.733948,-0.474075 1.658203,-1.045364 2.203186,-1.557175c0.624725,-0.586716 1.377319,-1.185394 2.026672,-1.610657c0.70108,-0.459137 1.418121,-1.249176 1.799988,-1.800003c0.689026,-0.993866 1.157227,-1.61615 1.721985,-2.074997c0.838562,-0.68132 1.778717,-0.905182 2.352692,-1.418839c0.746552,-0.668106 1.196198,-1.170181 1.948151,-1.948166c0.497803,-0.515045 0.957275,-1.421555 1.519836,-2.145996c0.562897,-0.724869 1.403259,-0.931519 2.074829,-1.505844c0.610992,-0.522507 1.130676,-1.536865 1.557159,-2.211502c0.471405,-0.745682 1.170593,-1.516571 1.720856,-1.983994c0.762512,-0.64772 1.55191,-0.936539 2.3125,-1.666672c0.458466,-0.440094 0.771576,-1.249481 1.471161,-2.076157c0.519348,-0.613693 1.363617,-1.031494 2.042816,-1.457169c0.917633,-0.575119 1.389252,-1.093689 1.854004,-2.069336c0.351196,-0.737228 0.484802,-1.32489 1.120178,-2.309174c0.464844,-0.720093 1.082886,-1.317108 1.87851,-2.121658c0.399933,-0.404404 1.024384,-1.015396 1.799988,-1.966507c0.413269,-0.50679 0.994293,-1.33754 1.399994,-1.880661c0.591766,-0.792221 1.196014,-1.508011 1.835999,-2.177994c0.443512,-0.46431 1.185333,-1.196014 1.716675,-1.727341c0.547333,-0.547333 1.094635,-1.094681 2.125824,-2.125839c0.464355,-0.46434 1.111511,-1.110153 1.921509,-1.921494c0.40033,-0.401001 1.016937,-1.005936 1.600006,-1.685333c0.618347,-0.72049 1.184601,-1.541443 1.600006,-2.053329c0.772064,-0.95137 1.392731,-1.469513 2.03598,-1.876007c0.914703,-0.578064 1.709473,-1.037872 2.243164,-1.364502c0.747772,-0.457657 1.82428,-0.745605 2.520844,-1.354156c0.640198,-0.559296 0.898438,-1.597046 1.5,-2.125c0.702942,-0.616928 1.769318,-0.352783 2.600006,-0.763168c0.690582,-0.341156 1.14682,-1.193924 1.870667,-1.493164c0.98819,-0.408524 1.852905,-0.291458 2.432007,-0.369339c1.201996,-0.161652 2.081207,-0.422882 2.640167,-0.620499c1.045135,-0.369492 1.921661,-0.817596 2.555817,-1.010162c0.992065,-0.301239 1.919067,-0.315796 2.73468,-0.452011c0.981323,-0.163879 1.689423,-0.346649 2.418488,-0.537827c1.084503,-0.284378 2.092926,-0.600357 2.748169,-0.774673c0.650269,-0.172989 2.020081,-0.413376 2.748169,-0.463669c0.730164,-0.050446 1.441986,-0.054901 2.709167,-0.057159c0.791992,-0.001404 1.548004,0.003586 2.685669,-0.000168c0.671326,-0.002213 1.399658,-0.003647 2.165985,-0.056992c1.193146,-0.083054 1.989716,-0.219437 2.769684,-0.368179c1.109039,-0.211502 2.084808,-0.435043 2.906982,-0.517502c0.691101,-0.069305 1.714508,-0.057159 2.535187,-0.057159c1.145813,0 1.927338,0 2.717834,0c0.927979,0 1.761322,0 2.804169,0c0.718475,0 1.508972,0 2.535828,0c0.921326,0 1.605316,0 2.604004,0c0.796478,0 1.983978,0 2.775665,0c0.94165,0 1.846161,0 2.708313,0c0.833344,0 1.825012,0.095215 2.585999,-0.057159c0.930237,-0.186264 1.664917,-0.553879 2.490173,-1.247345c0.615479,-0.517197 1.034454,-1.374817 1.429169,-1.906158c0.614105,-0.82663 1.328003,-1.398285 1.848846,-1.768509c0.782257,-0.556061 1.81427,-1.09845 2.416656,-1.5c0.855774,-0.57045 1.101868,-1.324783 1.634491,-2.006165c0.614563,-0.786194 1.093536,-1.144928 2.113342,-1.91333c0.539215,-0.406296 1.102173,-0.808258 2.314667,-1.434662c0.588196,-0.303879 1.489838,-0.644104 2.042847,-0.919342c1.057617,-0.526367 1.723999,-1.057907 2.295502,-1.594666c0.795624,-0.747269 1.357147,-1.34816 1.961639,-1.952667c0.700012,-0.700012 1.342163,-1.307159 1.799835,-2.021332c0.419495,-0.654602 0.494476,-1.849854 1.069519,-2.391998c0.668091,-0.629883 1.851074,-0.399658 2.619995,-0.722672c0.748749,-0.314545 1.45639,-0.86087 2.210663,-1.563995c0.602325,-0.561508 1.34024,-0.876602 2.333344,-1.333328c0.697845,-0.320938 1.143646,-0.708252 1.898651,-1.098679c1.077209,-0.557053 2.089508,-0.567993 2.788849,-0.567993c0.979156,0 1.78833,0.056702 2.579163,-0.085327c1.014526,-0.182205 1.712067,-0.683044 2.651825,-0.857513c1.064819,-0.197678 1.766998,-0.057159 2.605499,-0.057159c0.630676,0 1.664337,0 2.789337,0c0.799988,0 1.214996,0 2.519989,0c0.917358,0 1.858673,0 2.333344,0c0.947327,0 2.333344,0 3.214661,0c0.849335,0 1.264496,0 2.080841,0c1.204498,0 2.003632,0.016983 3.183655,-0.020828c0.76413,-0.024475 1.85788,-0.126175 2.532837,-0.263168c0.931396,-0.189026 1.700195,-0.514114 2.673676,-0.658844c0.906494,-0.134766 1.633423,-0.095108 2.584991,-0.341156c0.775177,-0.200439 1.62677,-0.464325 2.529175,-0.594666c0.885468,-0.127884 1.757568,-0.101135 2.778656,-0.342834c0.698975,-0.165451 1.520569,-0.579041 2.321503,-0.9785c0.800415,-0.399216 1.794891,-0.910156 2.389343,-1.189331c0.719574,-0.337921 1.824615,-0.589569 2.610657,-1.036011c0.725189,-0.41188 1.633484,-0.699356 2.200012,-1.185333c0.743256,-0.637558 1.125916,-1.431305 1.484009,-2.189331c0.357239,-0.75618 1.219635,-1.335678 1.978485,-1.699997c0.694427,-0.333405 1.57782,-0.608627 2.598846,-0.899994c0.72229,-0.206116 1.459747,-0.387024 2.516998,-0.70018c0.662445,-0.196228 1.610016,-0.469803 2.654999,-1.066498c0.5,-0.285507 1.104248,-0.8759 1.76532,-1.263992c0.946564,-0.55571 1.985901,-0.516815 2.76535,-1.005341c0.720276,-0.451431 1.227875,-1.145172 2.135986,-1.563995c0.797668,-0.367889 1.662354,-0.85556 2.335999,-0.97467c0.761292,-0.134598 1.786804,-0.328918 2.506836,-0.729828c0.940704,-0.523788 1.673706,-0.715027 2.299988,-1.405334c0.634583,-0.699463 0.079285,-1.759872 -0.742981,-1.890335c-0.780029,-0.123764 -1.75,-0.392365 -2.415833,-0.801163c-0.884613,-0.543137 -1.413635,-1.284454 -2.084015,-1.762665c-0.736084,-0.52507 -1.51123,-0.871399 -2,-1.621338c-0.511871,-0.785385 -0.989624,-1.389526 -1.899994,-1.814667c-0.795898,-0.371689 -1.662354,-0.85556 -2.335999,-0.97467c-0.761292,-0.134598 -1.750244,-0.402573 -2.506836,-0.672668c-1.009949,-0.360535 -1.806213,-0.733429 -2.542511,-1.068665c-0.733307,-0.333878 -1.733917,-0.307022 -2.513336,-0.569336c-0.788147,-0.265259 -1.679657,-0.99469 -2.334656,-1.278656c-0.891266,-0.386383 -1.606232,-0.358307 -2.399994,-0.410675c-0.872894,-0.057587 -1.789917,-0.080383 -3.144836,-0.246658c-0.435089,-0.053391 -1.263824,-0.207458 -2.402985,-0.42601c-0.984924,-0.188965 -1.818207,-0.298248 -2.605499,-0.377991c-0.566803,-0.057419 -1.965668,-0.256851 -2.789337,-0.400009c-0.424164,-0.07373 -1.262787,-0.2435 -2.424011,-0.40799c-0.926239,-0.131195 -1.899261,-0.16655 -2.700012,-0.388c-0.816498,-0.2258 -1.793976,-0.657227 -2.610657,-0.742668c-0.643738,-0.067352 -1.873322,-0.036003 -2.689331,-0.036003c-0.81601,0 -1.819824,0.073914 -2.65332,-0.036003c-0.838989,-0.110641 -1.518341,-0.634995 -2.610687,-1.063828c-0.582153,-0.228539 -1.230865,-0.401001 -2.18399,-0.614838c-0.992523,-0.222679 -1.934204,-0.253578 -2.898682,-0.295998c-0.61615,-0.0271 -1.837921,-0.271057 -2.378662,-0.414665c-0.822906,-0.218544 -1.854919,-0.440773 -2.753815,-0.574669c-1.023071,-0.152397 -1.836243,-0.38829 -2.535522,-0.801331c-0.759888,-0.448837 -1.411194,-1.298607 -2.026978,-1.677834c-0.917725,-0.565178 -1.714844,-0.452141 -2.453003,-0.573502c-1.045197,-0.171844 -1.483948,-0.886856 -2.058014,-1.590164c-0.478241,-0.585938 -1.493134,-0.794441 -2.197998,-1.20784c-0.747345,-0.438309 -1.639679,-0.824364 -2.440338,-1.197495c-0.875122,-0.407837 -1.483551,-1.110802 -1.96167,-1.609001c-0.706482,-0.736145 -1.307587,-1.555527 -1.721985,-2.121498c-0.488159,-0.66671 -1.46637,-1.135406 -2.226654,-1.304001c-0.803528,-0.178185 -1.650604,-0.470108 -2.377167,-1.23867c-0.579376,-0.612862 -0.986847,-1.540611 -1.542358,-2.178665c-0.609497,-0.700027 -1.131866,-1.152626 -1.826477,-1.847336c-0.631378,-0.63147 -1.295227,-1.300476 -1.819336,-1.986c-0.507507,-0.663834 -0.839569,-1.198349 -1.434662,-1.984001c-0.584534,-0.771751 -1.141205,-1.497215 -1.798676,-1.963829c-0.929565,-0.659729 -1.816223,-0.591911 -2.716003,-1.004166c-0.692993,-0.317505 -1.399567,-0.873611 -2.094666,-1.386665c-0.828522,-0.611534 -1.384796,-1.328857 -1.768494,-1.807167c-0.535492,-0.667534 -1.424927,-1.394173 -2.354187,-1.854172c-0.700897,-0.346962 -1.21817,-0.708366 -1.832825,-1.018494c-1.332916,-0.672539 -2.081238,-0.905235 -2.833832,-1.106506c-0.742615,-0.198601 -1.831451,-0.392754 -2.514679,-0.456329c-0.962463,-0.089569 -1.580841,-0.076141 -2.785309,-0.085503c-0.900055,-0.006996 -1.50769,0.021797 -2.700012,-0.166496c-0.903412,-0.14267 -1.472137,-0.362579 -2.314667,-0.549339c-1.215027,-0.269325 -2.023682,-0.281746 -2.928162,-0.283997c-0.857178,-0.002136 -1.757172,0 -2.557159,0c-0.957184,0 -1.86618,0 -2.718842,0c-0.814514,0 -1.795502,0 -2.522827,0c-0.767334,0 -1.958344,0 -2.757019,0c-0.790649,0 -1.565338,0 -2.315979,0c-1.397339,0 -2.028015,0 -2.866516,0c-1.052155,0 -1.881317,0 -2.782837,0c-0.911987,0 -1.560059,0.012779 -2.735992,0c-0.958527,-0.010422 -1.829315,-0.20388 -2.520844,-0.520836c-0.990967,-0.454208 -1.556366,-0.832825 -2.37915,-1.121994c-0.979218,-0.344147 -1.842529,-0.344627 -2.766663,-0.523834c-0.792938,-0.15377 -1.598572,-0.45018 -2.666687,-0.666672c-0.699921,-0.141861 -1.564606,-0.086006 -2.541321,-0.602661c-0.859467,-0.454628 -1.458435,-0.969582 -2.029846,-1.264c-0.989227,-0.509697 -1.785309,-0.860161 -2.573975,-1.399834c-0.633148,-0.433258 -1.434143,-0.748955 -2.321503,-0.904671c-0.928619,-0.162956 -1.447388,-0.856758 -2.121338,-1.3955c-0.852722,-0.681641 -1.594299,-0.891235 -2.364014,-1.236c-0.536194,-0.240166 -1.538269,-0.836708 -2.193817,-1.363998c-0.628235,-0.505325 -1.420685,-1.112808 -2.184845,-1.589333c-0.815735,-0.508682 -1.427979,-1.00798 -2.140503,-1.715164c-0.583008,-0.578644 -1.1586,-1.203629 -1.906158,-1.870171c-0.767334,-0.684166 -1.3927,-1.055405 -2.132172,-1.520836c-0.780365,-0.491173 -1.289246,-1.075905 -2.057159,-1.693832c-0.747955,-0.601868 -1.583527,-0.64962 -2.366669,-0.897331c-0.965668,-0.30545 -1.810333,-0.838074 -2.136017,-1.528c-0.424713,-0.899712 -0.836029,-1.630524 -1.454498,-2.132668c-0.70459,-0.57206 -1.530396,-0.610161 -2.342834,-1.162498c-0.704346,-0.478851 -0.970734,-1.335068 -1.783997,-2.003502c-0.632629,-0.51997 -1.691986,-0.643833 -2.515991,-1.053333c-0.713531,-0.354603 -1.309967,-1.166351 -1.825348,-1.647999c-0.676147,-0.631893 -1.548737,-1.121483 -2.496155,-1.185665c-0.698975,-0.047352 -1.70752,-0.290596 -2.273987,-0.709503c-0.792145,-0.585815 -1.381073,-1.270603 -1.993835,-1.879498c-0.712952,-0.708431 -1.274078,-1.231754 -2.236023,-1.374668c-0.997681,-0.148224 -1.822296,-0.005165 -2.658661,-0.321331c-0.714111,-0.269947 -1.436829,-0.900497 -2.211487,-1.357502c-0.758118,-0.44725 -1.608246,-0.710274 -2.304504,-1.357166c-0.603271,-0.560501 -1.439667,-0.737804 -2.295502,-1.004501c-0.776825,-0.242073 -1.244476,-1.248978 -1.889832,-1.559498c-0.896606,-0.431408 -1.707581,-0.496342 -2.640015,-0.861336c-0.697754,-0.273136 -1.687897,-0.504017 -2.47464,-0.92733c-0.843079,-0.453625 -1.534546,-0.450714 -2.400024,-0.704502c-0.877441,-0.25729 -1.657654,-0.764591 -2.501312,-1.228165c-0.610138,-0.335258 -1.429382,-1.058132 -2.145996,-1.357502c-0.872772,-0.364597 -1.689331,-0.683292 -2.452667,-1.073166c-0.752899,-0.384548 -1.685303,-0.298836 -2.261353,-0.894669c-0.655548,-0.678082 -1.296906,-1.013199 -2.302673,-1.363998c-0.841675,-0.293564 -1.427307,-0.765846 -2.271973,-1.050667c-0.840118,-0.283287 -1.681305,-0.736847 -2.606842,-0.9175c-0.842987,-0.164543 -1.49588,-0.502361 -2.114349,-1.004501c-0.70459,-0.57206 -1.62915,-0.964767 -2.342834,-1.048164c-0.893921,-0.104458 -1.917786,0.421291 -2.779144,-0.046169c-0.716125,-0.388641 -0.581787,-1.596058 -1.382172,-1.886333c-0.91626,-0.332302 -1.95813,0.342831 -2.781509,-0.129166c-0.687881,-0.394329 -1.357162,-0.942833 -2.157166,-0.942833c-0.899994,0 -1.800018,0.005398 -2.699997,0c-0.889374,-0.005333 -1.520828,-0.5 -2.209839,-0.942833l-0.807495,-0.055832" fill="#ff0000" id="svg_1" stroke="#000000" stroke-dasharray="null" stroke-linecap="null" stroke-linejoin="null" stroke-width="5"/>
  <path d="m245.5,34.5c-1.699997,0 -2.600006,0 -3.5,0c-0.899994,0 -1.800003,0 -2.699997,0c-0.900009,0 -1.838257,-0.17355 -2.600006,0.085335c-0.887909,0.301762 -1.599457,0.896664 -2.5,0.914665c-0.899811,0.01799 -1.848892,-0.169979 -2.699997,0.166668c-0.702652,0.277927 -1.535934,0.566822 -2.290161,0.885998c-0.868668,0.367607 -1.424316,1.239979 -2.061676,1.647335c-0.768524,0.491196 -1.416275,1.132828 -2.058823,1.700001c-0.723602,0.638718 -1.518753,0.890766 -2.020004,1.485332c-0.685455,0.813068 -0.47644,1.957726 -0.605331,2.739998c-0.145294,0.881878 -0.658997,1.514172 -0.878677,2.489334c-0.195465,0.867691 -0.117096,1.706066 -0.369324,2.653336c-0.196381,0.737507 -0.532257,1.446045 -0.680008,2.559998c-0.114929,0.866486 -0.035995,1.838669 -0.035995,2.672001c0,0.9785 0,1.695499 0,2.599998c0,0.900002 0,1.800003 0,2.700001c0,0.900002 0,1.799999 0,2.700001c0,0.885334 0,1.825333 0,2.515999c0,0.963165 0.000656,1.884003 0,2.784004c-0.000671,0.901329 -0.163254,1.868011 -0.425339,2.52533c-0.402756,1.010109 -0.569321,1.79995 -0.574661,2.658669c-0.005356,0.863319 0.148438,1.812866 -0.221329,2.615997c-0.358475,0.778595 -0.770508,1.600021 -0.778671,2.5c-0.007355,0.810707 -0.228317,1.718513 -0.5,2.400002c-0.388519,0.974564 -0.499329,1.798668 -0.5,2.699997c-0.000687,0.936005 0,1.784004 0,2.647339c0,0.8955 0,1.852661 0,2.752663c0,0.900002 0,1.700005 0,2.599998c0,0.936005 0,1.784004 0,2.647339c0,0.899994 0,1.819328 0,2.652664c0,0.9785 0,1.798668 0,2.699997c0,0.900002 0,1.800003 0,2.700005c0,0.900002 0,1.799995 0,2.699997c0,0.900002 0,1.657166 0,2.552666c0,0.863335 0,1.8265 0,2.747337c0,0.904495 0,1.766663 0,2.599998c0,0.978668 -0.039734,1.753746 0.004501,2.652664c0.042618,0.866058 0.447525,1.697205 1.095337,2.447502c0.557022,0.645149 0.867615,1.555672 0.89566,2.304337c0.037216,0.993477 0.004501,1.759499 0.004501,2.710167c0,0.985329 -0.168167,1.921768 0.085327,2.685333c0.256348,0.772163 0.929031,1.558327 1.414673,2.220833c0.484222,0.660576 0.499329,1.496498 0.5,2.458336c0.000641,0.920822 0,1.820831 0,2.720825c0,0.900177 0,1.685333 0,2.625336c0,0.690674 -0.167297,1.783401 0.020828,2.674667c0.178879,0.847427 0.917023,1.592377 0.977844,2.300003c0.077087,0.896683 0.001328,1.871994 0.001328,2.742661c0,0.708008 0,1.689331 0,2.643005c0,0.914337 -0.173553,1.852585 0.085327,2.614334c0.301758,0.887909 0.896667,1.599457 0.914673,2.5c0.01799,0.899811 0,1.800171 0,2.585327c0,0.940002 0,1.947998 0,2.70401c0,0.91066 0,1.810654 0,2.710663c0,0.901337 -0.061661,1.870499 0.020828,2.699997c0.083725,0.841843 0.726166,1.528015 0.943176,2.41066c0.217636,0.885193 0.035995,1.610168 0.035995,2.789169c0,0.779343 0,1.633499 0,2.495667c0,0.940506 0,1.788498 0,2.65184c0,0.895493 0,1.852661 0,2.752838c0,0.785156 0,1.735825 0,2.50116c0,0.998672 0,1.79866 0,2.797333c0,0.765335 0,1.848663 0,2.768005c0,0.669327 -0.016388,1.833679 0.004501,2.437836c0.029526,0.853775 0.20607,1.819504 0.420837,2.610153c0.211456,0.778458 0.340302,1.866531 0.741333,2.785339c0.302261,0.69252 0.781357,1.482681 0.822662,2.210663c0.05603,0.98764 0.010666,1.953339 0.010666,2.904007c0,0.88533 0,1.642502 0,2.537994c0,0.863342 0,1.826508 0,2.74733c0,0.900009 0,1.801346 0,2.766678c0,0.658661 0,1.666656 0,2.494659c0,0.881332 0,1.838669 0,2.570663c0,1.096008 0,1.968002 0,2.868011c0,0.899994 0,1.657166 0,2.557159c0,0.74733 0,1.938339 0,2.685669c0,0.904495 0,1.823837 0,2.657166c0,0.9785 0,1.79866 0,2.636002c0,1.021164 0,1.768494 0,2.763992c0,0.800003 0,1.799835 0,2.579178c0,0.999496 0,1.773499 0,2.673492c0,0.863342 0,1.847336 0,2.834c0,0.76001 0,1.680008 0,2.466003c0,0.822006 -0.039688,1.881973 0.010666,2.800659c0.041794,0.762527 0.560822,1.564377 0.867828,2.568008c0.200699,0.656082 0.119583,1.657333 0.121506,2.431335c0.002258,0.90451 0.038361,1.861862 0.283997,2.645996c0.244736,0.781235 0.687408,1.842728 0.716003,2.70134c0.029953,0.89949 0,1.699997 0,2.599991c0,0.900009 0,1.800003 0,2.699997c0,0.900009 0,1.800003 0,2.700012c0,0.899994 0,1.699982 0,2.600006c0,0.899994 0,1.820831 0,2.783997c0,0.690643 0,1.630646 0,2.615997c0,0.899994 0,1.699982 0,2.53598c0,1.016693 0,1.711334 0,2.728027c0,0.935974 -0.096375,1.859222 0.166672,2.802643c0.190063,0.681671 0.669113,1.32489 0.8125,2.333344c0.138733,0.975739 0.020828,1.710663 0.020828,2.699829c0,0.779327 0,1.778656 0,2.598846c0,0.901337 0,1.801331 0,2.701324c0,0.899994 0,1.799988 0,2.700012c0,0.899994 0,1.799988 0,2.685333c0,0.940002 0,1.630646 0,2.614655c0,0.985321 0,1.710663 0,2.700012c0,0.799988 0,1.799988 0,2.599976c0,0.800018 0,1.795502 0,2.714691c0,0.859985 0,1.806641 0,2.659973c0,0.941345 0,1.709351 0,2.650696c0,1.007996 0,1.763977 0,2.695496c0,0.964478 0,1.689819 0,2.679169c0,0.799988 0,1.799988 0,2.589325c0,1.044006 -0.005402,1.800018 0,2.710663c0.005341,0.900055 0.497696,1.720001 0.833328,2.5c0.306061,0.711273 0.166672,1.657166 0.166672,2.601318c0,0.994171 0,1.741516 0,2.646027c0,0.919312 0,1.794312 0,2.439331c0,1.261505 0,2.052002 0,2.97998c0,0.791687 0,1.744019 0,2.654663c0,0.853333 0,1.793335 0,2.67868c0,0.799988 0,1.700012 0,2.635986c0,0.848022 0,1.711334 0,2.728027c0,0.835999 0,1.736145 0,2.521332c0,0.940002 0,1.947998 0,2.703979c0,0.910675 0,1.82135 0,2.732178c0,0.88916 0,1.878326 0,2.657654c0,0.854187 0,1.68219 0,2.563507c0,0.957336 0,1.689331 0,2.785339c0,0.872009 0,1.772003 0,2.671997c0,0.799988 -0.183746,1.726501 0.035995,2.600006c0.217056,0.862823 0.839066,1.604645 0.964172,2.5c0.126648,0.906464 0.761002,1.437653 0.979004,2.399994c0.198898,0.877991 -0.09584,1.84317 0.242157,2.600159c0.319244,0.714996 0.74881,1.551178 0.777344,2.415833c0.031754,0.962646 0.001328,1.884003 0.001328,2.783997c0,0.901337 0,1.585358 0,2.52536c0,1.007996 0,1.870148 0,2.774658c0,0.899994 0,1.799988 0,2.699982c0,0.900024 0,1.800018 0,2.700012c0,0.799988 -0.098663,1.708496 0.020828,2.520844c0.145309,0.987854 0.667831,1.620148 0.893845,2.595154c0.174454,0.752625 0.085327,1.709351 0.085327,2.717346c0,0.755981 0,1.666656 0,2.56665c0,0.899994 0,1.800018 0,2.700012c0,0.899994 0,1.699982 0,2.657166c0,0.895508 0,1.590149 0,2.606842c0,0.935974 0.158661,1.93335 -0.352661,2.583313c-0.493179,0.626892 -0.80191,1.409882 -1.189011,2.052673c-0.537384,0.892365 -1.351364,1.270142 -1.888992,1.798676c-0.74585,0.733215 -1.273819,1.199066 -2.169342,1.201324c-0.899994,0.002258 -1.810501,-0.132721 -2.699997,0.004486c-0.931381,0.143677 -1.468613,0.847351 -2.399994,0.991028c-0.889496,0.137207 -1.841675,0.004486 -2.842667,0.004486c-0.708008,0 -1.451996,0 -2.486664,0c-0.970673,0 -1.770676,0 -2.67067,0c-0.900009,0 -1.668457,0.144104 -2.352676,0.647339c-0.666199,0.48999 -1.647324,0.352661 -2.468155,0.352661c-0.963165,0 -1.826508,0 -2.722,0c-0.957169,0 -1.857178,0 -2.757172,0c-0.800003,0 -1.70845,-0.098511 -2.520828,0.020844c-0.989151,0.145325 -1.667664,0.638702 -2.679001,0.857666c-0.768021,0.16629 -1.778671,0.12149 -2.495667,0.12149c-0.90451,0 -1.825333,0 -2.788498,0c-0.690674,0 -1.758835,0 -2.616013,0c-0.899994,0 -1.699997,0 -2.571991,0c-1.097336,0 -1.848831,0 -2.64534,0c-0.996002,0 -1.849838,0.161072 -2.79599,-0.001343c-0.838715,-0.143951 -1.242538,-0.970062 -2.186676,-0.998657c-0.899582,-0.027252 -1.800171,0 -2.585327,0c-0.940002,0 -1.947998,0 -2.635498,0c-1.022003,0 -1.740509,0 -2.531006,0c-1.026505,0 -1.906494,0 -2.926834,0c-0.774002,0 -1.673996,0 -2.537338,0c-0.963165,0 -1.883987,0 -2.788498,0c-0.862167,0 -1.695496,0 -2.674164,0c-0.774002,0 -1.682999,0 -2.483002,0c-0.959503,0 -1.752991,0 -2.528503,0c-1.195496,0 -2.109833,0 -3.009827,0c-0.800003,0 -1.699997,0 -2.600006,0c-0.920822,0 -1.749802,-0.181458 -2.538666,0.036011c-0.943176,0.259979 -1.570099,0.925385 -2.378662,0.962646c-0.961075,0.044281 -1.713791,0.477844 -2.582672,0.880005c-0.662018,0.306427 -1.43718,0.868286 -2.299988,1.085327c-0.87352,0.219757 -1.821884,-0.055298 -2.766678,0.202667c-0.701843,0.19162 -1.511948,0.594635 -2.514664,0.749329c-0.772385,0.119141 -1.478531,0.145508 -2.362335,0.731354c-0.672302,0.445648 -1.148041,1.145874 -1.756332,1.784668c-0.662598,0.695801 -1.162338,1.333099 -1.720825,2.067993c-0.504578,0.663971 -1.179169,1.200012 -1.879166,1.899994c-0.600006,0.600006 -1.009644,1.304413 -1.585342,1.989349c-0.587868,0.699432 -1.594864,0.692841 -1.953331,1.471985c-0.41729,0.907013 -0.808197,1.665955 -1.02533,2.538666c-0.217476,0.874054 -0.036003,1.800018 -0.036003,2.700012c0,0.899994 0,1.657166 0,2.552673c0,0.863312 0,1.826477 0,2.747314c0,0.90451 0,1.766663 0,2.600006c0,0.978485 0,1.798676 0,2.700012c0,0.899994 0,1.820831 0,2.621307c0,0.853333 0,1.793335 0,2.779022c0,0.713989 0,1.667664 0,2.399658c0,1.166656 0,1.958344 0,2.899994c0,0.899994 -0.209129,1.879639 0.221497,2.699829c0.33783,0.643433 1.378502,0.889496 2.278503,0.900177c0.899994,0.010681 1.608566,0.449738 2.5,0.833344c0.711288,0.306061 1.652664,0.166656 2.516006,0.166656c0.963165,0 1.859497,-0.171936 2.68399,0.285339c0.692047,0.38382 1.218872,1.365662 2,1.629333c0.856567,0.289124 1.800003,0.085327 2.600006,0.085327c0.899994,0 1.800003,0 2.720825,0c0.964508,0 1.689835,0 2.679337,0c0.820663,0 1.966507,0 2.752502,0c0.822006,0 1.363327,0 2.585663,0c0.800003,0 1.713501,0 2.794998,0c0.672012,0 1.416,0 2.523834,0c0.891006,0 1.795502,0 2.658844,0c0.963165,0 1.783997,0 2.68399,0c0.900009,0 1.800003,0 2.600006,0c0.899994,0 1.835999,0 2.68399,0c0.863342,0 1.880005,0 2.716003,0c0.900009,0 1.800003,0 2.557175,0c0.899994,0 1.844162,0 2.842834,0c0.799988,0 1.799988,0 2.599991,0c1,0 1.800003,0 2.800003,0c0.800003,0 1.600006,0 2.595505,0c0.74733,0 1.660828,0 2.459167,0c1,0 1.642654,0 2.70166,0c1.076996,0 1.759674,0 2.743668,0c0.652664,0 1.666672,0 2.75267,0c0.74733,0 1.494659,0 2.580658,0c1.000504,0 1.604172,0 2.833344,0c0.8125,0 1.654663,0 2.507996,0c0.940002,0 1.825333,0 2.625336,0c0.899994,0 1.835999,0 2.68399,0c0.863342,0 1.880005,0 2.717346,0c0.965332,0 1.645325,0 2.485321,0c0.996002,0 1.792511,0 2.980011,0c0.682663,0 1.666656,0 2.594666,0c0.790497,0 1.819046,-0.042938 2.491989,0.010681c1.087753,0.08667 1.69899,0.617493 2.568008,0.867828c0.826874,0.23819 1.794662,0.12149 2.562668,0.12149c0.951996,0 1.717331,0 2.711502,0c0.919159,0 1.904495,0 2.725998,0c0.88916,0 1.878494,0 2.678497,0c1,0 1.789337,0 2.514664,0c0.985336,0 1.972,0 2.73201,0c0.919998,0 1.705994,0 2.528,0c1.058655,0 1.989334,0 2.82399,0c1.005844,0 1.637329,0 2.82283,0c0.814499,0 1.389175,0 2.578506,0c0.895493,0 1.764008,0 2.833328,0c0.705002,0 1.505005,0 2.53067,0c0.940506,0 1.802658,0 2.677658,0c0.64502,0 1.642334,0 2.458344,0c0.81601,0 2.03833,0 2.838348,0c0.917999,0 1.716339,0.006683 2.714996,-0.001343c0.633392,-0.005096 1.653259,-0.003052 2.613312,-0.165314c0.832458,-0.140686 1.533508,-0.468903 2.5,-0.666687c0.777496,-0.159119 1.607971,-0.161316 2.666687,-0.166656c0.941315,-0.004761 1.619324,0 2.850647,0c0.81601,0 1.363342,0 2.632019,0c0.68399,0 1.850647,0 2.641144,0c0.56369,0 1.444183,0 2.642853,0c0.899994,0 1.5,0 2.699829,0c0.889496,0 1.464203,0.006073 2.533508,0c0.941345,-0.005341 1.628998,-0.009796 2.849335,-0.283997c0.537048,-0.120667 1.285797,-0.471924 2.502991,-0.658844c0.905518,-0.139069 1.851868,0.114319 2.614319,-0.142487c0.798157,-0.268829 1.497742,-1.063843 2.241669,-1.393829c0.627686,-0.278412 1.640869,-0.457977 2.458344,-0.5c0.815155,-0.041931 1.819305,0.039673 2.689331,-0.056854c1.021088,-0.113281 1.763641,-0.541077 2.644012,-0.797333c0.775024,-0.225616 1.830048,-0.114136 2.571167,-0.223816c1.012604,-0.149841 1.625275,-0.487946 2.36615,-0.658844c1.184143,-0.273132 1.890961,-0.255005 2.614685,-0.309326c0.732269,-0.054962 2.130768,-0.252289 2.778656,-0.399994c0.933624,-0.21283 1.832825,-0.437836 2.72699,-0.517517c0.834991,-0.074402 1.775665,-0.057159 2.723663,-0.057159c0.869354,0 1.732666,0 2.628174,0c0.958496,0 1.923828,0 2.59317,0c1.164001,0 1.768494,0 2.621155,0c0.964355,0 1.778839,0 2.647339,0c1.195343,0 1.791016,0 2.659515,0c1.069336,0 2.021332,0 2.745819,0c1.132843,0 1.795502,0 2.490173,0c1.032013,0 1.957336,0 2.749329,0c1.018677,0 1.893158,0 2.890686,0c0.673309,0 1.862671,0.056305 2.673309,-0.010681c1.028381,-0.084961 1.692535,-0.356293 2.472015,-0.563995c1.04306,-0.277924 1.756348,-0.392578 2.610168,-0.420837c1.002625,-0.033173 1.768494,-0.004486 2.856323,-0.004486c0.717499,0 1.75351,0 2.497498,0c0.917328,0 1.829346,0 2.750671,0c0.899994,0 1.804504,0 2.666656,0c0.854187,0 1.833344,0 2.633331,0c0.800018,0 1.804504,0 2.657166,0c0.964172,0 1.768188,0 2.590179,0c1.031342,0 1.727325,0 2.636658,0c1,0 1.81601,0 2.632019,0c0.998657,0 1.873322,0 2.88382,0c0.779327,0 1.778656,0 2.598846,0c0.901337,0 1.837311,0 2.685333,0c0.863312,0 1.763336,0 2.682648,0c0.833344,0 1.811829,0 2.632019,0c0.901337,0 1.837311,0 2.686646,0c0.725342,0 1.913361,0 2.67868,0c0.950653,0 1.835999,0 2.59317,0c0.895508,0 1.75882,0 2.742828,0c0.986664,0 1.746674,0 2.666656,0c0.786011,0 1.608002,0 2.666687,0c0.919983,0 1.679993,0 2.645813,0c0.920837,0 1.820831,0 2.720856,0c0.899994,0 1.799988,0 2.557159,0c0.895508,0 1.75882,0 2.721985,0c0.920837,0 1.820831,0 2.720856,0c0.899994,0 1.799988,0 2.599976,0c0.900024,0 1.835999,0 2.684021,0c0.863312,0 1.75882,0 2.716003,0c0.899994,0 1.799988,0 2.599976,0c0.900024,0 1.800018,0 2.700012,0c0.899994,0 1.804504,0 2.666656,0c0.833344,0 1.811829,0 2.632019,0c0.901337,0 1.801331,0 2.701324,0c0.899994,0 1.799988,0 2.700012,0c0.899994,0 1.799988,0 2.599976,0c0.900024,0 1.867554,0.077301 2.600006,-0.436005c0.790222,-0.553802 1.209625,-1.203125 2.084015,-1.764008c0.671783,-0.430939 1.518921,-0.871552 2.105316,-1.399994c0.738617,-0.665649 1.098663,-1.476685 1.520508,-2.100006c0.571259,-0.844086 1.561157,-0.981201 1.868835,-1.899994c0.286102,-0.85434 0.524628,-1.636353 0.854675,-2.56665c0.282867,-0.797302 0.140686,-1.667084 0.166656,-2.528839c0.028595,-0.948608 0.856384,-1.356323 1,-2.304504c0.119812,-0.790955 0,-1.700012 0,-2.600006c0,-0.899994 0,-1.799988 0,-2.699982c0,-0.900024 0,-1.800018 0,-2.700012c0,-0.799988 0,-1.700012 0,-2.520844c0,-0.963165 0,-1.826477 0,-2.726501c0,-0.919312 0,-1.752655 0,-2.73114c0,-0.82019 -0.03125,-1.777161 0.436005,-2.421509c0.566406,-0.781067 1.319702,-1.326996 1.506836,-2.252686c0.138031,-0.682831 0.057159,-1.711334 0.057159,-2.651825c0,-0.862152 0.183014,-1.760712 -0.221497,-2.673828c-0.331268,-0.747772 -1.370331,-0.977112 -1.730347,-1.72699c-0.328308,-0.683807 -1.106781,-1.152863 -1.8815,-1.461334c-0.814545,-0.32431 -1.405792,-1.239014 -2.052002,-1.548004c-0.88913,-0.425171 -1.742188,-0.287445 -2.710144,-0.642517c-0.773682,-0.283813 -1.46347,-0.937225 -2.157166,-1.285645c-0.847778,-0.425812 -1.771515,-0.249451 -2.747345,-0.378021c-0.838196,-0.110413 -1.658356,-0.601044 -2.478485,-0.857819c-0.806885,-0.252655 -1.559448,-0.868408 -2.43219,-1.085327c-0.884613,-0.219879 -1.610168,-0.036011 -2.589325,-0.036011c-0.799988,0 -1.600006,0 -2.604492,0c-0.852661,0 -1.816833,0 -2.62085,0c-0.821991,0 -1.853149,0 -2.753815,0c-1.020844,0 -1.842163,0 -2.535187,0c-1.128143,0 -1.786499,0 -2.798981,0c-0.633331,0 -1.819672,0 -2.853333,0c-0.669342,0 -1.434662,0 -2.622681,0c-0.725342,0 -1.731506,0 -2.544006,0c-0.927979,0 -1.718475,0 -2.744995,0c-0.880005,0 -1.755005,0 -2.546997,0c-1.027344,0 -1.721985,-0.000092 -2.749329,0c-0.946838,0.000092 -1.661957,-0.061188 -2.625336,0.166656c-0.80835,0.191193 -1.822357,0.731995 -2.5,0.8125c-0.977356,0.116119 -1.850922,-0.055389 -2.747345,0.02533c-0.929749,0.08371 -1.545227,0.513702 -2.585999,0.828857c-0.73877,0.223724 -1.666656,0.166656 -2.56665,0.166656c-0.90451,0 -1.766663,0 -2.600006,0c-0.978485,0 -1.798676,0 -2.757172,0c-0.895508,0 -1.590149,-0.000092 -2.617493,0c-0.946838,0.000092 -1.848267,-0.023804 -2.625336,0.166656c-0.806763,0.197723 -1.821869,0.739868 -2.589325,0.822662c-0.926208,0.099915 -1.737122,-0.053436 -2.621338,0.046692c-1,0.113251 -1.741211,0.54483 -2.622681,0.797333c-0.843353,0.241608 -1.708313,0.166656 -2.70932,0.166656c-0.708008,0 -1.451996,0 -2.643005,0c-0.814331,0 -1.614319,0 -2.571503,0c-0.899994,0 -1.647339,0 -2.642822,0c-0.800018,0 -1.800018,0 -2.600006,0c-1,0 -1.789337,0 -2.833344,0c-0.862152,0 -1.666656,0 -2.577332,0c-0.910645,0 -1.769562,-0.099823 -2.705322,0.002655c-0.781494,0.085602 -1.514465,0.73819 -2.094666,1.146667c-0.949371,0.668396 -1.788696,0.829834 -2.789337,0.850677c-0.789154,0.016418 -1.514679,0 -2.5,0c-0.985321,0 -1.710754,-0.012726 -2.700012,0.000153c-0.800201,0.010406 -1.802887,0.157623 -2.610657,0.425171c-0.648895,0.214905 -1.60791,0.482269 -2.403992,0.538666c-1.014038,0.071838 -1.972351,-0.013306 -2.885498,0.036163c-0.788635,0.042725 -1.706909,0.473145 -2.415833,0.715851c-0.963684,0.329926 -1.805328,0.283997 -2.658661,0.283997c-0.942688,0 -1.794678,0 -2.830688,0c-0.743988,0 -1.661316,0 -2.609314,0c-0.869354,0 -1.732666,0 -2.628174,0c-0.957184,0 -1.857178,0 -2.757172,0c-0.757172,0 -1.652679,0 -2.515991,0c-0.963165,0 -1.905334,0 -2.817352,0c-0.671997,0 -1.661316,0 -2.698669,0c-0.773315,0 -1.735992,0 -2.467987,0c-0.731995,0 -1.828003,0 -2.799988,0c-0.900024,0 -1.800018,0 -2.700012,0c-0.799988,0 -1.700012,0 -2.600006,0c-0.899994,0 -1.810669,0 -2.721313,0c-0.853333,0 -1.809479,0.086609 -2.562683,-0.085327c-0.794891,-0.181458 -1.637085,-0.708557 -2.358826,-1.210175c-0.762665,-0.530029 -1.557159,-0.703827 -2.457184,-0.704498c-0.899994,-0.000671 -1.821136,0.023468 -2.783997,-0.001343c-0.691284,-0.017822 -1.663391,-0.243225 -2.314667,-0.799988c-0.741364,-0.633789 -1.507538,-1.079224 -2.401337,-1.200012c-0.80954,-0.109406 -1.454803,-0.788818 -2.299988,-0.977814c-0.879272,-0.196625 -1.704132,-0.587524 -2.100006,-1.206177c-0.50528,-0.789642 -1.197784,-1.291595 -1.87915,-1.814667c-0.631195,-0.484528 -0.467987,-1.534729 -0.873505,-2.299988c-0.448334,-0.846039 -0.646667,-1.585358 -0.647339,-2.52536c-0.000732,-1.007996 0,-1.763977 0,-2.674652c0,-0.899994 0.136566,-1.856628 -0.283997,-2.700012c-0.329926,-0.661621 -0.713745,-1.5 -0.716003,-2.399994c-0.002228,-0.899994 0,-1.810669 0,-2.721313c0,-0.853333 0.084625,-1.809021 -0.085327,-2.562683c-0.179047,-0.793884 -0.736633,-1.608246 -0.878662,-2.490662c-0.150543,-0.935303 -0.036011,-1.799988 -0.036011,-2.73999c0,-0.885345 0.018005,-1.685516 0,-2.585358c-0.018005,-0.900543 -0.548584,-1.636505 -0.915985,-2.501312c-0.389984,-0.917938 -0.561554,-1.604309 -0.800018,-2.314667c-0.352478,-1.050018 -0.283997,-1.984009 -0.283997,-2.884003c0,-0.899994 0,-1.800018 0,-2.700165c0,-0.785187 0,-1.73584 0,-2.50116c0,-0.994171 0,-1.741516 0,-2.773346c0,-0.946838 0,-1.646179 0,-2.625336c0,-0.789337 0,-1.833344 0,-2.625336c0,-0.858673 0,-1.721985 0,-2.76001c0,-0.947998 0,-1.619995 0,-2.363983c0,-1.107666 0,-2.048004 0,-2.950684c0,-0.899994 0,-1.799988 0,-2.604492c0,-1.016815 0,-1.695496 0,-2.674164c0,-0.905334 0,-1.85733 0,-2.62265c0,-0.994171 0,-1.741516 0,-2.773346c0,-0.946655 0,-1.625336 0,-2.603821c0,-1.021515 0,-1.821503 0,-2.657501c0,-0.848022 0,-1.711334 0,-2.728027c0,-0.935974 0,-1.835999 0,-2.736145c0,-0.785187 0,-1.725189 0,-2.415833c0,-1.073334 0,-1.984009 0,-2.884003c0,-0.899994 0,-1.800018 0,-2.700165c0,-0.785187 0,-1.725189 0,-2.415833c0,-1.073334 0,-1.984009 0,-2.884003c0,-0.899994 0,-1.800018 0,-2.700165c0,-0.785187 0,-1.73584 0,-2.50116c0,-0.994171 0,-1.741516 0,-2.762695c0,-0.837311 0,-1.802643 0,-2.635986c0,-0.978485 0,-1.798676 0,-2.635986c0,-0.849335 0,-1.768524 0,-2.762695c0,-0.76532 0.004364,-1.717316 0,-2.485321c-0.005341,-0.941376 -0.125488,-1.9729 -0.520844,-2.615997c-0.526276,-0.856049 -1.071075,-1.461243 -1.357666,-2.478485c-0.197021,-0.69928 0.045837,-1.641174 -0.142334,-2.521515c-0.181396,-0.848633 -1.073822,-1.42337 -1.543152,-2.100006c-0.515198,-0.742798 -0.436005,-1.721313 -0.436005,-2.574646c0,-0.940002 0,-1.825348 0,-2.625336c0,-0.900024 0,-1.800018 0,-2.700012c0,-0.899994 0,-1.804504 0,-2.666656c0,-0.833344 0,-1.811829 0,-2.632019c0,-0.901337 0,-1.801331 0,-2.701324c0,-0.910675 0,-1.82132 0,-2.674652c0,-0.940002 0,-1.825348 0,-2.625336c0,-0.900024 0,-1.800018 0,-2.700012c0,-0.899994 0.198059,-1.822388 -0.001343,-2.698669c-0.183044,-0.804291 -1.298645,-0.801331 -2.198669,-0.801331c-0.899994,0 -1.799988,0 -2.599976,0c-0.900024,0 -1.800018,0 -2.700012,0c-0.899994,0 -1.799988,0 -2.700012,0c-0.899994,0 -1.799988,0 -2.599976,0c-0.900024,0 -1.821289,-0.088837 -2.398682,0.569336c-0.593353,0.676392 -0.676056,1.680115 -0.802673,2.630676c-0.107849,0.809753 -0.652191,1.607544 -1.498657,1.779144c-0.959656,0.194519 -1.331573,-0.609619 -1.520828,-1.479156c-0.184189,-0.846283 -0.894135,-1.487396 -0.977844,-2.299988c-0.092224,-0.895294 -0.001328,-1.800018 -0.001328,-2.700012c0,-0.899994 0,-1.800003 0,-2.699997c0,-0.900009 0.185745,-1.842514 -0.085327,-2.600006c-0.322464,-0.901108 -1.304596,-1.280106 -1.748001,-2.199997c-0.311996,-0.647263 -0.166672,-1.600006 -0.166672,-2.5c0,-0.899994 0,-1.800003 0,-2.699997c0,-0.900177 0,-1.685333 0,-2.625336c0,-1.007996 0,-1.764008 0,-2.674667c0,-0.899994 0,-1.800003 0,-2.699997c0,-0.900009 0,-1.800003 0,-2.600006c0,-0.899994 0,-1.800003 0,-2.699997c0,-0.899994 0,-1.800003 0,-2.699997c0,-0.900009 0,-1.800003 0,-2.685333c0,-0.940002 0.117722,-1.640259 -0.020828,-2.61467c-0.143402,-1.008438 -0.667831,-1.640991 -0.893845,-2.615997c-0.174469,-0.752625 -0.085327,-1.709335 -0.085327,-2.717331c0,-0.756012 0,-1.6875 0,-2.650665c0,-0.690674 0,-1.630676 0,-2.616013c0,-0.899994 0,-1.657166 0,-2.552658c0,-0.863342 0,-1.847336 0,-2.831329c0,-0.690674 0,-1.630676 0,-2.616013c0,-0.899994 0,-1.699997 0,-2.599991c0,-0.900009 0,-1.820831 0,-2.783997c0,-0.690674 0,-1.630676 0,-2.616013c0,-0.899994 0,-1.657166 0,-2.552658c0,-0.863342 0,-1.826508 0,-2.74733c0,-0.900009 0,-1.800003 0,-2.70018c0,-0.785156 0,-1.725159 0,-2.733154c0,-0.756012 0,-1.6875 0,-2.650665c0,-0.690674 0,-1.630676 0,-2.616013c0,-0.899994 0,-1.699997 0,-2.535995c0,-1.016663 0,-1.711334 0,-2.727997c0,-0.940506 0,-1.802673 0,-2.636002c0,-0.9785 0,-1.79866 0,-2.699997c0,-0.936005 0,-1.783997 0,-2.647339c0,-0.895493 0,-1.852661 0,-2.75267c0,-0.899994 0,-1.699997 0,-2.599991c0,-0.900009 0.002243,-1.800003 0,-2.699997c-0.002258,-0.900024 -0.336899,-1.631256 -0.716003,-2.400009c-0.416809,-0.8452 -0.283997,-1.800003 -0.283997,-2.699997c0,-0.91066 0.057938,-1.825607 -0.020828,-2.5c-0.115875,-0.992081 -0.789047,-1.649796 -0.968506,-2.600006c-0.167038,-0.884415 -0.010666,-1.799988 -0.010666,-2.699997c0,-0.899994 0,-1.800003 0,-2.699997c0,-0.757172 0,-1.652664 0,-2.516006c0,-0.963165 0,-1.883987 0,-2.783997c0,-0.901337 0,-1.585327 0,-2.535995c0,-0.765335 0.010147,-1.759567 0,-2.678665c-0.010422,-0.943832 -0.77478,-1.421936 -0.995499,-2.189835c-0.247375,-0.860664 -0.004501,-1.795502 -0.004501,-2.695503c0,-0.900002 0,-1.799995 0,-2.700165c0,-0.785164 0,-1.725166 0,-2.73317c0,-0.755997 0,-1.6875 0,-2.650665c0,-0.690666 0.149338,-1.813286 -0.221329,-2.615997c-0.308487,-0.668068 -0.773331,-1.499954 -0.778671,-2.400002c-0.005325,-0.899986 0,-1.800003 0,-2.699997c0,-0.900002 0,-1.800003 0,-2.600006c0,-0.899994 0.010666,-1.800056 0,-2.699997c-0.010666,-0.900192 -0.498688,-1.533394 -1.149338,-2.136002c-0.671997,-0.622375 -0.839996,-1.538483 -0.850662,-2.478668c-0.01004,-0.885277 0,-1.685333 0,-2.585327c0,-0.900002 0.002243,-1.800003 0,-2.700005c-0.002258,-0.900009 -0.386078,-1.73835 -0.716003,-2.400002c-0.420547,-0.843361 -0.283997,-1.799995 -0.283997,-2.699997c0,-0.900002 0,-1.800003 0,-2.699997c0,-0.900002 0,-1.800003 0,-2.600006c0,-0.899994 0,-1.799995 0,-2.62133c0,-0.912003 0,-1.82933 0,-2.573334c0,-1.036003 0,-1.888 0,-2.830666c0,-0.690666 0,-1.764 0,-2.674667c0,-0.900002 0,-1.800003 0,-2.699997c0,-0.900002 -0.286438,-1.914368 0.166672,-2.633339c0.444305,-0.705002 0.827988,-1.351952 0.833328,-2.281334c0.005081,-0.885315 0,-1.685333 0,-2.585331c0,-0.899998 0,-1.799999 0,-2.710667c0,-0.910667 0,-1.764 0,-2.703999c0,-0.885334 0,-1.685333 0,-2.585335c0,-0.899998 0,-1.799999 0,-2.700001c0,-0.899998 0,-1.799999 0,-2.699997c0,-0.900002 0,-1.700001 0,-2.600002c0,-0.899998 -0.052902,-1.834736 0.352661,-2.599998c0.448303,-0.84589 0.647339,-1.700001 0.647339,-2.5c0,-0.900002 0,-1.799999 0,-2.610668c0,-0.910667 0,-1.764 0,-2.703999c0,-0.985332 0,-1.885334 0,-2.685333c0,-0.900002 -0.035995,-1.764 -0.704498,-2.195499l-0.895508,-0.004501" fill="#ffffff" id="svg_3" stroke="#000000" stroke-dasharray="null" stroke-linecap="null" stroke-linejoin="null" stroke-width="5"/>
 </g>
</svg>