<?xml version="1.0" encoding="utf-8"?>
<!-- Generator: Adobe Illustrator 23.0.0, SVG Export Plug-In . SVG Version: 6.00 Build 0)  -->
<svg version="1.1" id="Слой_1" xmlns="http://www.w3.org/2000/svg" xmlns:xlink="http://www.w3.org/1999/xlink" x="0px" y="0px"
	 viewBox="0 0 912 320" style="enable-background:new 0 0 912 320;" xml:space="preserve">
<path d="M209,229.6c-3.7,0-6.6,3-6.6,6.6s3,6.6,6.6,6.6s6.6-3,6.6-6.6S212.6,229.6,209,229.6z M209,248.4c-1.5,0-2.8,1.3-2.8,2.8
	c0,1.5,1.3,2.8,2.8,2.8s2.8-1.3,2.8-2.8C211.8,249.7,210.5,248.4,209,248.4z M216.4,257v22.7c6.6-1.1,12.8-3.7,18.1-7.5l-16.1-16.1
	C217.8,256.5,217.1,256.8,216.4,257L216.4,257z M228.9,245.7l16.1,16.1c3.7-5.3,6.4-11.4,7.5-18.1h-22.7
	C229.5,244.4,229.2,245,228.9,245.7L228.9,245.7z M228.9,226.8c0.3,0.6,0.6,1.3,0.8,2h22.7c-1.1-6.6-3.7-12.8-7.5-18.1L228.9,226.8z
	 M199.6,216.3c0.6-0.3,1.3-0.6,2-0.8v-22.7c-6.6,1.1-12.8,3.7-18.1,7.5L199.6,216.3z M209,164c-39.9,0-72.2,32.3-72.2,72.2
	s32.3,72.2,72.2,72.2c39.9,0,72.2-32.3,72.2-72.2S248.9,164,209,164L209,164z M209,287.8c-28.5,0-51.6-23.1-51.6-51.6
	c0-28.5,23.1-51.6,51.6-51.6s51.6,23.1,51.6,51.6C260.6,264.7,237.5,287.8,209,287.8L209,287.8z M209,224.1c1.5,0,2.8-1.3,2.8-2.8
	c0-1.5-1.3-2.8-2.8-2.8c-1.5,0-2.8,1.3-2.8,2.8C206.2,222.8,207.4,224.1,209,224.1z M234.5,200.3c-5.3-3.7-11.4-6.4-18.1-7.5v22.7
	c0.7,0.2,1.3,0.5,2,0.8L234.5,200.3z M189.1,226.8L173,210.8c-3.7,5.3-6.4,11.4-7.5,18.1h22.7C188.5,228.1,188.7,227.5,189.1,226.8z
	 M183.5,272.2c5.3,3.7,11.4,6.4,18.1,7.5V257c-0.7-0.2-1.3-0.5-2-0.8L183.5,272.2z M188.2,243.7h-22.7c1.1,6.6,3.7,12.8,7.5,18.1
	l16.1-16.1C188.7,245,188.5,244.4,188.2,243.7z M196.8,236.3c0-1.5-1.3-2.8-2.8-2.8s-2.8,1.3-2.8,2.8s1.3,2.8,2.8,2.8
	C195.6,239.1,196.8,237.8,196.8,236.3z M221.1,236.3c0,1.5,1.3,2.8,2.8,2.8s2.8-1.3,2.8-2.8s-1.3-2.8-2.8-2.8
	C222.4,233.4,221.1,234.7,221.1,236.3z M768.6,229.6c-3.7,0-6.6,3-6.6,6.6s3,6.6,6.6,6.6s6.6-3,6.6-6.6S772.3,229.6,768.6,229.6z
	 M759.2,216.3c0.6-0.3,1.3-0.6,2-0.8v-22.7c-6.6,1.1-12.8,3.7-18.1,7.5L759.2,216.3z M768.6,248.4c-1.5,0-2.8,1.3-2.8,2.8
	c0,1.5,1.3,2.8,2.8,2.8s2.8-1.3,2.8-2.8C771.4,249.7,770.2,248.4,768.6,248.4z M776.1,257v22.7c6.6-1.1,12.8-3.7,18.1-7.5
	l-16.1-16.1C777.4,256.5,776.7,256.8,776.1,257L776.1,257z M789.4,243.7c-0.2,0.7-0.5,1.3-0.8,2l16.1,16.1
	c3.7-5.3,6.4-11.4,7.5-18.1L789.4,243.7L789.4,243.7z M894.3,152.3c-9.8-15-34.9-20.2-54-26.5C706.8,93.5,662.4,104,640.1,100.9
	c-4.5-1.2-8.5-5.1-12.2-7.4c-8.1-5-16.4-9.4-24.4-14.3c-13.1-8-73.7-41.1-90-47.1c-36-13.1-92.8-23.7-229.8-12.7
	c-5.6-1.5-8.9-6-14.8-7.4c-5.8-1.4-11.2,1.7-15.4,2.6c0.1,4.5-0.3,8.1-1.1,11.6c-26.8,11.3-53.9,20-80.5,31.2
	c-11.1,4.7-22.6,9.3-33.9,14.3c-7,3.1-13.8,7.5-21.7,10.1c-8.6,2.8-18.1,1.5-27.5,3.7c-17.3,4-36,4.5-55.1,4.8
	c-2.2,3.7-6,7.5-6.9,12.2c3.3,1,4.4,3.3,4.2,7.9c-5.8,8.7-4.3,21-4.2,34.9c-12.4,6.4-14.3,29.7-11.1,48.2l-1.1,4.8
	c0.7,5.2,2.4,10.7,2.6,16.4c4.7,3.1,10,8.2,13.2,12.7c1.6,2.2,2.4,6,5.3,6.9c15.6,11.4,94.8,13.8,94.8,13.8l4.2,0.2
	c-0.6-3.9-1-8-1-12.1c0-41.5,33.6-75.1,75.1-75.1c41.5,0,75.1,33.6,75.1,75.1c0,7-1,18.3-2.7,24.7l416.1-0.7
	c-2.5-7.5-3.9-15.6-3.9-23.9c0-41.5,33.6-75.1,75.1-75.1s75.1,33.6,75.1,75.1c0,7.3-1,14.3-3,20.9l4.3-0.1c0,0,32.8-1.6,40.8-5.3
	c8-3.7,11.1-14.3,11.1-14.3l-2.1-22.2C894.8,215.3,904.6,168.1,894.3,152.3L894.3,152.3z M229.7,97.7
	c-24.9-16.5-11.7-35.8-12.4-35.8c-0.4,0.4-0.7,0.6-0.9,0.8c0.5-0.6,0.8-0.8,0.9-0.8c6.4-5.7,43-31.3,172.8-31.5
	c4.1,22.8,8.1,52.7,12.2,75.4C350.1,104.3,247.3,105.2,229.7,97.7L229.7,97.7z M564.4,106.2c-11.4,0-125,0-125,0
	S421.1,57.8,414.5,31c0.8,0.1,23.3,1.1,23.3,1.1s44.6,5.1,72.5,14.3c22,7.3,65.4,36.4,66.2,38.1C563.5,85.2,560.4,95.4,564.4,106.2
	L564.4,106.2z M768.6,164c-39.9,0-72.2,32.3-72.2,72.2s32.3,72.2,72.2,72.2s72.2-32.3,72.2-72.2S808.5,164,768.6,164z M768.6,287.8
	c-28.5,0-51.6-23.1-51.6-51.6c0-28.5,23.1-51.6,51.6-51.6c28.5,0,51.6,23.1,51.6,51.6C820.2,264.7,797.1,287.8,768.6,287.8
	L768.6,287.8z M748.7,226.8l-16.1-16.1c-3.7,5.3-6.4,11.4-7.5,18.1h22.7C748.1,228.1,748.4,227.5,748.7,226.8z M756.5,236.3
	c0-1.5-1.3-2.8-2.8-2.8c-1.5,0-2.8,1.3-2.8,2.8s1.3,2.8,2.8,2.8C755.2,239.1,756.5,237.8,756.5,236.3z M768.6,224.1
	c1.5,0,2.8-1.3,2.8-2.8c0-1.5-1.3-2.8-2.8-2.8s-2.8,1.3-2.8,2.8C765.8,222.8,767.1,224.1,768.6,224.1z M794.1,200.3
	c-5.3-3.7-11.4-6.4-18.1-7.5v22.7c0.7,0.2,1.3,0.5,2,0.8L794.1,200.3z M780.8,236.3c0,1.5,1.3,2.8,2.8,2.8c1.5,0,2.8-1.3,2.8-2.8
	s-1.3-2.8-2.8-2.8C782,233.4,780.8,234.7,780.8,236.3z M743.1,272.2c5.3,3.7,11.4,6.4,18.1,7.5V257c-0.7-0.2-1.3-0.5-2-0.8
	L743.1,272.2z M747.9,243.7h-22.7c1.1,6.6,3.7,12.8,7.5,18.1l16.1-16.1C748.4,245,748.1,244.4,747.9,243.7z M789.4,228.8h22.7
	c-1.1-6.6-3.7-12.8-7.5-18.1l-16.1,16.1C788.9,227.5,789.1,228.1,789.4,228.8L789.4,228.8z"/>
</svg>
