<?xml version="1.0" encoding="utf-8"?>
<!-- Generator: Adobe Illustrator 23.0.0, SVG Export Plug-In . SVG Version: 6.00 Build 0)  -->
<svg version="1.1" id="Слой_1" xmlns="http://www.w3.org/2000/svg" xmlns:xlink="http://www.w3.org/1999/xlink" x="0px" y="0px"
	 viewBox="0 0 360.9 103.3" style="enable-background:new 0 0 360.9 103.3;" xml:space="preserve">
<style type="text/css">
	.st0{fill:#AD751D;}
	.st1{fill:#975E30;}
	.st2{fill:#FFCCAA;}
</style>
<g transform="translate(-8.4314 -682.84)">
	<g>
	</g>
	<path class="st0" d="M57.7,682.8h266.6c0.5,0,0.7,0.2,0.9,0.5l43.7,75.2H8.9L57.7,682.8L57.7,682.8L57.7,682.8z"/>
	<path class="st1" d="M8.9,777.5h360c0.3-0.2,0.6-0.5,0.5-1v-16.7l-0.6-1.4H9l-0.5,1.5v16.6C8.5,776.9,8.6,777.4,8.9,777.5
		L8.9,777.5z"/>
	<g>
		<path class="st2" d="M8.6,760l359.9,0.1l0.7-0.2l0.1-0.3l-0.6-1.2H8.9l-0.4,0.8C8.4,759.5,8.6,759.7,8.6,760L8.6,760z"/>
	</g>
</g>
<rect x="32.9" y="94.7" width="30.4" height="8.6"/>
<rect x="299.6" y="94.7" width="30.4" height="8.6"/>
</svg>
